
<svg version="1.1" xmlns="http://www.w3.org/2000/svg" xmlns:xlink="http://www.w3.org/1999/xlink" x="0px" y="0px"
	 viewBox="0 0 1920.24 1165.2" style="enable-background:new 0 0 1920.24 1165.2;" xml:space="preserve">
<style type="text/css">
	.st0{fill:none;stroke:#1B1B6D;stroke-width:1.4879;stroke-miterlimit:10;}
	.st1{fill:#FFFFFF;stroke:#1B1B6D;stroke-miterlimit:10;}
	.st2{fill:none;stroke:#1B1B6D;stroke-width:2;stroke-miterlimit:10;}
	.st3{fill:none;stroke:#1B1B6D;stroke-width:1.3987;stroke-miterlimit:10;}
	.st4{fill:#C63C3C;stroke:#7F2929;stroke-width:0.9032;stroke-miterlimit:10;}
	.st5{fill:#C63C3C;stroke:#7F2929;stroke-width:0.655;stroke-miterlimit:10;}
	.st6{fill:#FFFFFF;stroke:#1B1B6D;stroke-width:0.9032;stroke-miterlimit:10;}
	.st7{fill:none;stroke:#1B1B6D;stroke-width:34;stroke-miterlimit:10;}
	.st8{fill:#1B1B6D;}
</style>
<g id="paths">
	<polyline class="st0" points="858.75,275.24 858.75,306.98 608.75,306.98 608.75,275.24 	"/>
	<line class="st1" x1="872.85" y1="761.79" x2="559.46" y2="761.79"/>
	<polyline class="st2" points="559.46,761.79 559.46,390.14 872.85,390.14 872.85,761.79 	"/>
	<polyline class="st3" points="439.3,836.73 439.3,761.79 1199.42,761.79 1199.42,836.73 	"/>
	<line class="st2" x1="733.75" y1="306.98" x2="733.75" y2="390.14"/>
	<line class="st3" x1="693.56" y1="761.79" x2="693.56" y2="850.95"/>
	<line class="st3" x1="969.24" y1="761.79" x2="969.24" y2="850.95"/>
</g>
<g id="C">
	<g id="A1-testing_4_">
		<path class="st4" d="M595.04,904.66c0,43.71-35.4,79.21-79.21,79.21s-79.21-35.49-79.21-79.21c0-43.71,35.4-79.21,79.21-79.21
			v-26.19c-58.16,0-105.31,47.15-105.31,105.4c0,58.16,47.15,105.4,105.4,105.4s105.4-47.15,105.4-105.4H595.04z"/>
	</g>
	<g id="A1-years_5_">
		<path class="st5" d="M458.54,904.66c0-31.7,25.68-57.44,57.44-57.44s57.44,25.74,57.44,57.44s-25.68,57.44-57.44,57.44v19
			c42.18,0,76.37-34.19,76.37-76.44c0-42.18-34.19-76.44-76.44-76.44s-76.44,34.19-76.44,76.44H458.54z"/>
	</g>
	<g id="A1_x5F_dna_3_">
		<circle id="A2_8_" class="st1" cx="515.92" cy="904.73" r="26.44"/>
		<path class="st1" d="M498.23,897.67c17.69,5.07,20.5,14.12,36.61,14.12"/>
		<path class="st1" d="M530.45,897.67c-6.22,0-8.79,11.55-25.63,14.12"/>
		<line class="st1" x1="504.82" y1="902.74" x2="509.95" y2="909.61"/>
		<line class="st1" x1="525.21" y1="902.74" x2="527.87" y2="911.11"/>
	</g>
	<circle id="A2_7_" class="st6" cx="420.34" cy="872.39" r="23.88"/>
	<g id="A1-testing_5_">
		<path class="st4" d="M845.85,904.66c0,43.71-35.4,79.21-79.21,79.21c-43.8,0-79.21-35.49-79.21-79.21
			c0-43.71,35.4-79.21,79.21-79.21v-26.19c-58.16,0-105.31,47.15-105.31,105.4c0,58.16,47.15,105.4,105.4,105.4
			c58.25,0,105.4-47.15,105.4-105.4H845.85z"/>
	</g>
	<g id="A1-years_6_">
		<path class="st5" d="M709.35,904.66c0-31.7,25.68-57.44,57.44-57.44c31.77,0,57.44,25.74,57.44,57.44s-25.68,57.44-57.44,57.44v19
			c42.18,0,76.37-34.19,76.37-76.44c0-42.18-34.19-76.44-76.44-76.44s-76.44,34.19-76.44,76.44H709.35z"/>
	</g>
	<g id="A1_x5F_dna_4_">
		<circle id="A2_10_" class="st1" cx="766.73" cy="904.73" r="26.44"/>
		<path class="st1" d="M749.04,897.67c17.69,5.07,20.5,14.12,36.61,14.12"/>
		<path class="st1" d="M781.26,897.67c-6.22,0-8.79,11.55-25.63,14.12"/>
		<line class="st1" x1="755.63" y1="902.74" x2="760.76" y2="909.61"/>
		<line class="st1" x1="776.02" y1="902.74" x2="778.68" y2="911.11"/>
	</g>
	<circle id="A2_9_" class="st6" cx="671.15" cy="872.39" r="23.88"/>
	<g id="A1-testing_6_">
		<path class="st4" d="M1121.33,904.66c0,43.71-35.4,79.21-79.21,79.21s-79.21-35.49-79.21-79.21c0-43.71,35.4-79.21,79.21-79.21
			v-26.19c-58.16,0-105.31,47.15-105.31,105.4c0,58.16,47.15,105.4,105.4,105.4s105.4-47.15,105.4-105.4H1121.33z"/>
	</g>
	<g id="A1-years_7_">
		<path class="st5" d="M984.83,904.66c0-31.7,25.68-57.44,57.44-57.44c31.77,0,57.44,25.74,57.44,57.44s-25.68,57.44-57.44,57.44v19
			c42.18,0,76.37-34.19,76.37-76.44c0-42.18-34.19-76.44-76.44-76.44s-76.44,34.19-76.44,76.44H984.83z"/>
	</g>
	<g id="A1_x5F_dna_5_">
		<circle id="A2_12_" class="st1" cx="1042.21" cy="904.73" r="26.44"/>
		<path class="st1" d="M1024.52,897.67c17.69,5.07,20.5,14.12,36.61,14.12"/>
		<path class="st1" d="M1056.74,897.67c-6.22,0-8.79,11.55-25.63,14.12"/>
		<line class="st1" x1="1031.11" y1="902.74" x2="1036.24" y2="909.61"/>
		<line class="st1" x1="1051.5" y1="902.74" x2="1054.17" y2="911.11"/>
	</g>
	<circle id="A2_11_" class="st6" cx="946.64" cy="872.39" r="23.88"/>
	<g id="A1-testing_7_">
		<path class="st4" d="M1346.19,904.66c0,43.71-35.4,79.21-79.21,79.21s-79.21-35.49-79.21-79.21c0-43.71,35.4-79.21,79.21-79.21
			v-26.19c-58.16,0-105.31,47.15-105.31,105.4c0,58.16,47.15,105.4,105.4,105.4s105.4-47.15,105.4-105.4H1346.19z"/>
	</g>
	<g id="A1_x5F_dna_6_">
		<circle id="A2_14_" class="st1" cx="1267.07" cy="904.73" r="26.44"/>
		<path class="st1" d="M1249.38,897.67c17.69,5.07,20.5,14.12,36.61,14.12"/>
		<path class="st1" d="M1281.6,897.67c-6.22,0-8.79,11.55-25.63,14.12"/>
		<line class="st1" x1="1255.97" y1="902.74" x2="1261.1" y2="909.61"/>
		<line class="st1" x1="1276.36" y1="902.74" x2="1279.02" y2="911.11"/>
	</g>
	<circle id="A2_13_" class="st6" cx="1171.49" cy="872.39" r="23.88"/>
</g>
<g id="B">
	<g id="A1-testing_2_">
		<path class="st4" d="M707.47,543.36c0,43.71-35.4,79.21-79.21,79.21s-79.21-35.49-79.21-79.21s35.4-79.21,79.21-79.21v-26.19
			c-58.16,0-105.31,47.15-105.31,105.4c0,58.16,47.15,105.4,105.4,105.4c58.25,0,105.4-47.15,105.4-105.4H707.47z"/>
	</g>
	<g id="A1-years_3_">
		<path class="st5" d="M570.97,543.36c0-31.7,25.68-57.44,57.44-57.44c31.77,0,57.44,25.74,57.44,57.44s-25.68,57.44-57.44,57.44v19
			c42.18,0,76.37-34.19,76.37-76.44c0-42.18-34.19-76.44-76.44-76.44c-42.25,0-76.44,34.19-76.44,76.44H570.97z"/>
	</g>
	<g id="A1_x5F_dna_1_">
		<circle id="A2_4_" class="st1" cx="628.35" cy="543.43" r="26.44"/>
		<path class="st1" d="M610.66,536.37c17.69,5.07,20.5,14.12,36.61,14.12"/>
		<path class="st1" d="M642.88,536.37c-6.22,0-8.79,11.55-25.63,14.12"/>
		<line class="st1" x1="617.25" y1="541.43" x2="622.38" y2="548.3"/>
		<line class="st1" x1="637.64" y1="541.43" x2="640.3" y2="549.81"/>
	</g>
	<circle id="A2_3_" class="st6" cx="532.77" cy="511.09" r="23.88"/>
	<g id="A1-testing_3_">
		<path class="st4" d="M1028.32,543.36c0,43.71-35.4,79.21-79.21,79.21c-43.8,0-79.21-35.49-79.21-79.21s35.4-79.21,79.21-79.21
			v-26.19c-58.16,0-105.31,47.15-105.31,105.4c0,58.16,47.15,105.4,105.4,105.4c58.25,0,105.4-47.15,105.4-105.4H1028.32z"/>
	</g>
	<g id="A1-years_4_">
		<path class="st5" d="M891.82,543.36c0-31.7,25.68-57.44,57.44-57.44c31.77,0,57.44,25.74,57.44,57.44s-25.68,57.44-57.44,57.44v19
			c42.18,0,76.37-34.19,76.37-76.44c0-42.18-34.19-76.44-76.44-76.44s-76.44,34.19-76.44,76.44H891.82z"/>
	</g>
	<g id="A1_x5F_dna_2_">
		<circle id="A2_6_" class="st1" cx="949.2" cy="543.43" r="26.44"/>
		<path class="st1" d="M931.51,536.37c17.69,5.07,20.5,14.12,36.61,14.12"/>
		<path class="st1" d="M963.73,536.37c-6.22,0-8.79,11.55-25.63,14.12"/>
		<line class="st1" x1="938.1" y1="541.43" x2="943.23" y2="548.3"/>
		<line class="st1" x1="958.49" y1="541.43" x2="961.15" y2="549.81"/>
	</g>
	<circle id="A2_5_" class="st6" cx="853.62" cy="511.09" r="23.88"/>
</g>
<g id="A">
	<g id="A2_x5F_dna">
		<circle id="A2_2_" class="st1" cx="948.14" cy="185.71" r="26.44"/>
		<path class="st1" d="M930.45,178.65c17.69,5.07,20.5,14.12,36.61,14.12"/>
		<path class="st1" d="M962.67,178.65c-6.22,0-8.79,11.55-25.63,14.12"/>
		<line class="st1" x1="937.04" y1="183.72" x2="942.17" y2="190.58"/>
		<line class="st1" x1="957.43" y1="183.72" x2="960.1" y2="192.09"/>
	</g>
	<g id="A1-testing">
		<path class="st4" d="M763.57,187.03c0,43.71-35.4,79.21-79.21,79.21s-79.21-35.49-79.21-79.21s35.4-79.21,79.21-79.21V81.63
			c-58.16,0-105.31,47.15-105.31,105.4c0,58.16,47.15,105.4,105.4,105.4c58.25,0,105.4-47.15,105.4-105.4H763.57z"/>
	</g>
	<g id="A1-years_1_">
		<path class="st5" d="M627.07,187.03c0-31.7,25.68-57.44,57.44-57.44c31.77,0,57.44,25.74,57.44,57.44s-25.68,57.44-57.44,57.44v19
			c42.18,0,76.37-34.19,76.37-76.44c0-42.18-34.19-76.44-76.44-76.44c-42.25,0-76.44,34.19-76.44,76.44H627.07z"/>
	</g>
	<g id="A1_x5F_dna">
		<circle id="A2_1_" class="st1" cx="684.45" cy="187.1" r="26.44"/>
		<path class="st1" d="M666.76,180.05c17.69,5.07,20.5,14.12,36.61,14.12"/>
		<path class="st1" d="M698.98,180.05c-6.22,0-8.79,11.55-25.63,14.12"/>
		<line class="st1" x1="673.35" y1="185.11" x2="678.48" y2="191.98"/>
		<line class="st1" x1="693.74" y1="185.11" x2="696.4" y2="193.49"/>
	</g>
	<circle id="A2" class="st6" cx="588.87" cy="154.77" r="23.88"/>
	<g id="A1-testing_1_">
		<path class="st4" d="M1027.26,185.71c0,43.71-35.4,79.21-79.21,79.21c-43.8,0-79.21-35.49-79.21-79.21s35.4-79.21,79.21-79.21
			V80.31c-58.16,0-105.31,47.15-105.31,105.4c0,58.16,47.15,105.4,105.4,105.4s105.4-47.15,105.4-105.4H1027.26z"/>
	</g>
	<g id="A1-years_2_">
		<path class="st5" d="M890.76,185.71c0-31.7,25.68-57.44,57.44-57.44s57.44,25.74,57.44,57.44s-25.68,57.44-57.44,57.44v19
			c42.18,0,76.37-34.19,76.37-76.44c0-42.18-34.19-76.44-76.44-76.44s-76.44,34.19-76.44,76.44H890.76z"/>
	</g>
	<circle id="A1" class="st6" cx="848.97" cy="154.77" r="23.88"/>
	<path id="CounselingBox" class="st7" d="M1354.74,731.57h-468.6c-53.18,0-96.29-43.11-96.29-96.29V451.43
		c0-53.18,43.11-96.29,96.29-96.29h468.6c53.18,0,96.29,43.11,96.29,96.29v183.86C1451.02,688.46,1407.91,731.57,1354.74,731.57z"/>
	<rect id="btn_x5F_reset" x="1291.87" y="432.71" class="st8" width="114.19" height="53.55"/>
	<rect id="btn_x5F_vus" x="1291.87" y="494.14" class="st8" width="114.19" height="53.55"/>
	<rect id="btn_x5F_hcm_3_" x="1291.87" y="555.57" class="st8" width="114.19" height="53.55"/>
	<path id="btn_x5F_hcm_2_" class="st8" d="M1448.7,1150.15h-118.16c-15.59,0-28.22-12.63-28.22-28.22v-20.9
		c0-15.59,12.63-28.22,28.22-28.22h118.16c15.59,0,28.22,12.63,28.22,28.22v20.9C1476.92,1137.51,1464.28,1150.15,1448.7,1150.15z"
		/>
</g>
</svg>
