<?xml version="1.0" encoding="utf-8"?>
<!-- Generator: Adobe Illustrator 22.0.1, SVG Export Plug-In . SVG Version: 6.00 Build 0)  -->
<svg version="1.1" id="Layer_1" xmlns="http://www.w3.org/2000/svg" xmlns:xlink="http://www.w3.org/1999/xlink" x="0px" y="0px"
	 viewBox="0 0 160 160" style="enable-background:new 0 0 160 160;" xml:space="preserve">
<style type="text/css">
	.st0{fill:none;}
	.st1{fill:none;stroke:#3E96D4;stroke-width:1.362;stroke-miterlimit:10;}
	.st2{fill:none;stroke:#3E96D4;stroke-width:0.908;stroke-miterlimit:10;}
	.st3{fill:none;stroke:#3E96D4;stroke-width:0.681;stroke-miterlimit:10;}
	.st4{fill:#FFFFFF;stroke:#3E96D4;stroke-width:0.908;stroke-miterlimit:10;}
</style>
<g>
	<circle class="st0" cx="80" cy="80" r="80"/>
	<path class="st1" d="M32.4,31.6c0.8-0.5,2.9-0.5,3.6-0.5c1.5,0,4.2-4.7,8.3-4.4s6.6,4.5,7.7,4.6c1.1,0.1,6,0,6,0s1.9-3.5,3.7-3
		s2.3,2.4,2.8,2.9c0.5,0.5,5.3-0.1,6.1,0.3c0.8,0.4,1.6,3,2,3.5c0.4,0.5,1.9-29.3,2-30.1s2.5,38.3,2.5,39.2s1.9-11,2.6-12.3
		c0.7-1.4,6.7-0.2,8.3-0.3c1.5-0.1,4.2-4.7,8.3-4.4c4.1,0.3,7.2,4.4,7.9,4.4c0.7,0.1,6,0,6,0s1.9-3.5,3.7-3s2.2,2.3,3.9,3.3"/>
	<path class="st2" d="M129.2,18c0,0-53.5-42.1-105.6,4.2l33.5,35.5c0,0,18-17.7,40.9-2.1L129.2,18z"/>
	<path class="st2" d="M145,126.4c0,0,39-57.2-13.1-106.3l-31.2,38c0,0,18.9,16.8,4.4,40.4L145,126.4z"/>
	<path class="st3" d="M130,99.4c-1.5-0.8-6.3,0.2-8.6-2c-1.9-1.8,3.3-1.6-0.5-4.7s-7.8-11.6-8.6-14.7c-0.8-3.1,0.4-7.2,1.5-10.4
		s4.3-10.9,6.9-14c2.6-3.1,8.4-9.7,13.6-12.6c9.6-5.4,13.6,4.1,15.6,9.7c2.7,7.8,3.1,23.8,3.2,26s2.5,2.6,3,4.4
		c0.5,1.8-2.2,2.6-3.1,3.6c-0.7,0.8-3.5,2.7-4.4,3.9c-1.5,1.9-4.1,2.6-4.6,3.2C142.8,93.2,137.1,103.1,130,99.4z M120.6,57.7
		c-1.4,2.5-3,5-3.1,7.1c-0.1,2.1,0.5,1.9,2.3,3.3c1.8,1.4,3.2,0.5,3.4,0.7c0.5,0.6-1.3,2.5-4.4,0.3c-1.5-1.1-2.5,3-3.7,5.2
		c-1.2,2.2,1.5,8.1,3.6,11.4c2.2,3.4,5.1,3.5,6.7,3.9s2-4.7,2.5-5.9c0.5-1.2,1.8-6.1,1.4-7.3c-0.5-1.2,0-2.2-1.7-3
		c-1.7-0.8-2.2-1-2.9-2.5c-0.7-1.5,0-1.7,0.4-1.3c1,1.5,3.7,2.7,3.7,1.6s1.9-9.2,2.2-11.6c0.3-2.5,1.9-6.5,3.3-9.6s2.5-7.2,0.7-6.7
		C130.9,44.3,122,55.2,120.6,57.7L120.6,57.7z M137.2,48.2c-1,2.1-1.9,4.2-2.5,6.4c-0.5,2.1-0.3,8-0.8,11c-0.5,3-3.2,7.4-2.9,8.9
		c0.3,1.5,0.5,2.9,1.6,3.5c1.2,0.6,4.3,1.7,6.1,0.7c1.8-1-0.6,2-1.5,2.2c-1,0.2-2.1-0.3-3.5-0.1c-1.5,0.2-4.9,9.1-5.8,10.6
		s-1,3.5,0.9,4.8c1.9,1.3,6.1,0.8,8.4-0.5s4.7-6.4,7.2-9.2s3.5-5.7,1.7-5.9c-1.8-0.2-4.3,0.3-5-1.3c-0.7-1.5-0.4-1.5,0.9-0.7
		s3.5,0.7,4.1,0c0.7-0.7,1.5-1.5,2.1-2.3c0.9-1.3,1.5-7.4,0.9-11.8c-0.5-4.4-3.3-10.9-4.7-12.5C142.8,50.4,138.8,44.8,137.2,48.2
		L137.2,48.2z"/>
	<path class="st4" d="M116.3,101.5c-0.5-0.1-0.7-0.5-0.7-1c-0.2-15.3-0.5-38.5-0.7-40.4c-0.1-0.2-0.1-0.4,0-0.5
		c0.1-0.5,0.6-0.9,1.3-0.8c0.1,0,0.2,0,0.2,0c3.1,0.3,6.2-1.1,7.9-3.7c0.4-0.5,1-0.6,1.5-0.3l0.1,0.1l31.1,26.6
		c0.5,0.4,0.5,1,0.1,1.5c-0.2,0.2-16.3,19.2-40.3,18.6C116.5,101.5,116.4,101.5,116.3,101.5z M117,60.9c0.1,1.1,0.1,2.7,0.2,5.2
		c0.1,3.8,0.2,8.9,0.3,14c0.1,8.3,0.3,16.4,0.3,19.3c19.8,0,33.8-13.6,37-17.1l-29.4-25.2C123.1,59.5,120.1,60.9,117,60.9z"/>
</g>
</svg>
