<svg xmlns="http://www.w3.org/2000/svg" width="67.042" height="160.149" viewBox="0 0 67.042 160.149"><defs><style>.a{fill:#3e96d4;stroke:#003476;stroke-miterlimit:10;}</style></defs><g transform="translate(0.5 0.5)"><circle class="a" cx="18.053" cy="18.053" r="18.053" transform="translate(14.934)"/><path class="a" d="M872.638,250.617l-.052,22.177a7.856,7.856,0,0,1-7.856,7.823H849.764a5.959,5.959,0,0,1-5.958-5.87l-.21-24.13c-12.958.128-17.362-1.915-14.958-8.553s8.958-21.83,8.958-21.83l-13-.213v-49.4a8.067,8.067,0,0,1,8.042-8.043H882.6a8.067,8.067,0,0,1,8.042,8.043v49.6l-12,.021s7.362,16.979,8.979,21.575S885.106,250.745,872.638,250.617Z" transform="translate(-824.596 -121.468)"/></g></svg>