<svg xmlns="http://www.w3.org/2000/svg" width="67.043" height="160.149" viewBox="0 0 67.043 160.149"><defs><style>.a{fill:#3e96d4;stroke:#003476;stroke-miterlimit:10;}</style></defs><g transform="translate(0.5 0.5)"><circle class="a" cx="18.053" cy="18.053" r="18.053" transform="translate(14.934)"/><path class="a" d="M571.506,585.849l-.052,22.177a7.856,7.856,0,0,1-7.857,7.823H548.632a5.958,5.958,0,0,1-5.958-5.87l-.211-24.13c-12.957.128-17.361-1.915-14.957-8.553s8.957-21.83,8.957-21.83l-13-.213v-49.4a8.067,8.067,0,0,1,8.043-8.043h49.957a8.067,8.067,0,0,1,8.043,8.043v49.6l-12,.021s7.362,16.979,8.979,21.574S583.974,585.977,571.506,585.849Z" transform="translate(-523.463 -456.7)"/></g></svg>