<svg xmlns="http://www.w3.org/2000/svg" width="108.255" height="52.596" viewBox="0 0 108.255 52.596"><defs><style>.a,.g{fill:#3e96d4;}.b,.c,.e{fill:#fff;}.b{stroke-miterlimit:10;}.c{opacity:0.5;}.d{fill:#3b3c3e;}.f,.g{stroke:none;}</style></defs><g transform="translate(-1294.298 -497.979)"><rect class="a" width="108.255" height="52.596" rx="4.032" transform="translate(1294.298 497.979)"/><g class="b"><path class="f" d="M 1318.80224609375 523.27685546875 C 1314.406005859375 518.0226440429688 1309.427001953125 515.77001953125 1302.286987304688 515.77001953125 C 1301.513061523438 515.77001953125 1300.883544921875 513.9328002929688 1300.883544921875 511.6745300292969 C 1300.883544921875 510.5447082519531 1301.045776367188 509.4561157226563 1301.32861328125 508.6878662109375 C 1301.481079101563 508.2737426757813 1301.808349609375 507.5790100097656 1302.286987304688 507.5790100097656 C 1307.089599609375 507.5790100097656 1311.234619140625 508.3932189941406 1314.958862304688 510.0681457519531 C 1318.052856445313 511.4595947265625 1320.807006835938 513.43212890625 1323.368408203125 516.0925903320313 L 1318.80224609375 523.27685546875 Z"/><path class="g" d="M 1318.74267578125 522.4383544921875 L 1322.734252929688 516.1582641601563 C 1320.295776367188 513.6864013671875 1317.678466796875 511.8394470214844 1314.753784179688 510.5241394042969 C 1311.095336914063 508.8788146972656 1307.017456054688 508.0790100097656 1302.2841796875 508.0791015625 C 1302.234375 508.0913391113281 1301.982177734375 508.2940368652344 1301.748657226563 509.0015869140625 C 1301.51318359375 509.7149047851563 1301.383544921875 510.6641540527344 1301.383544921875 511.6745300292969 C 1301.383544921875 512.6848754882813 1301.51318359375 513.6341552734375 1301.748657226563 514.3474731445313 C 1301.982177734375 515.0549926757813 1302.234375 515.2576904296875 1302.286987304688 515.27001953125 C 1309.353393554688 515.27001953125 1314.350830078125 517.4277954101563 1318.74267578125 522.4383544921875 M 1318.85302734375 524.1290283203125 C 1314.828002929688 519.0900268554688 1310.159057617188 516.27001953125 1302.286987304688 516.27001953125 C 1299.7490234375 516.27001953125 1299.7490234375 507.0790100097656 1302.286987304688 507.0790100097656 C 1312.548950195313 507.0790100097656 1319.1259765625 510.8500061035156 1324 516.031005859375 L 1318.85302734375 524.1290283203125 Z"/></g><g class="b"><path class="f" d="M 1349.766967773438 545.2979736328125 C 1340.56103515625 545.2979736328125 1333.56591796875 542.2728881835938 1327.788696289063 535.7843627929688 L 1332.810302734375 529.0275268554688 C 1337.381958007813 534.7574462890625 1342.340454101563 537.1069946289063 1349.766967773438 537.1069946289063 C 1359.154663085938 537.1069946289063 1365.359375 533.1141357421875 1369.88525390625 524.1605834960938 C 1372.894165039063 518.2090454101563 1376.752197265625 513.6728515625 1381.352294921875 510.6778869628906 C 1385.944702148438 507.68798828125 1391.374145507813 506.1719970703125 1397.489990234375 506.1719970703125 C 1398.263916015625 506.1719970703125 1398.893432617188 508.0090026855469 1398.893432617188 510.2669982910156 C 1398.893432617188 512.5249633789063 1398.263916015625 514.3619995117188 1397.489990234375 514.3619995117188 C 1388.297607421875 514.3619995117188 1381.8486328125 518.6495971679688 1377.19482421875 527.8554077148438 C 1374.278686523438 533.6246337890625 1370.483764648438 538.0221557617188 1365.915283203125 540.926025390625 C 1361.351196289063 543.8270263671875 1355.918090820313 545.2979736328125 1349.766967773438 545.2979736328125 Z"/><path class="g" d="M 1349.766967773438 544.7979736328125 C 1355.821533203125 544.7979736328125 1361.164428710938 543.353271484375 1365.647094726563 540.5040283203125 C 1370.138549804688 537.649169921875 1373.873657226563 533.317626953125 1376.74853515625 527.6298217773438 C 1381.4970703125 518.23681640625 1388.087768554688 513.8619995117188 1397.492797851563 513.8618774414063 C 1397.542602539063 513.8496704101563 1397.794677734375 513.6472778320313 1398.028198242188 512.93994140625 C 1398.263793945313 512.2266845703125 1398.393432617188 511.2774353027344 1398.393432617188 510.2669982910156 C 1398.393432617188 509.2565612792969 1398.263793945313 508.3072814941406 1398.028198242188 507.5940246582031 C 1397.794677734375 506.8867492675781 1397.542602539063 506.6842956542969 1397.489990234375 506.6719970703125 C 1391.47265625 506.6719970703125 1386.135009765625 508.1607360839844 1381.625122070313 511.096923828125 C 1377.099853515625 514.0431518554688 1373.300048828125 518.5143432617188 1370.331420898438 524.3861083984375 C 1365.709716796875 533.529541015625 1359.367431640625 537.6069946289063 1349.766967773438 537.6069946289063 C 1342.491333007813 537.6069946289063 1337.355102539063 535.2708740234375 1332.828857421875 529.8406372070313 L 1328.434204101563 535.7540893554688 C 1330.953247070313 538.5194091796875 1333.652954101563 540.5814819335938 1336.666625976563 542.0454711914063 C 1340.4794921875 543.8976440429688 1344.7646484375 544.7979736328125 1349.766967773438 544.7979736328125 M 1349.766967773438 545.7979736328125 C 1338.860961914063 545.7979736328125 1332.114013671875 541.5189819335938 1327.14599609375 535.8109741210938 L 1332.800048828125 528.2030029296875 C 1336.927978515625 533.583984375 1341.64404296875 536.6069946289063 1349.766967773438 536.6069946289063 C 1358.942016601563 536.6069946289063 1365.009033203125 532.698974609375 1369.43896484375 523.9349975585938 C 1375.566040039063 511.8160095214844 1385.003051757813 505.6719970703125 1397.489990234375 505.6719970703125 C 1400.027954101563 505.6719970703125 1400.027954101563 514.8619995117188 1397.489990234375 514.8619995117188 C 1388.506958007813 514.8619995117188 1382.199951171875 519.06298828125 1377.640991210938 528.0809936523438 C 1371.698974609375 539.8369750976563 1362.321044921875 545.7979736328125 1349.766967773438 545.7979736328125 Z"/></g><g class="b"><path class="f" d="M 1397.489990234375 545.2979736328125 C 1393.003173828125 545.2979736328125 1388.866333007813 544.4805297851563 1385.194580078125 542.868408203125 C 1381.634765625 541.305419921875 1378.426879882813 538.957763671875 1375.655151367188 535.8878784179688 L 1380.15087890625 528.4666748046875 C 1384.457641601563 534.2791137695313 1390.13720703125 537.1069946289063 1397.489990234375 537.1069946289063 C 1398.263916015625 537.1069946289063 1398.893432617188 538.9442138671875 1398.893432617188 541.2024536132813 C 1398.893432617188 543.4607543945313 1398.263916015625 545.2979736328125 1397.489990234375 545.2979736328125 Z"/><path class="g" d="M 1380.198120117188 529.3536987304688 L 1376.276733398438 535.826904296875 C 1378.94287109375 538.7098388671875 1382.007568359375 540.9230346679688 1385.395629882813 542.4105834960938 C 1389.003662109375 543.9947509765625 1393.07275390625 544.7979736328125 1397.492797851563 544.7979125976563 C 1397.542602539063 544.78564453125 1397.794799804688 544.5829467773438 1398.0283203125 543.8753662109375 C 1398.263793945313 543.1620483398438 1398.393432617188 542.2128295898438 1398.393432617188 541.2024536132813 C 1398.393432617188 540.192138671875 1398.263793945313 539.242919921875 1398.0283203125 538.5296020507813 C 1397.794799804688 537.822021484375 1397.542602539063 537.6193237304688 1397.489990234375 537.6069946289063 C 1390.219604492188 537.6069946289063 1384.547729492188 534.9036865234375 1380.198120117188 529.3536987304688 M 1380.114990234375 527.5609741210938 C 1384.416015625 533.7100219726563 1390.030029296875 536.6069946289063 1397.489990234375 536.6069946289063 C 1400.027954101563 536.6069946289063 1400.027954101563 545.7979736328125 1397.489990234375 545.7979736328125 C 1388.329956054688 545.7979736328125 1380.81103515625 542.4910278320313 1375.036010742188 535.9450073242188 L 1380.114990234375 527.5609741210938 Z"/></g><g class="b"><path class="f" d="M 1302.286987304688 543.8900146484375 C 1301.513061523438 543.8900146484375 1300.883544921875 542.0527954101563 1300.883544921875 539.7944946289063 C 1300.883544921875 538.6646728515625 1301.045776367188 537.5760498046875 1301.32861328125 536.8078002929688 C 1301.481079101563 536.3936767578125 1301.808349609375 535.698974609375 1302.286987304688 535.698974609375 C 1312.583862304688 535.698974609375 1317.512817382813 531.0026245117188 1322.546752929688 522.8906860351563 C 1324.823120117188 519.2219848632813 1328.02783203125 514.5838012695313 1332.642456054688 511.2526550292969 C 1337.378295898438 507.8338928222656 1342.979858398438 506.1719970703125 1349.766967773438 506.1719970703125 C 1354.361450195313 506.1719970703125 1358.57421875 506.9938659667969 1362.2880859375 508.61474609375 C 1365.887451171875 510.1856384277344 1369.102783203125 512.5440673828125 1371.850708007813 515.6281127929688 L 1367.295043945313 522.9901733398438 C 1363.0693359375 517.107666015625 1357.479248046875 514.3619995117188 1349.766967773438 514.3619995117188 C 1339.489135742188 514.3619995117188 1334.5556640625 519.0726928710938 1329.507080078125 527.2094116210938 C 1327.235595703125 530.8696899414063 1324.03662109375 535.4973754882813 1319.423217773438 538.8209228515625 C 1314.6884765625 542.23193359375 1309.083129882813 543.8900146484375 1302.286987304688 543.8900146484375 Z"/><path class="g" d="M 1349.766967773438 506.6719970703125 C 1343.088623046875 506.6719970703125 1337.582885742188 508.3029174804688 1332.93505859375 511.6580810546875 C 1328.391479492188 514.9379272460938 1325.223754882813 519.5247192382813 1322.9716796875 523.154296875 C 1317.8447265625 531.4159545898438 1312.816528320313 536.198974609375 1302.2841796875 536.1990356445313 C 1302.234375 536.2113037109375 1301.982177734375 536.4140014648438 1301.748657226563 537.12158203125 C 1301.51318359375 537.8348999023438 1301.383544921875 538.7841796875 1301.383544921875 539.7944946289063 C 1301.383544921875 540.8048095703125 1301.51318359375 541.7540893554688 1301.748657226563 542.4674072265625 C 1301.982177734375 543.1749877929688 1302.234375 543.377685546875 1302.286987304688 543.3900146484375 C 1308.974609375 543.3900146484375 1314.484252929688 541.7627563476563 1319.130981445313 538.415283203125 C 1323.673217773438 535.1430053710938 1326.835083007813 530.56689453125 1329.082275390625 526.94580078125 C 1334.2236328125 518.6593627929688 1339.256469726563 513.8619995117188 1349.766967773438 513.8619995117188 C 1357.38916015625 513.8619995117188 1362.986572265625 516.4877319335938 1367.25830078125 522.0993041992188 L 1371.227905273438 515.6842651367188 C 1368.584106445313 512.7899169921875 1365.512329101563 510.5674438476563 1362.088134765625 509.072998046875 C 1358.437622070313 507.4797973632813 1354.292236328125 506.6719970703125 1349.766967773438 506.6719970703125 M 1349.766967773438 505.6719970703125 C 1359.141967773438 505.6719970703125 1366.746948242188 508.9959716796875 1372.470947265625 515.5759887695313 L 1367.319946289063 523.9000244140625 C 1363.109985351563 517.6810302734375 1357.56005859375 514.8619995117188 1349.766967773438 514.8619995117188 C 1339.720947265625 514.8619995117188 1334.886962890625 519.4869995117188 1329.932006835938 527.4730224609375 C 1324.47900390625 536.260009765625 1317.35595703125 544.3900146484375 1302.286987304688 544.3900146484375 C 1299.7490234375 544.3900146484375 1299.7490234375 535.198974609375 1302.286987304688 535.198974609375 C 1312.35205078125 535.198974609375 1317.181030273438 530.5889892578125 1322.121948242188 522.6270141601563 C 1327.586059570313 513.8209838867188 1334.717041015625 505.6719970703125 1349.766967773438 505.6719970703125 Z"/></g><g class="b"><path class="f" d="M 1348.7099609375 542.6019897460938 C 1347.420776367188 542.6019897460938 1346.371948242188 541.5531616210938 1346.371948242188 540.2639770507813 L 1346.371948242188 512.4180297851563 C 1346.371948242188 511.1282958984375 1347.420776367188 510.0790100097656 1348.7099609375 510.0790100097656 C 1349.999145507813 510.0790100097656 1351.047973632813 511.1282958984375 1351.047973632813 512.4180297851563 L 1351.047973632813 540.2639770507813 C 1351.047973632813 541.5531616210938 1349.999145507813 542.6019897460938 1348.7099609375 542.6019897460938 Z"/><path class="g" d="M 1348.7099609375 542.1019897460938 C 1349.724975585938 542.1019897460938 1350.547973632813 541.2789916992188 1350.547973632813 540.2639770507813 L 1350.547973632813 512.4180297851563 C 1350.547973632813 511.4020080566406 1349.724975585938 510.5790100097656 1348.7099609375 510.5790100097656 C 1347.694946289063 510.5790100097656 1346.871948242188 511.4020080566406 1346.871948242188 512.4180297851563 L 1346.871948242188 540.2639770507813 C 1346.871948242188 541.2789916992188 1347.694946289063 542.1019897460938 1348.7099609375 542.1019897460938 M 1348.7099609375 543.1019897460938 C 1347.145141601563 543.1019897460938 1345.871948242188 541.828857421875 1345.871948242188 540.2639770507813 L 1345.871948242188 512.4180297851563 C 1345.871948242188 510.8526000976563 1347.145141601563 509.5790100097656 1348.7099609375 509.5790100097656 C 1350.274780273438 509.5790100097656 1351.547973632813 510.8526000976563 1351.547973632813 512.4180297851563 L 1351.547973632813 540.2639770507813 C 1351.547973632813 541.828857421875 1350.274780273438 543.1019897460938 1348.7099609375 543.1019897460938 Z"/></g><g class="b"><path class="f" d="M 1358.846069335938 532.5375366210938 C 1358.25341796875 532.5375366210938 1357.988037109375 532.14599609375 1357.988037109375 531.7579956054688 L 1357.988037109375 513.1019897460938 C 1357.988037109375 511.8128356933594 1359.036865234375 510.7640075683594 1360.326049804688 510.7640075683594 C 1361.615112304688 510.7640075683594 1362.663940429688 511.8128356933594 1362.663940429688 513.1019897460938 L 1362.663940429688 529.7579956054688 C 1362.663940429688 530.4669799804688 1361.827392578125 531.1636352539063 1361.12548828125 531.6232299804688 C 1360.450561523438 532.065185546875 1359.497192382813 532.5375366210938 1358.846069335938 532.5375366210938 Z"/><path class="g" d="M 1358.846069335938 532.0375366210938 C 1359.770263671875 532.0375366210938 1362.163940429688 530.5770874023438 1362.163940429688 529.7579956054688 L 1362.163940429688 513.1019897460938 C 1362.163940429688 512.0869750976563 1361.340942382813 511.2640075683594 1360.326049804688 511.2640075683594 C 1359.31103515625 511.2640075683594 1358.488037109375 512.0869750976563 1358.488037109375 513.1019897460938 L 1358.488037109375 531.7579956054688 C 1358.488037109375 531.9539184570313 1358.625 532.0375366210938 1358.846069335938 532.0375366210938 M 1358.846069335938 533.0375366210938 C 1357.954467773438 533.0375366210938 1357.488037109375 532.3938598632813 1357.488037109375 531.7579956054688 L 1357.488037109375 513.1019897460938 C 1357.488037109375 511.537109375 1358.761108398438 510.2640075683594 1360.326049804688 510.2640075683594 C 1361.890869140625 510.2640075683594 1363.163940429688 511.537109375 1363.163940429688 513.1019897460938 L 1363.163940429688 529.7579956054688 C 1363.163940429688 530.5065307617188 1362.5703125 531.2747802734375 1361.3994140625 532.04150390625 C 1361.042602539063 532.275146484375 1359.803955078125 533.0375366210938 1358.846069335938 533.0375366210938 Z"/></g><g class="b"><path class="f" d="M 1338.677978515625 540.0800170898438 C 1337.388793945313 540.0800170898438 1336.339965820313 539.0311889648438 1336.339965820313 537.7420043945313 L 1336.339965820313 522.0859985351563 C 1336.339965820313 521.376953125 1337.1767578125 520.6802978515625 1337.878784179688 520.2207641601563 C 1338.554077148438 519.7787475585938 1339.507568359375 519.3064575195313 1340.158813476563 519.3064575195313 C 1340.751586914063 519.3064575195313 1341.016967773438 519.697998046875 1341.016967773438 520.0859985351563 L 1341.016967773438 537.7420043945313 C 1341.016967773438 539.0311889648438 1339.967651367188 540.0800170898438 1338.677978515625 540.0800170898438 Z"/><path class="g" d="M 1338.677978515625 539.5800170898438 C 1339.693969726563 539.5800170898438 1340.516967773438 538.7570190429688 1340.516967773438 537.7420043945313 L 1340.516967773438 520.0859985351563 C 1340.516967773438 519.8900756835938 1340.380004882813 519.8064575195313 1340.158813476563 519.8064575195313 C 1339.234252929688 519.8064575195313 1336.839965820313 521.2669067382813 1336.839965820313 522.0859985351563 L 1336.839965820313 537.7420043945313 C 1336.839965820313 538.7570190429688 1337.662963867188 539.5800170898438 1338.677978515625 539.5800170898438 M 1338.677978515625 540.5800170898438 C 1337.113037109375 540.5800170898438 1335.839965820313 539.306884765625 1335.839965820313 537.7420043945313 L 1335.839965820313 522.0859985351563 C 1335.839965820313 521.33740234375 1336.433837890625 520.569091796875 1337.60498046875 519.8024291992188 C 1337.9619140625 519.5687866210938 1339.200805664063 518.8064575195313 1340.158813476563 518.8064575195313 C 1341.050415039063 518.8064575195313 1341.516967773438 519.4501342773438 1341.516967773438 520.0859985351563 L 1341.516967773438 537.7420043945313 C 1341.516967773438 539.306884765625 1340.243408203125 540.5800170898438 1338.677978515625 540.5800170898438 Z"/></g><g class="b"><path class="f" d="M 1305.161987304688 541.0369873046875 C 1303.872314453125 541.0369873046875 1302.822998046875 539.9881591796875 1302.822998046875 538.698974609375 L 1302.822998046875 514.5289916992188 C 1302.822998046875 513.2398071289063 1303.872314453125 512.1909790039063 1305.161987304688 512.1909790039063 C 1306.451171875 512.1909790039063 1307.5 513.2398071289063 1307.5 514.5289916992188 L 1307.5 538.698974609375 C 1307.5 539.9881591796875 1306.451171875 541.0369873046875 1305.161987304688 541.0369873046875 Z"/><path class="g" d="M 1305.161987304688 540.5369873046875 C 1306.177001953125 540.5369873046875 1307 539.7139892578125 1307 538.698974609375 L 1307 514.5289916992188 C 1307 513.5139770507813 1306.177001953125 512.6909790039063 1305.161987304688 512.6909790039063 C 1304.14697265625 512.6909790039063 1303.322998046875 513.5139770507813 1303.322998046875 514.5289916992188 L 1303.322998046875 538.698974609375 C 1303.322998046875 539.7139892578125 1304.14697265625 540.5369873046875 1305.161987304688 540.5369873046875 M 1305.161987304688 541.5369873046875 C 1303.596557617188 541.5369873046875 1302.322998046875 540.2638549804688 1302.322998046875 538.698974609375 L 1302.322998046875 514.5289916992188 C 1302.322998046875 512.964111328125 1303.596557617188 511.6909790039063 1305.161987304688 511.6909790039063 C 1306.726928710938 511.6909790039063 1308 512.964111328125 1308 514.5289916992188 L 1308 538.698974609375 C 1308 540.2638549804688 1306.726928710938 541.5369873046875 1305.161987304688 541.5369873046875 Z"/></g><g class="b"><path class="f" d="M 1311.794555664063 531.49169921875 C 1311.382690429688 531.49169921875 1311.094970703125 531.2010498046875 1311.094970703125 530.7849731445313 L 1311.094970703125 516.6439819335938 C 1311.094970703125 515.3548583984375 1312.143798828125 514.3060302734375 1313.432983398438 514.3060302734375 C 1314.72265625 514.3060302734375 1315.77197265625 515.3548583984375 1315.77197265625 516.6439819335938 L 1315.77197265625 527.7849731445313 C 1315.77197265625 528.49072265625 1314.892211914063 529.4266967773438 1314.154174804688 530.087646484375 C 1313.682861328125 530.509765625 1312.509155273438 531.49169921875 1311.794555664063 531.49169921875 Z"/><path class="g" d="M 1311.794555664063 530.99169921875 C 1312.560913085938 530.99169921875 1315.27197265625 528.656494140625 1315.27197265625 527.7849731445313 L 1315.27197265625 516.6439819335938 C 1315.27197265625 515.6290283203125 1314.447998046875 514.8060302734375 1313.432983398438 514.8060302734375 C 1312.41796875 514.8060302734375 1311.594970703125 515.6290283203125 1311.594970703125 516.6439819335938 L 1311.594970703125 530.7849731445313 C 1311.594970703125 530.928466796875 1311.668334960938 530.99169921875 1311.794555664063 530.99169921875 M 1311.794555664063 531.99169921875 C 1311.110717773438 531.99169921875 1310.594970703125 531.472900390625 1310.594970703125 530.7849731445313 L 1310.594970703125 516.6439819335938 C 1310.594970703125 515.0791015625 1311.868041992188 513.8060302734375 1313.432983398438 513.8060302734375 C 1314.998413085938 513.8060302734375 1316.27197265625 515.0791015625 1316.27197265625 516.6439819335938 L 1316.27197265625 527.7849731445313 C 1316.27197265625 528.4998779296875 1315.671630859375 529.39990234375 1314.48779296875 530.4600830078125 C 1313.70751953125 531.1588134765625 1312.60693359375 531.99169921875 1311.794555664063 531.99169921875 Z"/></g><g class="b"><path class="f" d="M 1393.765014648438 542.6019897460938 C 1392.475830078125 542.6019897460938 1391.427001953125 541.5531616210938 1391.427001953125 540.2639770507813 L 1391.427001953125 512.4180297851563 C 1391.427001953125 511.1282958984375 1392.475830078125 510.0790100097656 1393.765014648438 510.0790100097656 C 1395.05419921875 510.0790100097656 1396.10302734375 511.1282958984375 1396.10302734375 512.4180297851563 L 1396.10302734375 540.2639770507813 C 1396.10302734375 541.5531616210938 1395.05419921875 542.6019897460938 1393.765014648438 542.6019897460938 Z"/><path class="g" d="M 1393.765014648438 542.1019897460938 C 1394.780029296875 542.1019897460938 1395.60302734375 541.2789916992188 1395.60302734375 540.2639770507813 L 1395.60302734375 512.4180297851563 C 1395.60302734375 511.4020080566406 1394.780029296875 510.5790100097656 1393.765014648438 510.5790100097656 C 1392.75 510.5790100097656 1391.927001953125 511.4020080566406 1391.927001953125 512.4180297851563 L 1391.927001953125 540.2639770507813 C 1391.927001953125 541.2789916992188 1392.75 542.1019897460938 1393.765014648438 542.1019897460938 M 1393.765014648438 543.1019897460938 C 1392.2001953125 543.1019897460938 1390.927001953125 541.828857421875 1390.927001953125 540.2639770507813 L 1390.927001953125 512.4180297851563 C 1390.927001953125 510.8526000976563 1392.2001953125 509.5790100097656 1393.765014648438 509.5790100097656 C 1395.329833984375 509.5790100097656 1396.60302734375 510.8526000976563 1396.60302734375 512.4180297851563 L 1396.60302734375 540.2639770507813 C 1396.60302734375 541.828857421875 1395.329833984375 543.1019897460938 1393.765014648438 543.1019897460938 Z"/></g><g class="b"><path class="f" d="M 1384.733032226563 539.0800170898438 C 1383.44384765625 539.0800170898438 1382.39501953125 538.0311889648438 1382.39501953125 536.7420043945313 L 1382.39501953125 523.9240112304688 C 1382.39501953125 523.21826171875 1383.274536132813 522.2822875976563 1384.012329101563 521.6213989257813 C 1384.483642578125 521.19921875 1385.656982421875 520.21728515625 1386.37158203125 520.21728515625 C 1386.783447265625 520.21728515625 1387.071044921875 520.5079345703125 1387.071044921875 520.9240112304688 L 1387.071044921875 536.7420043945313 C 1387.071044921875 538.0311889648438 1386.022216796875 539.0800170898438 1384.733032226563 539.0800170898438 Z"/><path class="g" d="M 1384.733032226563 538.5800170898438 C 1385.748046875 538.5800170898438 1386.571044921875 537.7570190429688 1386.571044921875 536.7420043945313 L 1386.571044921875 520.9240112304688 C 1386.571044921875 520.780517578125 1386.497680664063 520.71728515625 1386.37158203125 520.71728515625 C 1385.605346679688 520.71728515625 1382.89501953125 523.052490234375 1382.89501953125 523.9240112304688 L 1382.89501953125 536.7420043945313 C 1382.89501953125 537.7570190429688 1383.718017578125 538.5800170898438 1384.733032226563 538.5800170898438 M 1384.733032226563 539.5800170898438 C 1383.168212890625 539.5800170898438 1381.89501953125 538.306884765625 1381.89501953125 536.7420043945313 L 1381.89501953125 523.9240112304688 C 1381.89501953125 523.2091674804688 1382.4951171875 522.3091430664063 1383.6787109375 521.2489624023438 C 1384.458740234375 520.5502319335938 1385.559204101563 519.71728515625 1386.37158203125 519.71728515625 C 1387.055419921875 519.71728515625 1387.571044921875 520.236083984375 1387.571044921875 520.9240112304688 L 1387.571044921875 536.7420043945313 C 1387.571044921875 538.306884765625 1386.2978515625 539.5800170898438 1384.733032226563 539.5800170898438 Z"/></g><path class="c" d="M1379.25,511.166l-69.806-.977s-9.616-1.493-9.284,9.02,3.544-.023,7.3-3.009,67.588-1.781,67.588-1.781S1382.622,511.213,1379.25,511.166Z"/><path class="d" d="M1369.813,518.888a9.918,9.918,0,0,1,6.013,18.165c-9.267,6.153-20,9.469-32.8,10.138a9.916,9.916,0,1,1-1.034-19.806c9.158-.478,16.638-2.721,22.863-6.853A9.871,9.871,0,0,1,1369.813,518.888Z"/><path class="e" d="M1351.606,530.658l-1.815,10.991-2.661.348-4.556-10.16,2.636-.344,3.1,7.285,1.216-7.848Z"/><path class="e" d="M1360.322,527.964l1.938,6.352a5.938,5.938,0,0,1,.346,2.4,2.842,2.842,0,0,1-.92,1.628,6.717,6.717,0,0,1-4.747,1.5,3.047,3.047,0,0,1-1.679-.836,5.254,5.254,0,0,1-1.146-2.206l-1.937-6.353,2.594-.79,1.936,6.353a4.029,4.029,0,0,0,.507,1.167,1.187,1.187,0,0,0,.741.448,2.188,2.188,0,0,0,1.09-.083,2.436,2.436,0,0,0,1.027-.559,1.169,1.169,0,0,0,.378-.764,4.077,4.077,0,0,0-.238-1.279l-1.938-6.351Z"/><path class="e" d="M1369.748,526.364l-1.645,1.519a1.743,1.743,0,0,0-2.176-.411q-1.353.606-.959,1.483a.867.867,0,0,0,.518.478,2.786,2.786,0,0,0,1.332-.092,12.451,12.451,0,0,1,2.451-.37,3.062,3.062,0,0,1,1.607.464,2.866,2.866,0,0,1,1.156,1.31,3.322,3.322,0,0,1,.008,2.735,4.626,4.626,0,0,1-2.577,2.312,5.024,5.024,0,0,1-2.852.463,3.544,3.544,0,0,1-2.291-1.4l1.9-1.424a1.965,1.965,0,0,0,2.589.473,2.048,2.048,0,0,0,1.03-.826.986.986,0,0,0,.06-.9.828.828,0,0,0-.647-.506,4.621,4.621,0,0,0-1.543.161,6.716,6.716,0,0,1-3.12.137,2.639,2.639,0,0,1-1.665-1.594,3.174,3.174,0,0,1-.038-2.612,3.923,3.923,0,0,1,2.159-2.039Q1367.9,524.444,1369.748,526.364Z"/></g></svg>