<svg xmlns="http://www.w3.org/2000/svg" width="108.255" height="52.596" viewBox="0 0 108.255 52.596"><defs><style>.a,.g{fill:#3e96d4;}.b,.c,.e{fill:#fff;}.b{stroke-miterlimit:10;}.c{opacity:0.5;}.d{fill:#3b3c3e;}.f,.g{stroke:none;}</style></defs><g transform="translate(-1294.298 -436.702)"><rect class="a" width="108.255" height="52.596" rx="3.904" transform="translate(1294.298 436.702)"/><g class="b"><path class="f" d="M 1318.80224609375 461.9997863769531 C 1314.406005859375 456.7456359863281 1309.427001953125 454.4930114746094 1302.286987304688 454.4930114746094 C 1301.513061523438 454.4930114746094 1300.883544921875 452.65576171875 1300.883544921875 450.3975219726563 C 1300.883544921875 449.2677001953125 1301.045776367188 448.1791076660156 1301.32861328125 447.4108581542969 C 1301.481079101563 446.9967346191406 1301.808349609375 446.302001953125 1302.286987304688 446.302001953125 C 1307.089599609375 446.302001953125 1311.234619140625 447.1162109375 1314.958862304688 448.7911376953125 C 1318.052856445313 450.1825866699219 1320.807006835938 452.1551208496094 1323.368408203125 454.8155822753906 L 1318.80224609375 461.9997863769531 Z"/><path class="g" d="M 1318.74267578125 461.1613464355469 L 1322.734252929688 454.8812561035156 C 1320.295776367188 452.4093627929688 1317.678466796875 450.5624389648438 1314.753784179688 449.2471313476563 C 1311.095336914063 447.601806640625 1307.017456054688 446.802001953125 1302.2841796875 446.8020935058594 C 1302.234375 446.8143310546875 1301.982177734375 447.0170288085938 1301.748657226563 447.7245788574219 C 1301.51318359375 448.4378967285156 1301.383544921875 449.3871459960938 1301.383544921875 450.3975219726563 C 1301.383544921875 451.4078674316406 1301.51318359375 452.3571166992188 1301.748657226563 453.0704345703125 C 1301.982177734375 453.7780151367188 1302.234375 453.9806823730469 1302.286987304688 453.9930114746094 C 1309.353393554688 453.9930114746094 1314.350830078125 456.1507873535156 1318.74267578125 461.1613464355469 M 1318.85302734375 462.8519897460938 C 1314.828002929688 457.81298828125 1310.159057617188 454.9930114746094 1302.286987304688 454.9930114746094 C 1299.7490234375 454.9930114746094 1299.7490234375 445.802001953125 1302.286987304688 445.802001953125 C 1312.548950195313 445.802001953125 1319.1259765625 449.572998046875 1324 454.7539978027344 L 1318.85302734375 462.8519897460938 Z"/></g><g class="b"><path class="f" d="M 1349.766967773438 484.02099609375 C 1340.561401367188 484.02099609375 1333.56640625 480.9962158203125 1327.788696289063 474.5083923339844 L 1332.810302734375 467.7514953613281 C 1337.382690429688 473.4814147949219 1342.34130859375 475.8309936523438 1349.766967773438 475.8309936523438 C 1359.154907226563 475.8309936523438 1365.359619140625 471.8378601074219 1369.88525390625 462.8835144042969 C 1372.894165039063 456.932373046875 1376.752319335938 452.3962707519531 1381.352294921875 449.4012451171875 C 1385.94482421875 446.4111328125 1391.374389648438 444.8949890136719 1397.489990234375 444.8949890136719 C 1398.263916015625 444.8949890136719 1398.893432617188 446.7322387695313 1398.893432617188 448.9905090332031 C 1398.893432617188 451.2487487792969 1398.263916015625 453.0859985351563 1397.489990234375 453.0859985351563 C 1388.297119140625 453.0859985351563 1381.84814453125 457.3736267089844 1377.19482421875 466.5794372558594 C 1374.27880859375 472.3485107421875 1370.48388671875 476.7459106445313 1365.915283203125 479.6495056152344 C 1361.351318359375 482.5502319335938 1355.918212890625 484.02099609375 1349.766967773438 484.02099609375 Z"/><path class="g" d="M 1349.766967773438 483.52099609375 C 1355.82177734375 483.52099609375 1361.16455078125 482.0764770507813 1365.647094726563 479.2275390625 C 1370.138671875 476.3728637695313 1373.873779296875 472.0415344238281 1376.74853515625 466.3538818359375 C 1381.49658203125 456.9608459472656 1388.087280273438 452.5859985351563 1397.492797851563 452.5859069824219 C 1397.542602539063 452.5736694335938 1397.794799804688 452.3709716796875 1398.0283203125 451.6633911132813 C 1398.263793945313 450.9501037597656 1398.393432617188 450.0008239746094 1398.393432617188 448.990478515625 C 1398.393432617188 447.9801635742188 1398.263793945313 447.0308837890625 1398.0283203125 446.3175964355469 C 1397.794799804688 445.6100158691406 1397.542602539063 445.4073181152344 1397.489990234375 445.3949890136719 C 1391.472900390625 445.3949890136719 1386.135131835938 446.8838806152344 1381.625122070313 449.8202514648438 C 1377.099975585938 452.7666015625 1373.300170898438 457.2376403808594 1370.331420898438 463.1090698242188 C 1365.7099609375 472.2532043457031 1359.367553710938 476.3309936523438 1349.766967773438 476.3309936523438 C 1342.492065429688 476.3309936523438 1337.355834960938 473.9947814941406 1332.828979492188 468.5645751953125 L 1328.434204101563 474.4780883789063 C 1330.953369140625 477.2430114746094 1333.652954101563 479.3048095703125 1336.666625976563 480.7686462402344 C 1340.479614257813 482.6206970214844 1344.764770507813 483.52099609375 1349.766967773438 483.52099609375 M 1349.766967773438 484.52099609375 C 1338.860961914063 484.52099609375 1332.114013671875 480.2420043945313 1327.14599609375 474.5350036621094 L 1332.800048828125 466.927001953125 C 1336.927978515625 472.3070068359375 1341.64404296875 475.3309936523438 1349.766967773438 475.3309936523438 C 1358.942016601563 475.3309936523438 1365.009033203125 471.4230041503906 1369.43896484375 462.6579895019531 C 1375.566040039063 450.5400085449219 1385.003051757813 444.3949890136719 1397.489990234375 444.3949890136719 C 1400.027954101563 444.3949890136719 1400.027954101563 453.5859985351563 1397.489990234375 453.5859985351563 C 1388.506958007813 453.5859985351563 1382.199951171875 457.7860107421875 1377.640991210938 466.8049926757813 C 1371.698974609375 478.5610046386719 1362.321044921875 484.52099609375 1349.766967773438 484.52099609375 Z"/></g><g class="b"><path class="f" d="M 1397.489990234375 484.02099609375 C 1393.0029296875 484.02099609375 1388.866088867188 483.2037048339844 1385.194580078125 481.591796875 C 1381.634643554688 480.0288391113281 1378.4267578125 477.6810302734375 1375.655151367188 474.6109313964844 L 1380.15087890625 467.1906127929688 C 1384.458251953125 473.0029907226563 1390.137817382813 475.8309936523438 1397.489990234375 475.8309936523438 C 1398.263916015625 475.8309936523438 1398.893432617188 477.6679992675781 1398.893432617188 479.9259948730469 C 1398.893432617188 482.1839904785156 1398.263916015625 484.02099609375 1397.489990234375 484.02099609375 Z"/><path class="g" d="M 1380.198120117188 468.0775756835938 L 1376.276733398438 474.5499572753906 C 1378.942626953125 477.43310546875 1382.007446289063 479.6464538574219 1385.395629882813 481.1339721679688 C 1389.00341796875 482.7178955078125 1393.072509765625 483.52099609375 1397.492797851563 483.5209045410156 C 1397.542602539063 483.5086975097656 1397.794677734375 483.3062438964844 1398.028198242188 482.5989379882813 C 1398.263793945313 481.8856811523438 1398.393432617188 480.9364318847656 1398.393432617188 479.9259948730469 C 1398.393432617188 478.9155578613281 1398.263793945313 477.96630859375 1398.028198242188 477.2530517578125 C 1397.794677734375 476.5457458496094 1397.542602539063 476.3432922363281 1397.489990234375 476.3309936523438 C 1390.219848632813 476.3309936523438 1384.548461914063 473.6282043457031 1380.198120117188 468.0775756835938 M 1380.114990234375 466.2850036621094 C 1384.416015625 472.4330139160156 1390.030029296875 475.3309936523438 1397.489990234375 475.3309936523438 C 1400.027954101563 475.3309936523438 1400.027954101563 484.52099609375 1397.489990234375 484.52099609375 C 1388.329956054688 484.52099609375 1380.81103515625 481.2149963378906 1375.036010742188 474.6679992675781 L 1380.114990234375 466.2850036621094 Z"/></g><g class="b"><path class="f" d="M 1302.286987304688 482.6130065917969 C 1301.513061523438 482.6130065917969 1300.883544921875 480.7757568359375 1300.883544921875 478.5175170898438 C 1300.883544921875 477.3876953125 1301.045776367188 476.2991027832031 1301.32861328125 475.5308532714844 C 1301.481079101563 475.1167297363281 1301.808349609375 474.4219970703125 1302.286987304688 474.4219970703125 C 1312.584716796875 474.4219970703125 1317.513427734375 469.7256469726563 1322.546752929688 461.6136169433594 C 1324.823364257813 457.9451293945313 1328.028198242188 453.3070373535156 1332.642456054688 449.9760131835938 C 1337.378540039063 446.5570068359375 1342.97998046875 444.8949890136719 1349.766967773438 444.8949890136719 C 1354.361206054688 444.8949890136719 1358.573852539063 445.7169799804688 1362.2880859375 447.3381042480469 C 1365.886962890625 448.9089660644531 1369.102661132813 451.2676391601563 1371.850708007813 454.3511657714844 L 1367.294921875 461.7131652832031 C 1363.069091796875 455.8313598632813 1357.479125976563 453.0859985351563 1349.766967773438 453.0859985351563 C 1339.488647460938 453.0859985351563 1334.55517578125 457.7962951660156 1329.507080078125 465.9324035644531 C 1327.235595703125 469.5927124023438 1324.03662109375 474.2203979492188 1319.423217773438 477.5439453125 C 1314.6884765625 480.9548950195313 1309.083129882813 482.6130065917969 1302.286987304688 482.6130065917969 Z"/><path class="g" d="M 1349.766967773438 445.3949890136719 C 1343.088745117188 445.3949890136719 1337.5830078125 447.0260620117188 1332.93505859375 450.3814086914063 C 1328.391845703125 453.6611938476563 1325.223999023438 458.2478332519531 1322.9716796875 461.8772583007813 C 1317.845336914063 470.1389770507813 1312.8173828125 474.9219970703125 1302.2841796875 474.9220886230469 C 1302.234375 474.934326171875 1301.982177734375 475.1370239257813 1301.748657226563 475.8446044921875 C 1301.51318359375 476.5578918457031 1301.383544921875 477.5071716308594 1301.383544921875 478.5175170898438 C 1301.383544921875 479.52783203125 1301.51318359375 480.4771118164063 1301.748657226563 481.1903991699219 C 1301.982177734375 481.8979797363281 1302.234375 482.1006774902344 1302.286987304688 482.1130065917969 C 1308.974609375 482.1130065917969 1314.484252929688 480.4857482910156 1319.130981445313 477.1382446289063 C 1323.673217773438 473.8660278320313 1326.835083007813 469.2898559570313 1329.082275390625 465.6687927246094 C 1334.223266601563 457.3829650878906 1339.255981445313 452.5859985351563 1349.766967773438 452.5859985351563 C 1357.388916015625 452.5859985351563 1362.986328125 455.2114562988281 1367.258178710938 460.8223571777344 L 1371.227905273438 454.4073486328125 C 1368.583862304688 451.5132446289063 1365.512084960938 449.2908935546875 1362.088012695313 447.79638671875 C 1358.437377929688 446.2029418945313 1354.291870117188 445.3949890136719 1349.766967773438 445.3949890136719 M 1349.766967773438 444.3949890136719 C 1359.141967773438 444.3949890136719 1366.746948242188 447.7200012207031 1372.470947265625 454.2990112304688 L 1367.319946289063 462.6229858398438 C 1363.109985351563 456.4049987792969 1357.56005859375 453.5859985351563 1349.766967773438 453.5859985351563 C 1339.720947265625 453.5859985351563 1334.886962890625 458.2099914550781 1329.932006835938 466.1960144042969 C 1324.47900390625 474.9830017089844 1317.35595703125 483.1130065917969 1302.286987304688 483.1130065917969 C 1299.7490234375 483.1130065917969 1299.7490234375 473.9219970703125 1302.286987304688 473.9219970703125 C 1312.35205078125 473.9219970703125 1317.181030273438 469.31298828125 1322.121948242188 461.3500061035156 C 1327.586059570313 452.5450134277344 1334.717041015625 444.3949890136719 1349.766967773438 444.3949890136719 Z"/></g><g class="b"><path class="f" d="M 1348.7099609375 481.3250122070313 C 1347.420776367188 481.3250122070313 1346.371948242188 480.2761840820313 1346.371948242188 478.9869995117188 L 1346.371948242188 451.1409912109375 C 1346.371948242188 449.8518371582031 1347.420776367188 448.8030090332031 1348.7099609375 448.8030090332031 C 1349.999145507813 448.8030090332031 1351.047973632813 449.8518371582031 1351.047973632813 451.1409912109375 L 1351.047973632813 478.9869995117188 C 1351.047973632813 480.2761840820313 1349.999145507813 481.3250122070313 1348.7099609375 481.3250122070313 Z"/><path class="g" d="M 1348.7099609375 480.8250122070313 C 1349.724975585938 480.8250122070313 1350.547973632813 480.0020141601563 1350.547973632813 478.9869995117188 L 1350.547973632813 451.1409912109375 C 1350.547973632813 450.1260070800781 1349.724975585938 449.3030090332031 1348.7099609375 449.3030090332031 C 1347.694946289063 449.3030090332031 1346.871948242188 450.1260070800781 1346.871948242188 451.1409912109375 L 1346.871948242188 478.9869995117188 C 1346.871948242188 480.0020141601563 1347.694946289063 480.8250122070313 1348.7099609375 480.8250122070313 M 1348.7099609375 481.8250122070313 C 1347.145141601563 481.8250122070313 1345.871948242188 480.5518798828125 1345.871948242188 478.9869995117188 L 1345.871948242188 451.1409912109375 C 1345.871948242188 449.5761108398438 1347.145141601563 448.3030090332031 1348.7099609375 448.3030090332031 C 1350.274780273438 448.3030090332031 1351.547973632813 449.5761108398438 1351.547973632813 451.1409912109375 L 1351.547973632813 478.9869995117188 C 1351.547973632813 480.5518798828125 1350.274780273438 481.8250122070313 1348.7099609375 481.8250122070313 Z"/></g><g class="b"><path class="f" d="M 1358.846069335938 471.2605285644531 C 1358.25341796875 471.2605285644531 1357.988037109375 470.8690185546875 1357.988037109375 470.4809875488281 L 1357.988037109375 451.8259887695313 C 1357.988037109375 450.5368041992188 1359.036865234375 449.4880065917969 1360.326049804688 449.4880065917969 C 1361.615112304688 449.4880065917969 1362.663940429688 450.5368041992188 1362.663940429688 451.8259887695313 L 1362.663940429688 468.4809875488281 C 1362.663940429688 469.1899719238281 1361.827392578125 469.8866271972656 1361.12548828125 470.34619140625 C 1360.450561523438 470.7882080078125 1359.497192382813 471.2605285644531 1358.846069335938 471.2605285644531 Z"/><path class="g" d="M 1358.846069335938 470.7605285644531 C 1359.770263671875 470.7605285644531 1362.163940429688 469.300048828125 1362.163940429688 468.4809875488281 L 1362.163940429688 451.8259887695313 C 1362.163940429688 450.8110046386719 1361.340942382813 449.9880065917969 1360.326049804688 449.9880065917969 C 1359.31103515625 449.9880065917969 1358.488037109375 450.8110046386719 1358.488037109375 451.8259887695313 L 1358.488037109375 470.4809875488281 C 1358.488037109375 470.6769409179688 1358.625 470.7605285644531 1358.846069335938 470.7605285644531 M 1358.846069335938 471.7605285644531 C 1357.954467773438 471.7605285644531 1357.488037109375 471.1168212890625 1357.488037109375 470.4809875488281 L 1357.488037109375 451.8259887695313 C 1357.488037109375 450.2611083984375 1358.761108398438 448.9880065917969 1360.326049804688 448.9880065917969 C 1361.890869140625 448.9880065917969 1363.163940429688 450.2611083984375 1363.163940429688 451.8259887695313 L 1363.163940429688 468.4809875488281 C 1363.163940429688 469.2295227050781 1362.5703125 469.997802734375 1361.3994140625 470.7644958496094 C 1361.042602539063 470.9981689453125 1359.803955078125 471.7605285644531 1358.846069335938 471.7605285644531 Z"/></g><g class="b"><path class="f" d="M 1338.677978515625 478.8030090332031 C 1337.388793945313 478.8030090332031 1336.339965820313 477.7541809082031 1336.339965820313 476.4649963378906 L 1336.339965820313 460.8099975585938 C 1336.339965820313 460.1009826660156 1337.1767578125 459.4043273925781 1337.87890625 458.9447631835938 C 1338.554077148438 458.5027770996094 1339.507568359375 458.0304870605469 1340.158813476563 458.0304870605469 C 1340.751586914063 458.0304870605469 1341.016967773438 458.4219970703125 1341.016967773438 458.8099975585938 L 1341.016967773438 476.4649963378906 C 1341.016967773438 477.7541809082031 1339.967651367188 478.8030090332031 1338.677978515625 478.8030090332031 Z"/><path class="g" d="M 1338.677978515625 478.3030090332031 C 1339.693969726563 478.3030090332031 1340.516967773438 477.4800109863281 1340.516967773438 476.4649963378906 L 1340.516967773438 458.8099975585938 C 1340.516967773438 458.6140441894531 1340.380004882813 458.5304870605469 1340.158813476563 458.5304870605469 C 1339.234375 458.5304870605469 1336.839965820313 459.990966796875 1336.839965820313 460.8099975585938 L 1336.839965820313 476.4649963378906 C 1336.839965820313 477.4800109863281 1337.662963867188 478.3030090332031 1338.677978515625 478.3030090332031 M 1338.677978515625 479.3030090332031 C 1337.113037109375 479.3030090332031 1335.839965820313 478.0298767089844 1335.839965820313 476.4649963378906 L 1335.839965820313 460.8099975585938 C 1335.839965820313 460.0614318847656 1336.433837890625 459.2931213378906 1337.60498046875 458.5264282226563 C 1337.9619140625 458.2927856445313 1339.200805664063 457.5304870605469 1340.158813476563 457.5304870605469 C 1341.050415039063 457.5304870605469 1341.516967773438 458.1741638183594 1341.516967773438 458.8099975585938 L 1341.516967773438 476.4649963378906 C 1341.516967773438 478.0298767089844 1340.243408203125 479.3030090332031 1338.677978515625 479.3030090332031 Z"/></g><g class="b"><path class="f" d="M 1305.161987304688 479.760986328125 C 1303.872314453125 479.760986328125 1302.822998046875 478.712158203125 1302.822998046875 477.4230041503906 L 1302.822998046875 453.2529907226563 C 1302.822998046875 451.9638366699219 1303.872314453125 450.9150085449219 1305.161987304688 450.9150085449219 C 1306.451171875 450.9150085449219 1307.5 451.9638366699219 1307.5 453.2529907226563 L 1307.5 477.4230041503906 C 1307.5 478.712158203125 1306.451171875 479.760986328125 1305.161987304688 479.760986328125 Z"/><path class="g" d="M 1305.161987304688 479.260986328125 C 1306.177001953125 479.260986328125 1307 478.43798828125 1307 477.4230041503906 L 1307 453.2529907226563 C 1307 452.2380065917969 1306.177001953125 451.4150085449219 1305.161987304688 451.4150085449219 C 1304.14697265625 451.4150085449219 1303.322998046875 452.2380065917969 1303.322998046875 453.2529907226563 L 1303.322998046875 477.4230041503906 C 1303.322998046875 478.43798828125 1304.14697265625 479.260986328125 1305.161987304688 479.260986328125 M 1305.161987304688 480.260986328125 C 1303.596557617188 480.260986328125 1302.322998046875 478.9878845214844 1302.322998046875 477.4230041503906 L 1302.322998046875 453.2529907226563 C 1302.322998046875 451.6881103515625 1303.596557617188 450.4150085449219 1305.161987304688 450.4150085449219 C 1306.726928710938 450.4150085449219 1308 451.6881103515625 1308 453.2529907226563 L 1308 477.4230041503906 C 1308 478.9878845214844 1306.726928710938 480.260986328125 1305.161987304688 480.260986328125 Z"/></g><g class="b"><path class="f" d="M 1311.794799804688 470.2150573730469 C 1311.3828125 470.2150573730469 1311.094970703125 469.92431640625 1311.094970703125 469.5079956054688 L 1311.094970703125 455.3680114746094 C 1311.094970703125 454.0782775878906 1312.143798828125 453.0289916992188 1313.432983398438 453.0289916992188 C 1314.72265625 453.0289916992188 1315.77197265625 454.0782775878906 1315.77197265625 455.3680114746094 L 1315.77197265625 466.5079956054688 C 1315.77197265625 467.2141723632813 1314.892456054688 468.1502075195313 1314.154541015625 468.8110656738281 C 1313.683227539063 469.2332153320313 1312.509887695313 470.2150573730469 1311.794799804688 470.2150573730469 Z"/><path class="g" d="M 1311.794799804688 469.7150573730469 C 1312.561645507813 469.7150573730469 1315.27197265625 467.3802490234375 1315.27197265625 466.5079956054688 L 1315.27197265625 455.3680114746094 C 1315.27197265625 454.3519897460938 1314.447998046875 453.5289916992188 1313.432983398438 453.5289916992188 C 1312.41796875 453.5289916992188 1311.594970703125 454.3519897460938 1311.594970703125 455.3680114746094 L 1311.594970703125 469.5079956054688 C 1311.594970703125 469.6517333984375 1311.66845703125 469.7150573730469 1311.794799804688 469.7150573730469 M 1311.794799804688 470.7150573730469 C 1311.11083984375 470.7150573730469 1310.594970703125 470.1961364746094 1310.594970703125 469.5079956054688 L 1310.594970703125 455.3680114746094 C 1310.594970703125 453.8025817871094 1311.868041992188 452.5289916992188 1313.432983398438 452.5289916992188 C 1314.998413085938 452.5289916992188 1316.27197265625 453.8025817871094 1316.27197265625 455.3680114746094 L 1316.27197265625 466.5079956054688 C 1316.27197265625 467.2231750488281 1315.671752929688 468.1233520507813 1314.488159179688 469.1835327148438 C 1313.708129882813 469.8822021484375 1312.607543945313 470.7150573730469 1311.794799804688 470.7150573730469 Z"/></g><g class="b"><path class="f" d="M 1393.765014648438 481.3250122070313 C 1392.475830078125 481.3250122070313 1391.427001953125 480.2761840820313 1391.427001953125 478.9869995117188 L 1391.427001953125 451.1409912109375 C 1391.427001953125 449.8518371582031 1392.475830078125 448.8030090332031 1393.765014648438 448.8030090332031 C 1395.05419921875 448.8030090332031 1396.10302734375 449.8518371582031 1396.10302734375 451.1409912109375 L 1396.10302734375 478.9869995117188 C 1396.10302734375 480.2761840820313 1395.05419921875 481.3250122070313 1393.765014648438 481.3250122070313 Z"/><path class="g" d="M 1393.765014648438 480.8250122070313 C 1394.780029296875 480.8250122070313 1395.60302734375 480.0020141601563 1395.60302734375 478.9869995117188 L 1395.60302734375 451.1409912109375 C 1395.60302734375 450.1260070800781 1394.780029296875 449.3030090332031 1393.765014648438 449.3030090332031 C 1392.75 449.3030090332031 1391.927001953125 450.1260070800781 1391.927001953125 451.1409912109375 L 1391.927001953125 478.9869995117188 C 1391.927001953125 480.0020141601563 1392.75 480.8250122070313 1393.765014648438 480.8250122070313 M 1393.765014648438 481.8250122070313 C 1392.2001953125 481.8250122070313 1390.927001953125 480.5518798828125 1390.927001953125 478.9869995117188 L 1390.927001953125 451.1409912109375 C 1390.927001953125 449.5761108398438 1392.2001953125 448.3030090332031 1393.765014648438 448.3030090332031 C 1395.329833984375 448.3030090332031 1396.60302734375 449.5761108398438 1396.60302734375 451.1409912109375 L 1396.60302734375 478.9869995117188 C 1396.60302734375 480.5518798828125 1395.329833984375 481.8250122070313 1393.765014648438 481.8250122070313 Z"/></g><g class="b"><path class="f" d="M 1384.733032226563 477.8030090332031 C 1383.44384765625 477.8030090332031 1382.39501953125 476.7541809082031 1382.39501953125 475.4649963378906 L 1382.39501953125 462.6480102539063 C 1382.39501953125 461.9422607421875 1383.274536132813 461.0062866210938 1384.012329101563 460.3453979492188 C 1384.483642578125 459.9232177734375 1385.656982421875 458.9413146972656 1386.37158203125 458.9413146972656 C 1386.783447265625 458.9413146972656 1387.071044921875 459.2319030761719 1387.071044921875 459.6480102539063 L 1387.071044921875 475.4649963378906 C 1387.071044921875 476.7541809082031 1386.022216796875 477.8030090332031 1384.733032226563 477.8030090332031 Z"/><path class="g" d="M 1384.733032226563 477.3030090332031 C 1385.748046875 477.3030090332031 1386.571044921875 476.4800109863281 1386.571044921875 475.4649963378906 L 1386.571044921875 459.6480102539063 C 1386.571044921875 459.5045166015625 1386.497680664063 459.4413146972656 1386.37158203125 459.4413146972656 C 1385.605346679688 459.4413146972656 1382.89501953125 461.7764892578125 1382.89501953125 462.6480102539063 L 1382.89501953125 475.4649963378906 C 1382.89501953125 476.4800109863281 1383.718017578125 477.3030090332031 1384.733032226563 477.3030090332031 M 1384.733032226563 478.3030090332031 C 1383.168212890625 478.3030090332031 1381.89501953125 477.0298767089844 1381.89501953125 475.4649963378906 L 1381.89501953125 462.6480102539063 C 1381.89501953125 461.9331970214844 1382.4951171875 461.0331726074219 1383.6787109375 459.9729614257813 C 1384.458740234375 459.2742309570313 1385.559204101563 458.4413146972656 1386.37158203125 458.4413146972656 C 1387.055419921875 458.4413146972656 1387.571044921875 458.9600830078125 1387.571044921875 459.6480102539063 L 1387.571044921875 475.4649963378906 C 1387.571044921875 477.0298767089844 1386.2978515625 478.3030090332031 1384.733032226563 478.3030090332031 Z"/></g><path class="c" d="M1320.169,478.332l69.807.977s9.616,1.493,9.284-9.02-3.545.023-7.3,3.008-67.587,1.782-67.587,1.782S1316.8,478.285,1320.169,478.332Z"/><path class="d" d="M1329.1,465.927a9.918,9.918,0,0,1-5.626-18.288c9.4-5.955,20.192-9.043,33.008-9.44a9.916,9.916,0,1,1,.614,19.823c-9.167.284-16.692,2.368-23,6.367A9.864,9.864,0,0,1,1329.1,465.927Z"/><path class="e" d="M1332.859,448.065l4.969,9.435-2.17,1.144-2.051-3.892-2.945,1.551,2.051,3.892-2.17,1.142-4.971-9.435,2.172-1.143,1.936,3.678,2.945-1.551-1.937-3.678Z"/><path class="e" d="M1345.8,448.163l-2.469.882q-.68-2.154-2.318-1.681-1.881.541-.918,3.883a4.887,4.887,0,0,0,1.265,2.468,1.745,1.745,0,0,0,1.627.275q1.49-.429,1.262-2.461l2.369-.528a4.305,4.305,0,0,1-.564,3.191,4.781,4.781,0,0,1-6.24,1.314,5.79,5.79,0,0,1-2.391-3.514,5.974,5.974,0,0,1,.137-4.154,4.309,4.309,0,0,1,2.937-2.447Q1344.185,444.326,1345.8,448.163Z"/><path class="e" d="M1353.268,453.891l-3.373-8.436.751,8.663-2.085.181-.922-10.625,3.877-.336,2.414,6.2,1.412-6.529,3.887-.337.919,10.624-2.505.218-.75-8.663-1.922,8.894Z"/></g></svg>