<svg xmlns="http://www.w3.org/2000/svg" width="108.255" height="52.596" viewBox="0 0 108.255 52.596"><defs><style>.a,.e{fill:#3e96d4;}.b,.c{fill:#fff;}.b{stroke-miterlimit:10;}.c{opacity:0.5;}.d,.e{stroke:none;}</style></defs><rect class="a" width="108.255" height="52.596" rx="4.096"/><g transform="translate(-1293.915 -560.021)"><g class="b"><path class="d" d="M 1318.419189453125 585.3189086914063 C 1314.022094726563 580.064697265625 1309.043212890625 577.81201171875 1301.904052734375 577.81201171875 C 1301.130126953125 577.81201171875 1300.50048828125 575.9749755859375 1300.50048828125 573.717041015625 C 1300.50048828125 572.5873413085938 1300.662719726563 571.4989013671875 1300.945556640625 570.730712890625 C 1301.098022460938 570.316650390625 1301.42529296875 569.6220092773438 1301.904052734375 569.6220092773438 C 1306.706787109375 569.6220092773438 1310.851806640625 570.43603515625 1314.575927734375 572.1106567382813 C 1317.670043945313 573.501953125 1320.424194335938 575.4743041992188 1322.9853515625 578.1345825195313 L 1318.419189453125 585.3189086914063 Z"/><path class="e" d="M 1318.359619140625 584.48046875 L 1322.351196289063 578.2002563476563 C 1319.912963867188 575.7285766601563 1317.295654296875 573.8818359375 1314.370971679688 572.566650390625 C 1310.712646484375 570.9216918945313 1306.634643554688 570.1220092773438 1301.901245117188 570.1221313476563 C 1301.851440429688 570.13427734375 1301.599487304688 570.3364868164063 1301.365844726563 571.0436401367188 C 1301.130249023438 571.7569580078125 1301.00048828125 572.7063598632813 1301.00048828125 573.717041015625 C 1301.00048828125 574.7276611328125 1301.130249023438 575.6771240234375 1301.365844726563 576.390380859375 C 1301.599487304688 577.0975341796875 1301.851440429688 577.2997436523438 1301.904052734375 577.31201171875 C 1308.969482421875 577.31201171875 1313.967041015625 579.469970703125 1318.359619140625 584.48046875 M 1318.469970703125 586.1710205078125 C 1314.444946289063 581.1329956054688 1309.776000976563 578.31201171875 1301.904052734375 578.31201171875 C 1299.365966796875 578.31201171875 1299.365966796875 569.1220092773438 1301.904052734375 569.1220092773438 C 1312.166015625 569.1220092773438 1318.743041992188 572.8920288085938 1323.616943359375 578.072998046875 L 1318.469970703125 586.1710205078125 Z"/></g><g class="b"><path class="d" d="M 1349.384033203125 607.3400268554688 C 1340.178466796875 607.3400268554688 1333.183471679688 604.3152465820313 1327.405639648438 597.8274536132813 L 1332.428100585938 591.0704956054688 C 1336.999755859375 596.8004760742188 1341.9580078125 599.1500244140625 1349.384033203125 599.1500244140625 C 1358.771850585938 599.1500244140625 1364.9765625 595.1568603515625 1369.502319335938 586.2025146484375 C 1372.51123046875 580.2514038085938 1376.369262695313 575.7152709960938 1380.969360351563 572.7202758789063 C 1385.561889648438 569.7301025390625 1390.991333007813 568.2139892578125 1397.107055664063 568.2139892578125 C 1397.880981445313 568.2139892578125 1398.510498046875 570.0512084960938 1398.510498046875 572.3095092773438 C 1398.510498046875 574.5678100585938 1397.880981445313 576.405029296875 1397.107055664063 576.405029296875 C 1387.914184570313 576.405029296875 1381.465209960938 580.6926879882813 1376.811889648438 589.8984375 C 1373.895874023438 595.66748046875 1370.100952148438 600.06494140625 1365.532348632813 602.9685668945313 C 1360.96826171875 605.8692626953125 1355.535278320313 607.3400268554688 1349.384033203125 607.3400268554688 Z"/><path class="e" d="M 1349.384033203125 606.8400268554688 C 1355.438720703125 606.8400268554688 1360.781616210938 605.3955078125 1365.26416015625 602.5465698242188 C 1369.755737304688 599.6918334960938 1373.490844726563 595.3605346679688 1376.365600585938 589.6729125976563 C 1381.113647460938 580.2798461914063 1387.704345703125 575.905029296875 1397.10986328125 575.9049682617188 C 1397.15966796875 575.8927001953125 1397.411865234375 575.6900024414063 1397.645385742188 574.982421875 C 1397.880859375 574.2691040039063 1398.010498046875 573.31982421875 1398.010498046875 572.3095092773438 C 1398.010498046875 571.2991943359375 1397.880859375 570.3499145507813 1397.645385742188 569.6365966796875 C 1397.411865234375 568.9290161132813 1397.15966796875 568.726318359375 1397.107055664063 568.7139892578125 C 1391.08984375 568.7139892578125 1385.752075195313 570.202880859375 1381.2421875 573.1392822265625 C 1376.716918945313 576.0855712890625 1372.917114257813 580.556640625 1369.948486328125 586.4281005859375 C 1365.326782226563 595.5722045898438 1358.984497070313 599.6500244140625 1349.384033203125 599.6500244140625 C 1342.10888671875 599.6500244140625 1336.972900390625 597.3138427734375 1332.44677734375 591.883544921875 L 1328.05126953125 597.797119140625 C 1330.570434570313 600.56201171875 1333.27001953125 602.623779296875 1336.28369140625 604.087646484375 C 1340.0966796875 605.939697265625 1344.3818359375 606.8400268554688 1349.384033203125 606.8400268554688 M 1349.384033203125 607.8400268554688 C 1338.47802734375 607.8400268554688 1331.73095703125 603.5609741210938 1326.762939453125 597.85400390625 L 1332.41796875 590.2459716796875 C 1336.545043945313 595.6259765625 1341.260986328125 598.6500244140625 1349.384033203125 598.6500244140625 C 1358.558959960938 598.6500244140625 1364.6259765625 594.7420043945313 1369.056030273438 585.9769897460938 C 1375.182983398438 573.8590087890625 1384.619995117188 567.7139892578125 1397.107055664063 567.7139892578125 C 1399.64501953125 567.7139892578125 1399.64501953125 576.905029296875 1397.107055664063 576.905029296875 C 1388.1240234375 576.905029296875 1381.817016601563 581.10498046875 1377.258056640625 590.1240234375 C 1371.316040039063 601.8800048828125 1361.93798828125 607.8400268554688 1349.384033203125 607.8400268554688 Z"/></g></g><g transform="translate(-1293.915 -560.021)"><g class="b"><path class="d" d="M 1397.107055664063 607.3400268554688 C 1392.619995117188 607.3400268554688 1388.483276367188 606.5227661132813 1384.811645507813 604.9109497070313 C 1381.251586914063 603.3480834960938 1378.043701171875 601.0005493164063 1375.272094726563 597.9308471679688 L 1379.76806640625 590.5096435546875 C 1384.0751953125 596.3220825195313 1389.754760742188 599.1500244140625 1397.107055664063 599.1500244140625 C 1397.880981445313 599.1500244140625 1398.510498046875 600.987060546875 1398.510498046875 603.2450561523438 C 1398.510498046875 605.5029907226563 1397.880981445313 607.3400268554688 1397.107055664063 607.3400268554688 Z"/><path class="e" d="M 1379.815185546875 591.3966674804688 L 1375.893676757813 597.869873046875 C 1378.559692382813 600.7526245117188 1381.624389648438 602.9656982421875 1385.012573242188 604.453125 C 1388.620483398438 606.0369262695313 1392.689697265625 606.8400268554688 1397.10986328125 606.8399658203125 C 1397.15966796875 606.8276977539063 1397.411743164063 606.6253051757813 1397.645263671875 605.91796875 C 1397.880859375 605.2047119140625 1398.010498046875 604.2554321289063 1398.010498046875 603.2450561523438 C 1398.010498046875 602.234619140625 1397.880859375 601.2853393554688 1397.645263671875 600.5720825195313 C 1397.411743164063 599.86474609375 1397.15966796875 599.662353515625 1397.107055664063 599.6500244140625 C 1389.836791992188 599.6500244140625 1384.16552734375 596.9473266601563 1379.815185546875 591.3966674804688 M 1379.732055664063 589.60400390625 C 1384.032958984375 595.7520141601563 1389.64697265625 598.6500244140625 1397.107055664063 598.6500244140625 C 1399.64501953125 598.6500244140625 1399.64501953125 607.8400268554688 1397.107055664063 607.8400268554688 C 1387.947021484375 607.8400268554688 1380.427978515625 604.5339965820313 1374.652954101563 597.9879760742188 L 1379.732055664063 589.60400390625 Z"/></g><g class="b"><path class="d" d="M 1301.904052734375 605.9320068359375 C 1301.130126953125 605.9320068359375 1300.50048828125 604.0947875976563 1300.50048828125 601.8365478515625 C 1300.50048828125 600.7067260742188 1300.662719726563 599.6181030273438 1300.945556640625 598.849853515625 C 1301.098022460938 598.4357299804688 1301.42529296875 597.7410278320313 1301.904052734375 597.7410278320313 C 1312.201293945313 597.7410278320313 1317.130126953125 593.0450439453125 1322.163818359375 584.9336547851563 C 1324.440307617188 581.2648315429688 1327.64501953125 576.6264038085938 1332.259399414063 573.295166015625 C 1336.995483398438 569.8760375976563 1342.596923828125 568.2139892578125 1349.384033203125 568.2139892578125 C 1353.978271484375 568.2139892578125 1358.191040039063 569.0360107421875 1361.905151367188 570.6572265625 C 1365.504272460938 572.2283325195313 1368.7197265625 574.5869140625 1371.4677734375 577.671142578125 L 1366.912109375 585.0322265625 C 1362.686279296875 579.1504516601563 1357.09619140625 576.405029296875 1349.384033203125 576.405029296875 C 1339.105712890625 576.405029296875 1334.172241210938 581.1153564453125 1329.124145507813 589.2514038085938 C 1326.8525390625 592.911865234375 1323.653442382813 597.5396728515625 1319.040649414063 600.8629760742188 C 1314.305908203125 604.27392578125 1308.700561523438 605.9320068359375 1301.904052734375 605.9320068359375 Z"/><path class="e" d="M 1349.384033203125 568.7139892578125 C 1342.705688476563 568.7139892578125 1337.199951171875 570.3450927734375 1332.552124023438 573.7005615234375 C 1328.008666992188 576.9805908203125 1324.840942382813 581.5675048828125 1322.588745117188 585.197265625 C 1317.462036132813 593.4583740234375 1312.433959960938 598.2410278320313 1301.901245117188 598.2411499023438 C 1301.851440429688 598.2533569335938 1301.599365234375 598.455810546875 1301.36572265625 599.1632080078125 C 1301.130249023438 599.8765869140625 1301.00048828125 600.8259887695313 1301.00048828125 601.8365478515625 C 1301.00048828125 602.8471069335938 1301.130249023438 603.7964477539063 1301.36572265625 604.5098266601563 C 1301.599365234375 605.2172241210938 1301.851440429688 605.419677734375 1301.904052734375 605.4320068359375 C 1308.592041015625 605.4320068359375 1314.101806640625 603.8047485351563 1318.748291015625 600.457275390625 C 1323.2900390625 597.185302734375 1326.452026367188 592.6090087890625 1328.69921875 588.98779296875 C 1333.84033203125 580.7020263671875 1338.873046875 575.905029296875 1349.384033203125 575.905029296875 C 1357.005981445313 575.905029296875 1362.603515625 578.5305786132813 1366.875366210938 584.1414794921875 L 1370.844970703125 577.727294921875 C 1368.200927734375 574.832763671875 1365.129150390625 572.610107421875 1361.705078125 571.115478515625 C 1358.054443359375 569.52197265625 1353.909057617188 568.7139892578125 1349.384033203125 568.7139892578125 M 1349.384033203125 567.7139892578125 C 1358.759033203125 567.7139892578125 1366.364013671875 571.0390014648438 1372.088012695313 577.6190185546875 L 1366.93701171875 585.9420166015625 C 1362.72705078125 579.7239990234375 1357.177001953125 576.905029296875 1349.384033203125 576.905029296875 C 1339.338012695313 576.905029296875 1334.504028320313 581.5289916992188 1329.548950195313 589.5150146484375 C 1324.095947265625 598.302001953125 1316.973999023438 606.4320068359375 1301.904052734375 606.4320068359375 C 1299.365966796875 606.4320068359375 1299.365966796875 597.2410278320313 1301.904052734375 597.2410278320313 C 1311.968994140625 597.2410278320313 1316.797973632813 592.6320190429688 1321.739013671875 584.6699829101563 C 1327.203002929688 575.864013671875 1334.333984375 567.7139892578125 1349.384033203125 567.7139892578125 Z"/></g></g><g transform="translate(-1293.915 -560.021)"><g class="b"><path class="d" d="M 1348.327026367188 604.6439819335938 C 1347.037841796875 604.6439819335938 1345.989013671875 603.59521484375 1345.989013671875 602.3060302734375 L 1345.989013671875 574.4600219726563 C 1345.989013671875 573.1708374023438 1347.037841796875 572.1220092773438 1348.327026367188 572.1220092773438 C 1349.6162109375 572.1220092773438 1350.6650390625 573.1708374023438 1350.6650390625 574.4600219726563 L 1350.6650390625 602.3060302734375 C 1350.6650390625 603.59521484375 1349.6162109375 604.6439819335938 1348.327026367188 604.6439819335938 Z"/><path class="e" d="M 1348.327026367188 604.1439819335938 C 1349.342041015625 604.1439819335938 1350.1650390625 603.3209838867188 1350.1650390625 602.3060302734375 L 1350.1650390625 574.4600219726563 C 1350.1650390625 573.4450073242188 1349.342041015625 572.6220092773438 1348.327026367188 572.6220092773438 C 1347.31201171875 572.6220092773438 1346.489013671875 573.4450073242188 1346.489013671875 574.4600219726563 L 1346.489013671875 602.3060302734375 C 1346.489013671875 603.3209838867188 1347.31201171875 604.1439819335938 1348.327026367188 604.1439819335938 M 1348.327026367188 605.1439819335938 C 1346.76220703125 605.1439819335938 1345.489013671875 603.8709106445313 1345.489013671875 602.3060302734375 L 1345.489013671875 574.4600219726563 C 1345.489013671875 572.8951416015625 1346.76220703125 571.6220092773438 1348.327026367188 571.6220092773438 C 1349.891845703125 571.6220092773438 1351.1650390625 572.8951416015625 1351.1650390625 574.4600219726563 L 1351.1650390625 602.3060302734375 C 1351.1650390625 603.8709106445313 1349.891845703125 605.1439819335938 1348.327026367188 605.1439819335938 Z"/></g></g><g transform="translate(-1293.915 -560.021)"><g class="b"><path class="d" d="M 1358.463134765625 594.5795288085938 C 1357.870361328125 594.5795288085938 1357.60498046875 594.18798828125 1357.60498046875 593.7999877929688 L 1357.60498046875 575.14501953125 C 1357.60498046875 573.8558349609375 1358.65380859375 572.8070068359375 1359.942993164063 572.8070068359375 C 1361.232177734375 572.8070068359375 1362.281005859375 573.8558349609375 1362.281005859375 575.14501953125 L 1362.281005859375 591.7999877929688 C 1362.281005859375 592.5089721679688 1361.4443359375 593.2056274414063 1360.742553710938 593.6652221679688 C 1360.067504882813 594.1072387695313 1359.1142578125 594.5795288085938 1358.463134765625 594.5795288085938 Z"/><path class="e" d="M 1358.463134765625 594.0795288085938 C 1359.387329101563 594.0795288085938 1361.781005859375 592.6190795898438 1361.781005859375 591.7999877929688 L 1361.781005859375 575.14501953125 C 1361.781005859375 574.1300048828125 1360.9580078125 573.3070068359375 1359.942993164063 573.3070068359375 C 1358.927978515625 573.3070068359375 1358.10498046875 574.1300048828125 1358.10498046875 575.14501953125 L 1358.10498046875 593.7999877929688 C 1358.10498046875 593.9959106445313 1358.241943359375 594.0795288085938 1358.463134765625 594.0795288085938 M 1358.463134765625 595.0795288085938 C 1357.571533203125 595.0795288085938 1357.10498046875 594.4358520507813 1357.10498046875 593.7999877929688 L 1357.10498046875 575.14501953125 C 1357.10498046875 573.5801391601563 1358.378173828125 572.3070068359375 1359.942993164063 572.3070068359375 C 1361.5078125 572.3070068359375 1362.781005859375 573.5801391601563 1362.781005859375 575.14501953125 L 1362.781005859375 591.7999877929688 C 1362.781005859375 592.5485229492188 1362.187255859375 593.3168334960938 1361.016479492188 594.08349609375 C 1360.659545898438 594.317138671875 1359.4208984375 595.0795288085938 1358.463134765625 595.0795288085938 Z"/></g></g><g transform="translate(-1293.915 -560.021)"><g class="b"><path class="d" d="M 1338.295043945313 602.1220092773438 C 1337.005859375 602.1220092773438 1335.95703125 601.0731811523438 1335.95703125 599.7839965820313 L 1335.95703125 584.1290283203125 C 1335.95703125 583.4199829101563 1336.793823242188 582.7233276367188 1337.495849609375 582.2637939453125 C 1338.171142578125 581.82177734375 1339.124633789063 581.3494873046875 1339.77587890625 581.3494873046875 C 1340.36865234375 581.3494873046875 1340.634033203125 581.7410278320313 1340.634033203125 582.1290283203125 L 1340.634033203125 599.7839965820313 C 1340.634033203125 601.0731811523438 1339.584716796875 602.1220092773438 1338.295043945313 602.1220092773438 Z"/><path class="e" d="M 1338.295043945313 601.6220092773438 C 1339.31103515625 601.6220092773438 1340.134033203125 600.7990112304688 1340.134033203125 599.7839965820313 L 1340.134033203125 582.1290283203125 C 1340.134033203125 581.93310546875 1339.9970703125 581.8494873046875 1339.77587890625 581.8494873046875 C 1338.851318359375 581.8494873046875 1336.45703125 583.3099365234375 1336.45703125 584.1290283203125 L 1336.45703125 599.7839965820313 C 1336.45703125 600.7990112304688 1337.280029296875 601.6220092773438 1338.295043945313 601.6220092773438 M 1338.295043945313 602.6220092773438 C 1336.730102539063 602.6220092773438 1335.45703125 601.348876953125 1335.45703125 599.7839965820313 L 1335.45703125 584.1290283203125 C 1335.45703125 583.3804321289063 1336.050903320313 582.6121215820313 1337.222045898438 581.845458984375 C 1337.578979492188 581.61181640625 1338.81787109375 580.8494873046875 1339.77587890625 580.8494873046875 C 1340.66748046875 580.8494873046875 1341.134033203125 581.4931640625 1341.134033203125 582.1290283203125 L 1341.134033203125 599.7839965820313 C 1341.134033203125 601.348876953125 1339.860473632813 602.6220092773438 1338.295043945313 602.6220092773438 Z"/></g></g><g transform="translate(-1293.915 -560.021)"><g class="b"><path class="d" d="M 1304.779052734375 603.0800170898438 C 1303.4892578125 603.0800170898438 1302.43994140625 602.0311889648438 1302.43994140625 600.7420043945313 L 1302.43994140625 576.572021484375 C 1302.43994140625 575.2828369140625 1303.4892578125 574.2340087890625 1304.779052734375 574.2340087890625 C 1306.068115234375 574.2340087890625 1307.116943359375 575.2828369140625 1307.116943359375 576.572021484375 L 1307.116943359375 600.7420043945313 C 1307.116943359375 602.0311889648438 1306.068115234375 603.0800170898438 1304.779052734375 603.0800170898438 Z"/><path class="e" d="M 1304.779052734375 602.5800170898438 C 1305.7939453125 602.5800170898438 1306.616943359375 601.7570190429688 1306.616943359375 600.7420043945313 L 1306.616943359375 576.572021484375 C 1306.616943359375 575.5570068359375 1305.7939453125 574.7340087890625 1304.779052734375 574.7340087890625 C 1303.764038085938 574.7340087890625 1302.93994140625 575.5570068359375 1302.93994140625 576.572021484375 L 1302.93994140625 600.7420043945313 C 1302.93994140625 601.7570190429688 1303.764038085938 602.5800170898438 1304.779052734375 602.5800170898438 M 1304.779052734375 603.5800170898438 C 1303.213623046875 603.5800170898438 1301.93994140625 602.306884765625 1301.93994140625 600.7420043945313 L 1301.93994140625 576.572021484375 C 1301.93994140625 575.0071411132813 1303.213623046875 573.7340087890625 1304.779052734375 573.7340087890625 C 1306.343872070313 573.7340087890625 1307.616943359375 575.0071411132813 1307.616943359375 576.572021484375 L 1307.616943359375 600.7420043945313 C 1307.616943359375 602.306884765625 1306.343872070313 603.5800170898438 1304.779052734375 603.5800170898438 Z"/></g></g><g transform="translate(-1293.915 -560.021)"><g class="b"><path class="d" d="M 1311.41162109375 593.5347290039063 C 1310.999755859375 593.5347290039063 1310.712036132813 593.2440795898438 1310.712036132813 592.8280029296875 L 1310.712036132813 578.68701171875 C 1310.712036132813 577.3978271484375 1311.760864257813 576.3489990234375 1313.050048828125 576.3489990234375 C 1314.339721679688 576.3489990234375 1315.389038085938 577.3978271484375 1315.389038085938 578.68701171875 L 1315.389038085938 589.8280029296875 C 1315.389038085938 590.5337524414063 1314.50927734375 591.4697265625 1313.771240234375 592.1306762695313 C 1313.299926757813 592.5527954101563 1312.126220703125 593.5347290039063 1311.41162109375 593.5347290039063 Z"/><path class="e" d="M 1311.41162109375 593.0347290039063 C 1312.177978515625 593.0347290039063 1314.889038085938 590.6995239257813 1314.889038085938 589.8280029296875 L 1314.889038085938 578.68701171875 C 1314.889038085938 577.6719970703125 1314.06494140625 576.8489990234375 1313.050048828125 576.8489990234375 C 1312.035034179688 576.8489990234375 1311.212036132813 577.6719970703125 1311.212036132813 578.68701171875 L 1311.212036132813 592.8280029296875 C 1311.212036132813 592.9714965820313 1311.285400390625 593.0347290039063 1311.41162109375 593.0347290039063 M 1311.41162109375 594.0347290039063 C 1310.727783203125 594.0347290039063 1310.212036132813 593.5159301757813 1310.212036132813 592.8280029296875 L 1310.212036132813 578.68701171875 C 1310.212036132813 577.1221313476563 1311.485107421875 575.8489990234375 1313.050048828125 575.8489990234375 C 1314.615478515625 575.8489990234375 1315.889038085938 577.1221313476563 1315.889038085938 578.68701171875 L 1315.889038085938 589.8280029296875 C 1315.889038085938 590.5429077148438 1315.288696289063 591.4429321289063 1314.104858398438 592.5031127929688 C 1313.324584960938 593.2018432617188 1312.223999023438 594.0347290039063 1311.41162109375 594.0347290039063 Z"/></g></g><g transform="translate(-1293.915 -560.021)"><g class="b"><path class="d" d="M 1393.381958007813 604.6439819335938 C 1392.0927734375 604.6439819335938 1391.0439453125 603.59521484375 1391.0439453125 602.3060302734375 L 1391.0439453125 574.4600219726563 C 1391.0439453125 573.1708374023438 1392.0927734375 572.1220092773438 1393.381958007813 572.1220092773438 C 1394.671142578125 572.1220092773438 1395.719970703125 573.1708374023438 1395.719970703125 574.4600219726563 L 1395.719970703125 602.3060302734375 C 1395.719970703125 603.59521484375 1394.671142578125 604.6439819335938 1393.381958007813 604.6439819335938 Z"/><path class="e" d="M 1393.381958007813 604.1439819335938 C 1394.39697265625 604.1439819335938 1395.219970703125 603.3209838867188 1395.219970703125 602.3060302734375 L 1395.219970703125 574.4600219726563 C 1395.219970703125 573.4450073242188 1394.39697265625 572.6220092773438 1393.381958007813 572.6220092773438 C 1392.366943359375 572.6220092773438 1391.5439453125 573.4450073242188 1391.5439453125 574.4600219726563 L 1391.5439453125 602.3060302734375 C 1391.5439453125 603.3209838867188 1392.366943359375 604.1439819335938 1393.381958007813 604.1439819335938 M 1393.381958007813 605.1439819335938 C 1391.817138671875 605.1439819335938 1390.5439453125 603.8709106445313 1390.5439453125 602.3060302734375 L 1390.5439453125 574.4600219726563 C 1390.5439453125 572.8951416015625 1391.817138671875 571.6220092773438 1393.381958007813 571.6220092773438 C 1394.94677734375 571.6220092773438 1396.219970703125 572.8951416015625 1396.219970703125 574.4600219726563 L 1396.219970703125 602.3060302734375 C 1396.219970703125 603.8709106445313 1394.94677734375 605.1439819335938 1393.381958007813 605.1439819335938 Z"/></g></g><g transform="translate(-1293.915 -560.021)"><g class="b"><path class="d" d="M 1384.349975585938 601.1220092773438 C 1383.060791015625 601.1220092773438 1382.011962890625 600.0731811523438 1382.011962890625 598.7839965820313 L 1382.011962890625 585.9669799804688 C 1382.011962890625 585.26123046875 1382.891479492188 584.3253173828125 1383.629272460938 583.6643676757813 C 1384.1005859375 583.2422485351563 1385.27392578125 582.2603149414063 1385.988525390625 582.2603149414063 C 1386.400390625 582.2603149414063 1386.68798828125 582.5509033203125 1386.68798828125 582.9669799804688 L 1386.68798828125 598.7839965820313 C 1386.68798828125 600.0731811523438 1385.63916015625 601.1220092773438 1384.349975585938 601.1220092773438 Z"/><path class="e" d="M 1384.349975585938 600.6220092773438 C 1385.364990234375 600.6220092773438 1386.18798828125 599.7990112304688 1386.18798828125 598.7839965820313 L 1386.18798828125 582.9669799804688 C 1386.18798828125 582.823486328125 1386.114624023438 582.7603149414063 1385.988525390625 582.7603149414063 C 1385.222290039063 582.7603149414063 1382.511962890625 585.0955200195313 1382.511962890625 585.9669799804688 L 1382.511962890625 598.7839965820313 C 1382.511962890625 599.7990112304688 1383.3349609375 600.6220092773438 1384.349975585938 600.6220092773438 M 1384.349975585938 601.6220092773438 C 1382.78515625 601.6220092773438 1381.511962890625 600.348876953125 1381.511962890625 598.7839965820313 L 1381.511962890625 585.9669799804688 C 1381.511962890625 585.252197265625 1382.112060546875 584.3521728515625 1383.295654296875 583.2919921875 C 1384.075805664063 582.5932006835938 1385.176147460938 581.7603149414063 1385.988525390625 581.7603149414063 C 1386.67236328125 581.7603149414063 1387.18798828125 582.279052734375 1387.18798828125 582.9669799804688 L 1387.18798828125 598.7839965820313 C 1387.18798828125 600.348876953125 1385.914794921875 601.6220092773438 1384.349975585938 601.6220092773438 Z"/></g></g><path class="c" d="M1379.25,571.868l-69.806-.977s-9.616-1.493-9.284,9.021,3.544-.024,7.3-3.009,67.588-1.782,67.588-1.782S1382.622,571.915,1379.25,571.868Z" transform="translate(-1293.915 -560.021)"/></svg>