<svg xmlns="http://www.w3.org/2000/svg" width="62.477" height="34.199" viewBox="0 0 62.477 34.199"><defs><style>.a,.b,.c{fill:#3e96d4;stroke-miterlimit:10;}.a{stroke:#3e96d4;}.b,.c{stroke:#fff;}.c{stroke-width:0.75px;}.d{fill:#3b3c3e;}.e{fill:#fff;}</style></defs><g transform="translate(0.5)"><g transform="translate(-906.88 -163.541)"><path class="a" d="M918.038,183.188c-2.7-3.231-5.6-4.416-9.986-4.416-.477,0-.864-1.13-.864-2.518a5.615,5.615,0,0,1,.274-1.837c.093-.255.3-.682.59-.682,5.4,0,9.263,1.4,12.7,4.968Z"/><path class="b" d="M937.253,196.933a16.913,16.913,0,0,1-13.518-5.851l3.089-4.156a12.038,12.038,0,0,0,10.429,4.969c5.773,0,9.589-2.456,12.373-7.962,3.711-7.342,9.423-11.064,16.977-11.064.476,0,.863,1.13.863,2.519s-.387,2.519-.863,2.519c-5.653,0-9.619,2.637-12.482,8.3C950.524,193.323,944.848,196.933,937.253,196.933Z"/><path class="b" d="M967.187,172.446c-.413,0-1.4.127-1.8.148-7.076.384-12.465,4.147-16.031,11.2-2.724,5.39-6.455,7.794-12.1,7.794a11.884,11.884,0,0,1-10.434-5.169L923.34,191.1c3.056,3.511,7.2,6.142,13.912,6.142,7.721,0,13.489-3.666,17.143-10.9,2.538-5.018,5.955-7.611,10.674-8.059.5-.047,1.592-.186,2.118-.186,1.561,0,1.561-5.653,0-5.653Z"/><path class="a" d="M966.6,196.933a17.342,17.342,0,0,1-13.429-5.788l2.765-4.564A12.483,12.483,0,0,0,966.6,191.9c.476,0,.863,1.13.863,2.519S967.079,196.933,966.6,196.933Z"/><path class="a" d="M955.968,187.127A12.733,12.733,0,0,0,966.6,192.2c.152.037.554.773.554,2.211s-.4,2.174-.556,2.211a17.048,17.048,0,0,1-13.046-5.517l2.411-3.981m-.051-1.1-3.123,5.157A17.6,17.6,0,0,0,966.6,197.24c1.565,0,1.566-5.647,0-5.652a12.178,12.178,0,0,1-10.686-5.564Z"/><path class="a" d="M908.052,196.067c-.477,0-.864-1.13-.864-2.519a5.619,5.619,0,0,1,.274-1.837c.093-.255.3-.682.59-.682,6.333,0,9.364-2.888,12.46-7.877,3.313-5.341,7.635-10.283,16.741-10.283a17.4,17.4,0,0,1,13.582,5.816l-2.8,4.528c-2.6-3.618-6.037-5.306-10.779-5.306-6.322,0-9.356,2.9-12.461,7.9C921.486,191.136,917.17,196.067,908.052,196.067Z"/><path class="a" d="M937.252,172.562c-9.256,0-13.641,5.012-17,10.428-3.039,4.9-6.01,7.732-12.2,7.732-1.561,0-1.561,5.652,0,5.652,9.269,0,13.649-5,17-10.4,3.047-4.912,6.02-7.756,12.2-7.756,4.793,0,8.207,1.734,10.8,5.558l3.168-5.119a17.647,17.647,0,0,0-13.964-6.091Z"/><path class="b" d="M937.4,194.435a1.407,1.407,0,0,1-1.437-1.371V176.738a1.439,1.439,0,0,1,2.875,0v16.326A1.407,1.407,0,0,1,937.4,194.435Z"/><path class="c" d="M937.4,175.074a1.708,1.708,0,0,0-1.745,1.664v16.326a1.748,1.748,0,0,0,3.491,0V176.738a1.708,1.708,0,0,0-1.746-1.664Z"/><path class="b" d="M942.837,189.379a.467.467,0,0,1-.528-.457V177.984a1.44,1.44,0,0,1,2.876,0v9.766C945.185,188.474,943.483,189.379,942.837,189.379Z"/><path class="c" d="M943.747,176.32A1.708,1.708,0,0,0,942,177.984v10.938a.768.768,0,0,0,.835.75c.7,0,2.656-.956,2.656-1.923v-9.765a1.708,1.708,0,0,0-1.745-1.664Z"/><path class="b" d="M930.433,191.883a1.339,1.339,0,0,1-1.438-1.206V182.6c0-.637,1.7-1.434,2.348-1.434.365,0,.528.2.528.4v9.108A1.339,1.339,0,0,1,930.433,191.883Z"/><path class="c" d="M931.343,180.909h0c-.7,0-2.656.842-2.656,1.692v8.076a1.773,1.773,0,0,0,3.491,0v-9.108c0-.328-.287-.66-.835-.66Z"/><path class="b" d="M909.819,193.409a1.406,1.406,0,0,1-1.438-1.37V177.867a1.44,1.44,0,0,1,2.877,0v14.172A1.407,1.407,0,0,1,909.819,193.409Z"/><path class="c" d="M909.819,176.2a1.708,1.708,0,0,0-1.745,1.664v14.172a1.748,1.748,0,0,0,3.491,0V177.867a1.709,1.709,0,0,0-1.746-1.664Z"/><path class="b" d="M913.9,187.067a.392.392,0,0,1-.43-.384v-7.695a1.449,1.449,0,0,1,2.877,0v6.062C916.345,185.685,914.543,187.067,913.9,187.067Z"/><path class="c" d="M914.907,177.443a1.656,1.656,0,0,0-1.746,1.545v7.695a.685.685,0,0,0,.738.656c.8,0,2.753-1.5,2.753-2.289v-6.062a1.656,1.656,0,0,0-1.745-1.545Z"/><path class="c" d="M964.312,194.327a1.407,1.407,0,0,1-1.438-1.371V176.629a1.44,1.44,0,0,1,2.876,0v16.327A1.407,1.407,0,0,1,964.312,194.327Z"/><path class="c" d="M964.312,174.965a1.708,1.708,0,0,0-1.745,1.664v16.327a1.747,1.747,0,0,0,3.491,0V176.629a1.709,1.709,0,0,0-1.746-1.664Z"/><path class="c" d="M958.758,192.262a1.407,1.407,0,0,1-1.439-1.371v-7.515c0-.684,1.8-2.173,2.447-2.173a.4.4,0,0,1,.43.414v9.274A1.407,1.407,0,0,1,958.758,192.262Z"/><path class="c" d="M959.765,180.909h0a4.631,4.631,0,0,0-2.871,2.444v7.515a1.9,1.9,0,0,0,1.864,1.687,1.708,1.708,0,0,0,1.745-1.664v-9.274a.708.708,0,0,0-.738-.708Z"/><path class="d" d="M922.995,186.028a8.137,8.137,0,0,1-4.44-15.058c7.766-4.795,16.653-7.225,27.171-7.427a8.136,8.136,0,1,1,.313,16.269c-7.523.145-13.717,1.782-18.934,5A8.091,8.091,0,0,1,922.995,186.028Z"/><path class="e" d="M925.354,170.809l3.779,8.532-1.965.868-1.557-3.518-2.664,1.179,1.559,3.519-1.963.869-3.777-8.532,1.963-.869,1.472,3.325L924.863,175l-1.472-3.325Z"/><path class="e" d="M936.229,171.118l-2.159.774q-.6-1.886-2.031-1.47-1.647.477-.8,3.4a4.253,4.253,0,0,0,1.11,2.159,1.525,1.525,0,0,0,1.423.239q1.3-.377,1.1-2.154l2.072-.464a3.759,3.759,0,0,1-.49,2.793A4.182,4.182,0,0,1,931,177.547a5.068,5.068,0,0,1-2.1-3.072,5.22,5.22,0,0,1,.118-3.635,3.774,3.774,0,0,1,2.566-2.144Q934.817,167.761,936.229,171.118Z"/><path class="e" d="M942.8,175.951l-3.2-7.277.914,7.554-1.819.221-1.123-9.264,3.379-.41,2.3,5.349,1.039-5.752,3.391-.412,1.121,9.264-2.186.265-.914-7.553-1.416,7.835Z"/></g></g></svg>