<svg xmlns="http://www.w3.org/2000/svg" width="62.477" height="25.794" viewBox="0 0 62.477 25.794"><defs><style>.a,.b,.c{fill:#3e96d4;stroke-miterlimit:10;}.a{stroke:#3e96d4;}.b,.c{stroke:#fff;}.c{stroke-width:0.75px;}</style></defs><g transform="translate(0.5 0.5)"><g transform="translate(-662.07 -173.509)"><path class="a" d="M673.227,184.251c-2.7-3.232-5.595-4.416-9.986-4.416-.476,0-.863-1.13-.863-2.519a5.609,5.609,0,0,1,.273-1.836c.094-.255.295-.682.59-.682,5.4,0,9.264,1.4,12.7,4.967Z"/></g><g transform="translate(-662.07 -173.509)"><path class="b" d="M692.442,198a16.911,16.911,0,0,1-13.517-5.851l3.089-4.156a12.036,12.036,0,0,0,10.428,4.969c5.774,0,9.59-2.456,12.373-7.963,3.712-7.341,9.424-11.063,16.978-11.063.476,0,.863,1.13.863,2.519s-.387,2.518-.863,2.518c-5.653,0-9.62,2.637-12.482,8.3C705.713,194.386,700.038,198,692.442,198Z"/><path class="b" d="M722.376,173.509c-.412,0-1.4.126-1.8.148-7.076.384-12.465,4.147-16.031,11.2-2.725,5.39-6.456,7.793-12.1,7.793a11.88,11.88,0,0,1-10.434-5.168l-3.478,4.679c3.055,3.51,7.2,6.142,13.912,6.142,7.721,0,13.489-3.666,17.143-10.9,2.537-5.018,5.954-7.611,10.673-8.059.5-.048,1.592-.187,2.118-.187,1.562,0,1.562-5.652,0-5.652Z"/></g><g transform="translate(-662.07 -173.509)"><path class="a" d="M721.793,198a17.342,17.342,0,0,1-13.429-5.788l2.765-4.564a12.483,12.483,0,0,0,10.664,5.314c.476,0,.863,1.13.863,2.519S722.269,198,721.793,198Z"/><path class="a" d="M711.158,188.19a12.736,12.736,0,0,0,10.637,5.076c.152.037.554.773.554,2.211s-.4,2.174-.556,2.211a17.051,17.051,0,0,1-13.047-5.517l2.412-3.981m-.051-1.1-3.124,5.156a17.606,17.606,0,0,0,13.81,6.06c1.565.005,1.565-5.647,0-5.653a12.176,12.176,0,0,1-10.686-5.563Z"/></g><g transform="translate(-662.07 -173.509)"><path class="a" d="M663.241,197.129c-.476,0-.863-1.13-.863-2.518a5.615,5.615,0,0,1,.273-1.837c.094-.255.295-.682.59-.682,6.334,0,9.365-2.888,12.46-7.877,3.314-5.341,7.636-10.283,16.741-10.283a17.394,17.394,0,0,1,13.582,5.816l-2.8,4.528c-2.6-3.618-6.037-5.307-10.78-5.307-6.321,0-9.355,2.9-12.46,7.9C676.676,192.2,672.36,197.129,663.241,197.129Z"/><path class="a" d="M692.442,173.624c-9.256,0-13.642,5.013-17,10.428-3.038,4.9-6.009,7.732-12.2,7.732-1.561,0-1.561,5.653,0,5.653,9.268,0,13.649-5,17-10.4,3.048-4.912,6.021-7.756,12.2-7.756,4.793,0,8.206,1.734,10.8,5.558l3.168-5.119a17.65,17.65,0,0,0-13.964-6.092Z"/></g><g transform="translate(-662.07 -173.509)"><path class="b" d="M692.587,195.5a1.407,1.407,0,0,1-1.438-1.371V177.8a1.44,1.44,0,0,1,2.876,0v16.327A1.407,1.407,0,0,1,692.587,195.5Z"/><path class="c" d="M692.587,176.136a1.708,1.708,0,0,0-1.745,1.664v16.327a1.748,1.748,0,0,0,3.491,0V177.8a1.709,1.709,0,0,0-1.746-1.664Z"/></g><g transform="translate(-662.07 -173.509)"><path class="b" d="M698.027,190.442a.468.468,0,0,1-.528-.457V179.047a1.439,1.439,0,0,1,2.875,0v9.765C700.374,189.536,698.672,190.442,698.027,190.442Z"/><path class="c" d="M698.936,177.383a1.708,1.708,0,0,0-1.745,1.664v10.938a.768.768,0,0,0,.835.75c.7,0,2.656-.956,2.656-1.923v-9.765a1.708,1.708,0,0,0-1.746-1.664Z"/></g><g transform="translate(-662.07 -173.509)"><path class="b" d="M685.623,192.946a1.34,1.34,0,0,1-1.439-1.206v-8.076c0-.637,1.7-1.434,2.349-1.434.364,0,.528.2.528.4v9.108A1.339,1.339,0,0,1,685.623,192.946Z"/><path class="c" d="M686.533,181.972h0c-.7,0-2.656.842-2.656,1.692v8.076a1.773,1.773,0,0,0,3.491,0v-9.108c0-.328-.287-.66-.835-.66Z"/></g><g transform="translate(-662.07 -173.509)"><path class="b" d="M665.009,194.472a1.407,1.407,0,0,1-1.438-1.371V178.93a1.44,1.44,0,0,1,2.876,0V193.1A1.407,1.407,0,0,1,665.009,194.472Z"/><path class="c" d="M665.009,177.266a1.709,1.709,0,0,0-1.746,1.664V193.1a1.748,1.748,0,0,0,3.492,0V178.93a1.709,1.709,0,0,0-1.746-1.664Z"/></g><g transform="translate(-662.07 -173.509)"><path class="b" d="M669.088,188.13a.391.391,0,0,1-.43-.384v-7.7a1.449,1.449,0,0,1,2.876,0v6.063C671.534,186.748,669.733,188.13,669.088,188.13Z"/><path class="c" d="M670.1,178.506a1.656,1.656,0,0,0-1.745,1.544v7.7a.685.685,0,0,0,.737.656c.8,0,2.754-1.5,2.754-2.289V180.05a1.656,1.656,0,0,0-1.746-1.544Z"/></g><g transform="translate(-662.07 -173.509)"><path class="c" d="M719.5,195.389a1.406,1.406,0,0,1-1.438-1.37V177.692a1.44,1.44,0,0,1,2.876,0v16.327A1.406,1.406,0,0,1,719.5,195.389Z"/><path class="c" d="M719.5,176.028a1.708,1.708,0,0,0-1.746,1.664v16.327a1.748,1.748,0,0,0,3.492,0V177.692a1.708,1.708,0,0,0-1.746-1.664Z"/></g><g transform="translate(-662.07 -173.509)"><path class="c" d="M713.948,193.324a1.407,1.407,0,0,1-1.439-1.37v-7.515c0-.685,1.8-2.174,2.446-2.174a.4.4,0,0,1,.43.415v9.274A1.406,1.406,0,0,1,713.948,193.324Z"/><path class="c" d="M714.955,181.972h0a4.63,4.63,0,0,0-2.871,2.443v7.515a1.9,1.9,0,0,0,1.863,1.688,1.709,1.709,0,0,0,1.746-1.664V182.68a.707.707,0,0,0-.738-.708Z"/></g></g></svg>