<svg xmlns="http://www.w3.org/2000/svg" width="61.306" height="84.122" viewBox="0 0 61.306 84.122"><defs><style>.a{fill:#b4607a;}.a,.e{stroke:#9c0d1a;}.a,.b,.c,.d,.e{stroke-miterlimit:10;}.b{fill:#14519f;}.b,.c,.d{stroke:#003476;}.c{fill:#4a4d90;}.d{fill:#0b51a0;}.e,.h{fill:#ce9896;}.f{fill:#ab4239;}.g{fill:#9c0d1a;}.i{fill:#3f78bc;}.j{fill:#7477b7;}</style></defs><g transform="translate(0.531)"><path class="a" d="M700.459,925.024c1.487.783,2.862,3.894,4.512,7.674a74.064,74.064,0,0,0,3.657,7.576c3.651,6.233,14.7,17.53,14.807,17.643l.2.2-.205.2c-2.6,2.529-6.533,3.49-10.928,3.49-10.118,0-22.675-5.087-26.985-7.824-7.39-4.692-6.166-6.484-6.011-8.509,0,0,6.89-3.215,10.874-7.476A132.762,132.762,0,0,0,700.459,925.024Z" transform="translate(-670.023 -878.189)"/><path class="b" d="M701.072,925.236,680.1,915.343a18.38,18.38,0,0,0-4.9.208c.67-5.194,7.024-23.437,7.231-25.911.039-.472.382-1.139,1.792-1.632,2.553-.894,7.378-.785,8.632.543a1.077,1.077,0,0,1,.228,1.222c-.569,1.365-1.2,5.242-1.874,9.346-.541,3.3-1.79,17.325-2.176,20.132C688.517,923.044,683.359,915.534,680.1,915.343Z" transform="translate(-670.023 -878.189)"/><path class="c" d="M701.072,925.236m-12-4.39c-.345,4.156,8.839,4.658,12.036,4.39,0,0-8.223,9.843-10.725,12.766s-10.085,7.532-10.085,7.532a5.988,5.988,0,0,1-6.926-2.968c-.439-.845-.478-3.255-1.723-4.787-2.486-3.059-1.689-8.914-.428-13.536.214-.785,2.822-6.493,4.545-9.917a11.722,11.722,0,0,1,5.457-1.058C684.045,913.508,689.141,919.986,689.069,920.846Z" transform="translate(-670.023 -878.189)"/><g transform="translate(-670.023 -878.189)"><path class="d" d="M725.152,930.69l-.176-.175c-4.186-4.186-22.562-3.389-22.748-3.382l-.105,0-1.03-1.773c1.6-3.081,1.925-4.032,2.643-8.316.057-.338.448-4.669.495-4.833.578-2.027,9.385.132,11.218.622,2.986.8,8.516,1.933,11.342,1.282a2.755,2.755,0,0,1,3.318,1.893,1.782,1.782,0,0,1-.705,2.324c-.282.12-.563.253-.842.383a11.157,11.157,0,0,1-1.829.736,8.915,8.915,0,0,0,2.045,1.514,2.53,2.53,0,0,1,1.236,2.885c-.356,1.6-2.052,3.308-5.036,3.494-.261.017-.343.114-.382.185-.076.14-.244.738.784,2.564a.315.315,0,0,1-.032.445Z"/></g><path class="e" d="M722.552,929.366a11.22,11.22,0,0,1,3.141,6.065c.541,3.683,1.949,18.629.433,20.687s-3.249,3.682-5.2,3.249-18.954-20.037-20.9-23.286-2.925-11.264,4.115-11.481S722.552,929.366,722.552,929.366Z" transform="translate(-670.023 -878.189)"/><g transform="translate(-670.023 -878.189)"><path class="f" d="M695.608,927.288a9.9,9.9,0,0,1-1.134-.069c-7.491-.865-6.014-15.153-5.53-19.847.056-.541.1-.978.123-1.282.347-4.868,3.169-9.965,4.854-13.01.381-.687.707-1.278.943-1.748,1.114-2.229-.047-7.247-.605-9.659-.1-.43-.2-.876-.21-.977,0-1.95,2.633-2.007,2.933-2.007a2.639,2.639,0,0,1,1.784.458c.008.044.071.335.164.737.716,3.092,1.619,6.39,3.277,6.39h0a1.475,1.475,0,0,0,.991-.426,4.5,4.5,0,0,0,1.333-4.2,3.066,3.066,0,0,1,.08-1.474,2.427,2.427,0,0,1,2.09-.831,2.592,2.592,0,0,1,1.858.619c.63.693.524,4.491.488,5.74-.029,1.042-.031,1.1.141,1.281l.148.151h.6l.125-.455c.034-.138.073-.332.12-.563.164-.809.663-3.271,1.426-3.4a2.389,2.389,0,0,1,.39-.03c1.1,0,2.78.63,2.931,1.769a11.042,11.042,0,0,1-.218,3,12.906,12.906,0,0,0-.219,1.919,3.324,3.324,0,0,0,.906,1.81,14.177,14.177,0,0,1,3,7.775c.509,4.718-1.45,11.834-1.967,13.626a43.583,43.583,0,0,0-10.053-1.7,2,2,0,0,0-2.035,1.35c-.213,4.116-.779,15.051-8.733,15.051Z"/><path class="g" d="M704.766,913.555s.742-6.69,1.24-8.557,1.863-3.442,2.789-3.386,3.255-2.29-.741-.875-4.211,11.472-4.211,11.472c-.323,6.258-1.529,14.578-8.235,14.578a9.572,9.572,0,0,1-1.077-.064c-7-.809-5.561-14.723-5.09-19.3.057-.55.1-.993.125-1.3.34-4.759,3.127-9.795,4.793-12.8.381-.688.71-1.282.952-1.767,1.051-2.1.35-6.045-.563-9.995-.082-.354-.175-.752-.2-.891.038-1.408,2.03-1.48,2.432-1.48h.2a2.242,2.242,0,0,1,1.13.234c.038.152.089.374.137.577.794,3.428,1.739,6.774,3.763,6.774a1.957,1.957,0,0,0,1.326-.555,4.982,4.982,0,0,0,1.5-4.609,3.053,3.053,0,0,1,.029-1.21,2.067,2.067,0,0,1,1.643-.555,2.155,2.155,0,0,1,1.481.446c.227.308.475,1.495.365,5.4-.032,1.113-.038,1.314.281,1.642l.3.3h.422a1.022,1.022,0,0,0,1-.835c.036-.143.077-.346.127-.589.459-2.261.826-2.885,1.017-3a1.891,1.891,0,0,1,.307-.023c1.045,0,2.336.583,2.436,1.335a10.745,10.745,0,0,1-.215,2.852,13.137,13.137,0,0,0-.227,2A3.69,3.69,0,0,0,715,891.483a13.72,13.72,0,0,1,2.9,7.53c.462,4.285-1.257,11.208-1.881,13.461l.946.188s2.539-8.1,1.93-13.756c-.717-6.648-3.9-8.231-3.9-9.531s.65-3.357.433-4.982c-.192-1.443-2.093-2.2-3.427-2.2a2.9,2.9,0,0,0-.471.037c-1.3.216-1.733,3.466-1.95,4.332-.013.053-.023.078-.031.078-.113,0,.4-5.891-.619-7.01a3.055,3.055,0,0,0-2.228-.782,2.841,2.841,0,0,0-2.537,1.107c-.65,1.3.866,3.574-1.3,5.524a.991.991,0,0,1-.657.3c-1.772,0-2.832-6.614-3.026-6.9a2.912,2.912,0,0,0-2.2-.68h0c-1.592,0-3.433.669-3.433,2.521,0,.542,2.167,7.8.867,10.4s-5.416,8.881-5.849,14.946c-.224,3.146-2.974,20.643,5.849,21.662a10.336,10.336,0,0,0,1.191.071c8,0,8.926-10.068,9.186-14.7"/></g><path class="h" d="M698.04,896.322c-2.347,1.458-6.128,7.978-5.426,16.212s2.362,1.886,2.043-1.915a21.039,21.039,0,0,1,2.17-11.17C698.079,897.064,700.4,894.853,698.04,896.322Z" transform="translate(-670.023 -878.189)"/><path class="i" d="M684.2,895.849c-1.124,2.2-3.392,11.068-3.838,13.43s1.157,1.851,1.919-.957S685.61,893.079,684.2,895.849Z" transform="translate(-670.023 -878.189)"/><path class="j" d="M679.006,917.3c-1.328,1.951-1.859,1.657-3.008,3.572s-.353,6.505.467,3.386C677.315,921.026,680.436,915.2,679.006,917.3Z" transform="translate(-670.023 -878.189)"/><path class="g" d="M703.106,925.809c-3.94,4.619,10.846,24.606,18.351,27.957,5.362,2.394.7-22.3-.223-23.745C719.894,927.915,705.883,922.553,703.106,925.809Z" transform="translate(-670.023 -878.189)"/></g></svg>