<svg xmlns="http://www.w3.org/2000/svg" width="61.305" height="84.122" viewBox="0 0 61.305 84.122"><defs><style>.a{opacity:0;}.b{fill:#b4607a;}.b,.f{stroke:#9c0d1a;}.b,.c,.d,.e,.f{stroke-miterlimit:10;}.c{fill:#14519f;}.c,.d,.e{stroke:#003476;}.d{fill:#4a4d90;}.e{fill:#0b51a0;}.f,.i{fill:#ce9896;}.g{fill:#9c0d1a;}.h{fill:#ab4239;}.j{fill:#3f78bc;}.k{fill:#7477b7;}.l{fill:#fbd3d3;}</style></defs><g class="a" transform="translate(0.531)"><path class="b" d="M886.4,547.979c1.487.783,2.863,3.894,4.513,7.674a73.945,73.945,0,0,0,3.656,7.576c3.652,6.233,14.7,17.53,14.808,17.643l.2.2-.2.2c-2.6,2.529-6.534,3.49-10.929,3.49-10.117,0-22.675-5.087-26.984-7.824-7.391-4.692-6.167-6.484-6.012-8.509,0,0,6.89-3.215,10.874-7.476A132.628,132.628,0,0,0,886.4,547.979Z" transform="translate(-855.963 -501.144)"/><path class="c" d="M887.011,548.191,866.043,538.3a18.388,18.388,0,0,0-4.9.208c.67-5.194,7.024-23.437,7.231-25.911.04-.472.383-1.139,1.792-1.632,2.553-.894,7.378-.785,8.632.543a1.075,1.075,0,0,1,.228,1.222c-.569,1.365-1.2,5.242-1.874,9.346-.54,3.3-1.79,17.325-2.176,20.132C874.457,546,869.3,538.489,866.043,538.3Z" transform="translate(-855.963 -501.144)"/><path class="d" d="M887.011,548.191m-12-4.39c-.344,4.157,8.84,4.658,12.036,4.39,0,0-8.223,9.843-10.725,12.766s-10.085,7.532-10.085,7.532a5.987,5.987,0,0,1-6.925-2.968c-.44-.845-.479-3.255-1.724-4.787-2.485-3.059-1.688-8.914-.428-13.536.214-.785,2.822-6.493,4.545-9.917a11.724,11.724,0,0,1,5.458-1.058C869.984,536.463,875.08,542.941,875.008,543.8Z" transform="translate(-855.963 -501.144)"/><g transform="translate(-855.963 -501.144)"><path class="e" d="M911.091,553.645l-.175-.175c-4.187-4.186-22.563-3.389-22.748-3.382l-.105,0-1.031-1.773c1.606-3.081,1.925-4.032,2.644-8.316.056-.338.447-4.669.494-4.833.579-2.027,9.385.132,11.218.623,2.986.8,8.516,1.932,11.343,1.281a2.755,2.755,0,0,1,3.317,1.893,1.782,1.782,0,0,1-.7,2.324c-.281.121-.563.253-.842.383a11.176,11.176,0,0,1-1.828.736,8.881,8.881,0,0,0,2.044,1.514,2.53,2.53,0,0,1,1.236,2.885c-.356,1.6-2.052,3.308-5.036,3.494-.261.017-.343.114-.381.185-.077.14-.245.738.783,2.564a.315.315,0,0,1-.032.445Z"/></g><path class="f" d="M908.491,552.321a11.22,11.22,0,0,1,3.141,6.065c.541,3.683,1.949,18.629.433,20.687s-3.249,3.683-5.2,3.249-18.954-20.037-20.9-23.286-2.924-11.264,4.116-11.481S908.491,552.321,908.491,552.321Z" transform="translate(-855.963 -501.144)"/><path class="g" d="M897.869,552.57c.389.142,3.727,7.722,8.689,16.084.758,1.278-.565-12.634-1.54-14.042S896.718,552.149,897.869,552.57Z" transform="translate(-855.963 -501.144)"/><g transform="translate(-855.963 -501.144)"><path class="h" d="M881.547,550.243a9.9,9.9,0,0,1-1.134-.069c-7.491-.865-6.014-15.153-5.53-19.847.056-.541.1-.978.123-1.282.347-4.868,3.169-9.965,4.855-13.01.381-.687.707-1.278.942-1.748,1.114-2.229-.047-7.247-.6-9.659-.1-.43-.2-.876-.21-.977,0-1.95,2.632-2.006,2.932-2.006a2.641,2.641,0,0,1,1.784.457c.008.044.072.336.164.737.716,3.092,1.62,6.391,3.277,6.391h0a1.478,1.478,0,0,0,.991-.427,4.5,4.5,0,0,0,1.333-4.2,3.068,3.068,0,0,1,.08-1.474,2.428,2.428,0,0,1,2.09-.831,2.59,2.59,0,0,1,1.858.619c.63.693.524,4.491.489,5.74-.03,1.042-.032,1.1.14,1.281l.149.151h.6l.125-.455c.034-.138.073-.332.12-.563.164-.809.663-3.271,1.426-3.4a2.39,2.39,0,0,1,.39-.029c1.1,0,2.78.629,2.931,1.768a11.04,11.04,0,0,1-.217,3,12.78,12.78,0,0,0-.22,1.919,3.321,3.321,0,0,0,.906,1.81,14.169,14.169,0,0,1,3,7.775c.509,4.718-1.449,11.834-1.967,13.626a43.576,43.576,0,0,0-10.053-1.7,2,2,0,0,0-2.034,1.35c-.213,4.116-.78,15.051-8.734,15.051Z"/><path class="g" d="M890.706,536.51s.741-6.69,1.239-8.557,1.864-3.442,2.789-3.386,3.255-2.29-.74-.875-4.212,11.472-4.212,11.472c-.323,6.258-1.528,14.578-8.235,14.578a9.569,9.569,0,0,1-1.076-.064c-7-.809-5.562-14.723-5.09-19.3.056-.55.1-.993.124-1.3.34-4.759,3.128-9.795,4.793-12.8.381-.688.71-1.282.952-1.767,1.051-2.1.35-6.045-.563-9.994-.082-.355-.174-.753-.2-.892.038-1.408,2.03-1.48,2.432-1.48h.2a2.236,2.236,0,0,1,1.13.234c.038.152.09.374.137.577.794,3.428,1.739,6.774,3.763,6.774a1.957,1.957,0,0,0,1.326-.555,4.979,4.979,0,0,0,1.5-4.609,3.055,3.055,0,0,1,.029-1.21,2.069,2.069,0,0,1,1.643-.555,2.158,2.158,0,0,1,1.481.446c.227.308.475,1.495.365,5.4-.032,1.113-.037,1.314.282,1.642l.3.3h.423a1.021,1.021,0,0,0,1-.835c.036-.143.078-.346.127-.589.459-2.261.827-2.885,1.017-3a1.906,1.906,0,0,1,.308-.022c1.044,0,2.335.583,2.435,1.334a10.742,10.742,0,0,1-.215,2.852,13.128,13.128,0,0,0-.226,2,3.687,3.687,0,0,0,1,2.108,13.72,13.72,0,0,1,2.9,7.53c.461,4.285-1.258,11.208-1.882,13.461l.946.188s2.539-8.1,1.93-13.756c-.717-6.648-3.9-8.231-3.9-9.531s.649-3.357.433-4.982c-.193-1.443-2.094-2.2-3.427-2.2a2.908,2.908,0,0,0-.472.036c-1.3.216-1.733,3.466-1.95,4.332-.013.053-.023.078-.03.078-.114,0,.4-5.891-.62-7.01a3.056,3.056,0,0,0-2.228-.782,2.841,2.841,0,0,0-2.537,1.107c-.65,1.3.866,3.575-1.3,5.524a.991.991,0,0,1-.657.3c-1.772,0-2.832-6.614-3.025-6.9a2.916,2.916,0,0,0-2.2-.68h0c-1.592,0-3.432.669-3.432,2.522,0,.541,2.166,7.8.866,10.4s-5.415,8.881-5.849,14.947c-.224,3.146-2.974,20.642,5.849,21.661a10.335,10.335,0,0,0,1.191.071c8,0,8.927-10.068,9.186-14.7"/></g><path class="i" d="M883.979,519.277c-2.346,1.458-6.128,7.978-5.426,16.212s2.362,1.886,2.043-1.915a21.049,21.049,0,0,1,2.17-11.17C884.018,520.019,886.34,517.809,883.979,519.277Z" transform="translate(-855.963 -501.144)"/><path class="j" d="M870.136,518.8c-1.123,2.2-3.391,11.068-3.838,13.43s1.157,1.851,1.919-.957S871.549,516.034,870.136,518.8Z" transform="translate(-855.963 -501.144)"/><path class="k" d="M864.945,540.255c-1.328,1.951-1.858,1.657-3.007,3.572s-.354,6.5.466,3.386C863.254,543.981,866.376,538.154,864.945,540.255Z" transform="translate(-855.963 -501.144)"/><path class="l" d="M889.017,550.361c-1.546,1.136-2.77,3.168.338,7.381.918,1.244,2.2,3.074,3.56,5,3.255,4.607,6.995,9.78,7.479,8.893.687-1.259-2.867-5.206-5.632-8.152C885.411,553.525,890.222,549.476,889.017,550.361Z" transform="translate(-855.963 -501.144)"/><path class="l" d="M906.846,555.915c-.293.877.516,3.285.673,4.222s.816,6.661.489,7.543-.617,3.732.3,1.7.76-4.521.318-6.9S907.522,553.885,906.846,555.915Z" transform="translate(-855.963 -501.144)"/></g></svg>