<svg xmlns="http://www.w3.org/2000/svg" width="46.717" height="64.183" viewBox="0 0 46.717 64.183"><defs><style>.a{fill:#b4607a;}.b{fill:#9c0d1a;}.c{fill:#14519f;}.d{fill:#003476;}.e{fill:#4a4d90;}.f{fill:#0b51a0;}.g{fill:#ce9896;}.h{fill:#ab4239;}.i{fill:#3f78bc;}.j{fill:#7477b7;}.k{fill:#fbd3d3;}</style></defs><g transform="translate(-1188.821 -908.246)"><path class="a" d="M1212.426,943.979c1.134.6,2.184,2.971,3.443,5.855a56.53,56.53,0,0,0,2.79,5.781c2.786,4.755,11.213,13.375,11.3,13.461l.152.156-.156.152c-1.982,1.93-4.985,2.663-8.338,2.663-7.72,0-17.3-3.881-20.589-5.969-5.639-3.581-4.7-4.948-4.586-6.492,0,0,5.256-2.453,8.3-5.7A101.172,101.172,0,0,0,1212.426,943.979Z"/><path class="b" d="M1221.615,972.429c-7.889,0-17.587-3.992-20.794-6.03-4.856-3.083-5.06-4.583-4.818-6.364.023-.16.044-.318.057-.478l.017-.223.2-.094c.052-.024,5.227-2.46,8.179-5.619a101.572,101.572,0,0,0,7.654-9.856l.192-.282.3.159c1.269.669,2.356,3.158,3.613,6.04a56.075,56.075,0,0,0,2.77,5.74c2.709,4.623,10.891,13.029,11.237,13.384l.425.433-.431.419C1228.331,971.5,1225.436,972.429,1221.615,972.429ZM1196.8,959.837c-.011.1-.025.2-.038.3-.172,1.257-.349,2.558,4.47,5.618,3.144,2,12.651,5.91,20.385,5.91,3.533,0,6.208-.821,7.952-2.442-1.075-1.109-8.625-8.957-11.238-13.416a56.657,56.657,0,0,1-2.8-5.794c-1.059-2.426-2.055-4.707-3.005-5.506a99.057,99.057,0,0,1-7.512,9.635A31.267,31.267,0,0,1,1196.8,959.837Z"/></g><g transform="translate(-1188.821 -908.246)"><path class="c" d="M1212.894,944.141m-16-7.548a14.048,14.048,0,0,0-3.736.159c.512-3.963,5.36-17.882,5.518-19.769.03-.361.291-.87,1.367-1.246,1.948-.682,5.629-.6,6.586.415a.821.821,0,0,1,.174.932,50.267,50.267,0,0,0-1.43,7.13c-.412,2.519-1.366,13.219-1.661,15.361C1203.315,942.469,1199.379,936.739,1196.9,936.593Z"/><path class="d" d="M1203.087,940.772c-.73,0-1.654-.764-2.783-1.7-1.16-.958-2.476-2.045-3.431-2.1h0a13.918,13.918,0,0,0-3.624.15l-.538.129.07-.548c.293-2.27,1.944-7.617,3.4-12.334,1.055-3.414,2.05-6.638,2.116-7.419.038-.473.351-1.131,1.621-1.574,1.886-.661,5.851-.694,6.989.513a1.2,1.2,0,0,1,.249,1.341,51.924,51.924,0,0,0-1.406,7.045c-.239,1.462-.663,5.707-1.037,9.452-.267,2.685-.5,5-.622,5.9a1.218,1.218,0,0,1-.668,1.083A.91.91,0,0,1,1203.087,940.772Zm-7.5-4.6c.4,0,.838.011,1.326.04h0c1.2.071,2.561,1.191,3.873,2.276.844.7,2,1.653,2.356,1.511.063-.024.147-.163.19-.477.12-.88.351-3.192.618-5.87.375-3.756.8-8.013,1.043-9.5a50,50,0,0,1,1.454-7.216.44.44,0,0,0-.1-.524c-.774-.819-4.239-1-6.182-.316-.689.241-1.084.567-1.113.917a73.5,73.5,0,0,1-2.147,7.581c-1.345,4.356-2.857,9.252-3.292,11.692A15.082,15.082,0,0,1,1195.591,936.172Z"/></g><g transform="translate(-1188.821 -908.246)"><path class="e" d="M1212.894,944.141m-9.158-3.349c-.263,3.171,6.744,3.554,9.183,3.349,0,0-6.274,7.51-8.183,9.741s-7.695,5.746-7.695,5.746a4.569,4.569,0,0,1-5.284-2.264c-.335-.645-.365-2.484-1.315-3.653-1.9-2.334-1.288-6.8-.326-10.328.163-.6,2.153-4.953,3.468-7.566a8.952,8.952,0,0,1,4.164-.807C1199.9,935.193,1203.791,940.136,1203.736,940.792Z"/><path class="d" d="M1195.774,960.217a5.084,5.084,0,0,1-4.355-2.677,4.909,4.909,0,0,1-.324-1.12,5.91,5.91,0,0,0-.948-2.468c-2.048-2.519-1.347-7.192-.4-10.669.176-.648,2.168-5,3.495-7.637l.058-.114.115-.057a9.339,9.339,0,0,1,4.364-.845c2.25.191,6.421,5.17,6.336,6.193h0a1.542,1.542,0,0,0,.5,1.273c1.538,1.537,6.145,1.845,8.273,1.665l.911-.076-.586.7c-.063.075-6.3,7.537-8.186,9.744-1.926,2.25-7.548,5.679-7.787,5.824l-.077.036A4.4,4.4,0,0,1,1195.774,960.217Zm-1.909-24.109c-1.344,2.681-3.235,6.838-3.381,7.375-.737,2.706-1.686,7.6.254,9.988a6.561,6.561,0,0,1,1.1,2.788,4.732,4.732,0,0,0,.256.928,4.2,4.2,0,0,0,4.784,2.092c.5-.3,5.8-3.579,7.566-5.645,1.55-1.812,6.04-7.177,7.621-9.069-2.38.067-6.381-.319-7.993-1.929a2.291,2.291,0,0,1-.72-1.852c-.157-.763-3.776-5.236-5.639-5.394A8.544,8.544,0,0,0,1193.865,936.108Z"/></g><g transform="translate(-1188.821 -908.246)"><path class="f" d="M1231.266,948.3l-.134-.134c-3.194-3.194-17.214-2.586-17.356-2.58l-.08,0-.786-1.353a16.087,16.087,0,0,0,2.017-6.345c.043-.258.341-3.563.377-3.687.441-1.547,7.161.1,8.559.475,2.278.607,6.5,1.474,8.654.978a2.1,2.1,0,0,1,2.531,1.443,1.36,1.36,0,0,1-.538,1.774c-.214.092-.429.193-.642.292a8.519,8.519,0,0,1-1.4.562,6.8,6.8,0,0,0,1.56,1.154,1.932,1.932,0,0,1,.943,2.2c-.272,1.225-1.566,2.523-3.843,2.666-.2.013-.261.087-.291.141-.058.107-.186.563.6,1.956a.241.241,0,0,1-.024.34Z"/><path class="d" d="M1231.232,948.807l-.369-.367c-2.385-2.385-11.839-2.677-17.052-2.471l-.328.015-1.009-1.735.1-.187a15.72,15.72,0,0,0,1.979-6.231c.018-.107.1-.989.171-1.7.17-1.743.193-1.953.217-2.033.527-1.846,6.486-.467,9.023.211,2.716.725,6.562,1.414,8.471.975a2.47,2.47,0,0,1,2.979,1.7,1.724,1.724,0,0,1-.75,2.243c-.182.078-.364.162-.544.246l-.088.041c-.27.127-.545.256-.821.368a7.816,7.816,0,0,0,1.007.667,2.3,2.3,0,0,1,1.134,2.62c-.3,1.36-1.71,2.8-4.174,2.962a3.684,3.684,0,0,0,.6,1.531.6.6,0,0,1-.126.83Zm-14.672-3.649c4.075,0,11.271.294,14.219,2.242-.366-.79-.455-1.351-.272-1.688a.682.682,0,0,1,.6-.34c2.081-.129,3.255-1.283,3.5-2.368a1.546,1.546,0,0,0-.754-1.784,6.958,6.958,0,0,1-1.676-1.253l-.364-.458.566-.147a8.428,8.428,0,0,0,1.33-.538l.089-.041c.188-.088.376-.176.566-.257.387-.166.521-.7.325-1.3a1.73,1.73,0,0,0-2.082-1.19c-2.643.6-7.826-.711-8.839-.982-4.182-1.119-7.89-1.456-8.094-.739-.016.1-.112,1.1-.19,1.9-.1,1-.157,1.622-.178,1.75a16.377,16.377,0,0,1-1.958,6.27l.566.974C1214.365,945.185,1215.318,945.158,1216.56,945.158Z"/></g><g transform="translate(-1188.821 -908.246)"><path class="g" d="M1229.282,947.292a8.555,8.555,0,0,1,2.4,4.628c.413,2.81,1.487,14.213.33,15.784s-2.479,2.809-3.966,2.479-14.462-15.288-15.949-17.767-2.231-8.594,3.14-8.76S1229.282,947.292,1229.282,947.292Z"/><path class="b" d="M1228.53,970.618a2.625,2.625,0,0,1-.57-.063c-1.784-.4-14.884-15.76-16.193-17.944-.96-1.6-1.751-4.88-.5-7.167a4.312,4.312,0,0,1,3.958-2.169c5.372-.162,13.856,3.511,14.213,3.668l.1.068a8.88,8.88,0,0,1,2.517,4.853c.2,1.4,1.629,14.207.259,16.066C1231.441,969.118,1230.134,970.618,1228.53,970.618Zm-12.949-26.586c-.113,0-.225,0-.335.006a3.592,3.592,0,0,0-3.312,1.772c-1.091,2-.355,5.007.487,6.409,1.595,2.659,14.32,17.191,15.708,17.591,1.091.247,2.222-.5,3.573-2.333,1.01-1.37.089-12.171-.4-15.5a8.255,8.255,0,0,0-2.233-4.36C1228.3,947.285,1220.587,944.032,1215.581,944.032Z"/></g><path class="b" d="M1221.178,947.482c.3.109,2.843,5.892,6.629,12.272.579.975-.431-9.639-1.174-10.713S1220.3,947.161,1221.178,947.482Z" transform="translate(-1188.821 -908.246)"/><g transform="translate(-1188.821 -908.246)"><path class="h" d="M1208.725,945.707a7.609,7.609,0,0,1-.865-.052c-5.716-.661-4.589-11.562-4.22-15.144.043-.413.077-.746.094-.977.265-3.715,2.418-7.6,3.7-9.927.291-.524.54-.975.719-1.334.85-1.7-.036-5.529-.461-7.369-.076-.328-.154-.669-.16-.745,0-1.488,2.009-1.532,2.237-1.532a2.025,2.025,0,0,1,1.362.349c.006.034.054.256.125.563.546,2.359,1.235,4.876,2.5,4.876h0a1.129,1.129,0,0,0,.756-.326,3.432,3.432,0,0,0,1.017-3.2,2.349,2.349,0,0,1,.061-1.126,1.854,1.854,0,0,1,1.594-.634,1.974,1.974,0,0,1,1.418.473c.481.528.4,3.426.373,4.379-.022.795-.024.843.107.978l.113.115h.461l.095-.347c.026-.106.056-.253.092-.43.125-.617.506-2.495,1.088-2.593a1.838,1.838,0,0,1,.3-.022c.841,0,2.121.481,2.237,1.349a8.453,8.453,0,0,1-.166,2.287,9.74,9.74,0,0,0-.168,1.464,2.53,2.53,0,0,0,.692,1.381,10.82,10.82,0,0,1,2.285,5.932c.389,3.6-1.106,9.029-1.5,10.4a33.26,33.26,0,0,0-7.671-1.3,1.523,1.523,0,0,0-1.552,1.03c-.162,3.141-.6,11.484-6.663,11.484Z"/><path class="b" d="M1215.713,935.229s.565-5.1.945-6.529,1.422-2.626,2.128-2.583,2.484-1.748-.565-.668-3.213,8.753-3.213,8.753c-.246,4.775-1.166,11.123-6.283,11.123a7.3,7.3,0,0,1-.821-.049c-5.339-.617-4.244-11.234-3.884-14.722.043-.42.078-.758.095-.993.259-3.631,2.386-7.474,3.657-9.769.291-.525.542-.979.727-1.348.8-1.6.267-4.613-.43-7.626-.063-.27-.133-.574-.151-.68.029-1.074,1.549-1.129,1.856-1.129h.149a1.71,1.71,0,0,1,.862.178c.029.116.068.285.1.441.606,2.615,1.327,5.168,2.871,5.168a1.5,1.5,0,0,0,1.012-.423,3.8,3.8,0,0,0,1.142-3.518,2.316,2.316,0,0,1,.022-.923,1.579,1.579,0,0,1,1.253-.423,1.64,1.64,0,0,1,1.13.341c.174.235.363,1.14.279,4.119-.024.85-.029,1,.215,1.253l.226.232h.323a.778.778,0,0,0,.763-.637c.028-.109.059-.264.1-.449.35-1.725.631-2.2.776-2.289a1.4,1.4,0,0,1,.235-.017c.8,0,1.782.444,1.858,1.018a8.175,8.175,0,0,1-.164,2.176,10.051,10.051,0,0,0-.173,1.524,2.808,2.808,0,0,0,.766,1.608,10.476,10.476,0,0,1,2.214,5.746c.352,3.269-.96,8.551-1.436,10.27l.722.144s1.937-6.182,1.472-10.5c-.547-5.072-2.975-6.28-2.975-7.272s.5-2.561.33-3.8c-.146-1.1-1.6-1.68-2.614-1.68a2.26,2.26,0,0,0-.36.027c-.992.166-1.322,2.645-1.488,3.306-.01.04-.018.059-.023.059-.086,0,.3-4.495-.473-5.348a2.331,2.331,0,0,0-1.7-.6,2.17,2.17,0,0,0-1.936.845c-.495.992.661,2.727-.991,4.214a.754.754,0,0,1-.5.228c-1.351,0-2.16-5.047-2.308-5.268a2.223,2.223,0,0,0-1.678-.519h0c-1.215,0-2.619.51-2.619,1.923,0,.414,1.653,5.95.661,7.933s-4.132,6.777-4.462,11.4c-.172,2.4-2.269,15.75,4.462,16.528a8.022,8.022,0,0,0,.909.054c6.1,0,6.811-7.682,7.009-11.214"/></g><path class="g" d="M1210.58,922.08c-1.79,1.113-4.675,6.088-4.139,12.37s1.8,1.439,1.558-1.461a16.056,16.056,0,0,1,1.656-8.522C1210.61,922.647,1212.382,920.96,1210.58,922.08Z" transform="translate(-1188.821 -908.246)"/><path class="i" d="M1200.019,921.72c-.858,1.681-2.588,8.445-2.929,10.247s.883,1.412,1.464-.731S1201.1,919.607,1200.019,921.72Z" transform="translate(-1188.821 -908.246)"/><path class="j" d="M1196.058,938.087c-1.013,1.488-1.418,1.263-2.3,2.724s-.27,4.964.356,2.584C1194.768,940.929,1197.149,936.483,1196.058,938.087Z" transform="translate(-1188.821 -908.246)"/><path class="k" d="M1214.424,945.8c-1.179.867-2.114,2.417.258,5.631.7.949,1.676,2.346,2.716,3.819,2.484,3.514,5.337,7.461,5.707,6.785.524-.961-2.188-3.973-4.3-6.221C1211.673,948.211,1215.344,945.122,1214.424,945.8Z" transform="translate(-1188.821 -908.246)"/><path class="k" d="M1228.027,950.034c-.223.67.394,2.507.514,3.222s.622,5.082.373,5.755-.471,2.847.232,1.3a8.994,8.994,0,0,0,.242-5.266C1229.051,953.223,1228.543,948.486,1228.027,950.034Z" transform="translate(-1188.821 -908.246)"/></svg>