<svg xmlns="http://www.w3.org/2000/svg" width="46.612" height="64.038" viewBox="0 0 46.612 64.038"><defs><style>.a{fill:#b4607a;}.b{fill:#9c0d1a;}.c{fill:#14519f;}.d{fill:#003476;}.e{fill:#4a4d90;}.f{fill:#0b51a0;}.g{fill:#ce9896;}.h{fill:#ab4239;}.i{fill:#3f78bc;}.j{fill:#7477b7;}</style></defs><g transform="translate(-954.325 -909.208)"><path class="a" d="M977.876,944.861c1.131.6,2.179,2.964,3.435,5.842a56.279,56.279,0,0,0,2.783,5.767c2.78,4.745,11.188,13.345,11.272,13.431l.153.155-.156.152c-1.978,1.926-4.974,2.657-8.319,2.657-7.7,0-17.262-3.872-20.543-5.956-5.625-3.572-4.694-4.936-4.576-6.477,0,0,5.245-2.447,8.278-5.691A100.95,100.95,0,0,0,977.876,944.861Z"/><path class="b" d="M987.043,973.246c-7.87,0-17.546-3.983-20.746-6.016-4.845-3.076-5.049-4.572-4.807-6.349.022-.159.043-.318.055-.478l.017-.222.2-.094c.052-.024,5.215-2.455,8.161-5.606a101.515,101.515,0,0,0,7.636-9.834l.191-.281.3.158c1.267.668,2.352,3.152,3.606,6.026a55.957,55.957,0,0,0,2.764,5.728c2.744,4.684,11.131,13.271,11.215,13.356l.42.429-.43.418C993.744,972.316,990.855,973.246,987.043,973.246Zm-24.76-12.564c-.012.1-.025.2-.039.3-.17,1.254-.347,2.552,4.461,5.605,3.137,1.991,12.622,5.9,20.338,5.9,3.526,0,6.195-.82,7.935-2.437-1.031-1.063-8.6-8.928-11.212-13.385a56.307,56.307,0,0,1-2.792-5.781c-1.057-2.42-2.051-4.7-3-5.494A98.731,98.731,0,0,1,970.481,955,31.173,31.173,0,0,1,962.283,960.682Z"/></g><g transform="translate(-954.325 -909.208)"><path class="c" d="M978.342,945.022m-15.962-7.531a14.041,14.041,0,0,0-3.728.159c.511-3.954,5.348-17.841,5.505-19.725.03-.359.291-.867,1.364-1.243,1.944-.68,5.617-.6,6.572.414a.819.819,0,0,1,.173.93,50.345,50.345,0,0,0-1.427,7.115c-.411,2.513-1.362,13.189-1.656,15.325C968.785,943.354,964.858,937.637,962.38,937.491Z"/><path class="d" d="M968.558,941.661c-.729,0-1.651-.762-2.777-1.692-1.158-.957-2.47-2.042-3.423-2.1a13.884,13.884,0,0,0-3.616.148l-.537.128.07-.546c.292-2.265,1.939-7.6,3.393-12.306,1.052-3.406,2.045-6.623,2.11-7.4.039-.471.352-1.128,1.618-1.57,1.881-.659,5.836-.693,6.973.512a1.191,1.191,0,0,1,.248,1.338,50.622,50.622,0,0,0-1.4,7.027c-.239,1.462-.661,5.7-1.034,9.432-.267,2.679-.5,4.993-.621,5.886a1.217,1.217,0,0,1-.667,1.081A.909.909,0,0,1,968.558,941.661Zm-7.481-4.589c.395,0,.837.011,1.325.04,1.2.07,2.555,1.188,3.864,2.269.841.7,1.989,1.654,2.35,1.509.064-.025.147-.163.19-.476.12-.879.351-3.186.618-5.858.373-3.747.8-7.994,1.04-9.477a49.833,49.833,0,0,1,1.45-7.2.439.439,0,0,0-.1-.523c-.771-.818-4.23-.995-6.168-.316-.687.241-1.081.566-1.11.915a73.131,73.131,0,0,1-2.142,7.565c-1.342,4.346-2.85,9.231-3.285,11.665A15.209,15.209,0,0,1,961.077,937.072Z"/></g><g transform="translate(-954.325 -909.208)"><path class="e" d="M978.342,945.022m-9.137-3.341c-.262,3.164,6.729,3.546,9.162,3.341,0,0-6.26,7.493-8.164,9.719s-7.677,5.733-7.677,5.733a4.558,4.558,0,0,1-5.272-2.259c-.335-.643-.365-2.478-1.312-3.644-1.892-2.329-1.286-6.786-.326-10.3.163-.6,2.148-4.942,3.46-7.549a8.924,8.924,0,0,1,4.154-.8C965.38,936.094,969.26,941.026,969.205,941.681Z"/><path class="d" d="M961.262,961.061a5.071,5.071,0,0,1-4.346-2.671,4.807,4.807,0,0,1-.323-1.115,5.891,5.891,0,0,0-.946-2.464c-2.042-2.513-1.344-7.176-.4-10.645.177-.648,2.165-4.991,3.488-7.62l.057-.114.115-.056a9.321,9.321,0,0,1,4.354-.843c2.245.191,6.407,5.158,6.322,6.179h0a1.539,1.539,0,0,0,.5,1.27c1.535,1.535,6.133,1.837,8.254,1.661l.908-.076-.584.7c-.063.075-6.283,7.52-8.168,9.722-1.922,2.246-7.531,5.667-7.769,5.812l-.077.036A4.351,4.351,0,0,1,961.262,961.061Zm-1.906-24.053c-1.34,2.674-3.227,6.822-3.373,7.359-.736,2.7-1.681,7.582.254,9.964a6.563,6.563,0,0,1,1.1,2.783,4.731,4.731,0,0,0,.254.925,4.2,4.2,0,0,0,4.774,2.088c.5-.3,5.784-3.571,7.549-5.634,1.547-1.808,6.025-7.159,7.6-9.047-2.374.045-6.366-.319-7.974-1.925a2.289,2.289,0,0,1-.719-1.848c-.156-.761-3.767-5.224-5.626-5.382A8.5,8.5,0,0,0,959.356,937.008Z"/></g><g transform="translate(-954.325 -909.208)"><path class="f" d="M996.673,949.174l-.133-.132c-3.188-3.188-17.176-2.581-17.317-2.575l-.08,0-.785-1.35a16.059,16.059,0,0,0,2.013-6.33c.043-.258.34-3.555.376-3.68.44-1.543,7.144.1,8.54.474,2.273.607,6.483,1.471,8.634.976a2.1,2.1,0,0,1,2.526,1.441,1.358,1.358,0,0,1-.537,1.769c-.214.092-.428.193-.641.292a8.564,8.564,0,0,1-1.392.56,6.757,6.757,0,0,0,1.556,1.152,1.926,1.926,0,0,1,.941,2.2c-.271,1.221-1.562,2.517-3.834,2.66-.2.012-.26.086-.29.14-.058.107-.186.562.6,1.952a.24.24,0,0,1-.025.339Z"/><path class="d" d="M996.638,949.677l-.367-.366c-2.392-2.392-11.822-2.672-17.022-2.464l-.32.012-1.005-1.729.1-.186a15.7,15.7,0,0,0,1.975-6.218c.018-.107.1-.986.171-1.692.169-1.739.192-1.949.216-2.028.526-1.842,6.472-.466,9,.21,2.709.723,6.548,1.412,8.451.973a2.467,2.467,0,0,1,2.973,1.694,1.719,1.719,0,0,1-.749,2.237c-.177.075-.354.158-.529.24l-.1.047c-.269.126-.544.255-.82.367a7.89,7.89,0,0,0,1.005.665,2.3,2.3,0,0,1,1.131,2.614c-.3,1.357-1.7,2.8-4.163,2.956a3.671,3.671,0,0,0,.6,1.527.6.6,0,0,1-.126.829Zm-14.56-3.643c4.075,0,11.177.3,14.108,2.238-.364-.787-.452-1.347-.27-1.683a.68.68,0,0,1,.6-.339c2.076-.129,3.247-1.28,3.486-2.362a1.541,1.541,0,0,0-.751-1.781,6.906,6.906,0,0,1-1.672-1.248l-.362-.457.563-.148a8.315,8.315,0,0,0,1.327-.537l.1-.047c.183-.086.366-.171.55-.25.387-.166.521-.7.325-1.3a1.7,1.7,0,0,0-2.077-1.188c-2.638.6-7.808-.709-8.819-.979-4.172-1.116-7.872-1.453-8.076-.737-.016.1-.111,1.092-.189,1.892-.1,1-.157,1.619-.178,1.746a16.327,16.327,0,0,1-1.954,6.256l.565.972C979.816,946.064,980.8,946.034,982.078,946.034Z"/></g><g transform="translate(-954.325 -909.208)"><path class="g" d="M994.694,948.167a8.539,8.539,0,0,1,2.391,4.617c.412,2.8,1.484,14.181.33,15.747s-2.474,2.8-3.958,2.474-14.429-15.253-15.913-17.727-2.226-8.574,3.133-8.739S994.694,948.167,994.694,948.167Z"/><path class="b" d="M993.941,971.439a2.66,2.66,0,0,1-.567-.062c-1.778-.4-14.849-15.724-16.156-17.9-.958-1.6-1.747-4.871-.5-7.152a4.3,4.3,0,0,1,3.949-2.164c5.383-.191,13.823,3.5,14.18,3.66l.1.068a8.841,8.841,0,0,1,2.51,4.843c.205,1.39,1.629,14.17.26,16.028C996.847,969.942,995.543,971.439,993.941,971.439Zm-12.919-26.525c-.113,0-.223,0-.333.005a3.583,3.583,0,0,0-3.3,1.768c-1.089,1.994-.355,5,.485,6.4,1.593,2.653,14.29,17.151,15.672,17.551,1.088.243,2.218-.5,3.566-2.329.941-1.276.166-11.617-.4-15.466a8.185,8.185,0,0,0-2.227-4.351C993.715,948.16,986.017,944.914,981.022,944.914Z"/></g><g transform="translate(-954.325 -909.208)"><path class="h" d="M974.183,946.584a7.344,7.344,0,0,1-.863-.052c-5.7-.658-4.579-11.535-4.21-15.109.042-.411.076-.744.094-.975.263-3.706,2.412-7.586,3.7-9.9.29-.523.538-.973.717-1.331.849-1.7-.035-5.517-.46-7.352-.076-.328-.154-.668-.16-.744,0-1.485,2.005-1.528,2.233-1.528a2.016,2.016,0,0,1,1.358.348c.006.034.054.256.125.562.545,2.353,1.232,4.864,2.494,4.864h0a1.121,1.121,0,0,0,.755-.325,3.42,3.42,0,0,0,1.014-3.2,2.344,2.344,0,0,1,.061-1.122,1.849,1.849,0,0,1,1.591-.633,1.978,1.978,0,0,1,1.415.471c.479.528.4,3.419.372,4.37-.023.793-.024.84.107.975l.113.115h.459l.095-.347c.026-.1.056-.252.092-.428.125-.616.5-2.49,1.085-2.587a1.847,1.847,0,0,1,.3-.022c.838,0,2.116.479,2.231,1.346a8.408,8.408,0,0,1-.165,2.281,9.718,9.718,0,0,0-.168,1.461,2.532,2.532,0,0,0,.69,1.378,10.788,10.788,0,0,1,2.281,5.919c.387,3.592-1.1,9.008-1.5,10.373a33.166,33.166,0,0,0-7.653-1.294,1.519,1.519,0,0,0-1.548,1.028c-.162,3.133-.593,11.457-6.648,11.457Z"/><path class="b" d="M981.155,936.131s.564-5.093.943-6.514,1.419-2.621,2.123-2.578,2.478-1.744-.563-.666-3.206,8.733-3.206,8.733c-.246,4.764-1.164,11.1-6.269,11.1a7.058,7.058,0,0,1-.82-.049c-5.326-.615-4.234-11.208-3.874-14.688.043-.419.077-.756.094-.991.259-3.622,2.381-7.456,3.649-9.747.29-.524.54-.976.725-1.345.8-1.6.266-4.6-.429-7.608-.062-.27-.133-.573-.15-.679.029-1.072,1.545-1.126,1.852-1.126h.148a1.718,1.718,0,0,1,.86.177c.029.116.068.285.1.44.605,2.609,1.324,5.157,2.865,5.157a1.488,1.488,0,0,0,1.009-.423,3.789,3.789,0,0,0,1.139-3.509,2.344,2.344,0,0,1,.022-.921,1.574,1.574,0,0,1,1.251-.422,1.642,1.642,0,0,1,1.127.339c.173.235.362,1.138.278,4.111-.024.847-.028,1,.215,1.25l.226.232h.322a.778.778,0,0,0,.761-.636c.028-.109.059-.264.1-.449.349-1.72.629-2.2.774-2.283a1.387,1.387,0,0,1,.234-.017c.795,0,1.778.443,1.855,1.016a8.175,8.175,0,0,1-.165,2.17,10.143,10.143,0,0,0-.172,1.522,2.805,2.805,0,0,0,.765,1.6,10.449,10.449,0,0,1,2.208,5.733c.351,3.261-.957,8.531-1.432,10.246l.72.144s1.933-6.168,1.469-10.472c-.546-5.061-2.969-6.266-2.969-7.255s.495-2.556.33-3.793c-.146-1.1-1.594-1.677-2.609-1.677a2.145,2.145,0,0,0-.359.028c-.989.165-1.319,2.638-1.484,3.3-.01.04-.018.059-.023.059-.086,0,.3-4.484-.472-5.336a2.327,2.327,0,0,0-1.7-.6,2.162,2.162,0,0,0-1.931.843c-.495.99.659,2.721-.99,4.205a.753.753,0,0,1-.5.227c-1.349,0-2.156-5.035-2.3-5.256a2.221,2.221,0,0,0-1.674-.518h0c-1.212,0-2.614.509-2.614,1.92,0,.412,1.649,5.936.66,7.915s-4.122,6.761-4.452,11.378c-.171,2.395-2.264,15.714,4.452,16.49a7.988,7.988,0,0,0,.907.054c6.089,0,6.8-7.665,6.993-11.189"/></g><path class="g" d="M976.034,923.012c-1.786,1.11-4.665,6.073-4.13,12.341s1.8,1.436,1.555-1.457a16.011,16.011,0,0,1,1.652-8.5C976.064,923.577,977.832,921.894,976.034,923.012Z" transform="translate(-954.325 -909.208)"/><path class="i" d="M965.5,922.652c-.855,1.677-2.582,8.426-2.922,10.223s.882,1.409,1.461-.729S966.572,920.543,965.5,922.652Z" transform="translate(-954.325 -909.208)"/><path class="j" d="M961.544,938.982c-1.01,1.484-1.414,1.26-2.289,2.718s-.269,4.953.355,2.578C960.257,941.818,962.633,937.382,961.544,938.982Z" transform="translate(-954.325 -909.208)"/><path class="b" d="M979.891,945.458c-3,3.517,8.256,18.732,13.97,21.283,4.081,1.822.53-16.976-.17-18.076C992.67,947.062,982.005,942.98,979.891,945.458Z" transform="translate(-954.325 -909.208)"/></svg>