<svg xmlns="http://www.w3.org/2000/svg" width="159.428" height="238.816" viewBox="0 0 159.428 238.816"><defs><style>.a,.c,.d,.f{fill:#3e96d4;}.b,.e{fill:#fff;}.b,.d,.e,.g{stroke:#3e96d4;}.b{stroke-linecap:round;}.b,.c,.d,.e,.g{stroke-miterlimit:10;}.c{stroke:#fff;}.f{font-size:14px;font-family:FranklinGothic-Book, Franklin Gothic Book;}.g{fill:none;stroke-width:0.5px;}</style></defs><g transform="translate(0 0.631)"><g transform="translate(-1117.186 -430.362)"><path class="a" d="M1219.722,550.736c-5.7,0-10.164-2.1-10.164-4.771s4.465-4.769,10.164-4.769,10.163,2.1,10.163,4.769S1225.421,550.736,1219.722,550.736Zm0-8.58c-5.506,0-9.2,1.97-9.2,3.809s3.7,3.81,9.2,3.81,9.2-1.97,9.2-3.81S1225.226,542.156,1219.722,542.156Z"/></g><g transform="translate(-1117.186 -430.362)"><path class="a" d="M1235.645,544.117c-5.7,0-10.163-2.1-10.163-4.77s4.465-4.77,10.163-4.77,10.163,2.095,10.163,4.77S1241.344,544.117,1235.645,544.117Zm0-8.58c-5.5,0-9.2,1.97-9.2,3.81s3.7,3.81,9.2,3.81,9.2-1.97,9.2-3.81S1241.15,535.537,1235.645,535.537Z"/></g><g transform="translate(-1117.186 -430.362)"><path class="a" d="M1186.995,564.1c-5.7,0-10.163-2.1-10.163-4.77s4.464-4.771,10.163-4.771,10.164,2.1,10.164,4.771S1192.694,564.1,1186.995,564.1Zm0-8.58c-5.505,0-9.2,1.97-9.2,3.81s3.7,3.81,9.2,3.81,9.2-1.97,9.2-3.81S1192.5,555.516,1186.995,555.516Z"/></g><g transform="translate(-1117.186 -430.362)"><path class="a" d="M1202.919,557.477c-5.7,0-10.163-2.095-10.163-4.77s4.464-4.77,10.163-4.77,10.163,2.095,10.163,4.77S1208.618,557.477,1202.919,557.477Zm0-8.58c-5.505,0-9.2,1.97-9.2,3.81s3.7,3.81,9.2,3.81,9.2-1.97,9.2-3.81S1208.424,548.9,1202.919,548.9Z"/></g><g transform="translate(-1117.186 -430.362)"><path class="a" d="M1211.358,573.981a.479.479,0,0,1-.29-.1,3.274,3.274,0,0,1-1.51-2.545,3.235,3.235,0,0,1,1.446-2.5.48.48,0,1,1,.59.757,2.406,2.406,0,0,0-1.076,1.74,2.452,2.452,0,0,0,1.13,1.78.48.48,0,0,1-.29.863Z"/></g><g transform="translate(-1117.186 -430.362)"><path class="a" d="M1219.722,576.107a19.5,19.5,0,0,1-5.707-.8.48.48,0,1,1,.286-.917,18.523,18.523,0,0,0,5.421.756c5.5,0,9.2-1.97,9.2-3.809s-3.7-3.81-9.2-3.81a19.442,19.442,0,0,0-4.662.543.48.48,0,0,1-.234-.931,20.354,20.354,0,0,1,4.9-.573c5.7,0,10.163,2.1,10.163,4.771S1225.421,576.107,1219.722,576.107Z"/></g><g transform="translate(-1117.186 -430.362)"><path class="a" d="M1228.017,567.842a.472.472,0,0,1-.236-.063c-1.5-.851-2.3-1.909-2.3-3.06,0-1.189.889-2.316,2.5-3.172a.48.48,0,1,1,.45.848c-1.284.681-1.991,1.507-1.991,2.324,0,.774.643,1.564,1.811,2.225a.48.48,0,0,1-.237.9Z"/></g><g transform="translate(-1117.186 -430.362)"><path class="a" d="M1235.645,569.489a20.57,20.57,0,0,1-4.414-.459.48.48,0,1,1,.207-.938,19.539,19.539,0,0,0,4.207.436c5.505,0,9.2-1.969,9.2-3.809s-3.7-3.81-9.2-3.81a19.474,19.474,0,0,0-4.6.527.48.48,0,0,1-.231-.932,20.417,20.417,0,0,1,4.827-.555c5.7,0,10.163,2.1,10.163,4.77S1241.344,569.489,1235.645,569.489Z"/></g><g transform="translate(-1117.186 -430.362)"><path class="a" d="M1186.995,589.468c-5.7,0-10.163-2.1-10.163-4.771s4.464-4.769,10.163-4.769,10.164,2.1,10.164,4.769S1192.694,589.468,1186.995,589.468Zm0-8.58c-5.505,0-9.2,1.97-9.2,3.809s3.7,3.81,9.2,3.81,9.2-1.969,9.2-3.81S1192.5,580.888,1186.995,580.888Z"/></g><g transform="translate(-1117.186 -430.362)"><path class="a" d="M1202.919,582.849a20.442,20.442,0,0,1-4.871-.566.48.48,0,0,1,.233-.932,19.427,19.427,0,0,0,4.638.538c5.505,0,9.2-1.97,9.2-3.81s-3.7-3.81-9.2-3.81a19.515,19.515,0,0,0-4.526.51.48.48,0,0,1-.226-.933,20.521,20.521,0,0,1,4.752-.537c5.7,0,10.163,2.095,10.163,4.77S1208.618,582.849,1202.919,582.849Z"/></g><g transform="translate(-1117.186 -430.362)"><path class="a" d="M1195.2,581.148a.485.485,0,0,1-.242-.065c-1.439-.841-2.2-1.88-2.2-3,0-1.231.945-2.387,2.66-3.254a.48.48,0,1,1,.434.857c-1.376.7-2.134,1.547-2.134,2.4,0,.753.612,1.525,1.725,2.175a.48.48,0,0,1-.243.894Z"/></g><g transform="translate(-1117.186 -430.362)"><path class="a" d="M1205.495,543.381c-5.6,0-9.981-2.04-9.981-4.645s4.384-4.644,9.981-4.644,9.981,2.04,9.981,4.644S1211.091,543.381,1205.495,543.381Zm0-8.329c-5.4,0-9.021,1.9-9.021,3.684s3.625,3.685,9.021,3.685,9.02-1.905,9.02-3.685S1210.891,535.052,1205.495,535.052Z"/></g><g transform="translate(-1117.186 -430.362)"><path class="a" d="M1221.26,536.246c-5.155,0-9.193-1.885-9.193-4.29s4.038-4.29,9.193-4.29,9.194,1.884,9.194,4.29S1226.415,536.246,1221.26,536.246Zm0-7.694c-4.97,0-8.308,1.76-8.308,3.4s3.338,3.4,8.308,3.4,8.309-1.76,8.309-3.4S1226.231,528.552,1221.26,528.552Z"/></g><g transform="translate(-1117.186 -430.362)"><path class="a" d="M1171.788,556.619c-5.6,0-9.981-2.041-9.981-4.645s4.384-4.645,9.981-4.645,9.981,2.04,9.981,4.645S1177.384,556.619,1171.788,556.619Zm0-8.33c-5.4,0-9.021,1.906-9.021,3.685s3.625,3.685,9.021,3.685,9.021-1.906,9.021-3.685S1177.184,548.289,1171.788,548.289Z"/></g><g transform="translate(-1117.186 -430.362)"><path class="a" d="M1187.412,550.193c-5.6,0-9.981-2.04-9.981-4.645s4.385-4.644,9.981-4.644,9.981,2.04,9.981,4.644S1193.009,550.193,1187.412,550.193Zm0-8.329c-5.4,0-9.021,1.9-9.021,3.684s3.625,3.685,9.021,3.685,9.021-1.9,9.021-3.685S1192.808,541.864,1187.412,541.864Z"/></g><g transform="translate(-1117.186 -430.362)"><path class="a" d="M1190.782,536.227c-5.451,0-9.72-1.989-9.72-4.528s4.269-4.528,9.72-4.528,9.72,1.989,9.72,4.528S1196.232,536.227,1190.782,536.227Zm0-8.1c-5.24,0-8.76,1.845-8.76,3.568s3.52,3.568,8.76,3.568,8.76-1.845,8.76-3.568S1196.022,528.131,1190.782,528.131Z"/></g><g transform="translate(-1117.186 -430.362)"><path class="a" d="M1205.5,529.982c-5.181,0-9.24-1.82-9.24-4.142s4.059-4.143,9.24-4.143,9.24,1.82,9.24,4.143S1210.678,529.982,1205.5,529.982Zm0-7.407c-4.981,0-8.327,1.688-8.327,3.265s3.346,3.263,8.327,3.263,8.327-1.687,8.327-3.263S1210.478,522.575,1205.5,522.575Z"/></g><g transform="translate(-1117.186 -430.362)"><path class="a" d="M1157.688,549.342c-5.451,0-9.72-1.989-9.72-4.528s4.269-4.528,9.72-4.528,9.72,1.989,9.72,4.528S1163.138,549.342,1157.688,549.342Zm0-8.1c-5.24,0-8.76,1.845-8.76,3.568s3.52,3.568,8.76,3.568,8.76-1.845,8.76-3.568S1162.928,541.246,1157.688,541.246Z"/></g><g transform="translate(-1117.186 -430.362)"><path class="a" d="M1172.883,543.1c-5.451,0-9.72-1.989-9.72-4.528s4.269-4.528,9.72-4.528,9.72,1.989,9.72,4.528S1178.333,543.1,1172.883,543.1Zm0-8.1c-5.24,0-8.76,1.845-8.76,3.568s3.52,3.568,8.76,3.568,8.76-1.845,8.76-3.568S1178.123,535,1172.883,535Z"/></g><g transform="translate(-1117.186 -430.362)"><path class="a" d="M1176.3,529.655c-5.338,0-9.519-1.958-9.519-4.459s4.181-4.459,9.519-4.459,9.518,1.959,9.518,4.459S1181.637,529.655,1176.3,529.655Zm0-7.958c-5.12,0-8.559,1.809-8.559,3.5s3.439,3.5,8.559,3.5,8.558-1.809,8.558-3.5S1181.419,521.7,1176.3,521.7Z"/></g><g transform="translate(-1117.186 -430.362)"><path class="a" d="M1190.64,523.148c-4.494,0-8.015-1.551-8.015-3.531,0-1.7,2.6-3.086,6.181-3.443.587-.058,1.2-.089,1.834-.089,4.495,0,8.015,1.551,8.015,3.532,0,1.856-3.094,3.336-7.184,3.513Q1191.062,523.148,1190.64,523.148Zm0-6.3q-.393,0-.77.015c-3.882.158-6.436,1.5-6.436,2.756,0,1.338,2.9,2.771,7.206,2.771.409,0,.806-.013,1.188-.038,3.647-.233,6.019-1.522,6.019-2.733C1197.847,518.278,1194.951,516.846,1190.64,516.846Z"/></g><g transform="translate(-1117.186 -430.362)"><path class="a" d="M1143.206,543.015c-5.337,0-9.518-1.959-9.518-4.459s4.181-4.459,9.518-4.459,9.518,1.959,9.518,4.459S1148.543,543.015,1143.206,543.015Zm0-7.958c-5.119,0-8.558,1.809-8.558,3.5s3.439,3.5,8.558,3.5,8.558-1.809,8.558-3.5S1148.325,535.057,1143.206,535.057Z"/></g><g transform="translate(-1117.186 -430.362)"><path class="a" d="M1178.581,580.615a.48.48,0,0,1-.2-.917c1.541-.692,2.425-1.593,2.425-2.474,0-.939-.98-1.882-2.689-2.588a.48.48,0,1,1,.367-.887c2.116.874,3.282,2.108,3.282,3.475,0,1.295-1.063,2.484-2.992,3.349A.467.467,0,0,1,1178.581,580.615Z"/></g><g transform="translate(-1117.186 -430.362)"><path class="a" d="M1171.788,581.868c-5.6,0-9.981-2.04-9.981-4.644s4.384-4.645,9.981-4.645a20.557,20.557,0,0,1,4.144.405.48.48,0,0,1-.194.941,19.6,19.6,0,0,0-3.95-.386c-5.4,0-9.021,1.9-9.021,3.685s3.625,3.684,9.021,3.684a19.9,19.9,0,0,0,3.527-.3.48.48,0,1,1,.171.945A20.9,20.9,0,0,1,1171.788,581.868Z"/></g><g transform="translate(-1117.186 -430.362)"><path class="a" d="M1157.688,574.592c-5.451,0-9.72-1.99-9.72-4.529s4.269-4.528,9.72-4.528a20.317,20.317,0,0,1,3.54.3.48.48,0,0,1-.167.945,19.378,19.378,0,0,0-3.373-.286c-5.24,0-8.76,1.845-8.76,3.568s3.52,3.569,8.76,3.569a19.575,19.575,0,0,0,3.048-.232.48.48,0,0,1,.15.949A20.643,20.643,0,0,1,1157.688,574.592Z"/></g><g transform="translate(-1117.186 -430.362)"><path class="a" d="M1163.978,573.509a.48.48,0,0,1-.181-.925c1.684-.686,2.651-1.6,2.651-2.521,0-1.021-1.207-2.043-3.227-2.736a.48.48,0,1,1,.311-.908c2.463.844,3.876,2.172,3.876,3.644,0,1.346-1.154,2.557-3.249,3.41A.48.48,0,0,1,1163.978,573.509Z"/></g><g transform="translate(-1117.186 -430.362)"><path class="a" d="M1149.581,567.107a.48.48,0,0,1-.193-.92c1.51-.662,2.376-1.53,2.376-2.381s-.86-1.714-2.361-2.375a.48.48,0,1,1,.387-.878c1.892.833,2.934,1.988,2.934,3.253s-1.048,2.427-2.951,3.26A.47.47,0,0,1,1149.581,567.107Z"/></g><g transform="translate(-1117.186 -430.362)"><path class="a" d="M1143.206,568.265c-5.337,0-9.518-1.959-9.518-4.459s4.181-4.46,9.518-4.46a19.384,19.384,0,0,1,4.072.415.48.48,0,1,1-.2.938,18.461,18.461,0,0,0-3.869-.393c-5.119,0-8.558,1.81-8.558,3.5s3.439,3.5,8.558,3.5a18.762,18.762,0,0,0,3.436-.3.48.48,0,1,1,.176.944A19.8,19.8,0,0,1,1143.206,568.265Z"/></g><g transform="translate(-1117.186 -430.362)"><path class="a" d="M1159.05,536.508c-5.338,0-9.519-1.958-9.519-4.458s4.181-4.46,9.519-4.46,9.517,1.959,9.517,4.46S1164.387,536.508,1159.05,536.508Zm0-7.958c-5.12,0-8.559,1.81-8.559,3.5s3.439,3.5,8.559,3.5,8.557-1.809,8.557-3.5S1164.169,528.55,1159.05,528.55Z"/></g><g transform="translate(-1117.186 -430.362)"><path class="a" d="M1181.448,570.885l-.195-.1-64.005-34.335,71.953-26.352.165.06,76.019,27.83Zm-61.861-34.274,61.924,33.218,81.165-31.815-73.475-26.9Z"/></g><g transform="translate(-1117.186 -430.362)"><path class="a" d="M1181.215,573.453l-.073-.04-63.416-34.019.377-.138,70.846-25.946.062.022,75.274,27.559-.442.173Zm-62.611-34,62.635,33.6L1263.27,540.9l-74.321-27.209Z"/></g><g transform="translate(-1117.186 -430.362)"><path class="a" d="M1136.4,556.261a.48.48,0,0,1-.165-.931l5.64-2.064a.48.48,0,0,1,.33.9l-5.64,2.064A.474.474,0,0,1,1136.4,556.261Z"/></g><g transform="translate(-1117.186 -430.362)"><path class="a" d="M1181.387,596.747l-.2-.1-64.005-34.335,15.244-5.583a.48.48,0,0,1,.33.9l-13.234,4.847,61.924,33.218,81.165-31.815-14.889-5.45a.48.48,0,1,1,.33-.9l17.268,6.321Z"/></g><g transform="translate(-1117.186 -430.362)"><path class="a" d="M1243.687,556.916a.484.484,0,0,1-.165-.029l-8.207-3a.48.48,0,0,1,.33-.9l8.207,3a.48.48,0,0,1-.165.931Z"/></g><g transform="translate(-1117.186 -430.362)"><path class="a" d="M1264.827,564.157a.48.48,0,0,1-.48-.48V538.3a.48.48,0,0,1,.96,0v25.372A.479.479,0,0,1,1264.827,564.157Z"/></g><g transform="translate(-1117.186 -430.362)"><path class="a" d="M1245.553,565.445a.225.225,0,0,1-.24-.208V549.969a.242.242,0,0,1,.48,0v15.268A.225.225,0,0,1,1245.553,565.445Z"/></g><g transform="translate(-1117.186 -430.362)"><path class="a" d="M1245.553,543.325a.239.239,0,0,1-.24-.24v-3.8a.24.24,0,0,1,.48,0v3.8A.239.239,0,0,1,1245.553,543.325Z"/></g><g transform="translate(-1117.186 -430.362)"><path class="a" d="M1225.926,564.157c-.132,0-.24-.064-.24-.144v-6.379c0-.079.108-.144.24-.144s.24.065.24.144v6.379C1226.166,564.093,1226.059,564.157,1225.926,564.157Z"/></g><g transform="translate(-1117.186 -430.362)"><path class="a" d="M1229.65,571.337a.22.22,0,0,1-.24-.193v-14.3a.245.245,0,0,1,.48,0v14.3A.22.22,0,0,1,1229.65,571.337Z"/></g><g transform="translate(-1117.186 -430.362)"><path class="a" d="M1229.65,549.76a.239.239,0,0,1-.24-.24v-3.892a.24.24,0,0,1,.48,0v3.892A.24.24,0,0,1,1229.65,549.76Z"/></g><g transform="translate(-1117.186 -430.362)"><path class="a" d="M1210.023,571.558c-.132,0-.24-.08-.24-.178v-7.906c0-.1.108-.178.24-.178s.24.08.24.178v7.906C1210.263,571.478,1210.156,571.558,1210.023,571.558Z"/></g><g transform="translate(-1117.186 -430.362)"><path class="a" d="M1212.735,578.351a.224.224,0,0,1-.24-.2V562.886a.243.243,0,0,1,.48,0v15.261A.224.224,0,0,1,1212.735,578.351Z"/></g><g transform="translate(-1117.186 -430.362)"><path class="a" d="M1212.735,556.747a.24.24,0,0,1-.24-.24v-3.984a.24.24,0,0,1,.48,0v3.984A.24.24,0,0,1,1212.735,556.747Z"/></g><g transform="translate(-1117.186 -430.362)"><path class="a" d="M1193.108,578.351a.219.219,0,0,1-.24-.188v-8.147a.247.247,0,0,1,.481,0v8.147A.219.219,0,0,1,1193.108,578.351Z"/></g><g transform="translate(-1117.186 -430.362)"><path class="a" d="M1196.831,585.448a.23.23,0,0,1-.24-.218V568.65a.241.241,0,0,1,.48,0v16.58A.229.229,0,0,1,1196.831,585.448Z"/></g><g transform="translate(-1117.186 -430.362)"><path class="a" d="M1196.831,563.059a.241.241,0,0,1-.24-.24V559.05a.24.24,0,0,1,.48,0v3.769A.24.24,0,0,1,1196.831,563.059Z"/></g><g transform="translate(-1117.186 -430.362)"><path class="a" d="M1177.2,585.658a.227.227,0,0,1-.24-.212V572.2a.242.242,0,0,1,.48,0v13.242A.227.227,0,0,1,1177.2,585.658Z"/></g><g transform="translate(-1117.186 -430.362)"><path class="a" d="M1177.2,565.633a.239.239,0,0,1-.24-.24V559.28a.24.24,0,1,1,.48,0v6.113A.239.239,0,0,1,1177.2,565.633Z"/></g><g transform="translate(-1117.186 -430.362)"><path class="a" d="M1181.3,577.961c-.133,0-.24-.078-.24-.174v-3.753c0-.1.107-.174.24-.174s.24.078.24.174v3.753C1181.536,577.883,1181.428,577.961,1181.3,577.961Z"/></g><g transform="translate(-1117.186 -430.362)"><path class="a" d="M1181.3,568.452a.239.239,0,0,1-.24-.24v-3.238a.24.24,0,0,1,.48,0v3.238A.24.24,0,0,1,1181.3,568.452Z"/></g><g transform="translate(-1117.186 -430.362)"><path class="a" d="M1162.359,578.079a.225.225,0,0,1-.241-.2V564.756a.244.244,0,0,1,.481,0v13.119A.224.224,0,0,1,1162.359,578.079Z"/></g><g transform="translate(-1117.186 -430.362)"><path class="a" d="M1162.359,557.773a.24.24,0,0,1-.241-.24v-5.516a.24.24,0,0,1,.481,0v5.516A.24.24,0,0,1,1162.359,557.773Z"/></g><g transform="translate(-1117.186 -430.362)"><path class="a" d="M1167.047,570.885c-.133,0-.24-.033-.24-.073v-4.147c0-.04.107-.072.24-.072s.24.032.24.072v4.147C1167.287,570.852,1167.18,570.885,1167.047,570.885Z"/></g><g transform="translate(-1117.186 -430.362)"><path class="a" d="M1167.047,560.989c-.133,0-.24-.029-.24-.065v-3.731c0-.036.107-.065.24-.065s.24.029.24.065v3.731C1167.287,560.96,1167.18,560.989,1167.047,560.989Z"/></g><g transform="translate(-1117.186 -430.362)"><path class="a" d="M1148.478,570.885a.224.224,0,0,1-.24-.2V557.511a.244.244,0,0,1,.48,0v13.171A.224.224,0,0,1,1148.478,570.885Z"/></g><g transform="translate(-1117.186 -430.362)"><path class="a" d="M1148.478,550.787a.24.24,0,0,1-.24-.24v-5.332a.24.24,0,1,1,.48,0v5.332A.24.24,0,0,1,1148.478,550.787Z"/></g><g transform="translate(-1117.186 -430.362)"><path class="a" d="M1152.339,563.8c-.133,0-.24-.062-.24-.139v-4.291c0-.078.107-.14.24-.14s.24.062.24.14v4.291C1152.579,563.743,1152.471,563.8,1152.339,563.8Z"/></g><g transform="translate(-1117.186 -430.362)"><path class="a" d="M1152.339,552.671a.239.239,0,0,1-.24-.24v-2.666a.24.24,0,0,1,.48,0v2.666A.24.24,0,0,1,1152.339,552.671Z"/></g><g transform="translate(-1117.186 -430.362)"><path class="a" d="M1134.275,564.938a.22.22,0,0,1-.24-.193V550.928a.246.246,0,0,1,.48,0v13.817A.22.22,0,0,1,1134.275,564.938Z"/></g><g transform="translate(-1117.186 -430.362)"><path class="a" d="M1134.275,543.295a.24.24,0,0,1-.24-.24v-4.413a.24.24,0,1,1,.48,0v4.413A.241.241,0,0,1,1134.275,543.295Z"/></g><g transform="translate(-1117.186 -430.362)"><path class="a" d="M1117.728,562.656h0a.48.48,0,0,1-.478-.482l.092-25.556a.479.479,0,0,1,.48-.478h0a.479.479,0,0,1,.478.481l-.092,25.556A.481.481,0,0,1,1117.728,562.656Z"/></g><g transform="translate(-1117.186 -430.362)"><path class="b" d="M1209.1,430.362c-.41,1.255-.8,2.44-1.223,3.515-1.966,4.973-.838,5.813-.826,5.82l.059.041.021.073c.535,2.407-8.639,22.773-9.423,24.507l.445.713-.03.082-22.788,62.93a14.283,14.283,0,0,0,2.323.15,10.76,10.76,0,0,0,2.5-.519l28.481-58.11.8-.089c.68-1.918,8.322-23.248,11.7-24.129a.776.776,0,0,1,.694.08.607.607,0,0,1,.223.457c.53,2.369-8.557,22.474-9.338,24.2l.446.713-.03.082L1190.1,534.566a16.984,16.984,0,0,0,2.352.017,7.62,7.62,0,0,0,2.441-.492l28.742-58.767.794-.088c.668-1.974,8.2-23.992,11.7-24.261l.039,0,.62.232.021.1c.546,2.457-8.846,22.656-9.654,24.388l.454.726-23.774,65.315a20.009,20.009,0,0,0,2.271.07,23.758,23.758,0,0,0,2.735-.348l29.482-60.4.813-.091c.691-1.944,8.5-23.745,11.945-24.644a.878.878,0,0,1,.706.072.8.8,0,0,1,.344.5c.545,2.454-8.853,22.945-9.655,24.689l.454.728-.03.082-24.5,67.363a19.32,19.32,0,0,0,4.572-.12l30.676-62.692.811-.091c1.011-3.037,8.429-24.979,12.009-24.649h.017c1.2,0,8.4-10.111,9.565-18.358"/></g><g transform="translate(-1117.186 -430.362)"><path class="c" d="M1216.412,555.036"/></g><g transform="translate(-1117.186 -430.362)"><line class="a" x1="0.71" y2="1.452" transform="translate(1221.583 551.788)"/><path class="a" d="M1221.583,553.42a.17.17,0,0,1-.079-.019.181.181,0,0,1-.083-.241l.71-1.452a.18.18,0,1,1,.323.159l-.709,1.452A.181.181,0,0,1,1221.583,553.42Z"/></g><g transform="translate(-1117.186 -430.362)"><line class="a" y1="3.043" x2="1.1" transform="translate(1216.603 551.912)"/><path class="a" d="M1216.6,555.135a.164.164,0,0,1-.061-.011.18.18,0,0,1-.108-.231l1.1-3.043a.177.177,0,0,1,.23-.108.18.18,0,0,1,.108.231l-1.1,3.043A.179.179,0,0,1,1216.6,555.135Z"/></g><g transform="translate(-1117.186 -430.362)"><path class="a" d="M1216.452,562.136a2.591,2.591,0,0,1-1.005-.214,1.288,1.288,0,0,1-.64-.571.18.18,0,0,1,.313-.177.945.945,0,0,0,.465.416,1.852,1.852,0,0,0,2.11-.3l.386-.789a.18.18,0,1,1,.323.158l-.423.852A2.155,2.155,0,0,1,1216.452,562.136Z"/></g><g transform="translate(-1117.186 -430.362)"><path class="d" d="M1238.444,481.735a.179.179,0,0,1-.115-.042,22.96,22.96,0,0,0-10.936-4.739.18.18,0,0,1,.038-.358,23.339,23.339,0,0,1,11.129,4.821.18.18,0,0,1-.116.318Z"/></g><g transform="translate(-1117.186 -430.362)"><path class="d" d="M1239.21,481.643a.177.177,0,0,1-.137-.064,16.2,16.2,0,0,0-5.591-3.776,22.418,22.418,0,0,0-6.449-1.584.181.181,0,0,1-.168-.192.169.169,0,0,1,.192-.167,22.838,22.838,0,0,1,6.566,1.612,16.562,16.562,0,0,1,5.725,3.875.179.179,0,0,1-.138.3Z"/></g><g transform="translate(-1117.186 -430.362)"><path class="d" d="M1234.307,490.1a.18.18,0,0,1-.137-.064,11.2,11.2,0,0,0-4.652-3.2,9.929,9.929,0,0,0-5.348-.908.18.18,0,0,1-.072-.353,10.071,10.071,0,0,1,5.561.93,11.662,11.662,0,0,1,4.786,3.3.18.18,0,0,1-.021.254A.178.178,0,0,1,1234.307,490.1Z"/></g><g transform="translate(-1117.186 -430.362)"><path class="d" d="M1240.5,478.456a.175.175,0,0,1-.137-.064,16.2,16.2,0,0,0-5.591-3.776,22.418,22.418,0,0,0-6.449-1.584.181.181,0,0,1-.168-.192.17.17,0,0,1,.192-.167,22.837,22.837,0,0,1,6.566,1.612,16.561,16.561,0,0,1,5.725,3.875.18.18,0,0,1-.138.3Z"/></g><g transform="translate(-1117.186 -430.362)"><path class="e" d="M1253.765,487.618a.172.172,0,0,1-.115-.042,22.97,22.97,0,0,0-10.935-4.739.18.18,0,0,1,.038-.358,23.344,23.344,0,0,1,11.127,4.821.18.18,0,0,1-.115.318Z"/></g><g transform="translate(-1117.186 -430.362)"><path class="e" d="M1254.531,487.526a.177.177,0,0,1-.137-.063,16.2,16.2,0,0,0-5.591-3.777,22.451,22.451,0,0,0-6.449-1.584.179.179,0,0,1-.167-.192.169.169,0,0,1,.192-.167,22.844,22.844,0,0,1,6.566,1.612,16.551,16.551,0,0,1,5.723,3.875.179.179,0,0,1-.137.3Z"/></g><g transform="translate(-1117.186 -430.362)"><path class="e" d="M1249.629,495.984a.182.182,0,0,1-.138-.064,11.191,11.191,0,0,0-4.652-3.2,9.874,9.874,0,0,0-5.348-.908.18.18,0,0,1-.072-.353,10.071,10.071,0,0,1,5.561.93,11.652,11.652,0,0,1,4.786,3.3.18.18,0,0,1-.021.254A.177.177,0,0,1,1249.629,495.984Z"/></g><g transform="translate(-1117.186 -430.362)"><path class="e" d="M1255.818,484.34a.18.18,0,0,1-.137-.064,16.227,16.227,0,0,0-5.591-3.777,22.437,22.437,0,0,0-6.449-1.583.18.18,0,0,1-.167-.192.17.17,0,0,1,.191-.168,22.887,22.887,0,0,1,6.567,1.612,16.578,16.578,0,0,1,5.724,3.875.181.181,0,0,1-.021.254A.179.179,0,0,1,1255.818,484.34Z"/></g><g transform="translate(-1117.186 -430.362)"><path class="d" d="M1208.755,470.252a.181.181,0,0,1-.116-.041,22.462,22.462,0,0,0-10.7-4.64.181.181,0,0,1-.16-.2.177.177,0,0,1,.2-.16,22.869,22.869,0,0,1,10.9,4.721.18.18,0,0,1-.115.318Z"/></g><g transform="translate(-1117.186 -430.362)"><path class="d" d="M1209.505,470.162a.181.181,0,0,1-.138-.063,15.855,15.855,0,0,0-5.472-3.7,21.954,21.954,0,0,0-6.313-1.55.18.18,0,0,1-.167-.192.166.166,0,0,1,.191-.167,22.3,22.3,0,0,1,6.431,1.578,16.206,16.206,0,0,1,5.6,3.795.179.179,0,0,1-.137.3Z"/></g><g transform="translate(-1117.186 -430.362)"><path class="d" d="M1204.7,478.443a.182.182,0,0,1-.138-.064,10.963,10.963,0,0,0-4.553-3.131,9.725,9.725,0,0,0-5.234-.889.18.18,0,0,1-.072-.353,9.867,9.867,0,0,1,5.447.911,11.421,11.421,0,0,1,4.687,3.23.18.18,0,0,1-.137.3Z"/></g><g transform="translate(-1117.186 -430.362)"><path class="d" d="M1210.765,467.042a.177.177,0,0,1-.137-.063,15.858,15.858,0,0,0-5.473-3.7,22,22,0,0,0-6.313-1.551.179.179,0,0,1-.167-.192.169.169,0,0,1,.191-.167,22.35,22.35,0,0,1,6.431,1.579,16.221,16.221,0,0,1,5.6,3.8.179.179,0,0,1-.021.254A.182.182,0,0,1,1210.765,467.042Z"/></g><g transform="translate(-1117.186 -430.362)"><path class="d" d="M1223.756,476.013a.182.182,0,0,1-.116-.042,22.467,22.467,0,0,0-10.7-4.639.182.182,0,0,1-.16-.2.179.179,0,0,1,.2-.16,22.869,22.869,0,0,1,10.9,4.721.18.18,0,0,1-.115.319Z"/></g><g transform="translate(-1117.186 -430.362)"><path class="d" d="M1224.506,475.923a.178.178,0,0,1-.137-.064,15.868,15.868,0,0,0-5.473-3.7,21.937,21.937,0,0,0-6.313-1.55.18.18,0,0,1-.167-.192.168.168,0,0,1,.191-.167,22.328,22.328,0,0,1,6.43,1.578,16.224,16.224,0,0,1,5.606,3.8.179.179,0,0,1-.021.254A.177.177,0,0,1,1224.506,475.923Z"/></g><g transform="translate(-1117.186 -430.362)"><path class="d" d="M1219.706,484.2a.181.181,0,0,1-.138-.063,10.956,10.956,0,0,0-4.554-3.132,9.733,9.733,0,0,0-5.233-.889.18.18,0,0,1-.072-.353,9.877,9.877,0,0,1,5.447.911,11.42,11.42,0,0,1,4.687,3.23.179.179,0,0,1-.137.3Z"/></g><g transform="translate(-1117.186 -430.362)"><path class="d" d="M1225.766,472.8a.178.178,0,0,1-.137-.064,15.868,15.868,0,0,0-5.473-3.7,21.992,21.992,0,0,0-6.313-1.55.179.179,0,0,1-.167-.192.168.168,0,0,1,.192-.167,22.332,22.332,0,0,1,6.429,1.578,16.224,16.224,0,0,1,5.606,3.8.179.179,0,0,1-.021.254A.176.176,0,0,1,1225.766,472.8Z"/></g><text class="f" transform="translate(14.474 174.145)"><tspan x="0" y="13">MYH7, MYBPC3, </tspan><tspan x="0" y="27">TNNI3, TNNT2, </tspan><tspan x="0" y="41">TPM1, MYL2, </tspan><tspan x="0" y="55">MYL3, and ACTC1</tspan></text><rect class="g" width="122.255" height="68.021" transform="translate(4.112 169.915)"/></g></svg>