<svg xmlns="http://www.w3.org/2000/svg" width="281.867" height="281.866" viewBox="0 0 281.867 281.866"><defs><style>.a{fill:#003476;}.b{fill:#fff;font-family:FranklinGothic-Demi, Franklin Gothic;font-weight:300;}.b,.d{font-size:19px;}.c{font-size:35px;}</style></defs><path class="a" d="M1237.645,242.3a140.938,140.938,0,0,0,251.319,87.629c.306-.385-30.362,20.511-94.993,5.727-20.39-4.665-27.053-16.526-27.053-16.526l-12.528,9.6s-1.412-11.661-1.6-20.058c-.2-8.995.4-20.59.4-20.59s13.867-.155,23.189,1a82.405,82.405,0,0,1,21.723,6.33c-.183-.046-14.31,10.9-14.127,10.662.409-.541,16.78,11.937,42.513,16.392,28.518,4.937,66.678,1.907,67.113,1.293a141.312,141.312,0,0,0,22.875-110.686c-.164.245-8.946,6.508-8.959,6.375-7.863-80.229-67.1-118.077-128.939-118.077A140.933,140.933,0,0,0,1237.645,242.3Z" transform="translate(-1237.645 -101.368)"/><text class="b" transform="translate(24.622 56.323)"><tspan x="16.446" y="17">Reevaluation of genetic </tspan><tspan x="55.476" y="35">testing results</tspan><tspan class="c"><tspan x="0.226" y="65">every 2-3 years </tspan><tspan class="d" x="14.354" y="83">in case variant has been </tspan><tspan class="d" x="67.29" y="101">reclassified </tspan></tspan></text></svg>