<svg xmlns="http://www.w3.org/2000/svg" width="291.964" height="303.578" viewBox="0 0 291.964 303.578"><defs><style>.a{fill:none;stroke:#3e96d4;stroke-width:25px;}.b{fill:#fff;}</style></defs><g transform="translate(12.5 12.5)"><path class="a" d="M124.827,0c68.94,0,124.827,56.193,124.827,125.511a125.83,125.83,0,0,1-59.764,107.15,123.529,123.529,0,0,1-65.063,18.361C55.887,251.021,0,194.828,0,125.511S55.887,0,124.827,0Z"/><g transform="matrix(0.454, 0.891, -0.891, 0.454, 172.566, -969.408)"><path class="b" d="M1022.048,644.975l2.716,4.272L1022,651l-7.314-11.5,4.574-2.907a7.78,7.78,0,0,1,2.549-1.163,4.087,4.087,0,0,1,2.186.237,3.891,3.891,0,0,1,1.941,1.642,5.012,5.012,0,0,1,.713,1.876,3.534,3.534,0,0,1-.151,1.884,4.18,4.18,0,0,1-.812,1.379,9.379,9.379,0,0,1-1.726,1.31Zm-1.423-2.031,1.769-1.123a2.172,2.172,0,0,0,1.125-1.366,1.853,1.853,0,0,0-.268-1.322,1.69,1.69,0,0,0-1.162-.823,2.373,2.373,0,0,0-1.644.466l-1.759,1.118Z"/><path class="b" d="M1035.2,641.988l-2.307,1.774-6.15-7.995,2.182-1.676,1.143,1.489q-.775-2.051.463-3c.117-.091.268-.194.45-.308l1.79,2.327a2.976,2.976,0,0,0-.96,1.09,2.021,2.021,0,0,0-.047,1.3,4.863,4.863,0,0,0,.934,1.744Z"/><path class="b" d="M1042.824,629.441l-4.861,4.387c.115.138.218.256.307.355a2.132,2.132,0,0,0,1.52.82,1.942,1.942,0,0,0,1.4-.52,1.7,1.7,0,0,0,.275-2.387l2.153-1.674a4.52,4.52,0,0,1-1.091,5.693,5.148,5.148,0,0,1-2.323,1.282,4.779,4.779,0,0,1-2.482-.133,5.329,5.329,0,0,1-2.372-1.6,5.453,5.453,0,0,1-1.575-3.812,4.927,4.927,0,0,1,5.076-4.721A5.912,5.912,0,0,1,1042.824,629.441Zm-6.025,3.111,2.683-2.423q-1.5-1.446-2.669-.388Q1035.556,630.876,1036.8,632.552Z"/><path class="b" d="M1044.323,623.151l3.1,2.931a1.68,1.68,0,0,0,.941.559c.242.007.566-.205.975-.638q.282-.3.626-.719l1.6,1.516a12.987,12.987,0,0,1-1.134,1.52,3.933,3.933,0,0,1-2.346,1.441,3.4,3.4,0,0,1-2.415-1.2l-3.409-3.226-1.109,1.17-1.681-1.592,1.225-1.295-2-2.221,1.635-2.019,2.307,2.184,1.5-1.588,1.683,1.592Z"/><path class="b" d="M1055.189,615.26l-4.109,5.1c.135.118.255.22.359.3a2.144,2.144,0,0,0,1.63.571,1.941,1.941,0,0,0,1.3-.734,1.7,1.7,0,0,0-.1-2.4l1.862-1.992a4.523,4.523,0,0,1-.181,5.794,5.152,5.152,0,0,1-2.091,1.632,4.776,4.776,0,0,1-2.472.259,5.323,5.323,0,0,1-2.595-1.206,5.443,5.443,0,0,1-2.154-3.516,4.93,4.93,0,0,1,4.267-5.463A5.908,5.908,0,0,1,1055.189,615.26Zm-5.46,4.022,2.269-2.816q-1.706-1.194-2.7.037Q1048.238,617.822,1049.729,619.282Z"/><path class="b" d="M1058.109,605.327l-.725,2.142a1.823,1.823,0,0,0-2.238.9q-.833,1.258-.077,1.761a.692.692,0,0,0,.633.088,3.642,3.642,0,0,0,1.1-1,13.3,13.3,0,0,1,1.864-1.858,2.657,2.657,0,0,1,1.572-.547,2.994,2.994,0,0,1,1.726.56,3.131,3.131,0,0,1,1.455,2.4,5.136,5.136,0,0,1-1.031,3.324q-2.148,3.243-5.053,2.221l1.089-2.311q1.3.491,2.379-1.13a2.734,2.734,0,0,0,.473-1.2.8.8,0,0,0-.311-.824q-.585-.388-1.321.49a8.69,8.69,0,0,1-3.215,2.733,2.7,2.7,0,0,1-2.38-.412,2.961,2.961,0,0,1-1.357-2.255,4.808,4.808,0,0,1,.965-3.154,4.667,4.667,0,0,1,1.949-1.8A3.919,3.919,0,0,1,1058.109,605.327Z"/><path class="b" d="M1060.843,600.221l3.725,2.071a1.675,1.675,0,0,0,1.052.309c.234-.053.5-.34.785-.86.134-.24.277-.524.427-.853l1.93,1.072a12.852,12.852,0,0,1-.723,1.754,3.923,3.923,0,0,1-1.915,1.979,3.4,3.4,0,0,1-2.637-.567l-4.1-2.28-.782,1.409-2.026-1.125.866-1.559-2.483-1.656,1.082-2.361,2.775,1.542,1.062-1.911,2.024,1.125Z"/><path class="b" d="M1066.742,581.836a4.131,4.131,0,0,0-.385.7,1.041,1.041,0,0,0,.388,1.41,2.7,2.7,0,0,1,2.082-.054,2.652,2.652,0,0,1,1.675,1.958,5.99,5.99,0,0,1-.486,3.54,8.122,8.122,0,0,1-.719,1.406.885.885,0,0,0,.528.762.669.669,0,0,0,.8-.149,8.743,8.743,0,0,0,1-1.848,27.775,27.775,0,0,1,1.456-2.9,2.67,2.67,0,0,1,1.31-1.086,2.283,2.283,0,0,1,1.725.033,2.838,2.838,0,0,1,1.707,2.067q.417,1.555-.8,4.621a8.847,8.847,0,0,1-2.15,3.635,1.949,1.949,0,0,1-1.962.384q-1.256-.5-1.052-2.291a1.972,1.972,0,0,1-2.145.538q-1.345-.533-1.351-2.723a2.533,2.533,0,0,1-2.952.771,2.685,2.685,0,0,1-1.668-2,5.892,5.892,0,0,1,.447-3.523,8.347,8.347,0,0,1,1.4-2.34,2.768,2.768,0,0,1-1.127-.993,2.165,2.165,0,0,1,.139-1.858,4.289,4.289,0,0,1,.383-.757Zm-1.061,5.87a1.693,1.693,0,0,0-.06,1.279,1.437,1.437,0,0,0,.857.807,1.412,1.412,0,0,0,2.037-.975,1.72,1.72,0,0,0,.047-1.338,1.516,1.516,0,0,0-1.983-.812A1.708,1.708,0,0,0,1065.681,587.706Zm7.276,5.03a.784.784,0,0,0,.055.514.74.74,0,0,0,.436.471q.632.249,1.112-.5a11.017,11.017,0,0,0,.914-1.849,7.06,7.06,0,0,0,.58-2.1.789.789,0,0,0-.46-.848.672.672,0,0,0-.747.262,10.282,10.282,0,0,0-1.211,2.5l-.214.566a5.881,5.881,0,0,1-.3.682A1.944,1.944,0,0,0,1072.957,592.736Z"/><path class="b" d="M1074.649,573.413l-1.8,6.3c.17.056.321.1.448.139a2.137,2.137,0,0,0,1.723-.11,1.948,1.948,0,0,0,.909-1.181,1.707,1.707,0,0,0-1.033-2.172l.939-2.56a4.527,4.527,0,0,1,2.091,5.408,5.153,5.153,0,0,1-1.289,2.319,4.773,4.773,0,0,1-2.176,1.2,5.318,5.318,0,0,1-2.858-.1,5.45,5.45,0,0,1-3.354-2.4,4.93,4.93,0,0,1,1.8-6.7A5.9,5.9,0,0,1,1074.649,573.413Zm-3.46,5.834.993-3.479q-2.037-.437-2.469,1.086Q1069.248,578.482,1071.189,579.247Z"/><path class="b" d="M1081.233,563.339l-.551,2.953-5.564-1.042a8,8,0,0,0-1.4-.181,1.146,1.146,0,0,0-.7.267,1.176,1.176,0,0,0-.406.725q-.289,1.554,1.987,1.981l5.563,1.043-.551,2.952-9.911-1.858.514-2.743,1.677.314a3.884,3.884,0,0,1-1.289-1.635,3.129,3.129,0,0,1-.075-1.5,3.43,3.43,0,0,1,1.189-2.155q.924-.73,3.15-.312Z"/><path class="b" d="M1078.041,550.6l-.637,6.52c.178.024.334.043.466.055a2.133,2.133,0,0,0,1.676-.417,1.961,1.961,0,0,0,.682-1.325,1.706,1.706,0,0,0-1.406-1.951l.463-2.689a4.527,4.527,0,0,1,3.028,4.946,5.156,5.156,0,0,1-.852,2.513,4.785,4.785,0,0,1-1.924,1.573,5.33,5.33,0,0,1-2.829.416,5.448,5.448,0,0,1-3.729-1.759,4.929,4.929,0,0,1,.569-6.911A5.9,5.9,0,0,1,1078.041,550.6Zm-2.357,6.36.352-3.6q-2.08-.063-2.233,1.512Q1073.637,556.559,1075.684,556.962Z"/><path class="b" d="M1074.979,544.932l4.259.134a1.672,1.672,0,0,0,1.075-.207q.278-.231.305-1.124c.009-.275.005-.592-.011-.955l2.2.07a13.229,13.229,0,0,1,.162,1.891,3.931,3.931,0,0,1-.8,2.636,3.4,3.4,0,0,1-2.6.7l-4.688-.149-.05,1.611-2.315-.073.055-1.783-2.966-.335-.12-2.6,3.174.1.067-2.186,2.315.074Z"/><path class="b" d="M1068.848,538.087l2.973-.034.038,3-2.974.034Zm3.824-.044,10.08-.118.036,3-10.08.117Z"/><path class="b" d="M1078.387,526.349a4.24,4.24,0,0,1,2.97,1.253,4.728,4.728,0,0,1,1.294,3.169,4.641,4.641,0,0,1-1.2,3.589,5.226,5.226,0,0,1-3.689,1.577,5.376,5.376,0,0,1-3.915-1.157,4.844,4.844,0,0,1-1.691-3.609,4.421,4.421,0,0,1,.921-3.149,4.039,4.039,0,0,1,2.689-1.518l.326,2.788q-1.8.247-1.718,1.7.108,1.779,3,1.609a3.892,3.892,0,0,0,2.412-.642,1.627,1.627,0,0,0,.445-1.244q-.081-1.387-1.843-1.557Z"/><path class="b" d="M1076.166,510.293a4.241,4.241,0,0,1,3.079.953,4.735,4.735,0,0,1,1.6,3.026,4.649,4.649,0,0,1-.839,3.691,5.223,5.223,0,0,1-3.515,1.934,5.37,5.37,0,0,1-4.009-.763,4.85,4.85,0,0,1-2.042-3.425,4.43,4.43,0,0,1,.606-3.224,4.026,4.026,0,0,1,2.524-1.776l.6,2.741q-1.772.426-1.541,1.858.279,1.761,3.139,1.306a3.889,3.889,0,0,0,2.336-.879,1.622,1.622,0,0,0,.32-1.281q-.221-1.374-1.988-1.367Z"/><path class="b" d="M1068.424,505.792a4.544,4.544,0,0,1,.593-3.884,5.562,5.562,0,0,1,3.352-2.168,5.347,5.347,0,0,1,3.944.424,4.635,4.635,0,0,1,2.311,3.139,4.4,4.4,0,0,1-.6,3.73,5.513,5.513,0,0,1-3.37,2.173,5.835,5.835,0,0,1-2.792.08,4.868,4.868,0,0,1-2.146-1.136A4.563,4.563,0,0,1,1068.424,505.792Zm1.87-.543a1.44,1.44,0,0,0,.942,1.092,5.24,5.24,0,0,0,2.628-.2,5.832,5.832,0,0,0,2.393-1.014,1.362,1.362,0,0,0,.448-1.434,1.453,1.453,0,0,0-.941-1.042,4.715,4.715,0,0,0-2.57.146,5.9,5.9,0,0,0-2.516,1.049A1.376,1.376,0,0,0,1070.294,505.249Z"/><path class="b" d="M1064.027,491.051l9.506-3.35.925,2.623-1.617.571a2.957,2.957,0,0,1,2.815,2.192,3.1,3.1,0,0,1,.188,1.8,2.34,2.34,0,0,1-.8,1.215,6.487,6.487,0,0,1-1.911.958l-6.212,2.189-.969-2.747,6.212-2.189q1.279-.451.9-1.516a1.585,1.585,0,0,0-.638-.833,1.45,1.45,0,0,0-.833-.278,4.826,4.826,0,0,0-1.235.311l-5.336,1.882Z"/><path class="b" d="M1068.405,476.57l1.3,2.707-5.1,2.448a8.073,8.073,0,0,0-1.234.681,1.142,1.142,0,0,0-.41.633,1.172,1.172,0,0,0,.1.823q.684,1.426,2.772.426l5.1-2.448,1.3,2.708-9.087,4.359-1.209-2.517,1.539-.738a3.871,3.871,0,0,1-2.006-.558,3.133,3.133,0,0,1-.948-1.167,3.429,3.429,0,0,1-.315-2.443q.313-1.133,2.356-2.113Z"/><path class="b" d="M1056.233,471.152l1.644,1.557a1.822,1.822,0,0,0-.119,2.407c.529.858,1.054,1.127,1.569.808a.688.688,0,0,0,.343-.537,3.669,3.669,0,0,0-.452-1.423,13.278,13.278,0,0,1-.907-2.471,2.647,2.647,0,0,1,.16-1.658,3.008,3.008,0,0,1,1.227-1.334,3.13,3.13,0,0,1,2.785-.316,5.141,5.141,0,0,1,2.589,2.329q2.047,3.309-.093,5.521l-1.645-1.958q.989-.979-.034-2.634a2.733,2.733,0,0,0-.888-.933.8.8,0,0,0-.879-.061q-.6.367-.1,1.4a8.687,8.687,0,0,1,1.137,4.065,2.691,2.691,0,0,1-1.367,1.99,2.959,2.959,0,0,1-2.615.287,4.815,4.815,0,0,1-2.462-2.2,4.669,4.669,0,0,1-.822-2.526A3.931,3.931,0,0,1,1056.233,471.152Z"/><path class="b" d="M1051.813,460.144l4.007,5.184c.148-.1.272-.2.377-.279a2.133,2.133,0,0,0,.932-1.453,1.939,1.939,0,0,0-.412-1.432,1.7,1.7,0,0,0-2.359-.458l-1.507-2.275a4.521,4.521,0,0,1,5.592,1.525,5.152,5.152,0,0,1,1.1,2.415,4.792,4.792,0,0,1-.32,2.464,5.331,5.331,0,0,1-1.774,2.244,5.439,5.439,0,0,1-3.919,1.276,4.935,4.935,0,0,1-4.325-5.422A5.9,5.9,0,0,1,1051.813,460.144Zm2.648,6.248-2.214-2.863q-1.555,1.382-.587,2.633Q1052.695,467.5,1054.461,466.392Z"/><path class="b" d="M1053.651,455.487l-10.084,9.157-2.019-2.225,10.085-9.156Z"/><path class="b" d="M1037.692,458.895l2.1-2.106,2.128,2.12-2.1,2.107Zm2.7-2.707,7.114-7.139,2.127,2.12-7.113,7.139Z"/><path class="b" d="M1038.6,441.089l2.275,1.963-3.7,4.284a7.967,7.967,0,0,0-.859,1.118,1.147,1.147,0,0,0-.123.744,1.182,1.182,0,0,0,.422.714q1.2,1.034,2.712-.719l3.694-4.284,2.275,1.962-6.583,7.631-2.114-1.824,1.115-1.292a3.864,3.864,0,0,1-2.062.291,3.143,3.143,0,0,1-1.335-.69,3.444,3.444,0,0,1-1.265-2.114q-.165-1.165,1.313-2.88Z"/><path class="b" d="M1022.051,441.129a4,4,0,0,0,.588.548,1.041,1.041,0,0,0,1.463-.029,2.683,2.683,0,0,1,.457-2.031,2.646,2.646,0,0,1,2.307-1.141,6,6,0,0,1,3.314,1.344,8.081,8.081,0,0,1,1.185,1.043.883.883,0,0,0,.867-.323.668.668,0,0,0,.052-.813,8.718,8.718,0,0,0-1.546-1.423,28.159,28.159,0,0,1-2.456-2.129,2.665,2.665,0,0,1-.73-1.536,2.282,2.282,0,0,1,.454-1.665,2.838,2.838,0,0,1,2.422-1.144q1.613-.02,4.284,1.909a8.845,8.845,0,0,1,3,2.981,1.948,1.948,0,0,1-.109,2q-.789,1.094-2.479.454a1.972,1.972,0,0,1,0,2.212q-.846,1.174-2.97.638a2.537,2.537,0,0,1,.023,3.053,2.679,2.679,0,0,1-2.345,1.124,5.892,5.892,0,0,1-3.3-1.3,8.366,8.366,0,0,1-1.927-1.931,2.782,2.782,0,0,1-1.239.848,2.171,2.171,0,0,1-1.765-.592,4.283,4.283,0,0,1-.641-.561Zm5.428,2.477a1.688,1.688,0,0,0,1.224.374,1.432,1.432,0,0,0,.994-.631,1.415,1.415,0,0,0-.445-2.217,1.723,1.723,0,0,0-1.286-.374,1.466,1.466,0,0,0-1.007.615,1.486,1.486,0,0,0-.266,1.107A1.714,1.714,0,0,0,1027.479,443.606Zm6.661-5.814a.784.784,0,0,0,.51.074.737.737,0,0,0,.565-.307q.4-.551-.215-1.2a11.038,11.038,0,0,0-1.569-1.341,7.006,7.006,0,0,0-1.887-1.079.79.79,0,0,0-.936.236.674.674,0,0,0,.071.79,10.34,10.34,0,0,0,2.122,1.789l.5.345a5.887,5.887,0,0,1,.588.461A1.876,1.876,0,0,0,1034.14,437.792Z"/></g></g></svg>