<svg xmlns="http://www.w3.org/2000/svg" width="699.383" height="399.398" viewBox="0 0 699.383 399.398"><defs><style>.a{fill:none;stroke:#3e96d4;stroke-miterlimit:10;stroke-width:25px;}.b{fill:#fff;}</style></defs><g transform="translate(12.5 5)"><rect class="a" width="674.383" height="374.398" rx="114.319" transform="translate(0 7.5)"/><g transform="translate(-781.128 -343.195)"><path class="b" d="M905.585,352.056l-.019,4.7-3.014-.012.05-12.663,4.991.019a7.075,7.075,0,0,1,2.554.368,3.772,3.772,0,0,1,1.577,1.282,3.631,3.631,0,0,1,.687,2.256,4.719,4.719,0,0,1-.379,1.827,3.292,3.292,0,0,1-1.053,1.4,3.844,3.844,0,0,1-1.316.672,8.517,8.517,0,0,1-1.99.159Zm-.093-2.3,1.93.007a1.977,1.977,0,0,0,1.551-.505,1.726,1.726,0,0,0,.45-1.166,1.584,1.584,0,0,0-.491-1.228,2.18,2.18,0,0,0-1.506-.46l-1.921-.007Z"/><path class="b" d="M917.579,347.235a4.163,4.163,0,0,1,3.337,1.411,5.193,5.193,0,0,1,1.19,3.51,4.987,4.987,0,0,1-1.255,3.462,4.238,4.238,0,0,1-3.317,1.377,4.039,4.039,0,0,1-3.2-1.382,5.158,5.158,0,0,1-1.189-3.529,5.442,5.442,0,0,1,.548-2.535,4.515,4.515,0,0,1,1.493-1.68A4.168,4.168,0,0,1,917.579,347.235Zm.069,1.81a1.323,1.323,0,0,0-1.185.6,4.911,4.911,0,0,0-.4,2.416,5.469,5.469,0,0,0,.372,2.385,1.251,1.251,0,0,0,1.181.727,1.331,1.331,0,0,0,1.141-.614,4.429,4.429,0,0,0,.441-2.35,5.57,5.57,0,0,0-.377-2.506A1.265,1.265,0,0,0,917.648,349.045Z"/><path class="b" d="M930.855,349.721l-2.014.535a1.681,1.681,0,0,0-1.824-1.275q-1.394,0-1.394.844a.643.643,0,0,0,.254.535,3.354,3.354,0,0,0,1.331.34,12.3,12.3,0,0,1,2.374.494,2.455,2.455,0,0,1,1.218.939,2.824,2.824,0,0,1,.447,1.625,2.913,2.913,0,0,1-1.1,2.354,4.686,4.686,0,0,1-3.078.9q-3.579-.006-4.271-2.782l2.33-.338q.283,1.262,2.075,1.265a2.5,2.5,0,0,0,1.16-.244.746.746,0,0,0,.475-.665c0-.434-.348-.69-1.047-.772a7.965,7.965,0,0,1-3.731-1.094,2.514,2.514,0,0,1-.893-2.057,2.76,2.76,0,0,1,1.044-2.206,4.4,4.4,0,0,1,2.914-.867,4.263,4.263,0,0,1,2.374.59A3.634,3.634,0,0,1,930.855,349.721Z"/><path class="b" d="M936.1,349.619l-.005,3.962a1.581,1.581,0,0,0,.22.993,1.466,1.466,0,0,0,1.044.251c.253,0,.545-.011.878-.036l0,2.051a12.067,12.067,0,0,1-1.735.2,3.6,3.6,0,0,1-2.447-.666,3.175,3.175,0,0,1-.722-2.4l.005-4.361-1.485,0,0-2.152,1.642,0,.227-2.765,2.384-.182,0,2.95,2.013,0,0,2.153Z"/><path class="b" d="M938.735,351.012l4.435,0v2.013l-4.435,0Z"/><path class="b" d="M947.659,349.626l0,3.961a1.57,1.57,0,0,0,.222.993,1.464,1.464,0,0,0,1.044.251c.252,0,.545-.012.877-.037v2.051a12.134,12.134,0,0,1-1.736.2,3.609,3.609,0,0,1-2.448-.663,3.182,3.182,0,0,1-.722-2.4v-4.36h-1.485l0-2.153h1.642l.223-2.765,2.384-.185v2.95h2.014v2.152Z"/><path class="b" d="M959.542,352.621l-6.03,0c-.006.168-.01.313-.009.437a2,2,0,0,0,.533,1.511,1.785,1.785,0,0,0,1.277.51,1.574,1.574,0,0,0,1.66-1.476l2.505.185a4.171,4.171,0,0,1-4.258,3.249,4.721,4.721,0,0,1-2.379-.56,4.429,4.429,0,0,1-1.615-1.637,4.993,4.993,0,0,1-.637-2.58,5.1,5.1,0,0,1,1.274-3.609,4.51,4.51,0,0,1,6.384-.1A5.519,5.519,0,0,1,959.542,352.621Zm-6.04-1.6h3.33q-.13-1.93-1.587-1.929Q953.686,349.088,953.5,351.018Z"/><path class="b" d="M968.3,349.726l-2.013.541a1.678,1.678,0,0,0-1.829-1.27q-1.392,0-1.39.847a.646.646,0,0,0,.255.535,3.352,3.352,0,0,0,1.332.335,12.3,12.3,0,0,1,2.375.489,2.441,2.441,0,0,1,1.222.936,2.811,2.811,0,0,1,.451,1.622,2.914,2.914,0,0,1-1.1,2.358,4.689,4.689,0,0,1-3.075.912q-3.582,0-4.279-2.77l2.328-.345q.288,1.26,2.079,1.26a2.49,2.49,0,0,0,1.16-.248.741.741,0,0,0,.472-.665c0-.434-.35-.692-1.048-.77a7.975,7.975,0,0,1-3.736-1.084,2.515,2.515,0,0,1-.9-2.054,2.757,2.757,0,0,1,1.037-2.209,4.4,4.4,0,0,1,2.912-.875,4.278,4.278,0,0,1,2.375.582A3.655,3.655,0,0,1,968.3,349.726Z"/><path class="b" d="M973.55,349.607l.007,3.961a1.573,1.573,0,0,0,.222.993,1.466,1.466,0,0,0,1.045.249q.378,0,.877-.038l0,2.05a11.81,11.81,0,0,1-1.734.206,3.589,3.589,0,0,1-2.449-.659,3.174,3.174,0,0,1-.729-2.4l-.006-4.361-1.484,0,0-2.153,1.641,0,.219-2.766,2.384-.188,0,2.951,2.014,0,0,2.152Z"/><path class="b" d="M991.21,347.634a3.525,3.525,0,0,0-.732-.091.959.959,0,0,0-1.075.818,2.519,2.519,0,0,1,.755,1.78,2.467,2.467,0,0,1-1.1,2.118,5.477,5.477,0,0,1-3.2.8,7.37,7.37,0,0,1-1.447-.137.823.823,0,0,0-.473.716.621.621,0,0,0,.4.639,7.886,7.886,0,0,0,1.921.228,25.9,25.9,0,0,1,2.978.262,2.456,2.456,0,0,1,1.375.758,2.14,2.14,0,0,1,.561,1.5,2.651,2.651,0,0,1-1.188,2.183,7.365,7.365,0,0,1-4.224.9,8.082,8.082,0,0,1-3.842-.609,1.816,1.816,0,0,1-1-1.563q0-1.252,1.6-1.694a1.83,1.83,0,0,1-1.191-1.668q0-1.344,1.869-2.1a2.357,2.357,0,0,1-1.666-2.286,2.5,2.5,0,0,1,1.141-2.125,5.378,5.378,0,0,1,3.167-.823,7.6,7.6,0,0,1,2.477.4,2.606,2.606,0,0,1,.466-1.314,1.982,1.982,0,0,1,1.636-.518,4,4,0,0,1,.779.071ZM984,356.742a.732.732,0,0,0-.422.224.686.686,0,0,0-.253.539q0,.63.809.786a9.935,9.935,0,0,0,1.892.153,6.367,6.367,0,0,0,1.991-.217.732.732,0,0,0,.568-.688c0-.242-.16-.426-.479-.556a9.457,9.457,0,0,0-2.547-.189l-.556.01a5.069,5.069,0,0,1-.688-.026A1.8,1.8,0,0,0,984,356.742Zm1.823-8.01a1.541,1.541,0,0,0-1.113.387,1.345,1.345,0,0,0-.4,1.017q0,1.428,1.531,1.426a1.577,1.577,0,0,0,1.159-.421,1.416,1.416,0,0,0,.019-1.99A1.567,1.567,0,0,0,985.827,348.732Z"/><path class="b" d="M1000.79,352.542l-6.031.017c0,.168-.008.312-.008.436a2,2,0,0,0,.538,1.51,1.78,1.78,0,0,0,1.277.508,1.572,1.572,0,0,0,1.656-1.48l2.507.178a4.172,4.172,0,0,1-4.25,3.26,4.72,4.72,0,0,1-2.381-.555,4.419,4.419,0,0,1-1.619-1.633,4.987,4.987,0,0,1-.643-2.578,5.08,5.08,0,0,1,1.266-3.612,4.5,4.5,0,0,1,6.381-.115A5.514,5.514,0,0,1,1000.79,352.542Zm-6.045-1.589,3.331-.009q-.137-1.929-1.593-1.925Q994.924,349.023,994.745,350.953Z"/><path class="b" d="M1010.679,356.73l-2.765.01-.018-5.26a7.328,7.328,0,0,0-.079-1.308,1.055,1.055,0,0,0-.363-.6,1.074,1.074,0,0,0-.725-.243q-1.455,0-1.449,2.157l.018,5.261-2.764.009-.032-9.37,2.569-.009.006,1.587a3.574,3.574,0,0,1,1.258-1.461,2.857,2.857,0,0,1,1.343-.33,3.147,3.147,0,0,1,2.155.712,3.729,3.729,0,0,1,.826,2.822Z"/><path class="b" d="M1021.368,352.469l-6.03.023c-.006.167-.008.313-.008.436a2,2,0,0,0,.539,1.51,1.778,1.778,0,0,0,1.277.506,1.574,1.574,0,0,0,1.656-1.482l2.506.176a4.166,4.166,0,0,1-4.246,3.262,4.705,4.705,0,0,1-2.382-.55,4.427,4.427,0,0,1-1.62-1.632,4.978,4.978,0,0,1-.646-2.576,5.092,5.092,0,0,1,1.262-3.614,4.509,4.509,0,0,1,6.383-.122A5.52,5.52,0,0,1,1021.368,352.469Zm-6.046-1.582,3.33-.013q-.135-1.929-1.593-1.923Q1015.5,348.956,1015.322,350.887Z"/><path class="b" d="M1026.207,349.451l.018,3.962a1.572,1.572,0,0,0,.225.992,1.469,1.469,0,0,0,1.045.246c.252,0,.545-.015.877-.041l.009,2.051a11.826,11.826,0,0,1-1.735.21,3.6,3.6,0,0,1-2.452-.652,3.179,3.179,0,0,1-.732-2.395l-.02-4.36-1.483.005-.01-2.152,1.642-.007.211-2.766,2.384-.2.012,2.951,2.014-.009.009,2.152Z"/><path class="b" d="M1032.518,343.718l.012,2.764-2.764.013-.013-2.765Zm.016,3.553.041,9.37-2.763.013-.043-9.371Z"/><path class="b" d="M1043.061,353.076a3.955,3.955,0,0,1-1.3,2.692,4.331,4.331,0,0,1-2.978,1.04,4.259,4.259,0,0,1-3.24-1.3,4.884,4.884,0,0,1-1.264-3.505,5.016,5.016,0,0,1,1.258-3.573,4.437,4.437,0,0,1,3.4-1.385,4.059,4.059,0,0,1,2.849,1.016,3.765,3.765,0,0,1,1.261,2.573l-2.578.161q-.139-1.687-1.475-1.681-1.641.008-1.629,2.7a3.641,3.641,0,0,0,.47,2.271,1.487,1.487,0,0,0,1.121.478q1.28-.006,1.522-1.631Z"/><path class="b" d="M1057.535,353a3.937,3.937,0,0,1-1.3,2.692,4.312,4.312,0,0,1-2.976,1.042,4.255,4.255,0,0,1-3.24-1.3,4.885,4.885,0,0,1-1.267-3.5,5.018,5.018,0,0,1,1.256-3.574,4.439,4.439,0,0,1,3.4-1.387,4.06,4.06,0,0,1,2.85,1.015,3.761,3.761,0,0,1,1.261,2.573l-2.578.162q-.14-1.687-1.475-1.681-1.642.009-1.628,2.7a3.648,3.648,0,0,0,.472,2.271,1.482,1.482,0,0,0,1.12.476q1.28-.008,1.522-1.632Z"/><path class="b" d="M1062.868,346.92a4.164,4.164,0,0,1,3.349,1.381,5.21,5.21,0,0,1,1.221,3.5,4.993,4.993,0,0,1-1.228,3.472,4.235,4.235,0,0,1-3.3,1.407,4.041,4.041,0,0,1-3.209-1.355,5.156,5.156,0,0,1-1.22-3.518,5.454,5.454,0,0,1,.527-2.541,4.51,4.51,0,0,1,1.477-1.693A4.18,4.18,0,0,1,1062.868,346.92Zm.084,1.808a1.324,1.324,0,0,0-1.18.615,4.915,4.915,0,0,0-.384,2.419,5.486,5.486,0,0,0,.393,2.383,1.251,1.251,0,0,0,1.189.715,1.332,1.332,0,0,0,1.134-.623,4.4,4.4,0,0,0,.42-2.353,5.528,5.528,0,0,0-.4-2.5A1.265,1.265,0,0,0,1062.952,348.728Z"/><path class="b" d="M1077.169,347.028l.057,9.369-2.56.017-.011-1.6a2.72,2.72,0,0,1-2.754,1.807,2.819,2.819,0,0,1-1.625-.384,2.163,2.163,0,0,1-.818-1.071,6.081,6.081,0,0,1-.258-1.97l-.038-6.123,2.681-.016.038,6.123q.009,1.26,1.047,1.255a1.462,1.462,0,0,0,.917-.307,1.344,1.344,0,0,0,.491-.649,4.471,4.471,0,0,0,.1-1.178l-.033-5.26Z"/><path class="b" d="M1087.661,356.33l-2.765.018-.035-5.26a7.61,7.61,0,0,0-.083-1.308,1.052,1.052,0,0,0-.365-.6,1.073,1.073,0,0,0-.725-.243q-1.456.011-1.443,2.163l.035,5.26-2.765.018-.061-9.37,2.569-.017.011,1.587a3.586,3.586,0,0,1,1.252-1.465,2.863,2.863,0,0,1,1.343-.334,3.133,3.133,0,0,1,2.157.706,3.725,3.725,0,0,1,.835,2.819Z"/><path class="b" d="M1096.891,349.16l-2.01.552a1.68,1.68,0,0,0-1.837-1.258q-1.391.01-1.385.856a.646.646,0,0,0,.258.533,3.355,3.355,0,0,0,1.334.328,12.222,12.222,0,0,1,2.379.474,2.441,2.441,0,0,1,1.226.928,2.806,2.806,0,0,1,.461,1.62,2.913,2.913,0,0,1-1.083,2.364,4.69,4.69,0,0,1-3.069.931q-3.581.024-4.3-2.745l2.326-.359q.3,1.26,2.087,1.248a2.485,2.485,0,0,0,1.157-.255.74.74,0,0,0,.469-.669q0-.65-1.053-.762a7.962,7.962,0,0,1-3.742-1.062,2.519,2.519,0,0,1-.909-2.049,2.752,2.752,0,0,1,1.024-2.214,4.4,4.4,0,0,1,2.907-.893,4.27,4.27,0,0,1,2.379.568A3.652,3.652,0,0,1,1096.891,349.16Z"/><path class="b" d="M1107.3,351.971l-6.029.044c-.005.167-.007.312-.006.436a1.989,1.989,0,0,0,.544,1.508,1.774,1.774,0,0,0,1.279.5,1.573,1.573,0,0,0,1.65-1.487l2.506.168a4.166,4.166,0,0,1-4.235,3.276,4.7,4.7,0,0,1-2.384-.543,4.434,4.434,0,0,1-1.625-1.625,4.986,4.986,0,0,1-.655-2.575,5.09,5.09,0,0,1,1.25-3.618,4.506,4.506,0,0,1,6.382-.144A5.52,5.52,0,0,1,1107.3,351.971Zm-6.05-1.561,3.33-.024q-.144-1.929-1.6-1.918Q1101.418,348.48,1101.247,350.41Z"/><path class="b" d="M1109.079,356.178l-.1-12.663,2.765-.02.1,12.662Z"/><path class="b" d="M1116.794,343.2l.021,2.765-2.763.021-.022-2.764Zm.027,3.554.073,9.369-2.764.022-.072-9.37Z"/><path class="b" d="M1127.311,356.035l-2.765.023-.042-5.261a7.44,7.44,0,0,0-.085-1.307,1.063,1.063,0,0,0-.366-.6,1.081,1.081,0,0,0-.726-.241q-1.458.012-1.439,2.165l.042,5.259-2.765.023-.074-9.37,2.568-.021.014,1.587a3.582,3.582,0,0,1,1.25-1.466,2.836,2.836,0,0,1,1.343-.336,3.131,3.131,0,0,1,2.157.7,3.719,3.719,0,0,1,.84,2.818Z"/><path class="b" d="M1138.867,346.783a3.558,3.558,0,0,0-.733-.086.959.959,0,0,0-1.07.825,2.519,2.519,0,0,1,.767,1.775,2.47,2.47,0,0,1-1.092,2.125,5.472,5.472,0,0,1-3.189.814,7.288,7.288,0,0,1-1.447-.128.818.818,0,0,0-.467.719.618.618,0,0,0,.4.637,7.934,7.934,0,0,0,1.923.216,25.434,25.434,0,0,1,2.979.245,2.445,2.445,0,0,1,1.38.749,2.124,2.124,0,0,1,.569,1.5,2.643,2.643,0,0,1-1.174,2.19,7.356,7.356,0,0,1-4.217.926,8.073,8.073,0,0,1-3.847-.585,1.815,1.815,0,0,1-1.006-1.557q-.009-1.254,1.591-1.7a1.83,1.83,0,0,1-1.2-1.66q-.012-1.346,1.857-2.112a2.356,2.356,0,0,1-1.68-2.275,2.5,2.5,0,0,1,1.128-2.133,5.372,5.372,0,0,1,3.161-.842,7.613,7.613,0,0,1,2.48.388,2.6,2.6,0,0,1,.458-1.317,1.985,1.985,0,0,1,1.632-.529,3.955,3.955,0,0,1,.781.068Zm-7.15,9.152a.736.736,0,0,0-.421.226.693.693,0,0,0-.25.541c0,.42.274.681.813.781a9.955,9.955,0,0,0,1.894.142,6.359,6.359,0,0,0,1.988-.23q.57-.217.566-.691,0-.361-.483-.553a9.363,9.363,0,0,0-2.549-.173l-.555.014a5.482,5.482,0,0,1-.688-.022A1.8,1.8,0,0,0,1131.717,355.935Zm1.774-8.021a1.542,1.542,0,0,0-1.111.395,1.337,1.337,0,0,0-.394,1.018q.012,1.428,1.538,1.417a1.586,1.586,0,0,0,1.158-.428,1.415,1.415,0,0,0,.006-1.99A1.563,1.563,0,0,0,1133.491,347.914Z"/></g></g></svg>