<svg xmlns="http://www.w3.org/2000/svg" width="222.596" height="222.596" viewBox="0 0 222.596 222.596"><defs><style>.a{fill:#3e96d4;}.b,.c,.d,.g{fill:none;}.b,.c,.d,.e{stroke:#3e96d4;stroke-miterlimit:10;}.c{stroke-width:1.5px;}.d{stroke-width:0.75px;}.e{fill:#fff;}.f{stroke:none;}</style></defs><g transform="translate(1 1)"><g transform="translate(-930.758 -813.016)"><path class="a" d="M1009.008,831.862l2.8-1.041.982,2.643-9.129,3.4-.984-2.644,2.93-1.09-2.1-5.643a11.575,11.575,0,0,1-2.286,1.84l-.994-2.67a5.48,5.48,0,0,0,2.705-3.242l2.574-.957Z"/><path class="a" d="M1020.629,825.141l.652,2.84-4.586,1.052-.65-2.839Z"/><path class="a" d="M1036.532,826.211l.157,3.108-9.6.915-.277-2.9,2-1.71q.443-.367,1.63-1.557a9.81,9.81,0,0,0,1.528-1.8,2.112,2.112,0,0,0,.279-1.239,1.363,1.363,0,0,0-.435-.932,1.185,1.185,0,0,0-.934-.279q-1.392.132-1.35,2.328l-3.245-.315a5.02,5.02,0,0,1,1.425-3.478,5.209,5.209,0,0,1,3.18-1.4,5.017,5.017,0,0,1,3.454.779,3.658,3.658,0,0,1,1.575,2.8,4.237,4.237,0,0,1-.484,2.384,16.391,16.391,0,0,1-3.813,3.756Z"/><path class="a" d="M1052.224,820.372l-4.3,9.985a4.113,4.113,0,0,1-1.331,1.737,3.831,3.831,0,0,1-2.492.508c-.267-.017-.882-.08-1.847-.194l.154-2.62a8.791,8.791,0,0,0,1.328.189q1.592.1,1.633-.609a1.827,1.827,0,0,0-.119-.648l-2.859-8.934,3.953.236,1.258,5.117,1.925-4.928Z"/><path class="a" d="M1058.635,827.505l3.367.788a4.064,4.064,0,0,1-1.926,2.086,5.385,5.385,0,0,1-3.513.415,5.232,5.232,0,0,1-3.532-1.976,4.568,4.568,0,0,1-.845-3.6,4.89,4.89,0,0,1,5.886-4.129,4.765,4.765,0,0,1,4.16,5.864c-.021.128-.052.3-.1.529l-6.235-1.023a2.456,2.456,0,0,0,.1,1.355,1.531,1.531,0,0,0,2.637-.306Zm.15-2.457a1.71,1.71,0,0,0-.172-1.33,1.346,1.346,0,0,0-.861-.475q-1.3-.215-1.559,1.381Z"/><path class="a" d="M1071.712,834.272l-3.391-.963a6.253,6.253,0,0,1,.236-1.3,3.392,3.392,0,0,1-3.332.626,3.335,3.335,0,0,1-2.172-1.5,2.73,2.73,0,0,1-.264-2.11,2.808,2.808,0,0,1,1.967-1.954,10.073,10.073,0,0,1,4.939.25l.059-.205a.967.967,0,0,0-.047-.871,1.421,1.421,0,0,0-.742-.424c-.822-.232-1.373-.033-1.656.6l-3.163-1.227q1.5-2.649,5.547-1.5a9.093,9.093,0,0,1,1.955.791,3.5,3.5,0,0,1,1.26,1.1,2.471,2.471,0,0,1,.442,1.186,7.384,7.384,0,0,1-.383,2.041l-1.029,3.623A5.215,5.215,0,0,0,1071.712,834.272Zm-2.487-5.3q-2.344-.4-2.69.809-.231.82.668,1.076a1.5,1.5,0,0,0,1.068-.063c.334-.148.61-.611.829-1.384Z"/><path class="a" d="M1076.248,836.08l-3.305-1.283,3.413-8.8,2.873,1.115-.706,1.816a2.4,2.4,0,0,1,3.061-1.092,4.979,4.979,0,0,1,.488.231l-1.191,3.069a2.988,2.988,0,0,0-.615-.338q-1.713-.664-2.454,1.246Z"/><path class="a" d="M1079.937,834.594l2.8.934q-.228,1.024,1.329,1.793,1.29.636,1.537.137a.414.414,0,0,0-.084-.459,5.532,5.532,0,0,0-1.061-.831q-2.4-1.628-2.67-2.705a2.867,2.867,0,0,1,.195-2.009,2.785,2.785,0,0,1,2.118-1.569,5.186,5.186,0,0,1,3.233.6q3.078,1.516,2.833,4.158l-2.748-.765a1.617,1.617,0,0,0-1.1-1.474,1.878,1.878,0,0,0-.867-.247c-.221.012-.356.063-.4.157q-.205.417.551.9a18.73,18.73,0,0,1,2.588,1.863,3.013,3.013,0,0,1,.828,1.506,2.651,2.651,0,0,1-.239,1.807,2.858,2.858,0,0,1-2.25,1.634,6.1,6.1,0,0,1-3.6-.762Q1079.484,837.566,1079.937,834.594Z"/></g><g transform="translate(-665.867 -804.857)"><g class="b" transform="translate(665.867 804.857)"><circle class="f" cx="110.298" cy="110.298" r="110.298"/><circle class="g" cx="110.298" cy="110.298" r="110.798"/></g><path class="c" d="M725.48,860.693c.921-.612,3.235-.516,3.971-.5,1.667.043,4.558-5.171,9.116-4.908s7.284,5,8.492,5.076,6.627,0,6.627,0,2.1-3.769,4.119-3.331,2.542,2.63,3.068,3.243,5.785-.087,6.661.263,1.841,3.331,2.192,3.769,2.1-32.255,2.191-33.132,2.713,42.211,2.713,43.176,2.066-12.089,2.943-13.579,7.4-.234,9.069-.321,4.558-5.172,9.116-4.909,7.859,4.8,8.716,4.949,6.626,0,6.626,0,2.1-3.769,4.12-3.331,2.434,2.527,4.336,3.648"/><path class="b" d="M832.069,845.786s-58.877-46.423-116.335,4.563L752.6,889.472s19.788-19.526,44.968-2.265Z"/><path class="b" d="M849.471,965.007s42.9-62.988-14.44-117.133L800.6,889.791s20.751,18.506,4.751,44.506Z"/><path class="d" d="M832.922,935.326c-1.626-.856-6.935.179-9.537-2.246-2.1-1.958,3.6-1.762-.565-5.233s-8.6-12.783-9.463-16.2.445-7.915,1.709-11.372,4.746-12.021,7.561-15.37,9.3-10.7,15.018-13.913c10.553-5.939,15.042,4.486,17.221,10.664,3.042,8.623,3.353,26.228,3.45,28.629s2.843,2.933,3.338,4.867-2.376,2.881-3.428,4.014c-.83.894-3.822,2.951-4.787,4.277-1.557,2.139-4.5,2.868-5.115,3.548C846.944,928.515,840.721,939.433,832.922,935.326Zm-10.38-45.845c-1.478,2.828-3.318,5.542-3.364,7.77s.507,2.107,2.45,3.592,3.5.523,3.664.763c.486.7-1.362,2.8-4.936.338-1.674-1.154-2.767,3.285-4.115,5.664s1.64,8.913,3.994,12.626,5.606,3.864,7.44,4.285,2.183-5.192,2.675-6.5,1.954-6.687,1.52-8,.046-2.36-1.917-3.323-2.449-1.1-3.163-2.738.045-1.894.4-1.367c1.064,1.6,4.128,3.048,4.082,1.841s2.12-10.059,2.388-12.75,2.061-7.183,3.625-10.554,2.7-7.864.771-7.431C833.963,874.618,824.019,886.653,822.542,889.481Zm18.325-10.55a43.852,43.852,0,0,0-2.819,7.084c-.534,2.3-.313,8.827-.863,12.095s-3.519,8.212-3.2,9.755.6,3.213,1.775,3.81c1.328.672,4.664,1.89,6.7.767s-.651,2.218-1.67,2.393c-1.132.2-2.3-.259-3.94-.075s-5.417,10.035-6.431,11.72-1.113,3.9.98,5.294,6.723.89,9.268-.615,5.226-7.123,7.924-10.067,3.927-6.281,1.874-6.479-4.7.289-5.526-1.4-.448-1.646,1.028-.824,3.842.849,4.489-.019a28.518,28.518,0,0,0,2.271-2.507c.978-1.431,1.627-8.231,1.035-13.017s-3.57-11.977-5.2-13.768S842.552,875.271,840.867,878.931Z"/><path class="e" d="M817.874,937.654a1.164,1.164,0,0,1-.839-1.1c-.2-16.881-.571-42.431-.807-44.518a1.152,1.152,0,0,1-.023-.57,1.166,1.166,0,0,1,1.353-.906c.081.015.156.029.226.046a9.432,9.432,0,0,0,8.714-4.065,1.166,1.166,0,0,1,1.73-.244l34.246,29.265a1.164,1.164,0,0,1,.14,1.628c-.176.213-17.865,21.178-44.443,20.515A1.123,1.123,0,0,1,817.874,937.654Zm.738-44.665c.069,1.186.11,2.981.173,5.717.1,4.208.191,9.814.278,15.418.138,9.074.251,18.142.288,21.262,21.8.026,37.18-15.043,40.7-18.832l-32.4-27.683A12,12,0,0,1,818.612,892.989Z"/></g></g></svg>