<svg xmlns="http://www.w3.org/2000/svg" width="222.596" height="222.596" viewBox="0 0 222.596 222.596"><defs><style>.a{fill:#3e96d4;}.b,.c,.d,.g{fill:none;}.b,.c,.d,.e{stroke:#3e96d4;stroke-miterlimit:10;}.c{stroke-width:1.5px;}.d{stroke-width:0.75px;}.e{fill:#fff;}.f{stroke:none;}</style></defs><g transform="translate(1 1)"><g transform="translate(-1526.688 -801.242)"><path class="a" d="M1605.939,819.088l2.8-1.041.983,2.644-9.131,3.4-.983-2.643,2.93-1.09-2.1-5.644a11.415,11.415,0,0,1-2.285,1.84l-.992-2.67a5.475,5.475,0,0,0,2.7-3.242l2.574-.957Z"/><path class="a" d="M1617.56,812.368l.651,2.84-4.584,1.051-.651-2.839Z"/><path class="a" d="M1633.463,813.438l.156,3.107-9.6.915-.276-2.9,2-1.711c.3-.244.836-.764,1.631-1.557a9.816,9.816,0,0,0,1.526-1.8,2.1,2.1,0,0,0,.279-1.24,1.352,1.352,0,0,0-.434-.931,1.187,1.187,0,0,0-.933-.28q-1.392.132-1.35,2.329l-3.246-.316a5.008,5.008,0,0,1,1.426-3.477,5.2,5.2,0,0,1,3.179-1.4,5.02,5.02,0,0,1,3.453.779,3.664,3.664,0,0,1,1.577,2.8,4.233,4.233,0,0,1-.487,2.385,16.375,16.375,0,0,1-3.812,3.756Z"/><path class="a" d="M1649.154,807.6l-4.3,9.986a4.134,4.134,0,0,1-1.331,1.737,3.841,3.841,0,0,1-2.492.508c-.265-.017-.882-.08-1.847-.2l.156-2.62a8.751,8.751,0,0,0,1.326.19q1.595.095,1.635-.61a1.894,1.894,0,0,0-.119-.647l-2.86-8.935,3.951.237,1.26,5.117,1.924-4.928Z"/><path class="a" d="M1655.564,814.732l3.369.788a4.074,4.074,0,0,1-1.925,2.086,5.4,5.4,0,0,1-3.516.415,5.233,5.233,0,0,1-3.53-1.977,4.57,4.57,0,0,1-.846-3.6,5.26,5.26,0,0,1,9.275-2.182,5.01,5.01,0,0,1,.773,3.916c-.021.128-.055.3-.1.53l-6.234-1.024a2.439,2.439,0,0,0,.1,1.356,1.529,1.529,0,0,0,2.634-.306Zm.151-2.457a1.711,1.711,0,0,0-.17-1.33,1.362,1.362,0,0,0-.863-.476q-1.3-.213-1.557,1.381Z"/><path class="a" d="M1668.643,821.5l-3.391-.963a6.238,6.238,0,0,1,.235-1.3,3.39,3.39,0,0,1-3.331.626,3.336,3.336,0,0,1-2.172-1.5,2.717,2.717,0,0,1-.263-2.11,2.8,2.8,0,0,1,1.967-1.954,10.073,10.073,0,0,1,4.939.25l.059-.206a.984.984,0,0,0-.047-.871,1.427,1.427,0,0,0-.744-.423q-1.233-.349-1.656.6l-3.161-1.226q1.5-2.649,5.547-1.5a9.052,9.052,0,0,1,1.953.791,3.5,3.5,0,0,1,1.262,1.1,2.458,2.458,0,0,1,.439,1.187,7.279,7.279,0,0,1-.383,2.041l-1.027,3.623A5.213,5.213,0,0,0,1668.643,821.5Zm-2.488-5.3q-2.343-.405-2.689.808c-.155.547.067.907.667,1.076a1.507,1.507,0,0,0,1.07-.062q.5-.223.826-1.385Z"/><path class="a" d="M1673.178,823.306l-3.3-1.282,3.412-8.8,2.871,1.114-.7,1.817a2.4,2.4,0,0,1,3.062-1.092,4.94,4.94,0,0,1,.486.23l-1.191,3.07a2.923,2.923,0,0,0-.616-.338q-1.71-.666-2.453,1.246Z"/><path class="a" d="M1676.867,821.821l2.8.933q-.228,1.026,1.33,1.793,1.29.636,1.535.137a.412.412,0,0,0-.084-.459,5.535,5.535,0,0,0-1.06-.83q-2.4-1.629-2.668-2.705a2.864,2.864,0,0,1,.194-2.01,2.786,2.786,0,0,1,2.118-1.568,5.169,5.169,0,0,1,3.233.6q3.078,1.515,2.832,4.158l-2.746-.765a1.628,1.628,0,0,0-1.1-1.475,1.9,1.9,0,0,0-.867-.247c-.223.012-.357.064-.4.158q-.205.417.548.9a18.5,18.5,0,0,1,2.588,1.862,3.016,3.016,0,0,1,.83,1.506,2.638,2.638,0,0,1-.24,1.808,2.858,2.858,0,0,1-2.249,1.634,6.1,6.1,0,0,1-3.6-.762Q1676.416,824.793,1676.867,821.821Z"/><path class="a" d="M1692.744,834.112a4.892,4.892,0,0,1-2.211-3.34,4.831,4.831,0,0,1,.84-3.6,4.735,4.735,0,0,1,3.209-2.054,5.715,5.715,0,0,1,6.143,4.3,4.684,4.684,0,0,1-.85,3.666,4.76,4.76,0,0,1-3.2,2.064A5.182,5.182,0,0,1,1692.744,834.112Zm1.336-1.8a.994.994,0,0,0,1.377-.127,9.011,9.011,0,0,0,1.231-1.42,4.87,4.87,0,0,0,.878-1.718.968.968,0,0,0-.453-1.033.984.984,0,0,0-1.113-.046,7.221,7.221,0,0,0-2.369,3.387A1,1,0,0,0,1694.08,832.307Z"/><path class="a" d="M1700.669,840.065l-2.692-2.3,6.127-7.174,2.343,2-1.267,1.481a2.4,2.4,0,0,1,3.25-.018,5.136,5.136,0,0,1,.384.378l-2.138,2.5a3.09,3.09,0,0,0-.47-.522q-1.4-1.194-2.727.365Z"/><path class="a" d="M1715.076,850.486l-2.426,1.948-6.371-7.247,2.189-1.923,2.559.62q.556.143,2.217.408a9.837,9.837,0,0,0,2.354.183,2.1,2.1,0,0,0,1.166-.5,1.361,1.361,0,0,0,.5-.9,1.179,1.179,0,0,0-.32-.92q-.921-1.048-2.676.27l-1.647-2.813a5,5,0,0,1,3.652-.883,5.2,5.2,0,0,1,3,1.758,5.02,5.02,0,0,1,1.39,3.254,3.663,3.663,0,0,1-1.347,2.921,4.24,4.24,0,0,1-2.217,1,16.389,16.389,0,0,1-5.278-.887Z"/><path class="a" d="M1723.7,857.346l-2.422,1.619-2.613-3.91,2.422-1.619Z"/><path class="a" d="M1724.568,863.2l1.827,2.782a1.8,1.8,0,0,0-.736,2.432,1.709,1.709,0,0,0,.824.854,1.2,1.2,0,0,0,1.068-.04,1.148,1.148,0,0,0,.539-.529,1.389,1.389,0,0,0,.168-.647,2.447,2.447,0,0,0-.3-.887l-.681-1.38,2.371-1.17.577,1.165c.3.621.613.966.921,1.034a1.227,1.227,0,0,0,.823-.074,1.082,1.082,0,0,0,.584-.7,1.4,1.4,0,0,0-.131-1.022,1.535,1.535,0,0,0-2-.784l-.92-2.958a4.51,4.51,0,0,1,3.244.37,5.99,5.99,0,0,1,2.881,5.867,3.12,3.12,0,0,1-1.772,2.281,2.784,2.784,0,0,1-1.757.272,2.585,2.585,0,0,1-1.475-.789,2.882,2.882,0,0,1-1.662,3.363,3.288,3.288,0,0,1-3.147.006,5.972,5.972,0,0,1-2.493-2.779Q1721.362,865.884,1724.568,863.2Z"/><path class="a" d="M1739.391,885.162l-10.864-.461a4.117,4.117,0,0,1-2.1-.624,3.828,3.828,0,0,1-1.363-2.149c-.081-.254-.239-.851-.477-1.795l2.5-.788a8.794,8.794,0,0,0,.3,1.308q.478,1.521,1.152,1.31a1.936,1.936,0,0,0,.563-.343l7.328-5.856,1.189,3.777-4.334,3,5.291.042Z"/><path class="a" d="M1735.021,893.7l.467,3.426a4.068,4.068,0,0,1-2.636-1.053,5.382,5.382,0,0,1-1.643-3.133,5.232,5.232,0,0,1,.582-4,4.571,4.571,0,0,1,3.063-2.078,5.26,5.26,0,0,1,5.353,7.883,5.013,5.013,0,0,1-3.381,2.12c-.127.026-.305.059-.529.1l-1.272-6.187a2.449,2.449,0,0,0-1.233.575,1.531,1.531,0,0,0,1.229,2.353Zm2.346-.74a1.719,1.719,0,0,0,1.184-.633,1.366,1.366,0,0,0,.135-.977q-.266-1.285-1.846-.961Z"/><path class="a" d="M1733.391,908.336l-.319-3.511a6.231,6.231,0,0,1,1.3-.248,3.394,3.394,0,0,1-1.779-2.886,3.331,3.331,0,0,1,.625-2.566,2.722,2.722,0,0,1,1.875-1,2.806,2.806,0,0,1,2.529,1.136,10.076,10.076,0,0,1,1.537,4.7l.213-.02a.975.975,0,0,0,.8-.355,1.434,1.434,0,0,0,.129-.846q-.114-1.276-1.154-1.33l.009-3.392q3.012.454,3.391,4.64a9.173,9.173,0,0,1-.037,2.108,3.514,3.514,0,0,1-.572,1.57,2.46,2.46,0,0,1-.949.835,7.235,7.235,0,0,1-2.044.376l-3.75.339A5.19,5.19,0,0,0,1733.391,908.336Zm4.05-4.222q-.462-2.336-1.718-2.221c-.567.051-.821.389-.766,1.01a1.519,1.519,0,0,0,.442.976,2.073,2.073,0,0,0,1.589.276Z"/><path class="a" d="M1733.331,913.213l.011-3.543,9.436.03-.01,3.08-1.948-.006a2.4,2.4,0,0,1,2.116,2.465,4.651,4.651,0,0,1-.04.538l-3.292-.011a2.981,2.981,0,0,0,.095-.7q.006-1.837-2.045-1.844Z"/><path class="a" d="M1736.041,916.147l.127,2.945q-1.036.156-1.2,1.883-.133,1.433.421,1.484a.415.415,0,0,0,.4-.244,5.771,5.771,0,0,0,.4-1.285q.661-2.828,1.574-3.46a2.857,2.857,0,0,1,1.945-.538,2.792,2.792,0,0,1,2.221,1.418,5.189,5.189,0,0,1,.6,3.233q-.317,3.417-2.871,4.13l-.267-2.838a1.622,1.622,0,0,0,.982-1.558,1.873,1.873,0,0,0-.08-.9c-.089-.2-.185-.31-.291-.321q-.462-.042-.644.835a18.408,18.408,0,0,1-.815,3.084,3,3,0,0,1-1.109,1.313,2.645,2.645,0,0,1-1.774.422,2.854,2.854,0,0,1-2.33-1.515,6.108,6.108,0,0,1-.576-3.636Q1733.1,916.788,1736.041,916.147Z"/></g><g transform="translate(-665.867 -804.857)"><g class="b" transform="translate(665.867 804.857)"><circle class="f" cx="110.298" cy="110.298" r="110.298"/><circle class="g" cx="110.298" cy="110.298" r="110.798"/></g><path class="c" d="M725.48,860.693c.921-.612,3.235-.516,3.971-.5,1.667.043,4.558-5.171,9.116-4.908s7.284,5,8.492,5.076,6.627,0,6.627,0,2.1-3.769,4.119-3.331,2.542,2.63,3.068,3.243,5.785-.087,6.661.263,1.841,3.331,2.192,3.769,2.1-32.255,2.191-33.132,2.713,42.211,2.713,43.176,2.066-12.089,2.943-13.579,7.4-.234,9.069-.321,4.558-5.172,9.116-4.909,7.859,4.8,8.716,4.949,6.626,0,6.626,0,2.1-3.769,4.12-3.331,2.434,2.527,4.336,3.648"/><path class="b" d="M832.069,845.786s-58.877-46.423-116.335,4.563L752.6,889.472s19.788-19.526,44.968-2.265Z"/><path class="b" d="M849.471,965.007s42.9-62.988-14.44-117.133L800.6,889.791s20.751,18.506,4.751,44.506Z"/><path class="d" d="M832.922,935.326c-1.626-.856-6.935.179-9.537-2.246-2.1-1.958,3.6-1.762-.565-5.233s-8.6-12.783-9.463-16.2.445-7.915,1.709-11.372,4.746-12.021,7.561-15.37,9.3-10.7,15.018-13.913c10.553-5.939,15.042,4.486,17.221,10.664,3.042,8.623,3.353,26.228,3.45,28.629s2.843,2.933,3.338,4.867-2.376,2.881-3.428,4.014c-.83.894-3.822,2.951-4.787,4.277-1.557,2.139-4.5,2.868-5.115,3.548C846.944,928.515,840.721,939.433,832.922,935.326Zm-10.38-45.845c-1.478,2.828-3.318,5.542-3.364,7.77s.507,2.107,2.45,3.592,3.5.523,3.664.763c.486.7-1.362,2.8-4.936.338-1.674-1.154-2.767,3.285-4.115,5.664s1.64,8.913,3.994,12.626,5.606,3.864,7.44,4.285,2.183-5.192,2.675-6.5,1.954-6.687,1.52-8,.046-2.36-1.917-3.323-2.449-1.1-3.163-2.738.045-1.894.4-1.367c1.064,1.6,4.128,3.048,4.082,1.841s2.12-10.059,2.388-12.75,2.061-7.183,3.625-10.554,2.7-7.864.771-7.431C833.963,874.618,824.019,886.653,822.542,889.481Zm18.325-10.55a43.852,43.852,0,0,0-2.819,7.084c-.534,2.3-.313,8.827-.863,12.095s-3.519,8.212-3.2,9.755.6,3.213,1.775,3.81c1.328.672,4.664,1.89,6.7.767s-.651,2.218-1.67,2.393c-1.132.2-2.3-.259-3.94-.075s-5.417,10.035-6.431,11.72-1.113,3.9.98,5.294,6.723.89,9.268-.615,5.226-7.123,7.924-10.067,3.927-6.281,1.874-6.479-4.7.289-5.526-1.4-.448-1.646,1.028-.824,3.842.849,4.489-.019a28.518,28.518,0,0,0,2.271-2.507c.978-1.431,1.627-8.231,1.035-13.017s-3.57-11.977-5.2-13.768S842.552,875.271,840.867,878.931Z"/><path class="e" d="M817.874,937.654a1.164,1.164,0,0,1-.839-1.1c-.2-16.881-.571-42.431-.807-44.518a1.152,1.152,0,0,1-.023-.57,1.166,1.166,0,0,1,1.353-.906c.081.015.156.029.226.046a9.432,9.432,0,0,0,8.714-4.065,1.166,1.166,0,0,1,1.73-.244l34.246,29.265a1.164,1.164,0,0,1,.14,1.628c-.176.213-17.865,21.178-44.443,20.515A1.123,1.123,0,0,1,817.874,937.654Zm.738-44.665c.069,1.186.11,2.981.173,5.717.1,4.208.191,9.814.278,15.418.138,9.074.251,18.142.288,21.262,21.8.026,37.18-15.043,40.7-18.832l-32.4-27.683A12,12,0,0,1,818.612,892.989Z"/></g></g></svg>