<svg xmlns="http://www.w3.org/2000/svg" width="222.596" height="222.596" viewBox="0 0 222.596 222.596"><defs><style>.a{fill:#3e96d4;}.b,.c,.d,.g{fill:none;}.b,.c,.d,.e{stroke:#3e96d4;stroke-miterlimit:10;}.c{stroke-width:1.5px;}.d{stroke-width:0.75px;}.e{fill:#fff;}.f{stroke:none;}</style></defs><g transform="translate(1 1)"><g transform="translate(-1170.543 -813.573)"><path class="a" d="M1248.793,832.418l2.8-1.041.982,2.645-9.129,3.4-.984-2.643,2.931-1.09-2.1-5.644a11.5,11.5,0,0,1-2.286,1.839l-.993-2.67a5.481,5.481,0,0,0,2.7-3.242l2.574-.957Z"/><path class="a" d="M1260.414,825.7l.652,2.84-4.586,1.052-.65-2.84Z"/><path class="a" d="M1276.317,826.768l.158,3.107-9.606.917-.277-2.9,2-1.711q.443-.366,1.631-1.556a9.792,9.792,0,0,0,1.527-1.8,2.112,2.112,0,0,0,.279-1.241,1.363,1.363,0,0,0-.435-.931,1.181,1.181,0,0,0-.934-.279q-1.392.13-1.349,2.328l-3.246-.315a5.019,5.019,0,0,1,1.425-3.478,5.207,5.207,0,0,1,3.18-1.4,5.017,5.017,0,0,1,3.454.78,3.655,3.655,0,0,1,1.575,2.8,4.24,4.24,0,0,1-.484,2.385,16.434,16.434,0,0,1-3.813,3.756Z"/><path class="a" d="M1292.009,820.928l-4.3,9.987a4.109,4.109,0,0,1-1.331,1.736,3.844,3.844,0,0,1-2.492.508q-.4-.024-1.847-.194l.154-2.621a8.663,8.663,0,0,0,1.329.19q1.59.1,1.632-.61a1.818,1.818,0,0,0-.119-.646l-2.859-8.936,3.953.237,1.258,5.117,1.926-4.928Z"/><path class="a" d="M1298.42,828.063l3.367.787a4.064,4.064,0,0,1-1.926,2.086,5.384,5.384,0,0,1-3.513.416,5.239,5.239,0,0,1-3.532-1.977,4.569,4.569,0,0,1-.845-3.6,5.26,5.26,0,0,1,9.275-2.182,5.01,5.01,0,0,1,.772,3.916c-.022.129-.053.3-.1.53l-6.234-1.024a2.461,2.461,0,0,0,.095,1.356,1.532,1.532,0,0,0,2.637-.3Zm.15-2.457a1.707,1.707,0,0,0-.172-1.33,1.353,1.353,0,0,0-.861-.477q-1.3-.213-1.558,1.381Z"/><path class="a" d="M1311.5,834.829l-3.391-.963a6.261,6.261,0,0,1,.236-1.3,3.392,3.392,0,0,1-3.332.627,3.341,3.341,0,0,1-2.172-1.5,2.728,2.728,0,0,1-.264-2.109,2.807,2.807,0,0,1,1.967-1.955,10.085,10.085,0,0,1,4.939.25l.059-.205a.969.969,0,0,0-.047-.872,1.416,1.416,0,0,0-.742-.423q-1.233-.35-1.656.6l-3.162-1.226q1.5-2.649,5.547-1.5a8.982,8.982,0,0,1,1.955.791,3.49,3.49,0,0,1,1.259,1.095,2.471,2.471,0,0,1,.442,1.186,7.391,7.391,0,0,1-.383,2.041l-1.029,3.623A5.216,5.216,0,0,0,1311.5,834.829Zm-2.487-5.3q-2.344-.4-2.69.808-.231.82.668,1.077a1.509,1.509,0,0,0,1.069-.063c.334-.148.609-.611.828-1.385Z"/><path class="a" d="M1316.033,836.637l-3.3-1.283,3.413-8.795,2.872,1.113-.705,1.817a2.4,2.4,0,0,1,3.06-1.092,5.169,5.169,0,0,1,.488.23l-1.191,3.071a2.855,2.855,0,0,0-.615-.338q-1.713-.664-2.454,1.246Z"/><path class="a" d="M1319.722,835.151l2.8.933q-.23,1.026,1.328,1.793,1.29.636,1.537.137a.414.414,0,0,0-.084-.459,5.6,5.6,0,0,0-1.061-.83q-2.4-1.629-2.67-2.7a2.87,2.87,0,0,1,.2-2.01,2.783,2.783,0,0,1,2.117-1.568,5.166,5.166,0,0,1,3.233.6q3.078,1.514,2.833,4.158l-2.748-.766a1.617,1.617,0,0,0-1.1-1.474,1.878,1.878,0,0,0-.867-.247c-.221.012-.356.063-.4.157-.137.279.047.578.551.9a18.779,18.779,0,0,1,2.588,1.861,3.022,3.022,0,0,1,.828,1.506,2.645,2.645,0,0,1-.239,1.809,2.856,2.856,0,0,1-2.249,1.633,6.093,6.093,0,0,1-3.6-.762Q1319.268,838.123,1319.722,835.151Z"/><path class="a" d="M1335.6,847.442a4.892,4.892,0,0,1-2.21-3.34,4.823,4.823,0,0,1,.841-3.6,4.733,4.733,0,0,1,3.207-2.054,5.715,5.715,0,0,1,6.142,4.3,4.683,4.683,0,0,1-.848,3.666,4.757,4.757,0,0,1-3.2,2.064A5.177,5.177,0,0,1,1335.6,847.442Zm1.338-1.8a.991.991,0,0,0,1.375-.127,8.877,8.877,0,0,0,1.232-1.42,4.932,4.932,0,0,0,.879-1.716.975.975,0,0,0-.453-1.034.986.986,0,0,0-1.115-.047,4.862,4.862,0,0,0-1.383,1.456,4.913,4.913,0,0,0-.986,1.931A.993.993,0,0,0,1336.936,845.637Z"/><path class="a" d="M1343.523,853.4l-2.693-2.3,6.129-7.174,2.342,2-1.266,1.481a2.4,2.4,0,0,1,3.25-.018c.1.084.226.211.385.379l-2.141,2.5a3.03,3.03,0,0,0-.468-.521q-1.4-1.2-2.728.365Z"/><path class="a" d="M1350.85,856.461l2.238,1.92q-.6.867.557,2.162c.636.717,1.093.954,1.371.706a.414.414,0,0,0,.095-.457,5.492,5.492,0,0,0-.67-1.167q-1.614-2.417-1.453-3.513a2.854,2.854,0,0,1,.938-1.787,2.776,2.776,0,0,1,2.551-.655,5.168,5.168,0,0,1,2.771,1.77q2.281,2.566,1.057,4.918l-2.256-1.742a1.623,1.623,0,0,0-.467-1.783,1.883,1.883,0,0,0-.709-.553c-.211-.074-.355-.078-.434-.006q-.348.308.17,1.039a18.807,18.807,0,0,1,1.7,2.7,3,3,0,0,1,.2,1.707,2.63,2.63,0,0,1-.9,1.584,2.854,2.854,0,0,1-2.7.668,6.114,6.114,0,0,1-3.049-2.062Q1349.309,859.044,1350.85,856.461Z"/><path class="a" d="M1358.338,870.042a4.895,4.895,0,0,1-.969-3.887,4.834,4.834,0,0,1,2-3.112,4.735,4.735,0,0,1,3.709-.865,5.719,5.719,0,0,1,4.356,6.1,4.7,4.7,0,0,1-2.026,3.174,4.762,4.762,0,0,1-3.708.875A5.183,5.183,0,0,1,1358.338,870.042Zm1.863-1.254a1,1,0,0,0,1.34.341,9,9,0,0,0,1.633-.927,4.891,4.891,0,0,0,1.4-1.327.968.968,0,0,0-.082-1.125.984.984,0,0,0-1.033-.416,4.864,4.864,0,0,0-1.791.909,4.914,4.914,0,0,0-1.574,1.492A1,1,0,0,0,1360.2,868.788Z"/><path class="a" d="M1364.123,879.252a4.892,4.892,0,0,1-.518-3.97,4.833,4.833,0,0,1,2.338-2.864,4.732,4.732,0,0,1,3.784-.437,5.718,5.718,0,0,1,3.63,6.559,4.687,4.687,0,0,1-2.374,2.921,4.756,4.756,0,0,1-3.784.446A5.178,5.178,0,0,1,1364.123,879.252Zm1.994-1.033a1,1,0,0,0,1.292.492,8.868,8.868,0,0,0,1.73-.736,4.888,4.888,0,0,0,1.545-1.156,1.058,1.058,0,0,0-.933-1.656,4.819,4.819,0,0,0-1.884.695,4.907,4.907,0,0,0-1.734,1.305A1,1,0,0,0,1366.117,878.219Z"/><path class="a" d="M1370.756,893.26l-1.405-3.424,5.492-2.255c.452-.186.712-.373.78-.567a.827.827,0,0,0-.027-.6q-.384-.934-1.688-.4l-5.246,2.153-1.4-3.424,8.728-3.584,1.3,3.176-1.236.507a2.767,2.767,0,0,1,2.449,1.932,3.546,3.546,0,0,1,.3,1.76,2.357,2.357,0,0,1-.557,1.328,5.429,5.429,0,0,1-1.9,1.109Z"/><path class="a" d="M1376.244,899.848l.721,3.385a4.071,4.071,0,0,1-2.708-.858,5.377,5.377,0,0,1-1.871-3,5.227,5.227,0,0,1,.286-4.036,4.569,4.569,0,0,1,2.9-2.3,5.1,5.1,0,1,1,2.709,9.83c-.125.035-.3.082-.519.138l-1.729-6.078a2.472,2.472,0,0,0-1.186.666,1.53,1.53,0,0,0,1.4,2.254Zm2.287-.91a1.7,1.7,0,0,0,1.131-.721,1.352,1.352,0,0,0,.063-.982c-.239-.844-.877-1.115-1.912-.822Z"/><path class="a" d="M1374.736,908.747l-.648-3.483,9.275-1.728.565,3.027-1.915.357a2.406,2.406,0,0,1,2.538,2.028,5.168,5.168,0,0,1,.061.535l-3.237.6a3.082,3.082,0,0,0-.037-.7q-.335-1.8-2.352-1.429Z"/></g><g transform="translate(-665.867 -804.857)"><g class="b" transform="translate(665.867 804.857)"><circle class="f" cx="110.298" cy="110.298" r="110.298"/><circle class="g" cx="110.298" cy="110.298" r="110.798"/></g><path class="c" d="M725.48,860.693c.921-.612,3.235-.516,3.971-.5,1.667.043,4.558-5.171,9.116-4.908s7.284,5,8.492,5.076,6.627,0,6.627,0,2.1-3.769,4.119-3.331,2.542,2.63,3.068,3.243,5.785-.087,6.661.263,1.841,3.331,2.192,3.769,2.1-32.255,2.191-33.132,2.713,42.211,2.713,43.176,2.066-12.089,2.943-13.579,7.4-.234,9.069-.321,4.558-5.172,9.116-4.909,7.859,4.8,8.716,4.949,6.626,0,6.626,0,2.1-3.769,4.12-3.331,2.434,2.527,4.336,3.648"/><path class="b" d="M832.069,845.786s-58.877-46.423-116.335,4.563L752.6,889.472s19.788-19.526,44.968-2.265Z"/><path class="b" d="M849.471,965.007s42.9-62.988-14.44-117.133L800.6,889.791s20.751,18.506,4.751,44.506Z"/><path class="d" d="M832.922,935.326c-1.626-.856-6.935.179-9.537-2.246-2.1-1.958,3.6-1.762-.565-5.233s-8.6-12.783-9.463-16.2.445-7.915,1.709-11.372,4.746-12.021,7.561-15.37,9.3-10.7,15.018-13.913c10.553-5.939,15.042,4.486,17.221,10.664,3.042,8.623,3.353,26.228,3.45,28.629s2.843,2.933,3.338,4.867-2.376,2.881-3.428,4.014c-.83.894-3.822,2.951-4.787,4.277-1.557,2.139-4.5,2.868-5.115,3.548C846.944,928.515,840.721,939.433,832.922,935.326Zm-10.38-45.845c-1.478,2.828-3.318,5.542-3.364,7.77s.507,2.107,2.45,3.592,3.5.523,3.664.763c.486.7-1.362,2.8-4.936.338-1.674-1.154-2.767,3.285-4.115,5.664s1.64,8.913,3.994,12.626,5.606,3.864,7.44,4.285,2.183-5.192,2.675-6.5,1.954-6.687,1.52-8,.046-2.36-1.917-3.323-2.449-1.1-3.163-2.738.045-1.894.4-1.367c1.064,1.6,4.128,3.048,4.082,1.841s2.12-10.059,2.388-12.75,2.061-7.183,3.625-10.554,2.7-7.864.771-7.431C833.963,874.618,824.019,886.653,822.542,889.481Zm18.325-10.55a43.852,43.852,0,0,0-2.819,7.084c-.534,2.3-.313,8.827-.863,12.095s-3.519,8.212-3.2,9.755.6,3.213,1.775,3.81c1.328.672,4.664,1.89,6.7.767s-.651,2.218-1.67,2.393c-1.132.2-2.3-.259-3.94-.075s-5.417,10.035-6.431,11.72-1.113,3.9.98,5.294,6.723.89,9.268-.615,5.226-7.123,7.924-10.067,3.927-6.281,1.874-6.479-4.7.289-5.526-1.4-.448-1.646,1.028-.824,3.842.849,4.489-.019a28.518,28.518,0,0,0,2.271-2.507c.978-1.431,1.627-8.231,1.035-13.017s-3.57-11.977-5.2-13.768S842.552,875.271,840.867,878.931Z"/><path class="e" d="M817.874,937.654a1.164,1.164,0,0,1-.839-1.1c-.2-16.881-.571-42.431-.807-44.518a1.152,1.152,0,0,1-.023-.57,1.166,1.166,0,0,1,1.353-.906c.081.015.156.029.226.046a9.432,9.432,0,0,0,8.714-4.065,1.166,1.166,0,0,1,1.73-.244l34.246,29.265a1.164,1.164,0,0,1,.14,1.628c-.176.213-17.865,21.178-44.443,20.515A1.123,1.123,0,0,1,817.874,937.654Zm.738-44.665c.069,1.186.11,2.981.173,5.717.1,4.208.191,9.814.278,15.418.138,9.074.251,18.142.288,21.262,21.8.026,37.18-15.043,40.7-18.832l-32.4-27.683A12,12,0,0,1,818.612,892.989Z"/></g></g></svg>