<svg xmlns="http://www.w3.org/2000/svg" width="222.596" height="222.596" viewBox="0 0 222.596 222.596"><defs><style>.a{opacity:0;}.b{fill:#3e96d4;}.c,.d,.e,.h{fill:none;}.c,.d,.e,.f{stroke:#3e96d4;stroke-miterlimit:10;}.d{stroke-width:1.5px;}.e{stroke-width:0.75px;}.f{fill:#fff;}.g{stroke:none;}</style></defs><g class="a" transform="translate(1 1)"><g class="a" transform="translate(-659.2 -812.938)"><path class="b" d="M730.842,832.495l2.953-1.534a1.8,1.8,0,0,0,2.345.979,1.706,1.706,0,0,0,.934-.732,1.208,1.208,0,0,0,.07-1.066,1.167,1.167,0,0,0-.473-.592,1.4,1.4,0,0,0-.626-.232,2.419,2.419,0,0,0-.912.206l-1.445.537-.92-2.478,1.216-.454q.973-.362,1.123-.812a1.228,1.228,0,0,0,.01-.826,1.079,1.079,0,0,0-.638-.653,1.4,1.4,0,0,0-1.03.026,1.534,1.534,0,0,0-.983,1.91l-3.038.615a4.5,4.5,0,0,1,.7-3.19,5.986,5.986,0,0,1,6.13-2.269,3.122,3.122,0,0,1,2.088,1.994,2.8,2.8,0,0,1,.091,1.778,2.59,2.59,0,0,1-.935,1.386,2.885,2.885,0,0,1,3.178,2,3.287,3.287,0,0,1-.317,3.131,5.971,5.971,0,0,1-3.018,2.2Q733.188,835.957,730.842,832.495Z"/><path class="b" d="M750.07,824.063l.653,2.84-4.585,1.052-.652-2.839Z"/><path class="b" d="M764.754,818.792l-5.281.5.021,1.8a3.912,3.912,0,0,1,2.2-.926,4.129,4.129,0,0,1,2.979.851,3.911,3.911,0,0,1,1.514,2.9,4.108,4.108,0,0,1-1.122,3.369,5.4,5.4,0,0,1-3.539,1.595,5.617,5.617,0,0,1-3.455-.7,4.3,4.3,0,0,1-2.012-2.683l3.214-.707a1.638,1.638,0,0,0,1.894,1.208,1.481,1.481,0,0,0,1.1-.552,1.535,1.535,0,0,0,.308-1.119,1.409,1.409,0,0,0-.577-1.082,1.765,1.765,0,0,0-2.559.635l-2.929-.131-.136-7.293,8.414-.8Z"/><path class="b" d="M781.666,819.293l-4.3,9.986a4.111,4.111,0,0,1-1.33,1.737,3.842,3.842,0,0,1-2.492.508c-.267-.017-.883-.08-1.848-.194l.156-2.621a8.762,8.762,0,0,0,1.327.19q1.591.094,1.634-.609a1.9,1.9,0,0,0-.12-.648l-2.859-8.934,3.952.236,1.259,5.117,1.925-4.928Z"/><path class="b" d="M788.076,826.427l3.367.788a4.064,4.064,0,0,1-1.924,2.086,5.392,5.392,0,0,1-3.515.415,5.234,5.234,0,0,1-3.531-1.976,4.569,4.569,0,0,1-.846-3.6,5.1,5.1,0,1,1,10.048,1.735q-.033.192-.1.529l-6.234-1.024a2.45,2.45,0,0,0,.1,1.356,1.53,1.53,0,0,0,2.636-.306Zm.151-2.457a1.715,1.715,0,0,0-.171-1.33,1.351,1.351,0,0,0-.863-.475q-1.3-.215-1.557,1.38Z"/><path class="b" d="M801.154,833.194l-3.39-.963a6.18,6.18,0,0,1,.234-1.3,3.389,3.389,0,0,1-3.331.626,3.335,3.335,0,0,1-2.172-1.5,2.721,2.721,0,0,1-.264-2.11,2.806,2.806,0,0,1,1.967-1.954,10.077,10.077,0,0,1,4.94.25l.058-.205a.969.969,0,0,0-.047-.871,1.413,1.413,0,0,0-.743-.424q-1.233-.349-1.656.6l-3.161-1.226q1.5-2.649,5.547-1.5a9.109,9.109,0,0,1,1.954.791,3.5,3.5,0,0,1,1.261,1.1,2.457,2.457,0,0,1,.44,1.186,7.309,7.309,0,0,1-.383,2.041l-1.028,3.623A5.216,5.216,0,0,0,801.154,833.194Zm-2.488-5.3q-2.343-.4-2.689.809c-.155.546.068.906.668,1.076a1.5,1.5,0,0,0,1.069-.063c.333-.148.608-.611.827-1.385Z"/><path class="b" d="M805.689,835l-3.3-1.282,3.413-8.8,2.871,1.115-.7,1.816a2.4,2.4,0,0,1,3.061-1.092,4.862,4.862,0,0,1,.488.231l-1.192,3.069a2.963,2.963,0,0,0-.615-.338q-1.711-.664-2.453,1.246Z"/><path class="b" d="M809.379,833.516l2.8.934q-.23,1.024,1.329,1.793,1.29.636,1.536.136a.414.414,0,0,0-.084-.459,5.553,5.553,0,0,0-1.061-.83q-2.4-1.629-2.668-2.705a2.865,2.865,0,0,1,.194-2.01,2.788,2.788,0,0,1,2.118-1.568,5.178,5.178,0,0,1,3.233.6q3.078,1.516,2.832,4.158l-2.747-.765a1.62,1.62,0,0,0-1.1-1.474,1.878,1.878,0,0,0-.866-.247c-.223.011-.358.063-.4.157-.136.278.046.578.55.9A18.537,18.537,0,0,1,817.623,834a3.008,3.008,0,0,1,.829,1.505,2.642,2.642,0,0,1-.239,1.808,2.856,2.856,0,0,1-2.25,1.634,6.1,6.1,0,0,1-3.6-.762Q808.925,836.488,809.379,833.516Z"/></g><g transform="translate(-665.867 -804.857)"><g class="c" transform="translate(665.867 804.857)"><circle class="g" cx="110.298" cy="110.298" r="110.298"/><circle class="h" cx="110.298" cy="110.298" r="110.798"/></g><path class="d" d="M725.48,860.693c.921-.612,3.235-.516,3.971-.5,1.667.043,4.558-5.171,9.116-4.908s7.284,5,8.492,5.076,6.627,0,6.627,0,2.1-3.769,4.119-3.331,2.542,2.63,3.068,3.243,5.785-.087,6.661.263,1.841,3.331,2.192,3.769,2.1-32.255,2.191-33.132,2.713,42.211,2.713,43.176,2.066-12.089,2.943-13.579,7.4-.234,9.069-.321,4.558-5.172,9.116-4.909,7.859,4.8,8.716,4.949,6.626,0,6.626,0,2.1-3.769,4.12-3.331,2.434,2.527,4.336,3.648"/><path class="c" d="M832.069,845.786s-58.877-46.423-116.335,4.563L752.6,889.472s19.788-19.526,44.968-2.265Z"/><path class="c" d="M849.471,965.007s42.9-62.988-14.44-117.133L800.6,889.791s20.751,18.506,4.751,44.506Z"/><path class="e" d="M832.922,935.326c-1.626-.856-6.935.179-9.537-2.246-2.1-1.958,3.6-1.762-.565-5.233s-8.6-12.783-9.463-16.2.445-7.915,1.709-11.372,4.746-12.021,7.561-15.37,9.3-10.7,15.018-13.913c10.553-5.939,15.042,4.486,17.221,10.664,3.042,8.623,3.353,26.228,3.45,28.629s2.843,2.933,3.338,4.867-2.376,2.881-3.428,4.014c-.83.894-3.822,2.951-4.787,4.277-1.557,2.139-4.5,2.868-5.115,3.548C846.944,928.515,840.721,939.433,832.922,935.326Zm-10.38-45.845c-1.478,2.828-3.318,5.542-3.364,7.77s.507,2.107,2.45,3.592,3.5.523,3.664.763c.486.7-1.362,2.8-4.936.338-1.674-1.154-2.767,3.285-4.115,5.664s1.64,8.913,3.994,12.626,5.606,3.864,7.44,4.285,2.183-5.192,2.675-6.5,1.954-6.687,1.52-8,.046-2.36-1.917-3.323-2.449-1.1-3.163-2.738.045-1.894.4-1.367c1.064,1.6,4.128,3.048,4.082,1.841s2.12-10.059,2.388-12.75,2.061-7.183,3.625-10.554,2.7-7.864.771-7.431C833.963,874.618,824.019,886.653,822.542,889.481Zm18.325-10.55a43.852,43.852,0,0,0-2.819,7.084c-.534,2.3-.313,8.827-.863,12.095s-3.519,8.212-3.2,9.755.6,3.213,1.775,3.81c1.328.672,4.664,1.89,6.7.767s-.651,2.218-1.67,2.393c-1.132.2-2.3-.259-3.94-.075s-5.417,10.035-6.431,11.72-1.113,3.9.98,5.294,6.723.89,9.268-.615,5.226-7.123,7.924-10.067,3.927-6.281,1.874-6.479-4.7.289-5.526-1.4-.448-1.646,1.028-.824,3.842.849,4.489-.019a28.518,28.518,0,0,0,2.271-2.507c.978-1.431,1.627-8.231,1.035-13.017s-3.57-11.977-5.2-13.768S842.552,875.271,840.867,878.931Z"/><path class="f" d="M817.874,937.654a1.164,1.164,0,0,1-.839-1.1c-.2-16.881-.571-42.431-.807-44.518a1.152,1.152,0,0,1-.023-.57,1.166,1.166,0,0,1,1.353-.906c.081.015.156.029.226.046a9.432,9.432,0,0,0,8.714-4.065,1.166,1.166,0,0,1,1.73-.244l34.246,29.265a1.164,1.164,0,0,1,.14,1.628c-.176.213-17.865,21.178-44.443,20.515A1.123,1.123,0,0,1,817.874,937.654Zm.738-44.665c.069,1.186.11,2.981.173,5.717.1,4.208.191,9.814.278,15.418.138,9.074.251,18.142.288,21.262,21.8.026,37.18-15.043,40.7-18.832l-32.4-27.683A12,12,0,0,1,818.612,892.989Z"/></g></g></svg>