<?xml version="1.0" encoding="utf-8"?>
<!-- Generator: Adobe Illustrator 24.2.1, SVG Export Plug-In . SVG Version: 6.00 Build 0)  -->
<svg version="1.1" xmlns="http://www.w3.org/2000/svg" xmlns:xlink="http://www.w3.org/1999/xlink" x="0px" y="0px"
	 viewBox="0 0 1920 1165" style="enable-background:new 0 0 1920 1165;" xml:space="preserve">
<style type="text/css">
	.st0{fill:none;stroke:#5CA5DB;stroke-miterlimit:10;}
	.st1{fill:none;stroke:#5CA5DB;stroke-width:1.5;stroke-miterlimit:10;}
	.st2{fill:none;stroke:#5CA5DB;stroke-width:0.75;stroke-miterlimit:10;}
	.st3{fill:#FFFFFF;}
	.st4{fill:#FFFFFF;stroke:#5CA5DA;stroke-width:0;stroke-miterlimit:10;}
	.st5{fill:#5CA5DA;stroke:#5CA5DA;stroke-miterlimit:10;}
	.st6{fill:#5CA5DA;stroke:#FFFFFF;stroke-width:0;stroke-miterlimit:10;}
	.st7{fill:#111112;}
	.st8{fill:#C4768C;}
	.st9{fill:none;stroke:#AF2024;stroke-miterlimit:10;}
	.st10{fill:#3963AD;}
	.st11{fill:none;stroke:#1F4388;stroke-miterlimit:10;}
	.st12{fill:#665FA0;}
	.st13{fill:#3463AE;}
	.st14{fill:#D8AAA7;}
	.st15{fill:#AF2024;}
	.st16{fill:#BB584A;}
	.st17{fill:#5E8AC7;}
	.st18{fill:#8F8AC3;}
	.st19{fill:#FCDCDC;}
	.st20{fill:none;stroke:#5CA5DB;stroke-width:25;stroke-linejoin:round;stroke-miterlimit:10;}
	.st21{fill:#4D4D4F;}
	.st22{fill:none;stroke:#1F4388;stroke-width:2;stroke-miterlimit:10;}
	.st23{fill:#5CA5DB;stroke:#1F4388;stroke-width:2;stroke-miterlimit:10;}
	.st24{fill:none;stroke:#1F4388;stroke-width:0;stroke-miterlimit:10;}
	.st25{fill:#5CA5DB;}
	.st26{font-family:'FranklinGothic-Demi';}
	.st27{font-size:19px;}
	.st28{fill:#1F4388;}
	.st29{opacity:0.51;}
	.st30{clip-path:url(#SVGID_2_);fill:#FFFFFF;}
	.st31{font-family:'FranklinGothic-BookItalic';}
	.st32{font-size:21px;}
	.st33{fill:none;stroke:#5CA5DB;stroke-linecap:round;stroke-miterlimit:10;}
	.st34{font-family:'FranklinGothic-Book';}
	.st35{font-size:14px;}
	.st36{fill:none;stroke:#5CA5DB;stroke-width:0.5;stroke-miterlimit:10;}
	.st37{fill:none;stroke:#1C4588;stroke-width:0.5;stroke-miterlimit:10;}
	.st38{fill:none;stroke:#5CA5DB;stroke-width:25;stroke-miterlimit:10;}
	.st39{font-size:19.0001px;}
	.st40{font-size:35px;}
</style>
<symbol  id="_x31_-2_x5F_years_or_2-3_years" viewBox="-111.1 -111.3 222.2 222.1">
	<path class="st0" d="M0,110.1c61.1,0,110.6-49.5,110.6-110.5S61.1-110.8,0-110.8c-61.1,0-110.6,49.5-110.6,110.5
		S-61.1,110.1,0,110.1"/>
	
		<text transform="matrix(0.9373 0.3485 0.3485 -0.9373 -38.7403 86.8812)" class="st25" style="font-family:'FranklinGothic-Heavy'; font-size:18.9038px;">1</text>
	
		<text transform="matrix(0.9622 0.2724 0.2724 -0.9622 -28.6155 90.5819)" class="st25" style="font-family:'FranklinGothic-Heavy'; font-size:18.9039px;"> </text>
	
		<text transform="matrix(0.9747 0.2237 0.2237 -0.9747 -24.1155 91.8149)" class="st25" style="font-family:'FranklinGothic-Heavy'; font-size:18.9038px;">-</text>
	
		<text transform="matrix(0.9847 0.1743 0.1743 -0.9847 -19.2397 92.9432)" class="st25" style="font-family:'FranklinGothic-Heavy'; font-size:18.9039px;"> </text>
	
		<text transform="matrix(0.9955 9.484001e-02 9.484001e-02 -0.9955 -14.9258 93.8775)" class="st25" style="font-family:'FranklinGothic-Heavy'; font-size:18.9038px;">2</text>
	
		<text transform="matrix(0.9999 1.427000e-02 1.427000e-02 -0.9999 -4.0842 94.7626)" class="st25" style="font-family:'FranklinGothic-Heavy'; font-size:18.9038px;"> </text>
	
		<text transform="matrix(0.9982 -5.944000e-02 -5.944000e-02 -0.9982 0.4256 94.9996)" class="st25" style="font-family:'FranklinGothic-Heavy'; font-size:18.9038px;">y</text>
	
		<text transform="matrix(0.9868 -0.162 -0.162 -0.9868 9.3928 94.4899)" class="st25" style="font-family:'FranklinGothic-Heavy'; font-size:18.9039px;">e</text>
	
		<text transform="matrix(0.962 -0.2732 -0.2732 -0.962 20.0775 92.7691)" class="st25" style="font-family:'FranklinGothic-Heavy'; font-size:18.9039px;">a</text>
	
		<text transform="matrix(0.9323 -0.3618 -0.3618 -0.9323 30.3666 89.7497)" class="st25" style="font-family:'FranklinGothic-Heavy'; font-size:18.9038px;">r</text>
	
		<text transform="matrix(0.897 -0.442 -0.442 -0.897 36.9665 87.2927)" class="st25" style="font-family:'FranklinGothic-Heavy'; font-size:18.9038px;">s</text>
	
		<text transform="matrix(0.8619 -0.5071 -0.5071 -0.8619 45.7063 82.9402)" class="st25" style="font-family:'FranklinGothic-Heavy'; font-size:18.9038px;"> </text>
	
		<text transform="matrix(0.8181 -0.5752 -0.5752 -0.8181 49.6064 80.7032)" class="st25" style="font-family:'FranklinGothic-Heavy'; font-size:18.9039px;">o</text>
	
		<text transform="matrix(0.7603 -0.6495 -0.6495 -0.7603 58.5325 74.3455)" class="st25" style="font-family:'FranklinGothic-Heavy'; font-size:18.9039px;">r</text>
	
		<text transform="matrix(0.7192 -0.6948 -0.6948 -0.7192 63.8808 69.8299)" class="st25" style="font-family:'FranklinGothic-Heavy'; font-size:18.9039px;"> </text>
	
		<text transform="matrix(0.6605 -0.7508 -0.7508 -0.6605 67.0866 66.7792)" class="st25" style="font-family:'FranklinGothic-Heavy'; font-size:18.9038px;">2</text>
	
		<text transform="matrix(0.5975 -0.8019 -0.8019 -0.5975 74.1873 58.5304)" class="st25" style="font-family:'FranklinGothic-Heavy'; font-size:18.9038px;"> </text>
	
		<text transform="matrix(0.5559 -0.8313 -0.8313 -0.5559 76.9311 54.9513)" class="st25" style="font-family:'FranklinGothic-Heavy'; font-size:18.9038px;">-</text>
	
		<text transform="matrix(0.5131 -0.8583 -0.8583 -0.5131 79.7586 50.676)" class="st25" style="font-family:'FranklinGothic-Heavy'; font-size:18.9039px;"> </text>
	
		<text transform="matrix(0.4425 -0.8968 -0.8968 -0.4425 82.1407 46.8991)" class="st25" style="font-family:'FranklinGothic-Heavy'; font-size:18.9039px;">3</text>
	
		<text transform="matrix(0.3691 -0.9294 -0.9294 -0.3691 86.8133 37.2306)" class="st25" style="font-family:'FranklinGothic-Heavy'; font-size:18.9038px;"> </text>
	
		<text transform="matrix(0.3002 -0.9539 -0.9539 -0.3002 88.626 33.0825)" class="st25" style="font-family:'FranklinGothic-Heavy'; font-size:18.9039px;">y</text>
	
		<text transform="matrix(0.2018 -0.9794 -0.9794 -0.2018 91.3901 24.4068)" class="st25" style="font-family:'FranklinGothic-Heavy'; font-size:18.9038px;">e</text>
	
		<text transform="matrix(9.034000e-02 -0.9959 -0.9959 -9.034000e-02 93.5534 13.9664)" class="st25" style="font-family:'FranklinGothic-Heavy'; font-size:18.9038px;">a</text>
	
		<text transform="matrix(-2.770000e-03 -1 -1 2.770000e-03 94.5301 3.2362)" class="st25" style="font-family:'FranklinGothic-Heavy'; font-size:18.9039px;">r</text>
	
		<text transform="matrix(-9.185001e-02 -0.9958 -0.9958 9.185001e-02 94.5682 -3.8458)" class="st25" style="font-family:'FranklinGothic-Heavy'; font-size:18.9038px;">s</text>
</symbol>
<symbol  id="_x31_-2_x5F_years_x5F_or_x5F_sooner" viewBox="-111.1 -111.3 222.2 222.2">
	
		<text transform="matrix(0.9373 0.3485 0.3485 -0.9373 -38.8281 86.9788)" class="st25 st27" style="font-family:'FranklinGothic-Heavy';">1</text>
	
		<text transform="matrix(0.9747 0.2237 0.2237 -0.9747 -24.1781 91.8105)" class="st25" style="font-family:'FranklinGothic-Heavy'; font-size:18.9999px;">-</text>
	
		<text transform="matrix(0.9955 9.484001e-02 9.484001e-02 -0.9955 -14.8428 93.9712)" class="st25" style="font-family:'FranklinGothic-Heavy'; font-size:18.9999px;">2</text>
	
		<text transform="matrix(0.9982 -5.944000e-02 -5.944000e-02 -0.9982 0.534 95.0362)" class="st25" style="font-family:'FranklinGothic-Heavy'; font-size:18.9999px;">y</text>
	
		<text transform="matrix(0.9868 -0.162 -0.162 -0.9868 9.6149 94.5747)" class="st25" style="font-family:'FranklinGothic-Heavy'; font-size:18.9999px;">e</text>
	
		<text transform="matrix(0.962 -0.2732 -0.2732 -0.962 20.1894 92.799)" class="st25" style="font-family:'FranklinGothic-Heavy'; font-size:18.9999px;">a</text>
	
		<text transform="matrix(0.9323 -0.3618 -0.3618 -0.9323 30.6807 89.8339)" class="st25" style="font-family:'FranklinGothic-Heavy'; font-size:18.9999px;">r</text>
	
		<text transform="matrix(0.8969 -0.4422 -0.4422 -0.8969 37.2713 87.2445)" class="st25" style="font-family:'FranklinGothic-Heavy'; font-size:18.9999px;">s</text>
	
		<text transform="matrix(0.8181 -0.5751 -0.5751 -0.8181 50.0184 80.6499)" class="st25" style="font-family:'FranklinGothic-Heavy'; font-size:18.9999px;">o</text>
	
		<text transform="matrix(0.7602 -0.6497 -0.6497 -0.7602 58.9164 74.3618)" class="st25" style="font-family:'FranklinGothic-Heavy'; font-size:18.9999px;">r</text>
	
		<text transform="matrix(0.6643 -0.7475 -0.7475 -0.6643 67.6772 66.6436)" class="st25" style="font-family:'FranklinGothic-Heavy'; font-size:18.9999px;">s</text>
	
		<text transform="matrix(0.579 -0.8153 -0.8153 -0.579 74.0481 59.3771)" class="st25" style="font-family:'FranklinGothic-Heavy'; font-size:18.9999px;">o</text>
	
		<text transform="matrix(0.4821 -0.8761 -0.8761 -0.4821 80.4889 50.4597)" class="st25" style="font-family:'FranklinGothic-Heavy'; font-size:18.9999px;">o</text>
	
		<text transform="matrix(0.3798 -0.9251 -0.9251 -0.3798 85.7494 40.9592)" class="st25" style="font-family:'FranklinGothic-Heavy'; font-size:18.9999px;">n</text>
	
		<text transform="matrix(0.2735 -0.9619 -0.9619 -0.2735 89.8447 30.9072)" class="st25" style="font-family:'FranklinGothic-Heavy'; font-size:18.9999px;">e</text>
	
		<text transform="matrix(0.1831 -0.9831 -0.9831 -0.1831 92.7477 20.4416)" class="st25" style="font-family:'FranklinGothic-Heavy'; font-size:18.9999px;">r</text>
	<path class="st0" d="M0,110.1c61.1,0,110.6-49.5,110.6-110.5S61.1-110.8,0-110.8c-61.1,0-110.6,49.5-110.6,110.5
		S-61.1,110.1,0,110.1"/>
</symbol>
<symbol  id="_x32__x5F_diagnostics" viewBox="-61.4 -50.6 150.4 139.8">
	<path class="st1" d="M-50.9,54.4c0.9,0.6,3.2,0.5,4,0.5c1.7,0,4.6,5.2,9.1,4.9s7.3-5,8.5-5.1c1.2-0.1,6.6,0,6.6,0s2.1,3.8,4.1,3.3
		c2-0.4,2.5-2.6,3.1-3.2c0.5-0.6,5.8,0.1,6.7-0.3c0.9-0.4,1.8-3.3,2.2-3.8c0.4-0.4,2.1,32.3,2.2,33.1c0.1,0.9,2.7-42.2,2.7-43.2
		c0-1,2.1,12.1,2.9,13.6c0.9,1.5,7.4,0.2,9.1,0.3c1.7,0.1,4.6,5.2,9.1,4.9c4.6-0.3,7.9-4.8,8.7-4.9c0.9-0.1,6.6,0,6.6,0
		s2.1,3.8,4.1,3.3c2-0.4,2.4-2.5,4.3-3.6"/>
	<path class="st0" d="M55.7,69.3c0,0-58.9,46.4-116.3-4.6l36.9-39.1c0,0,19.8,19.5,45,2.3L55.7,69.3z"/>
	<path class="st0" d="M73.1-49.9c0,0,42.9,63-14.4,117.1L24.2,25.3c0,0,20.8-18.5,4.8-44.5L73.1-49.9z"/>
	<path class="st2" d="M56.5-20.3c-1.6,0.9-6.9-0.2-9.5,2.2c-2.1,2,3.6,1.8-0.6,5.2C42.3-9.3,37.8,0,37,3.4
		c-0.9,3.4,0.4,7.9,1.7,11.4c1.3,3.5,4.7,12,7.6,15.4c2.8,3.3,9.3,10.7,15,13.9c10.6,5.9,15-4.5,17.2-10.7c3-8.6,3.4-26.2,3.4-28.6
		c0.1-2.4,2.8-2.9,3.3-4.9c0.5-1.9-2.4-2.9-3.4-4C81-5,78-7.1,77-8.4c-1.6-2.1-4.5-2.9-5.1-3.5C70.5-13.4,64.3-24.4,56.5-20.3z
		 M46.1,25.6c-1.5-2.8-3.3-5.5-3.4-7.8c0-2.2,0.5-2.1,2.5-3.6c1.9-1.5,3.5-0.5,3.7-0.8c0.5-0.7-1.4-2.8-4.9-0.3
		c-1.7,1.2-2.8-3.3-4.1-5.7s1.6-8.9,4-12.6c2.4-3.7,5.6-3.9,7.4-4.3c1.8-0.4,2.2,5.2,2.7,6.5c0.5,1.3,2,6.7,1.5,8
		c-0.4,1.3,0,2.4-1.9,3.3c-2,1-2.4,1.1-3.2,2.7c-0.7,1.6,0,1.9,0.4,1.4c1.1-1.6,4.1-3,4.1-1.8s2.1,10.1,2.4,12.7
		c0.3,2.7,2.1,7.2,3.6,10.6c1.6,3.4,2.7,7.9,0.8,7.4C57.6,40.4,47.6,28.4,46.1,25.6z M64.5,36.1c-0.7-1.5-2.3-4.8-2.8-7.1
		c-0.5-2.3-0.3-8.8-0.9-12.1c-0.5-3.3-3.5-8.2-3.2-9.8c0.3-1.5,0.6-3.2,1.8-3.8c1.3-0.7,4.7-1.9,6.7-0.8c2,1.1-0.7-2.2-1.7-2.4
		c-1.1-0.2-2.3,0.3-3.9,0.1C58.8,0.1,55-9.7,54-11.4c-1-1.7-1.1-3.9,1-5.3c2.1-1.4,6.7-0.9,9.3,0.6C66.8-14.6,69.5-9,72.2-6
		c2.7,2.9,3.9,6.3,1.9,6.5c-2.1,0.2-4.7-0.3-5.5,1.4c-0.8,1.7-0.4,1.6,1,0.8c1.5-0.8,3.8-0.8,4.5,0c0.6,0.9,1.3,1.1,2.3,2.5
		c1,1.4,1.6,8.2,1,13c-0.6,4.8-3.6,12-5.2,13.8C70.5,33.8,66.2,39.8,64.5,36.1z"/>
	<path class="st3" d="M41.5-22.6c-0.5,0.1-0.8,0.6-0.8,1.1C40.4-4.6,40.1,20.9,39.8,23c-0.1,0.2-0.1,0.4,0,0.6
		c0.1,0.6,0.7,1,1.4,0.9c0.1,0,0.2,0,0.2,0c1.6-0.3,6.1,0.2,8.7,4.1c0.2,0.3,0.5,0.5,0.8,0.5c0.3,0,0.7-0.1,0.9-0.3L86.1-0.5
		c0.5-0.4,0.5-1.1,0.1-1.6C86-2.3,68.3-23.3,41.8-22.6C41.7-22.6,41.6-22.6,41.5-22.6 M42.2,22.1c0.1-1.2,0.1-3,0.2-5.7
		c0.1-4.2,0.2-9.8,0.3-15.4c0.1-9.1,0.3-18.1,0.3-21.3c21.8,0,37.2,15,40.7,18.8L51.3,26.2C48.6,23,44.7,22.1,42.2,22.1"/>
	<path class="st0" d="M41.5-22.6c-0.5,0.1-0.8,0.6-0.8,1.1C40.4-4.6,40.1,20.9,39.8,23c-0.1,0.2-0.1,0.4,0,0.6
		c0.1,0.6,0.7,1,1.4,0.9c0.1,0,0.2,0,0.2,0c1.6-0.3,6.1,0.2,8.7,4.1c0.2,0.3,0.5,0.5,0.8,0.5c0.3,0,0.7-0.1,0.9-0.3L86.1-0.5
		c0.5-0.4,0.5-1.1,0.1-1.6C86-2.3,68.3-23.3,41.8-22.6C41.7-22.6,41.6-22.6,41.5-22.6z M42.2,22.1c0.1-1.2,0.1-3,0.2-5.7
		c0.1-4.2,0.2-9.8,0.3-15.4c0.1-9.1,0.3-18.1,0.3-21.3c21.8,0,37.2,15,40.7,18.8L51.3,26.2C48.6,23,44.7,22.1,42.2,22.1z"/>
</symbol>
<symbol  id="_x33_-5_years" viewBox="-111.1 -111.3 222.2 222.1">
	<path class="st0" d="M0,110.1c61.1,0,110.6-49.5,110.6-110.5S61.1-110.8,0-110.8c-61.1,0-110.6,49.5-110.6,110.5
		S-61.1,110.1,0,110.1"/>
	
		<text transform="matrix(0.9373 0.3485 0.3485 -0.9373 -38.6765 86.9516)" class="st25" style="font-family:'FranklinGothic-Heavy'; font-size:18.9208px;">3</text>
	
		<text transform="matrix(0.9747 0.2236 0.2236 -0.9747 -24.168 91.8499)" class="st25" style="font-family:'FranklinGothic-Heavy'; font-size:18.9208px;">-</text>
	
		<text transform="matrix(0.9955 9.485000e-02 9.485000e-02 -0.9955 -14.8531 93.9601)" class="st25" style="font-family:'FranklinGothic-Heavy'; font-size:18.9208px;">5</text>
	
		<text transform="matrix(0.9982 -5.944000e-02 -5.944000e-02 -0.9982 0.4592 95.0359)" class="st25" style="font-family:'FranklinGothic-Heavy'; font-size:18.9209px;">y</text>
	
		<text transform="matrix(0.9868 -0.162 -0.162 -0.9868 9.4664 94.5515)" class="st25" style="font-family:'FranklinGothic-Heavy'; font-size:18.9208px;">e</text>
	
		<text transform="matrix(0.962 -0.2732 -0.2732 -0.962 20.1352 92.7738)" class="st25" style="font-family:'FranklinGothic-Heavy'; font-size:18.9208px;">a</text>
	
		<text transform="matrix(0.9323 -0.3618 -0.3618 -0.9323 30.4781 89.8533)" class="st25" style="font-family:'FranklinGothic-Heavy'; font-size:18.9209px;">r</text>
	
		<text transform="matrix(0.897 -0.442 -0.442 -0.897 36.9621 87.3051)" class="st25" style="font-family:'FranklinGothic-Heavy'; font-size:18.9208px;">s</text>
</symbol>
<symbol  id="DNA" viewBox="-49 -18.9 98 39.1">
	<path class="st4" d="M-47.6,18.4c8.5,0,15-2.6,20.4-8.1l-4-6.3c-4.4,5-9.4,7.2-16.5,7.2c-0.2,0.1-0.9,1.3-0.9,3.6
		C-48.5,17.1-47.9,18.3-47.6,18.4L-47.6,18.4"/>
	<path class="st4" d="M-0.1-18.9c-9.2,0-16.2,3-22,9.5l5,6.8c4.6-5.7,9.5-8.1,17-8.1c9.4,0,15.6,4,20.1,12.9c6,11.9,15.3,18,27.6,18
		c0.8,0,1.4-1.8,1.4-4.1c0-2.3-0.6-4.1-1.4-4.1c-9.2,0-15.6-4.3-20.3-13.5C21.5-13,12.2-18.9-0.1-18.9"/>
	<path class="st4" d="M47.6-18.9c-8.9,0-16.2,3.2-21.8,9.4L30.3-2c4.3-5.8,10-8.6,17.3-8.6c0.8,0,1.4-1.8,1.4-4.1
		C49-17,48.4-18.9,47.6-18.9"/>
	<path class="st4" d="M-47.6-17.5c-0.8,0-1.4,1.8-1.4,4.1c0,1.1,0.2,2.2,0.4,3c0.2,0.4,0.5,1.1,1,1.1c10.3,0,15.2,4.7,20.3,12.8
		c5.4,8.7,12.4,16.7,27.2,16.7c9.1,0,16.5-3.2,22.1-9.5l-4.6-7.4c-4.2,5.9-9.8,8.6-17.5,8.6c-10.3,0-15.2-4.7-20.3-12.8
		C-25.8-9.4-32.8-17.5-47.6-17.5"/>
	<path class="st4" d="M-1.2-16.2c-1.3,0-2.3,1-2.3,2.3V14c0,1.3,1,2.3,2.3,2.3c1.3,0,2.3-1,2.3-2.3v-27.8
		C1.2-15.1,0.1-16.2-1.2-16.2"/>
	<path class="st4" d="M9-6.1c-0.6,0-0.9,0.4-0.9,0.8v18.7c0,1.3,1,2.3,2.3,2.3c1.3,0,2.3-1,2.3-2.3V-3.3C12.8-4.6,10-6.1,9-6.1"/>
	<path class="st4" d="M-11.2-13.6c-1.3,0-2.3,1-2.3,2.3V4.4c0,1.2,2.8,2.8,3.8,2.8c0.6,0,0.9-0.4,0.9-0.8v-17.7
		C-8.9-12.6-9.9-13.6-11.2-13.6"/>
	<path class="st4" d="M-44.7-14.6c-1.3,0-2.3,1-2.3,2.3v24.2c0,1.3,1,2.3,2.3,2.3c1.3,0,2.3-1,2.3-2.3v-24.2
		C-42.4-13.5-43.4-14.6-44.7-14.6"/>
	<path class="st4" d="M-38.1-5.1c-0.4,0-0.7,0.3-0.7,0.7V9.8c0,1.3,1,2.3,2.3,2.3c1.3,0,2.3-1,2.3-2.3V-1.3
		C-34.1-2.5-37-5.1-38.1-5.1"/>
	<path class="st4" d="M43.9-16.2c-1.3,0-2.3,1-2.3,2.3V14c0,1.3,1,2.3,2.3,2.3c1.3,0,2.3-1,2.3-2.3v-27.8
		C46.2-15.1,45.2-16.2,43.9-16.2"/>
	<path class="st4" d="M34.8-12.6c-1.3,0-2.3,1-2.3,2.3V2.5c0,1.2,2.9,3.7,4,3.7c0.4,0,0.7-0.3,0.7-0.7v-15.8
		C37.2-11.6,36.1-12.6,34.8-12.6"/>
</symbol>
<symbol  id="DNA_solid" viewBox="-49.5 -19.4 99 40.1">
	<path class="st5" d="M-47.6,18.4c8.5,0,15-2.6,20.4-8.1l-4-6.3c-4.4,5-9.4,7.2-16.5,7.2c-0.2,0.1-0.9,1.3-0.9,3.6
		C-48.5,17.1-47.9,18.3-47.6,18.4L-47.6,18.4"/>
	<path class="st5" d="M-0.1-18.9c-9.2,0-16.2,3-22,9.5l5,6.8c4.6-5.7,9.5-8.1,17-8.1c9.4,0,15.6,4,20.1,12.9c6,11.9,15.3,18,27.6,18
		c0.8,0,1.4-1.8,1.4-4.1c0-2.3-0.6-4.1-1.4-4.1c-9.2,0-15.6-4.3-20.3-13.5C21.5-13,12.2-18.9-0.1-18.9"/>
	<path class="st5" d="M47.6-18.9c-8.9,0-16.2,3.2-21.8,9.4L30.3-2c4.3-5.8,10-8.6,17.3-8.6c0.8,0,1.4-1.8,1.4-4.1
		C49-17,48.4-18.9,47.6-18.9"/>
	<path class="st5" d="M-47.6-17.5c-0.8,0-1.4,1.8-1.4,4.1c0,1.1,0.2,2.2,0.4,3c0.2,0.4,0.5,1.1,1,1.1c10.3,0,15.2,4.7,20.3,12.8
		c5.4,8.7,12.4,16.7,27.2,16.7c9.1,0,16.5-3.2,22.1-9.5l-4.6-7.4c-4.2,5.9-9.8,8.6-17.5,8.6c-10.3,0-15.2-4.7-20.3-12.8
		C-25.8-9.4-32.8-17.5-47.6-17.5"/>
	<path class="st6" d="M-1.2-16.2c-1.3,0-2.3,1-2.3,2.3V14c0,1.3,1,2.3,2.3,2.3c1.3,0,2.3-1,2.3-2.3v-27.8
		C1.2-15.1,0.1-16.2-1.2-16.2"/>
	<path class="st6" d="M9-6.1c-0.6,0-0.9,0.4-0.9,0.8v18.7c0,1.3,1,2.3,2.3,2.3c1.3,0,2.3-1,2.3-2.3V-3.3C12.8-4.6,10-6.1,9-6.1"/>
	<path class="st6" d="M-11.2-13.6c-1.3,0-2.3,1-2.3,2.3V4.4c0,1.2,2.8,2.8,3.8,2.8c0.6,0,0.9-0.4,0.9-0.8v-17.7
		C-8.9-12.6-9.9-13.6-11.2-13.6"/>
	<path class="st6" d="M-44.7-14.6c-1.3,0-2.3,1-2.3,2.3v24.2c0,1.3,1,2.3,2.3,2.3c1.3,0,2.3-1,2.3-2.3v-24.2
		C-42.4-13.5-43.4-14.6-44.7-14.6"/>
	<path class="st6" d="M-38.1-5.1c-0.4,0-0.7,0.3-0.7,0.7V9.8c0,1.3,1,2.3,2.3,2.3c1.3,0,2.3-1,2.3-2.3V-1.3
		C-34.1-2.5-37-5.1-38.1-5.1"/>
	<path class="st6" d="M43.9-16.2c-1.3,0-2.3,1-2.3,2.3V14c0,1.3,1,2.3,2.3,2.3c1.3,0,2.3-1,2.3-2.3v-27.8
		C46.2-15.1,45.2-16.2,43.9-16.2"/>
	<path class="st6" d="M34.8-12.6c-1.3,0-2.3,1-2.3,2.3V2.5c0,1.2,2.9,3.7,4,3.7c0.4,0,0.7-0.3,0.7-0.7v-15.8
		C37.2-11.6,36.1-12.6,34.8-12.6"/>
</symbol>
<symbol  id="hcm_x5F_dna" viewBox="-49.9 -21.7 98 44.9">
	
		<use xlink:href="#DNA"  width="98" height="39.1" x="-49" y="-18.9" transform="matrix(1 0 0 1 -0.9413 -2.8498)" style="overflow:visible;"/>
	<path class="st7" d="M-20.8-4.6C-24.2-4.7-27.5-3-29.5,0c-2.9,4.6-1.6,10.8,3.1,13.7c9.4,6,20.2,9,33,9.4c5.5,0.2,10-4.1,10.2-9.6
		c0.2-5.5-4.1-10-9.6-10.2C-2,3.1-9.5,1-15.8-3C-17.4-4-19.1-4.5-20.8-4.6"/>
	<text transform="matrix(0.8848 0.466 0.466 -0.8848 -20.2426 -0.5067)" class="st3 st26" style="font-size:16px;">H</text>
	<text transform="matrix(0.9609 0.2769 0.2769 -0.9609 -11.5657 4.0552)" class="st3 st26" style="font-size:16px;">C</text>
	<text transform="matrix(0.9963 8.634000e-02 8.634000e-02 -0.9963 -2.3859 6.8967)" class="st3 st26" style="font-size:16px;">M</text>
</symbol>
<symbol  id="heart1_x5F_closed" viewBox="-30.6 -42.1 61.2 84.1">
	<path class="st8" d="M0.3-4.8c1.5-0.8,2.9-3.9,4.5-7.7c1.1-2.5,2.3-5.2,3.7-7.6c3.7-6.2,14.7-17.5,14.8-17.6l0.2-0.2l-0.2-0.2
		c-2.6-2.5-6.5-3.5-10.9-3.5c-10.1,0-22.7,5.1-27,7.8c-7.4,4.7-6.2,6.5-6,8.5c0,0,6.9,3.2,10.9,7.5C-5.2-12.8,0.3-4.8,0.3-4.8"/>
	<path class="st9" d="M0.3-4.8c1.5-0.8,2.9-3.9,4.5-7.7c1.1-2.5,2.3-5.2,3.7-7.6c3.7-6.2,14.7-17.5,14.8-17.6l0.2-0.2l-0.2-0.2
		c-2.6-2.5-6.5-3.5-10.9-3.5c-10.1,0-22.7,5.1-27,7.8c-7.4,4.7-6.2,6.5-6,8.5c0,0,6.9,3.2,10.9,7.5C-5.2-12.8,0.3-4.8,0.3-4.8z"/>
	<path class="st10" d="M-20,4.9c-3.3,0.2-4.9-0.2-4.9-0.2c0.7,5.2,7,23.4,7.2,25.9c0,0.5,0.4,1.1,1.8,1.6c2.6,0.9,7.4,0.8,8.6-0.5
		c0.3-0.4,0.4-0.8,0.2-1.2c-0.6-1.4-1.2-5.2-1.9-9.3C-9.5,17.8-10.7,3.8-11.1,1C-11.6-2.8-16.8,4.7-20,4.9"/>
	<path class="st11" d="M-20,4.9c-3.3,0.2-4.9-0.2-4.9-0.2c0.7,5.2,7,23.4,7.2,25.9c0,0.5,0.4,1.1,1.8,1.6c2.6,0.9,7.4,0.8,8.6-0.5
		c0.3-0.4,0.4-0.8,0.2-1.2c-0.6-1.4-1.2-5.2-1.9-9.3C-9.5,17.8-10.7,3.8-11.1,1C-11.6-2.8-16.8,4.7-20,4.9z"/>
	<path class="st12" d="M-11.1-0.6C-11.4-4.8-2.2-5.3,1-5c0,0-8.2-9.8-10.7-12.8c-2.5-2.9-10.1-7.5-10.1-7.5c-3-1-5.9,0.9-6.9,3
		c-0.4,0.8-0.5,3.3-1.7,4.8C-31-14.5-30.2-8.6-28.9-4c0.2,0.8,2.8,6.5,4.5,9.9c0,0,2.6,1.3,5.5,1.1C-16.1,6.7-11,0.3-11.1-0.6"/>
	<path class="st11" d="M-11.1-0.6C-11.4-4.8-2.2-5.3,1-5c0,0-8.2-9.8-10.7-12.8c-2.5-2.9-10.1-7.5-10.1-7.5c-3-1-5.9,0.9-6.9,3
		c-0.4,0.8-0.5,3.3-1.7,4.8C-31-14.5-30.2-8.6-28.9-4c0.2,0.8,2.8,6.5,4.5,9.9c0,0,2.6,1.3,5.5,1.1C-16.1,6.7-11,0.3-11.1-0.6z"/>
	<path class="st13" d="M25-10.4l-0.2,0.2C20.7-6.1,2.3-6.9,2.1-6.9L2-6.9L1-5.1c1.6,3.1,1.9,4,2.6,8.3C3.7,3.5,4,7.9,4.1,8
		c0.6,2,9.4-0.1,11.2-0.6c3-0.8,8.5-1.9,11.3-1.3c1.7,0.4,2.9-0.7,3.3-1.9c0.3-1,0.1-2-0.7-2.3c-0.3-0.1-0.6-0.3-0.8-0.4
		c-0.6-0.3-1.2-0.6-1.8-0.7c0.3-0.3,1.3-1.1,2-1.5c1-0.6,1.5-1.7,1.2-2.9c-0.4-1.6-2.1-3.3-5-3.5c-0.3,0-0.3-0.1-0.4-0.2
		c-0.1-0.1-0.2-0.7,0.8-2.6c0-0.1,0.2-0.3,0-0.4L25-10.4z"/>
	<path class="st11" d="M25-10.4l-0.2,0.2C20.7-6.1,2.3-6.9,2.1-6.9L2-6.9L1-5.1c1.6,3.1,1.9,4,2.6,8.3C3.7,3.5,4,7.9,4.1,8
		c0.6,2,9.4-0.1,11.2-0.6c3-0.8,8.5-1.9,11.3-1.3c1.7,0.4,2.9-0.7,3.3-1.9c0.3-1,0.1-2-0.7-2.3c-0.3-0.1-0.6-0.3-0.8-0.4
		c-0.6-0.3-1.2-0.6-1.8-0.7c0.3-0.3,1.3-1.1,2-1.5c1-0.6,1.5-1.7,1.2-2.9c-0.4-1.6-2.1-3.3-5-3.5c-0.3,0-0.3-0.1-0.4-0.2
		c-0.1-0.1-0.2-0.7,0.8-2.6c0-0.1,0.2-0.3,0-0.4L25-10.4z"/>
	<path class="st14" d="M22.4-9.1c0,0,2.6-2.4,3.1-6.1c0.5-3.7,1.9-18.6,0.4-20.7c-1.5-2.1-3.3-3.7-5.2-3.3c-1.9,0.4-19,20-20.9,23.3
		C-2.1-12.6-3-4.6,4-4.4C11-4.1,22.4-9.1,22.4-9.1"/>
	<path class="st9" d="M22.4-9.1c0,0,2.6-2.4,3.1-6.1c0.5-3.7,1.9-18.6,0.4-20.7c-1.5-2.1-3.3-3.7-5.2-3.3c-1.9,0.4-19,20-20.9,23.3
		C-2.1-12.6-3-4.6,4-4.4C11-4.1,22.4-9.1,22.4-9.1z"/>
	<path class="st15" d="M11.8-9.4c0.4-0.1,3.7-7.7,8.7-16.1c0.8-1.3-0.6,12.6-1.5,14C18-10,10.6-8.9,11.8-9.4"/>
	<path class="st16" d="M-4.5-7C-4.9-7-5.3-7-5.7-7c-7.5,0.9-6,15.2-5.5,19.8c0.1,0.5,0.1,1,0.1,1.3c0.3,4.9,3.2,10,4.9,13
		c0.4,0.7,0.7,1.3,0.9,1.7c1.1,2.2,0,7.2-0.6,9.7c-0.1,0.4-0.2,0.9-0.2,1c0,2,2.6,2,2.9,2c1,0,1.7-0.3,1.8-0.5c0,0,0.1-0.3,0.2-0.7
		c0.7-3.1,1.6-6.4,3.3-6.4c0.3,0,0.7,0.1,1,0.4c1.6,1.4,1.4,3,1.3,4.2c0,0.6-0.1,1.1,0.1,1.5c0.2,0.5,1.1,0.8,2.1,0.8
		c0.8,0,1.5-0.2,1.9-0.6c0.6-0.7,0.5-4.5,0.5-5.7c0-1,0-1.1,0.1-1.3l0.1-0.2l0.6,0l0.1,0.5c0,0.1,0.1,0.3,0.1,0.6
		c0.2,0.8,0.7,3.3,1.4,3.4c0.1,0,0.3,0,0.4,0c1.1,0,2.8-0.6,2.9-1.8c0.1-0.9-0.1-2-0.2-3c-0.1-0.7-0.2-1.4-0.2-1.9
		c0-0.6,0.4-1.1,0.9-1.8c1-1.4,2.5-3.4,3-7.8c0.5-4.7-1.4-11.8-2-13.6c-4.1,1.1-8,1.7-10.1,1.7c-1.2,0-2-0.9-2-1.3
		C4,3.9,3.4-7-4.5-7L-4.5-7z"/>
	<path class="st15" d="M4.6,6.7c0,0,0.7,6.7,1.2,8.6c0.5,1.9,1.9,3.4,2.8,3.4c0.9-0.1,3.3,2.3-0.7,0.9C3.9,18.1,3.7,8,3.7,8
		C3.4,1.8,2.2-6.5-4.5-6.5c-0.3,0-0.7,0-1.1,0.1c-7,0.8-5.6,14.7-5.1,19.3c0.1,0.5,0.1,1,0.1,1.3c0.3,4.8,3.1,9.8,4.8,12.8
		c0.4,0.7,0.7,1.3,1,1.8c1.1,2.1,0.4,6-0.6,10c-0.1,0.4-0.2,0.8-0.2,0.9c0,1.4,2,1.5,2.4,1.5H-3c0.6,0,0.9-0.1,1.1-0.2
		c0-0.2,0.1-0.4,0.1-0.6c0.8-3.4,1.7-6.8,3.8-6.8c0.5,0,0.9,0.2,1.3,0.6c1.7,1.6,1.6,3.4,1.5,4.6c0,0.5-0.1,1,0,1.2
		c0.1,0.2,0.8,0.6,1.6,0.6c0.7,0,1.2-0.2,1.5-0.4c0.2-0.3,0.5-1.5,0.4-5.4c0-1.1,0-1.3,0.3-1.6L9,32.6h0.4c0.1,0,0.8,0,1,0.8
		c0,0.1,0.1,0.3,0.1,0.6c0.5,2.3,0.8,2.9,1,3c0.1,0,0.2,0,0.3,0c1,0,2.3-0.6,2.4-1.3c0.1-0.8-0.1-1.9-0.2-2.9
		c-0.1-0.7-0.2-1.4-0.2-2c0-0.8,0.4-1.3,1-2.1c1-1.3,2.4-3.3,2.9-7.5C18.2,17,16.5,10,15.9,7.8l0.9-0.2c0,0,2.5,8.1,1.9,13.8
		c-0.7,6.6-3.9,8.2-3.9,9.5c0,1.3,0.7,3.4,0.4,5c-0.2,1.4-2.1,2.2-3.4,2.2c-0.2,0-0.3,0-0.5,0c-1.3-0.2-1.7-3.5-2-4.3
		c0-0.1,0-0.1,0-0.1c-0.1,0,0.4,5.9-0.6,7c-0.5,0.5-1.4,0.8-2.2,0.8c-1.1,0-2.2-0.4-2.5-1.1c-0.6-1.3,0.9-3.6-1.3-5.5
		c-0.2-0.2-0.4-0.3-0.7-0.3c-1.8,0-2.8,6.6-3,6.9c-0.3,0.4-1.2,0.7-2.2,0.7c-1.6,0-3.4-0.7-3.4-2.5c0-0.5,2.2-7.8,0.9-10.4
		c-1.3-2.6-5.4-8.9-5.8-14.9c-0.2-3.1-3-20.6,5.8-21.7c0.4,0,0.8-0.1,1.2-0.1c8,0,8.9,10.1,9.2,14.7"/>
	<path class="st14" d="M-2.1,23.9c-2.3-1.5-6.1-8-5.4-16.2c0.7-8.2,2.4-1.9,2,1.9c-0.2,2.2-0.1,6.8,2.2,11.2
		C-2.1,23.2,0.3,25.4-2.1,23.9"/>
	<path class="st17" d="M-15.9,24.4c-1.1-2.2-3.4-11.1-3.8-13.4c-0.4-2.4,1.2-1.9,1.9,1C-17.1,14.7-14.5,27.2-15.9,24.4"/>
	<path class="st18" d="M-21.1,3c-1.3-2-1.9-1.7-3-3.6c-1.1-1.9-0.4-6.5,0.5-3.4C-22.8-0.8-19.7,5.1-21.1,3"/>
	<path class="st19" d="M2.9-7.2c-1.5-1.1-2.8-3.2,0.3-7.4c0.9-1.2,2.2-3.1,3.6-5c3.3-4.6,7-9.8,7.5-8.9c0.7,1.3-2.9,5.2-5.6,8.2
		C-0.7-10.3,4.1-6.3,2.9-7.2"/>
	<path class="st19" d="M20.8-12.7c-0.3-0.9,0.5-3.3,0.7-4.2c0.2-0.9,0.8-6.7,0.5-7.5c-0.3-0.9-0.6-3.7,0.3-1.7
		c0.9,2,0.8,4.5,0.3,6.9C22.1-16.9,21.4-10.7,20.8-12.7"/>
</symbol>
<symbol  id="heart2" viewBox="-30.6 -42.1 61.2 84.1">
	<path class="st8" d="M0.3-4.8c1.5-0.8,2.9-3.9,4.5-7.7c1.1-2.5,2.3-5.2,3.7-7.6c3.7-6.2,14.7-17.5,14.8-17.6l0.2-0.2l-0.2-0.2
		c-2.6-2.5-6.5-3.5-10.9-3.5c-10.1,0-22.7,5.1-27,7.8c-7.4,4.7-6.2,6.5-6,8.5c0,0,6.9,3.2,10.9,7.5C-5.2-12.8,0.3-4.8,0.3-4.8"/>
	<path class="st9" d="M0.3-4.8c1.5-0.8,2.9-3.9,4.5-7.7c1.1-2.5,2.3-5.2,3.7-7.6c3.7-6.2,14.7-17.5,14.8-17.6l0.2-0.2l-0.2-0.2
		c-2.6-2.5-6.5-3.5-10.9-3.5c-10.1,0-22.7,5.1-27,7.8c-7.4,4.7-6.2,6.5-6,8.5c0,0,6.9,3.2,10.9,7.5C-5.2-12.8,0.3-4.8,0.3-4.8z"/>
	<path class="st10" d="M-20,4.9c-3.3,0.2-4.9-0.2-4.9-0.2c0.7,5.2,7,23.4,7.2,25.9c0,0.5,0.4,1.1,1.8,1.6c2.6,0.9,7.4,0.8,8.6-0.5
		c0.3-0.4,0.4-0.8,0.2-1.2c-0.6-1.4-1.2-5.2-1.9-9.3C-9.5,17.8-10.7,3.8-11.1,1C-11.6-2.8-16.8,4.7-20,4.9"/>
	<path class="st11" d="M-20,4.9c-3.3,0.2-4.9-0.2-4.9-0.2c0.7,5.2,7,23.4,7.2,25.9c0,0.5,0.4,1.1,1.8,1.6c2.6,0.9,7.4,0.8,8.6-0.5
		c0.3-0.4,0.4-0.8,0.2-1.2c-0.6-1.4-1.2-5.2-1.9-9.3C-9.5,17.8-10.7,3.8-11.1,1C-11.6-2.8-16.8,4.7-20,4.9z"/>
	<path class="st12" d="M-11.1-0.6C-11.4-4.8-2.2-5.3,1-5c0,0-8.2-9.8-10.7-12.8c-2.5-2.9-10.1-7.5-10.1-7.5c-3-1-5.9,0.9-6.9,3
		c-0.4,0.8-0.5,3.3-1.7,4.8C-31-14.5-30.2-8.6-28.9-4c0.2,0.8,2.8,6.5,4.5,9.9c0,0,2.6,1.3,5.5,1.1C-16.1,6.7-11,0.3-11.1-0.6"/>
	<path class="st11" d="M-11.1-0.6C-11.4-4.8-2.2-5.3,1-5c0,0-8.2-9.8-10.7-12.8c-2.5-2.9-10.1-7.5-10.1-7.5c-3-1-5.9,0.9-6.9,3
		c-0.4,0.8-0.5,3.3-1.7,4.8C-31-14.5-30.2-8.6-28.9-4c0.2,0.8,2.8,6.5,4.5,9.9c0,0,2.6,1.3,5.5,1.1C-16.1,6.7-11,0.3-11.1-0.6z"/>
	<path class="st13" d="M25-10.4l-0.2,0.2C20.7-6.1,2.3-6.9,2.1-6.9L2-6.9L1-5.1c1.6,3.1,1.9,4,2.6,8.3C3.7,3.5,4,7.9,4.1,8
		c0.6,2,9.4-0.1,11.2-0.6c3-0.8,8.5-1.9,11.3-1.3c1.7,0.4,2.9-0.7,3.3-1.9c0.3-1,0.1-2-0.7-2.3c-0.3-0.1-0.6-0.3-0.8-0.4
		c-0.6-0.3-1.2-0.6-1.8-0.7c0.3-0.3,1.3-1.1,2-1.5c1-0.6,1.5-1.7,1.2-2.9c-0.4-1.6-2.1-3.3-5-3.5c-0.3,0-0.3-0.1-0.4-0.2
		c-0.1-0.1-0.2-0.7,0.8-2.6c0-0.1,0.2-0.3,0-0.4L25-10.4z"/>
	<path class="st11" d="M25-10.4l-0.2,0.2C20.7-6.1,2.3-6.9,2.1-6.9L2-6.9L1-5.1c1.6,3.1,1.9,4,2.6,8.3C3.7,3.5,4,7.9,4.1,8
		c0.6,2,9.4-0.1,11.2-0.6c3-0.8,8.5-1.9,11.3-1.3c1.7,0.4,2.9-0.7,3.3-1.9c0.3-1,0.1-2-0.7-2.3c-0.3-0.1-0.6-0.3-0.8-0.4
		c-0.6-0.3-1.2-0.6-1.8-0.7c0.3-0.3,1.3-1.1,2-1.5c1-0.6,1.5-1.7,1.2-2.9c-0.4-1.6-2.1-3.3-5-3.5c-0.3,0-0.3-0.1-0.4-0.2
		c-0.1-0.1-0.2-0.7,0.8-2.6c0-0.1,0.2-0.3,0-0.4L25-10.4z"/>
	<path class="st14" d="M22.4-9.1c0,0,2.6-2.4,3.1-6.1c0.5-3.7,1.9-18.6,0.4-20.7c-1.5-2.1-3.2-3.7-5.2-3.2c-1.9,0.4-19,20-20.9,23.3
		S-3-4.6,4-4.4C11-4.1,22.4-9.1,22.4-9.1"/>
	<path class="st9" d="M22.4-9.1c0,0,2.6-2.4,3.1-6.1c0.5-3.7,1.9-18.6,0.4-20.7c-1.5-2.1-3.2-3.7-5.2-3.2c-1.9,0.4-19,20-20.9,23.3
		S-3-4.6,4-4.4C11-4.1,22.4-9.1,22.4-9.1z"/>
	<path class="st16" d="M-4.5-7C-4.9-7-5.3-7-5.7-7c-7.5,0.9-6,15.2-5.5,19.8c0.1,0.5,0.1,1,0.1,1.3c0.3,4.9,3.2,10,4.9,13
		c0.4,0.7,0.7,1.3,0.9,1.7c1.1,2.2,0,7.2-0.6,9.7c-0.1,0.4-0.2,0.9-0.2,1c0,2,2.6,2,2.9,2c1,0,1.7-0.3,1.8-0.5c0,0,0.1-0.3,0.2-0.7
		c0.7-3.1,1.6-6.4,3.3-6.4c0.3,0,0.7,0.1,1,0.4c1.6,1.4,1.4,3,1.3,4.2c0,0.6-0.1,1.1,0.1,1.5c0.2,0.5,1.1,0.8,2.1,0.8
		c0.8,0,1.5-0.2,1.9-0.6c0.6-0.7,0.5-4.5,0.5-5.7c0-1,0-1.1,0.1-1.3l0.1-0.2l0.6,0l0.1,0.5c0,0.1,0.1,0.3,0.1,0.6
		c0.2,0.8,0.7,3.3,1.4,3.4c0.1,0,0.3,0,0.4,0c1.1,0,2.8-0.6,2.9-1.8c0.1-0.9-0.1-2-0.2-3c-0.1-0.7-0.2-1.4-0.2-1.9
		c0-0.6,0.4-1.1,0.9-1.8c1-1.4,2.5-3.4,3-7.8c0.5-4.7-1.4-11.8-2-13.6c-4.1,1.1-8,1.7-10.1,1.7c-1.2,0-2-0.9-2-1.3
		C4,3.9,3.4-7-4.5-7L-4.5-7z"/>
	<path class="st15" d="M4.6,6.7c0,0,0.7,6.7,1.2,8.6c0.5,1.9,1.9,3.4,2.8,3.4c0.9-0.1,3.3,2.3-0.7,0.9C3.9,18.1,3.7,8,3.7,8
		C3.4,1.8,2.2-6.5-4.5-6.5c-0.3,0-0.7,0-1.1,0.1c-7,0.8-5.6,14.7-5.1,19.3c0.1,0.5,0.1,1,0.1,1.3c0.3,4.8,3.1,9.8,4.8,12.8
		c0.4,0.7,0.7,1.3,1,1.8c1,2.1,0.3,6-0.6,10c-0.1,0.4-0.2,0.8-0.2,0.9c0,1.4,2,1.5,2.4,1.5H-3c0.6,0,0.9-0.1,1.1-0.2
		c0-0.2,0.1-0.4,0.1-0.6c0.8-3.4,1.7-6.8,3.8-6.8c0.5,0,0.9,0.2,1.3,0.6c1.7,1.6,1.6,3.4,1.5,4.6c0,0.5-0.1,1,0,1.2
		c0.1,0.2,0.8,0.6,1.6,0.6c0.7,0,1.2-0.2,1.5-0.4c0.2-0.3,0.5-1.5,0.4-5.4c0-1.1,0-1.3,0.3-1.6L9,32.6h0.4c0.1,0,0.8,0,1,0.8
		c0,0.1,0.1,0.3,0.1,0.6c0.5,2.3,0.8,2.9,1,3c0.1,0,0.2,0,0.3,0c1,0,2.3-0.6,2.4-1.3c0.1-0.8-0.1-1.9-0.2-2.9
		c-0.1-0.7-0.2-1.4-0.2-2c0-0.8,0.4-1.3,1-2.1c1-1.3,2.4-3.3,2.9-7.5C18.2,17,16.5,10,15.9,7.8l0.9-0.2c0,0,2.5,8.1,1.9,13.8
		c-0.7,6.6-3.9,8.2-3.9,9.5c0,1.3,0.7,3.4,0.4,5c-0.2,1.4-2.1,2.2-3.4,2.2c-0.2,0-0.3,0-0.5,0c-1.3-0.2-1.7-3.5-1.9-4.3
		c0-0.1,0-0.1,0-0.1c-0.1,0,0.4,5.9-0.6,7c-0.5,0.5-1.4,0.8-2.2,0.8c-1.1,0-2.2-0.4-2.5-1.1c-0.6-1.3,0.9-3.6-1.3-5.5
		c-0.2-0.2-0.4-0.3-0.7-0.3c-1.8,0-2.8,6.6-3,6.9c-0.3,0.4-1.2,0.7-2.2,0.7c-1.6,0-3.4-0.7-3.4-2.5c0-0.5,2.2-7.8,0.9-10.4
		c-1.3-2.6-5.4-8.9-5.8-14.9c-0.2-3.1-3-20.6,5.8-21.7c0.4,0,0.8-0.1,1.2-0.1c8,0,8.9,10.1,9.2,14.7"/>
	<path class="st14" d="M-2.1,23.9c-2.3-1.5-6.1-8-5.4-16.2c0.7-8.2,2.4-1.9,2,1.9c-0.2,2.2-0.1,6.8,2.2,11.2
		C-2.1,23.2,0.3,25.4-2.1,23.9"/>
	<path class="st17" d="M-15.9,24.4c-1.1-2.2-3.4-11.1-3.8-13.4c-0.4-2.4,1.2-1.9,1.9,1C-17.1,14.7-14.5,27.2-15.9,24.4"/>
	<path class="st18" d="M-21.1,2.9c-1.3-2-1.9-1.7-3-3.6c-1.1-1.9-0.4-6.5,0.5-3.4C-22.8-0.8-19.7,5.1-21.1,2.9"/>
	<path class="st15" d="M3-5.6c-3.9-4.6,10.8-24.6,18.4-28c5.4-2.4,0.7,22.3-0.2,23.7C19.8-7.7,5.7-2.3,3-5.6"/>
</symbol>
<symbol  id="pretest_x5F_genetic_x5F_counceling" viewBox="-137.3 -138 274.7 276">
	<ellipse class="st20" cx="0" cy="0" rx="124.8" ry="125.5"/>
	<text transform="matrix(0.8958 -0.4641 -0.4599 -0.888 -63.2706 -115.0186)" class="st3 st26" style="font-size:20.4502px;">P</text>
	<text transform="matrix(0.9336 -0.3824 -0.379 -0.9254 -51.4165 -120.8845)" class="st3 st26" style="font-size:20.4505px;">r</text>
	<text transform="matrix(0.9607 -0.3078 -0.3052 -0.9523 -44.2107 -123.9322)" class="st3 st26" style="font-size:20.4505px;">e</text>
	<text transform="matrix(0.982 -0.2311 -0.2292 -0.9734 -33.0414 -127.4218)" class="st3 st26" style="font-size:20.4504px;">t</text>
	<text transform="matrix(0.9973 -0.1525 -0.1514 -0.9885 -25.4658 -129.3091)" class="st3 st26" style="font-size:20.4501px;">e</text>
	
		<text transform="matrix(1.0072 -5.931558e-02 -5.915000e-02 -0.9983 -13.7064 -131.0005)" class="st3 st26" style="font-size:20.4495px;">s</text>
	
		<text transform="matrix(1.0088 1.994793e-02 1.933000e-02 -0.9998 -3.1091 -131.5137)" class="st3 st26" style="font-size:20.4488px;">t</text>
	
		<text transform="matrix(1.0062 7.650693e-02 7.532000e-02 -0.9972 4.6363 -131.3407)" class="st3 st26" style="font-size:20.4483px;"> </text>
	<text transform="matrix(0.9977 0.1512 0.1493 -0.9888 10.438 -130.9848)" class="st3 st26" style="font-size:20.4474px;">g</text>
	<text transform="matrix(0.9782 0.2485 0.2456 -0.9694 22.577 -129.0996)" class="st3 st26" style="font-size:20.4462px;">e</text>
	<text transform="matrix(0.9509 0.3385 0.3347 -0.9423 34.0033 -126.158)" class="st3 st26" style="font-size:20.445px;">n</text>
	<text transform="matrix(0.9179 0.4201 0.4155 -0.9096 45.3129 -122.065)" class="st3 st26" style="font-size:20.4438px;">e</text>
	<text transform="matrix(0.8881 0.4802 0.475 -0.88 55.9367 -117.1997)" class="st3 st26" style="font-size:20.4428px;">t</text>
	<text transform="matrix(0.8665 0.5182 0.5126 -0.8586 62.5631 -113.5284)" class="st3 st26" style="font-size:20.4422px;">i</text>
	<text transform="matrix(0.841 0.5588 0.5529 -0.8333 67.6317 -110.4852)" class="st3 st26" style="font-size:20.4415px;">c</text>
	<text transform="matrix(0.8143 0.5972 0.5909 -0.8068 76.7237 -104.4013)" class="st3 st26" style="font-size:20.4409px;"> </text>
	<text transform="matrix(0.7816 0.6394 0.6327 -0.7744 81.3624 -101.1463)" class="st3 st26" style="font-size:20.4402px;">c</text>
	<text transform="matrix(0.7261 0.702 0.6946 -0.7194 90.0483 -93.9375)" class="st3 st26" style="font-size:20.4392px;">o</text>
	<text transform="matrix(0.6547 0.7692 0.7612 -0.6485 98.5896 -85.7083)" class="st3 st26" style="font-size:20.4381px;">u</text>
	<text transform="matrix(0.5675 0.8357 0.8271 -0.5621 106.414 -76.4782)" class="st3 st26" style="font-size:20.4372px;">n</text>
	<text transform="matrix(0.4759 0.8911 0.882 -0.4712 113.2601 -66.2729)" class="st3 st26" style="font-size:20.4365px;">s</text>
	<text transform="matrix(0.3804 0.9359 0.9264 -0.3767 118.2447 -56.8244)" class="st3 st26" style="font-size:20.4362px;">e</text>
	<text transform="matrix(0.3053 0.963 0.9532 -0.3022 122.4876 -45.9441)" class="st3 st26" style="font-size:20.4362px;">l</text>
	<text transform="matrix(0.2569 0.977 0.9672 -0.2542 124.2751 -40.2903)" class="st3 st26" style="font-size:20.4362px;">i</text>
	<text transform="matrix(0.1862 0.9929 0.9829 -0.1841 125.9335 -34.3458)" class="st3 st26" style="font-size:20.4364px;">n</text>
	
		<text transform="matrix(9.927040e-02 1.0053 0.9952 -9.796000e-02 128.0907 -22.4705)" class="st3 st26" style="font-size:20.4369px;">g</text>
</symbol>
<symbol  id="vus_x5F_dna" viewBox="-8580.7 -8184.1 16383 16383">
	
		<use xlink:href="#DNA"  width="98" height="39.1" x="-49" y="-18.9" transform="matrix(1 0 0 1 0.7773 2.1874)" style="overflow:visible;"/>
	<g>
		<path d="M19.9,7.6c3.4,0.2,6.8-1.4,8.8-4.4c3-4.6,1.8-10.7-2.8-13.7c-9.3-6.2-20-9.5-32.8-10.1c-5.5-0.3-10.1,3.9-10.4,9.4
			c-0.3,5.5,3.9,10.1,9.4,10.4C1.3-0.4,8.7,1.8,15,5.9C16.5,7,18.2,7.5,19.9,7.6"/>
		<text transform="matrix(0.9916 0.1294 0.1294 -0.9916 -5.886 -15.9142)" class="st3 st26" style="font-size:15.9999px;">V</text>
		<text transform="matrix(0.9565 0.2916 0.2916 -0.9565 4.4735 -14.469)" class="st3 st26" style="font-size:16px;">U</text>
		<text transform="matrix(0.9123 0.4094 0.4094 -0.9123 15.5459 -10.9956)" class="st3 st26" style="font-size:15.9999px;">S</text>
	</g>
</symbol>
<symbol  id="vus_x5F_dna_solid" viewBox="-48.7 -24.8 99 47.8">
	
		<use xlink:href="#DNA_solid"  width="99" height="40.1" id="XMLID_13_" x="-49.5" y="-19.4" transform="matrix(1 0 0 1 0.8072 2.2809)" style="overflow:visible;"/>
	<g>
		<path class="st21" d="M22.1,10.5C26,10.7,30,8.9,32.3,5.3c3.5-5.3,2.1-12.4-3.2-16C18.3-17.8,5.8-21.6-9-22.4
			c-6.4-0.3-11.8,4.5-12.1,10.9c-0.3,6.4,4.5,11.8,10.9,12.1c10.6,0.6,19.3,3.2,26.6,8C18.1,9.7,20.1,10.4,22.1,10.5"/>
		<text transform="matrix(0.9916 0.1294 0.1294 -0.9916 -10.5129 -18.2722)" class="st3 st26" style="font-size:21.402px;">V</text>
		<text transform="matrix(0.9565 0.2916 0.2916 -0.9565 3.312 -16.2845)" class="st3 st26" style="font-size:21.4021px;">U</text>
		<text transform="matrix(0.9123 0.4094 0.4094 -0.9123 18.1214 -11.6394)" class="st3 st26" style="font-size:21.4021px;">S</text>
	</g>
</symbol>
<g id="BaseLayer">
	<g id="figure_lineage_path">
		<polyline class="st22" points="857.2,285.6 857.2,304.4 609.4,304.4 609.4,286 		"/>
		<line class="st22" x1="969.8" y1="761.8" x2="969.8" y2="867.2"/>
		<line class="st23" x1="689.3" y1="761.8" x2="689.3" y2="829.3"/>
		<line class="st22" x1="732.1" y1="390" x2="732.1" y2="304.3"/>
		<polyline class="st22" points="872.7,448.2 872.7,390.7 558.9,390.7 558.9,450 		"/>
		<polyline class="st22" points="437.3,831.6 437.3,761.8 1200.2,761.8 1200.2,867.2 		"/>
		<line class="st22" x1="872.1" y1="762.2" x2="872.1" y2="623.6"/>
	</g>
	<g id="figures_outline">
		
			<ellipse transform="matrix(0.2298 -0.9732 0.9732 0.2298 524.7628 942.1066)" class="st11" cx="857.6" cy="139.5" rx="18.1" ry="18.1"/>
		<path class="st11" d="M872.6,250.6l-0.1,22.2c0,4.3-3.5,7.8-7.9,7.8h-15c-3.3,0-5.9-2.6-6-5.9l-0.2-24.1c-13,0.1-17.4-1.9-15-8.6
			c2.4-6.6,9-21.8,9-21.8l-13-0.2v-49.4c0-4.4,3.6-8,8-8h50c4.4,0,8,3.6,8,8v49.6l-12,0c0,0,7.4,17,9,21.6
			C889.2,246.4,885.1,250.7,872.6,250.6z"/>
		<path class="st11" d="M622.6,281.9h-22c-6.6,0-12-5.4-12-12v-48.4l-13-0.2v-45.4c0-6.6,5.4-12,12-12h47c6.6,0,12,5.4,12,12v45.6
			l-12,0v48.4C634.6,276.5,629.2,281.9,622.6,281.9z"/>
		<path class="st11" d="M574.5,474.8c0,10-8.1,18.1-18.1,18.1c-10,0-18.1-8.1-18.1-18.1c0-10,8.1-18.1,18.1-18.1
			C566.4,456.7,574.5,464.8,574.5,474.8z"/>
		<path class="st11" d="M571.5,585.8l-0.1,22.2c0,4.3-3.5,7.8-7.9,7.8h-15c-3.3,0-5.9-2.6-6-5.9l-0.2-24.1c-13,0.1-17.4-1.9-15-8.6
			c2.4-6.6,9-21.8,9-21.8l-13-0.2v-49.4c0-4.4,3.6-8,8-8h50c4.4,0,8,3.6,8,8v49.6l-12,0c0,0,7.4,17,9,21.6
			C588.1,581.6,584,586,571.5,585.8z"/>
		<path class="st11" d="M1218.6,892.7c-0.7,8.9-8.1,15.9-17.1,15.9c-9.3,0-16.9-7.5-17.2-16.8c0,0-0.4,0-0.9-0.2
			c-0.5-0.2-6.4,0.8-2.2,2.3c4.1,1.5,2.8,8.1,1.2,10.6c-1.6,2.5-5,4.1-4.7,2c0.3-2.1-3.3-5.4-4.8-10c-1.6-4.6,3.9-10.6,6.8-9.1
			c1.9,0.9,5,0.1,5,0.1c1.7-7.7,8.6-13.5,16.8-13.5c7.8,0,14.7,5.8,16.8,13c0,0,3.3,1.3,5.2,0.4c2.9-1.4,8.4,4.5,6.8,9.1
			c-1.6,4.6-5.2,7.8-4.8,10c0.3,2.2-3.1,0.5-4.7-2c-1.6-2.5-2.9-9.1,1.2-10.6s-1.7-2.5-2.2-2.3c-0.5,0.2-0.9,0.2-0.9,0.2
			L1218.6,892.7z"/>
		<path class="st11" d="M1213.9,977.5l0,16.4c0,3.2-2.6,5.8-5.8,5.8H1197c-2.4,0-4.4-1.9-4.4-4.3l-0.2-17.9
			c-9.6,0.1-12.8-1.4-11.1-6.3c1.8-4.9,6.6-16.1,6.6-16.1l-9.6-0.2v-36.5c0-3.3,2.7-5.9,6-5.9h37c3.3,0,5.9,2.7,5.9,5.9V955l-8.9,0
			c0,0,5.4,12.6,6.6,16C1226.2,974.3,1223.2,977.6,1213.9,977.5z"/>
		<path class="st11" d="M628.6,140.8c0,10-8.1,18.1-18.1,18.1c-10,0-18.1-8.1-18.1-18.1c0-10,8.1-18.1,18.1-18.1
			C620.5,122.7,628.6,130.8,628.6,140.8z"/>
		<path class="st24" d="M890.6,474.6c0,10-8.1,18.1-18.1,18.1c-10,0-18.1-8.1-18.1-18.1c0-10,8.1-18.1,18.1-18.1
			C882.5,456.5,890.6,464.6,890.6,474.6"/>
		<path class="st24" d="M884.6,615.7h-22c-6.6,0-12-5.4-12-12v-48.4l-13-0.2v-45.4c0-6.6,5.4-12,12-12h47c6.6,0,12,5.4,12,12v45.6
			l-12,0v48.4C896.6,610.3,891.2,615.7,884.6,615.7"/>
		<path class="st11" d="M986.1,891.5c0,9.6-7.7,17.3-17.2,17.3c-9.5,0-17.2-7.8-17.2-17.3c0-9.6,7.7-17.3,17.2-17.3
			C978.4,874.1,986.1,881.9,986.1,891.5z"/>
		<path class="st11" d="M977.1,999.8h-16.3c-4.9,0-8.9-4-8.9-8.9v-35.8l-9.6-0.2v-33.6c0-4.9,4-8.9,8.9-8.9H986c4.9,0,8.9,4,8.9,8.9
			v33.8l-8.9,0V991C986,995.8,982,999.8,977.1,999.8z"/>
		<path class="st11" d="M707.4,858.4c0,10-8.1,18.1-18.1,18.1c-10,0-18.1-8.1-18.1-18.1c0-10,8.1-18.1,18.1-18.1
			C699.3,840.3,707.4,848.4,707.4,858.4z"/>
		<path class="st11" d="M704.4,969.5l-0.1,22.2c0,4.3-3.5,7.8-7.9,7.8h-15c-3.3,0-5.9-2.6-6-5.9l-0.2-24.1c-13,0.1-17.4-1.9-15-8.6
			c2.4-6.6,9-21.8,9-21.8l-13-0.2v-49.4c0-4.4,3.6-8,8-8h50c4.4,0,8,3.6,8,8v49.6l-12,0c0,0,7.4,17,9,21.6
			C721,965.3,716.8,969.6,704.4,969.5z"/>
		<path class="st11" d="M451.3,859.6c0,10-8.1,18.1-18.1,18.1c-10,0-18.1-8.1-18.1-18.1c0-10,8.1-18.1,18.1-18.1
			C443.2,841.6,451.3,849.7,451.3,859.6z"/>
		<path class="st11" d="M445.3,1000.7h-22c-6.6,0-12-5.4-12-12v-48.4l-13-0.2v-45.4c0-6.6,5.4-12,12-12h47c6.6,0,12,5.4,12,12v45.6
			l-12,0v48.4C457.3,995.3,451.9,1000.7,445.3,1000.7z"/>
	</g>
	<g id="btns">
		<g id="btn_reset">
			<text transform="matrix(1 0 0 1 1311.5195 1091.0308)"><tspan x="0" y="0" class="st25 st26 st27">R</tspan><tspan x="12.2" y="0" class="st25 st26 st27">eset</tspan></text>
			<path class="st2" d="M1370.7,1106.3h-72.6c-2.2,0-3.9-1.7-3.9-3.9V1070c0-2.2,1.7-3.9,3.9-3.9h72.6c2.1,0,3.9,1.7,3.9,3.9v32.4
				C1374.6,1104.6,1372.9,1106.3,1370.7,1106.3z"/>
		</g>
		<g id="btn3">
			<path id="btn_bg_1_" class="st25" d="M1400.1,612.6H1300c-2.3,0-4.1-1.8-4.1-4.1v-44.4c0-2.3,1.8-4.1,4.1-4.1h100.1
				c2.3,0,4.1,1.8,4.1,4.1v44.4C1404.2,610.8,1402.3,612.6,1400.1,612.6"/>
			<path id="btn_sheen_1_" class="st3" d="M1383.6,572.5l-69.8-1c0,0-9.6-1.5-9.3,9c0.3,10.5,3.5,0,7.3-3c3.8-3,67.6-1.8,67.6-1.8
				S1386.9,572.6,1383.6,572.5"/>
			
				<use xlink:href="#DNA"  width="98" height="39.1" id="vus_DNA" x="-49" y="-18.9" transform="matrix(1 0 0 -1 1349.505 587.7761)" style="overflow:visible;"/>
		</g>
		<g id="btn2_vus">
			<path id="btn_bg_4_" class="st28" d="M1400.4,550.8l-100.2-0.4c-2.2,0-4-1.8-4-4l0.2-44.5c0-2.2,1.8-4,4-4l100.2,0.4
				c2.2,0,4,1.8,4,4l-0.2,44.5C1404.4,549,1402.6,550.8,1400.4,550.8"/>
			<path id="btn_sheen" class="st3" d="M1379.3,511.2l-69.8-1c0,0-9.6-1.5-9.3,9c0.3,10.5,3.5,0,7.3-3c3.8-3,67.6-1.8,67.6-1.8
				S1382.6,511.2,1379.3,511.2"/>
			
				<use xlink:href="#vus_x5F_dna"  width="16383" height="16383" id="vus_dna" x="-8580.7" y="-8184.1" transform="matrix(1 0 0 -1 1349.8878 526.4631)" style="overflow:visible;"/>
		</g>
		<g id="btn1_hcm">
			<path id="btn_bg_2_" class="st25" d="M1399.7,490.1h-100.4c-2.2,0-3.9-1.7-3.9-3.9v-44.8c0-2.2,1.7-3.9,3.9-3.9h100.4
				c2.2,0,3.9,1.7,3.9,3.9v44.8C1403.6,488.3,1401.9,490.1,1399.7,490.1"/>
			<g id="btn_sheen_2_" class="st29">
				<defs>
					<rect id="SVGID_1_" x="1303.3" y="445.7" class="st29" width="80" height="13.7"/>
				</defs>
				<clipPath id="SVGID_2_">
					<use xlink:href="#SVGID_1_"  style="overflow:visible;"/>
				</clipPath>
				<path class="st30" d="M1382.4,446.8l-69.8-1c0,0-9.6-1.5-9.3,9c0.3,10.5,3.5,0,7.3-3c3.8-3,67.6-1.8,67.6-1.8
					S1385.8,446.8,1382.4,446.8"/>
			</g>
			
				<use xlink:href="#hcm_x5F_dna"  width="98" height="44.9" id="hcm_dna" x="-49.9" y="-21.7" transform="matrix(1 0 0 -1 1349.8878 461.3568)" style="overflow:visible;"/>
		</g>
	</g>
	<g id="instructions">
		<text transform="matrix(1 0 0 1 1129.6384 403.8992)"><tspan x="0" y="0" class="st31 st32">R</tspan><tspan x="12.9" y="0" class="st31 st32">oll</tspan><tspan x="33.5" y="0" class="st31 st32">o</tspan><tspan x="44.1" y="0" class="st31 st32">v</tspan><tspan x="53.1" y="0" class="st31 st32">er ea</tspan><tspan x="98.5" y="0" class="st31 st32">c</tspan><tspan x="108.3" y="0" class="st31 st32">h pe</tspan><tspan x="147.2" y="0" class="st31 st32">r</tspan><tspan x="154.6" y="0" class="st31 st32">son </tspan><tspan x="191.9" y="0" class="st31 st32">f</tspan><tspan x="198" y="0" class="st31 st32">or d</tspan><tspan x="232.6" y="0" class="st31 st32">e</tspan><tspan x="243.3" y="0" class="st31 st32">tails</tspan></text>
		<text transform="matrix(1 0 0 1 1189.4733 421.8963)"><tspan x="0" y="0" class="st31 st32">or </tspan><tspan x="23.3" y="0" class="st31 st32">c</tspan><tspan x="33.1" y="0" class="st31 st32">hoo</tspan><tspan x="66.4" y="0" class="st31 st32">s</tspan><tspan x="76" y="0" class="st31 st32">e an</tspan><tspan x="114.9" y="0" class="st31 st32">o</tspan><tspan x="125.7" y="0" class="st31 st32">ther result</tspan></text>
	</g>
	<g id="primary_panel">
		<g id="panel_types">
			<path class="st25" d="M1117.6,562.7L1117.6,562.7c-0.3,0-0.5-0.2-0.5-0.5l0.1-25.6c0-0.3,0.2-0.5,0.5-0.5h0
				c0.3,0,0.5,0.2,0.5,0.5l-0.1,25.6C1118.1,562.5,1117.9,562.7,1117.6,562.7"/>
			<path class="st25" d="M1264.7,564.2c-0.3,0-0.5-0.2-0.5-0.5v-25.4c0-0.3,0.2-0.5,0.5-0.5c0.3,0,0.5,0.2,0.5,0.5v25.4
				C1265.2,564,1265,564.2,1264.7,564.2"/>
			<path class="st25" d="M1219.6,550.8c-5.7,0-10.2-2.1-10.2-4.8c0-2.7,4.5-4.8,10.2-4.8c5.7,0,10.2,2.1,10.2,4.8
				C1229.8,548.7,1225.3,550.8,1219.6,550.8 M1219.6,542.2c-5.5,0-9.2,2-9.2,3.8c0,1.8,3.7,3.8,9.2,3.8c5.5,0,9.2-2,9.2-3.8
				C1228.8,544.1,1225.1,542.2,1219.6,542.2"/>
			<path class="st25" d="M1235.6,544.1c-5.7,0-10.2-2.1-10.2-4.8c0-2.7,4.5-4.8,10.2-4.8c5.7,0,10.2,2.1,10.2,4.8
				C1245.7,542,1241.3,544.1,1235.6,544.1 M1235.6,535.6c-5.5,0-9.2,2-9.2,3.8c0,1.8,3.7,3.8,9.2,3.8c5.5,0,9.2-2,9.2-3.8
				C1244.8,537.5,1241.1,535.6,1235.6,535.6"/>
			<path class="st25" d="M1186.9,564.1c-5.7,0-10.2-2.1-10.2-4.8c0-2.7,4.5-4.8,10.2-4.8c5.7,0,10.2,2.1,10.2,4.8
				C1197.1,562,1192.6,564.1,1186.9,564.1 M1186.9,555.5c-5.5,0-9.2,2-9.2,3.8c0,1.8,3.7,3.8,9.2,3.8c5.5,0,9.2-2,9.2-3.8
				C1196.1,557.5,1192.4,555.5,1186.9,555.5"/>
			<path class="st25" d="M1202.8,557.5c-5.7,0-10.2-2.1-10.2-4.8c0-2.7,4.5-4.8,10.2-4.8c5.7,0,10.2,2.1,10.2,4.8
				C1213,555.4,1208.5,557.5,1202.8,557.5 M1202.8,548.9c-5.5,0-9.2,2-9.2,3.8c0,1.8,3.7,3.8,9.2,3.8c5.5,0,9.2-2,9.2-3.8
				C1212,550.9,1208.3,548.9,1202.8,548.9"/>
			<path class="st25" d="M1211.3,574c-0.1,0-0.2,0-0.3-0.1c-1-0.7-1.5-1.6-1.5-2.5c0-0.9,0.5-1.8,1.4-2.5c0.2-0.2,0.5-0.1,0.7,0.1
				c0.2,0.2,0.1,0.5-0.1,0.7c-0.5,0.4-1.1,1-1.1,1.7c0,0.8,0.6,1.4,1.1,1.8c0.2,0.2,0.3,0.5,0.1,0.7
				C1211.6,573.9,1211.4,574,1211.3,574"/>
			<path class="st25" d="M1219.6,576.1c-2.1,0-4-0.3-5.7-0.8c-0.3-0.1-0.4-0.3-0.3-0.6c0.1-0.3,0.3-0.4,0.6-0.3
				c1.6,0.5,3.5,0.8,5.4,0.8c5.5,0,9.2-2,9.2-3.8c0-1.8-3.7-3.8-9.2-3.8c-1.6,0-3.2,0.2-4.7,0.5c-0.3,0.1-0.5-0.1-0.6-0.3
				c-0.1-0.3,0.1-0.5,0.3-0.6c1.5-0.4,3.2-0.6,4.9-0.6c5.7,0,10.2,2.1,10.2,4.8C1229.8,574,1225.3,576.1,1219.6,576.1"/>
			<path class="st25" d="M1227.9,567.9c-0.1,0-0.2,0-0.2-0.1c-1.5-0.9-2.3-1.9-2.3-3.1c0-1.2,0.9-2.3,2.5-3.2c0.2-0.1,0.5,0,0.6,0.2
				c0.1,0.2,0,0.5-0.2,0.6c-1.3,0.7-2,1.5-2,2.3c0,0.8,0.6,1.6,1.8,2.2c0.2,0.1,0.3,0.4,0.2,0.7
				C1228.3,567.8,1228.1,567.9,1227.9,567.9"/>
			<path class="st25" d="M1235.6,569.5c-1.6,0-3-0.2-4.4-0.5c-0.3-0.1-0.4-0.3-0.4-0.6c0.1-0.3,0.3-0.4,0.6-0.4
				c1.3,0.3,2.7,0.4,4.2,0.4c5.5,0,9.2-2,9.2-3.8c0-1.8-3.7-3.8-9.2-3.8c-1.6,0-3.2,0.2-4.6,0.5c-0.3,0.1-0.5-0.1-0.6-0.3
				c-0.1-0.3,0.1-0.5,0.4-0.6c1.5-0.4,3.1-0.6,4.8-0.6c5.7,0,10.2,2.1,10.2,4.8C1245.7,567.4,1241.3,569.5,1235.6,569.5"/>
			<path class="st25" d="M1202.8,582.9c-1.7,0-3.4-0.2-4.9-0.6c-0.3-0.1-0.4-0.3-0.3-0.6c0.1-0.3,0.3-0.4,0.6-0.4
				c1.4,0.4,3,0.5,4.6,0.5c5.5,0,9.2-2,9.2-3.8c0-1.8-3.7-3.8-9.2-3.8c-1.6,0-3.2,0.2-4.5,0.5c-0.3,0.1-0.5-0.1-0.6-0.4
				c-0.1-0.3,0.1-0.5,0.4-0.6c1.4-0.4,3.1-0.5,4.8-0.5c5.7,0,10.2,2.1,10.2,4.8C1213,580.8,1208.5,582.9,1202.8,582.9"/>
			<path class="st25" d="M1205.4,543.4c-5.6,0-10-2-10-4.6c0-2.6,4.4-4.6,10-4.6c5.6,0,10,2,10,4.6
				C1215.4,541.4,1211,543.4,1205.4,543.4 M1205.4,535.1c-5.4,0-9,1.9-9,3.7c0,1.8,3.6,3.7,9,3.7c5.4,0,9-1.9,9-3.7
				C1214.4,537,1210.8,535.1,1205.4,535.1"/>
			<path class="st25" d="M1221.2,536.3c-5.2,0-9.2-1.9-9.2-4.3c0-2.4,4-4.3,9.2-4.3c5.2,0,9.2,1.9,9.2,4.3
				C1230.4,534.4,1226.3,536.3,1221.2,536.3 M1221.2,528.6c-5,0-8.3,1.8-8.3,3.4c0,1.6,3.3,3.4,8.3,3.4c5,0,8.3-1.8,8.3-3.4
				C1229.5,530.3,1226.1,528.6,1221.2,528.6"/>
			<path class="st25" d="M1171.7,556.6c-5.6,0-10-2-10-4.6c0-2.6,4.4-4.6,10-4.6c5.6,0,10,2,10,4.6
				C1181.7,554.6,1177.3,556.6,1171.7,556.6 M1171.7,548.3c-5.4,0-9,1.9-9,3.7c0,1.8,3.6,3.7,9,3.7c5.4,0,9-1.9,9-3.7
				C1180.7,550.2,1177.1,548.3,1171.7,548.3"/>
			<path class="st25" d="M1187.3,550.2c-5.6,0-10-2-10-4.6c0-2.6,4.4-4.6,10-4.6c5.6,0,10,2,10,4.6
				C1197.3,548.2,1192.9,550.2,1187.3,550.2 M1187.3,541.9c-5.4,0-9,1.9-9,3.7c0,1.8,3.6,3.7,9,3.7c5.4,0,9-1.9,9-3.7
				C1196.3,543.8,1192.7,541.9,1187.3,541.9"/>
			<path class="st25" d="M1190.7,536.2c-5.5,0-9.7-2-9.7-4.5s4.3-4.5,9.7-4.5c5.4,0,9.7,2,9.7,4.5S1196.1,536.2,1190.7,536.2
				 M1190.7,528.1c-5.2,0-8.8,1.8-8.8,3.6c0,1.7,3.5,3.6,8.8,3.6c5.2,0,8.8-1.8,8.8-3.6C1199.5,530,1195.9,528.1,1190.7,528.1"/>
			<path class="st25" d="M1205.4,530c-5.2,0-9.2-1.8-9.2-4.1c0-2.3,4.1-4.1,9.2-4.1c5.2,0,9.2,1.8,9.2,4.1
				C1214.6,528.2,1210.6,530,1205.4,530 M1205.4,522.6c-5,0-8.3,1.7-8.3,3.3c0,1.6,3.3,3.3,8.3,3.3c5,0,8.3-1.7,8.3-3.3
				C1213.7,524.3,1210.4,522.6,1205.4,522.6"/>
			<path class="st25" d="M1157.6,549.4c-5.5,0-9.7-2-9.7-4.5s4.3-4.5,9.7-4.5c5.4,0,9.7,2,9.7,4.5S1163,549.4,1157.6,549.4
				 M1157.6,541.3c-5.2,0-8.8,1.8-8.8,3.6c0,1.7,3.5,3.6,8.8,3.6c5.2,0,8.8-1.8,8.8-3.6C1166.4,543.1,1162.8,541.3,1157.6,541.3"/>
			<path class="st25" d="M1172.8,543.1c-5.5,0-9.7-2-9.7-4.5s4.3-4.5,9.7-4.5c5.4,0,9.7,2,9.7,4.5S1178.2,543.1,1172.8,543.1
				 M1172.8,535c-5.2,0-8.8,1.8-8.8,3.6c0,1.7,3.5,3.6,8.8,3.6c5.2,0,8.8-1.8,8.8-3.6C1181.6,536.9,1178,535,1172.8,535"/>
			<path class="st25" d="M1176.2,529.7c-5.3,0-9.5-2-9.5-4.5c0-2.5,4.2-4.5,9.5-4.5c5.3,0,9.5,2,9.5,4.5
				C1185.7,527.7,1181.5,529.7,1176.2,529.7 M1176.2,521.7c-5.1,0-8.6,1.8-8.6,3.5s3.4,3.5,8.6,3.5c5.1,0,8.6-1.8,8.6-3.5
				S1181.3,521.7,1176.2,521.7"/>
			<path class="st25" d="M1190.6,523.2c-4.5,0-8-1.6-8-3.5c0-1.7,2.6-3.1,6.2-3.4c0.6-0.1,1.2-0.1,1.8-0.1c4.5,0,8,1.6,8,3.5
				c0,1.9-3.1,3.3-7.2,3.5C1191.1,523.2,1190.8,523.2,1190.6,523.2 M1190.6,516.9c-0.3,0-0.5,0-0.8,0c-3.9,0.2-6.4,1.5-6.4,2.8
				c0,1.3,2.9,2.8,7.2,2.8c0.4,0,0.8,0,1.2,0c3.6-0.2,6-1.5,6-2.7C1197.8,518.3,1194.9,516.9,1190.6,516.9"/>
			<path class="st25" d="M1143.1,543c-5.3,0-9.5-2-9.5-4.5c0-2.5,4.2-4.5,9.5-4.5c5.3,0,9.5,2,9.5,4.5
				C1152.6,541.1,1148.5,543,1143.1,543 M1143.1,535.1c-5.1,0-8.6,1.8-8.6,3.5s3.4,3.5,8.6,3.5c5.1,0,8.6-1.8,8.6-3.5
				S1148.2,535.1,1143.1,535.1"/>
			<path class="st25" d="M1178.5,580.6c-0.2,0-0.4-0.1-0.4-0.3c-0.1-0.2,0-0.5,0.2-0.6c1.5-0.7,2.4-1.6,2.4-2.5c0-0.9-1-1.9-2.7-2.6
				c-0.2-0.1-0.4-0.4-0.3-0.6c0.1-0.2,0.4-0.4,0.6-0.3c2.1,0.9,3.3,2.1,3.3,3.5c0,1.3-1.1,2.5-3,3.3
				C1178.6,580.6,1178.6,580.6,1178.5,580.6"/>
			<path class="st25" d="M1171.7,581.9c-5.6,0-10-2-10-4.6c0-2.6,4.4-4.6,10-4.6c1.4,0,2.8,0.1,4.1,0.4c0.3,0.1,0.4,0.3,0.4,0.6
				c-0.1,0.3-0.3,0.4-0.6,0.4c-1.2-0.3-2.6-0.4-3.9-0.4c-5.4,0-9,1.9-9,3.7c0,1.8,3.6,3.7,9,3.7c1.2,0,2.4-0.1,3.5-0.3
				c0.3,0,0.5,0.1,0.6,0.4s-0.1,0.5-0.4,0.6C1174.2,581.8,1173,581.9,1171.7,581.9"/>
			<path class="st25" d="M1157.6,574.6c-5.5,0-9.7-2-9.7-4.5s4.3-4.5,9.7-4.5c1.2,0,2.4,0.1,3.5,0.3c0.3,0,0.4,0.3,0.4,0.6
				c0,0.3-0.3,0.4-0.6,0.4c-1.1-0.2-2.2-0.3-3.4-0.3c-5.2,0-8.8,1.8-8.8,3.6c0,1.7,3.5,3.6,8.8,3.6c1,0,2.1-0.1,3-0.2
				c0.3,0,0.5,0.1,0.5,0.4c0,0.3-0.1,0.5-0.4,0.6C1159.8,574.5,1158.7,574.6,1157.6,574.6"/>
			<path class="st25" d="M1163.9,573.5c-0.2,0-0.4-0.1-0.4-0.3c-0.1-0.2,0-0.5,0.3-0.6c1.7-0.7,2.7-1.6,2.7-2.5c0-1-1.2-2-3.2-2.7
				c-0.3-0.1-0.4-0.4-0.3-0.6c0.1-0.3,0.4-0.4,0.6-0.3c2.5,0.8,3.9,2.2,3.9,3.6c0,1.3-1.2,2.6-3.2,3.4
				C1164,573.5,1164,573.5,1163.9,573.5"/>
			<path class="st25" d="M1149.5,567.1c-0.2,0-0.4-0.1-0.4-0.3c-0.1-0.2,0-0.5,0.2-0.6c1.5-0.7,2.4-1.5,2.4-2.4
				c0-0.8-0.9-1.7-2.4-2.4c-0.2-0.1-0.4-0.4-0.2-0.6c0.1-0.2,0.4-0.4,0.6-0.2c1.9,0.8,2.9,2,2.9,3.3c0,1.3-1,2.4-3,3.3
				C1149.6,567.1,1149.6,567.1,1149.5,567.1"/>
			<path class="st25" d="M1143.1,568.3c-5.3,0-9.5-2-9.5-4.5c0-2.5,4.2-4.5,9.5-4.5c1.4,0,2.8,0.1,4.1,0.4c0.3,0.1,0.4,0.3,0.4,0.6
				c-0.1,0.3-0.3,0.4-0.6,0.4c-1.2-0.3-2.5-0.4-3.9-0.4c-5.1,0-8.6,1.8-8.6,3.5c0,1.7,3.4,3.5,8.6,3.5c1.2,0,2.3-0.1,3.4-0.3
				c0.3,0,0.5,0.1,0.6,0.4c0,0.3-0.1,0.5-0.4,0.6C1145.6,568.2,1144.4,568.3,1143.1,568.3"/>
			<path class="st25" d="M1159,536.5c-5.3,0-9.5-2-9.5-4.5c0-2.5,4.2-4.5,9.5-4.5c5.3,0,9.5,2,9.5,4.5
				C1168.5,534.6,1164.3,536.5,1159,536.5 M1159,528.6c-5.1,0-8.6,1.8-8.6,3.5c0,1.7,3.4,3.5,8.6,3.5c5.1,0,8.6-1.8,8.6-3.5
				C1167.5,530.4,1164.1,528.6,1159,528.6"/>
			<path class="st25" d="M1181.4,570.9l-0.2-0.1l-64-34.3l72-26.4l0.2,0.1l76,27.8L1181.4,570.9z M1119.5,536.6l61.9,33.2l81.2-31.8
				l-73.5-26.9L1119.5,536.6z"/>
			<path class="st25" d="M1181.1,573.5L1181.1,573.5l-63.5-34.1l0.4-0.1l70.8-25.9l0.1,0l75.3,27.6l-0.4,0.2L1181.1,573.5z
				 M1118.5,539.5l62.6,33.6l82-32.2l-74.3-27.2L1118.5,539.5z"/>
			<path class="st25" d="M1136.3,556.3c-0.2,0-0.4-0.1-0.5-0.3c-0.1-0.2,0-0.5,0.3-0.6l5.6-2.1c0.2-0.1,0.5,0,0.6,0.3
				c0.1,0.2,0,0.5-0.3,0.6l-5.6,2.1C1136.4,556.3,1136.4,556.3,1136.3,556.3"/>
			<path class="st25" d="M1181.3,596.8l-0.2-0.1l-64-34.3l15.2-5.6c0.2-0.1,0.5,0,0.6,0.3c0.1,0.2,0,0.5-0.3,0.6l-13.2,4.8
				l61.9,33.2l81.2-31.8l-14.9-5.5c-0.2-0.1-0.4-0.4-0.3-0.6c0.1-0.2,0.4-0.4,0.6-0.3l17.3,6.3L1181.3,596.8z"/>
			<path class="st25" d="M1243.6,556.9c-0.1,0-0.1,0-0.2,0l-8.2-3c-0.2-0.1-0.4-0.4-0.3-0.6c0.1-0.3,0.4-0.4,0.6-0.3l8.2,3
				c0.2,0.1,0.4,0.4,0.3,0.6C1244,556.8,1243.8,556.9,1243.6,556.9"/>
			<path class="st25" d="M1245.5,565.5c-0.1,0-0.2-0.1-0.2-0.2V550c0-0.1,0.1-0.2,0.2-0.2c0.1,0,0.2,0.1,0.2,0.2v15.3
				C1245.7,565.4,1245.6,565.5,1245.5,565.5"/>
			<path class="st25" d="M1245.5,543.3c-0.1,0-0.2-0.1-0.2-0.2v-3.8c0-0.1,0.1-0.2,0.2-0.2c0.1,0,0.2,0.1,0.2,0.2v3.8
				C1245.7,543.2,1245.6,543.3,1245.5,543.3"/>
			<path class="st25" d="M1225.8,564.2c-0.1,0-0.2-0.1-0.2-0.1v-6.4c0-0.1,0.1-0.1,0.2-0.1c0.1,0,0.2,0.1,0.2,0.1v6.4
				C1226.1,564.1,1226,564.2,1225.8,564.2"/>
			<path class="st25" d="M1229.6,571.4c-0.1,0-0.2-0.1-0.2-0.2v-14.3c0-0.1,0.1-0.2,0.2-0.2c0.1,0,0.2,0.1,0.2,0.2v14.3
				C1229.8,571.3,1229.7,571.4,1229.6,571.4"/>
			<path class="st25" d="M1229.6,549.8c-0.1,0-0.2-0.1-0.2-0.2v-3.9c0-0.1,0.1-0.2,0.2-0.2c0.1,0,0.2,0.1,0.2,0.2v3.9
				C1229.8,549.7,1229.7,549.8,1229.6,549.8"/>
			<path class="st25" d="M1209.9,571.6c-0.1,0-0.2-0.1-0.2-0.2v-7.9c0-0.1,0.1-0.2,0.2-0.2c0.1,0,0.2,0.1,0.2,0.2v7.9
				C1210.2,571.5,1210.1,571.6,1209.9,571.6"/>
			<path class="st25" d="M1212.6,578.4c-0.1,0-0.2-0.1-0.2-0.2v-15.3c0-0.1,0.1-0.2,0.2-0.2c0.1,0,0.2,0.1,0.2,0.2v15.3
				C1212.9,578.3,1212.8,578.4,1212.6,578.4"/>
			<path class="st25" d="M1212.6,556.8c-0.1,0-0.2-0.1-0.2-0.2v-4c0-0.1,0.1-0.2,0.2-0.2c0.1,0,0.2,0.1,0.2,0.2v4
				C1212.9,556.7,1212.8,556.8,1212.6,556.8"/>
			<path class="st25" d="M1193,578.4c-0.1,0-0.2-0.1-0.2-0.2V570c0-0.1,0.1-0.2,0.2-0.2c0.1,0,0.2,0.1,0.2,0.2v8.1
				C1193.3,578.3,1193.2,578.4,1193,578.4"/>
			<path class="st25" d="M1196.7,585.5c-0.1,0-0.2-0.1-0.2-0.2v-16.6c0-0.1,0.1-0.2,0.2-0.2c0.1,0,0.2,0.1,0.2,0.2v16.6
				C1197,585.4,1196.9,585.5,1196.7,585.5"/>
			<path class="st25" d="M1196.7,563.1c-0.1,0-0.2-0.1-0.2-0.2v-3.8c0-0.1,0.1-0.2,0.2-0.2c0.1,0,0.2,0.1,0.2,0.2v3.8
				C1197,563,1196.9,563.1,1196.7,563.1"/>
			<path class="st25" d="M1177.1,585.7c-0.1,0-0.2-0.1-0.2-0.2v-13.2c0-0.1,0.1-0.2,0.2-0.2c0.1,0,0.2,0.1,0.2,0.2v13.2
				C1177.4,585.6,1177.2,585.7,1177.1,585.7"/>
			<path class="st25" d="M1177.1,565.7c-0.1,0-0.2-0.1-0.2-0.2v-6.1c0-0.1,0.1-0.2,0.2-0.2c0.1,0,0.2,0.1,0.2,0.2v6.1
				C1177.4,565.5,1177.2,565.7,1177.1,565.7"/>
			<path class="st25" d="M1181.2,578c-0.1,0-0.2-0.1-0.2-0.2v-3.8c0-0.1,0.1-0.2,0.2-0.2c0.1,0,0.2,0.1,0.2,0.2v3.8
				C1181.4,577.9,1181.3,578,1181.2,578"/>
			<path class="st25" d="M1181.2,568.5c-0.1,0-0.2-0.1-0.2-0.2V565c0-0.1,0.1-0.2,0.2-0.2c0.1,0,0.2,0.1,0.2,0.2v3.2
				C1181.4,568.4,1181.3,568.5,1181.2,568.5"/>
			<path class="st25" d="M1162.3,578.1c-0.1,0-0.2-0.1-0.2-0.2v-13.1c0-0.1,0.1-0.2,0.2-0.2c0.1,0,0.2,0.1,0.2,0.2v13.1
				C1162.5,578,1162.4,578.1,1162.3,578.1"/>
			<path class="st25" d="M1162.3,557.8c-0.1,0-0.2-0.1-0.2-0.2V552c0-0.1,0.1-0.2,0.2-0.2c0.1,0,0.2,0.1,0.2,0.2v5.5
				C1162.5,557.7,1162.4,557.8,1162.3,557.8"/>
			<path class="st25" d="M1167,570.9c-0.1,0-0.2,0-0.2-0.1v-4.1c0,0,0.1-0.1,0.2-0.1c0.1,0,0.2,0,0.2,0.1v4.1
				C1167.2,570.9,1167.1,570.9,1167,570.9"/>
			<path class="st25" d="M1167,561c-0.1,0-0.2,0-0.2-0.1v-3.7c0,0,0.1-0.1,0.2-0.1c0.1,0,0.2,0,0.2,0.1v3.7
				C1167.2,561,1167.1,561,1167,561"/>
			<path class="st25" d="M1148.4,570.9c-0.1,0-0.2-0.1-0.2-0.2v-13.2c0-0.1,0.1-0.2,0.2-0.2c0.1,0,0.2,0.1,0.2,0.2v13.2
				C1148.6,570.8,1148.5,570.9,1148.4,570.9"/>
			<path class="st25" d="M1148.4,550.8c-0.1,0-0.2-0.1-0.2-0.2v-5.3c0-0.1,0.1-0.2,0.2-0.2c0.1,0,0.2,0.1,0.2,0.2v5.3
				C1148.6,550.7,1148.5,550.8,1148.4,550.8"/>
			<path class="st25" d="M1152.2,563.8c-0.1,0-0.2-0.1-0.2-0.1v-4.3c0-0.1,0.1-0.1,0.2-0.1c0.1,0,0.2,0.1,0.2,0.1v4.3
				C1152.5,563.8,1152.4,563.8,1152.2,563.8"/>
			<path class="st25" d="M1152.2,552.7c-0.1,0-0.2-0.1-0.2-0.2v-2.7c0-0.1,0.1-0.2,0.2-0.2c0.1,0,0.2,0.1,0.2,0.2v2.7
				C1152.5,552.6,1152.4,552.7,1152.2,552.7"/>
			<path class="st25" d="M1134.2,565c-0.1,0-0.2-0.1-0.2-0.2v-13.8c0-0.1,0.1-0.2,0.2-0.2c0.1,0,0.2,0.1,0.2,0.2v13.8
				C1134.4,564.9,1134.3,565,1134.2,565"/>
			<path class="st25" d="M1134.2,543.3c-0.1,0-0.2-0.1-0.2-0.2v-4.4c0-0.1,0.1-0.2,0.2-0.2c0.1,0,0.2,0.1,0.2,0.2v4.4
				C1134.4,543.2,1134.3,543.3,1134.2,543.3"/>
			<path class="st3" d="M1209,430.4c-0.4,1.3-0.8,2.4-1.2,3.5c-2,5-0.8,5.8-0.8,5.8l0.1,0l0,0.1c0.5,2.4-8.6,22.8-9.4,24.5l0.4,0.7
				l0,0.1l-22.8,62.9c0.4,0.1,1.5,0.2,2.3,0.2c1,0,2.2-0.4,2.5-0.5l28.5-58.1l0.8-0.1c0.7-1.9,8.3-23.2,11.7-24.1
				c0.3-0.1,0.5,0,0.7,0.1c0.2,0.2,0.2,0.4,0.2,0.5c0.5,2.4-8.6,22.5-9.3,24.2l0.4,0.7l0,0.1l-23,63.7c0.4,0,1.2,0.1,2.4,0
				c1.4-0.1,2.2-0.4,2.4-0.5l28.7-58.8l0.8-0.1c0.7-2,8.2-24,11.7-24.3l0,0l0.6,0.2l0,0.1c0.5,2.5-8.8,22.7-9.7,24.4l0.5,0.7
				l-23.8,65.3c0.4,0,1.4,0.1,2.3,0.1c1,0,2.4-0.3,2.7-0.3l29.5-60.4l0.8-0.1c0.7-1.9,8.5-23.7,11.9-24.6c0.3-0.1,0.5,0,0.7,0.1
				c0.3,0.2,0.3,0.5,0.3,0.5c0.5,2.5-8.9,22.9-9.7,24.7l0.5,0.7l0,0.1l-24.5,67.4c1.4,0.2,4.1,0,4.6-0.1l30.7-62.7l0.8-0.1
				c1-3,8.4-25,12-24.6c0,0,0,0,0,0c1.2,0,8.4-10.1,9.6-18.4"/>
			<path class="st33" d="M1209,430.4c-0.4,1.3-0.8,2.4-1.2,3.5c-2,5-0.8,5.8-0.8,5.8l0.1,0l0,0.1c0.5,2.4-8.6,22.8-9.4,24.5l0.4,0.7
				l0,0.1l-22.8,62.9c0.4,0.1,1.5,0.2,2.3,0.2c1,0,2.2-0.4,2.5-0.5l28.5-58.1l0.8-0.1c0.7-1.9,8.3-23.2,11.7-24.1
				c0.3-0.1,0.5,0,0.7,0.1c0.2,0.2,0.2,0.4,0.2,0.5c0.5,2.4-8.6,22.5-9.3,24.2l0.4,0.7l0,0.1l-23,63.7c0.4,0,1.2,0.1,2.4,0
				c1.4-0.1,2.2-0.4,2.4-0.5l28.7-58.8l0.8-0.1c0.7-2,8.2-24,11.7-24.3l0,0l0.6,0.2l0,0.1c0.5,2.5-8.8,22.7-9.7,24.4l0.5,0.7
				l-23.8,65.3c0.4,0,1.4,0.1,2.3,0.1c1,0,2.4-0.3,2.7-0.3l29.5-60.4l0.8-0.1c0.7-1.9,8.5-23.7,11.9-24.6c0.3-0.1,0.5,0,0.7,0.1
				c0.3,0.2,0.3,0.5,0.3,0.5c0.5,2.5-8.9,22.9-9.7,24.7l0.5,0.7l0,0.1l-24.5,67.4c1.4,0.2,4.1,0,4.6-0.1l30.7-62.7l0.8-0.1
				c1-3,8.4-25,12-24.6c0,0,0,0,0,0c1.2,0,8.4-10.1,9.6-18.4"/>
			<line class="st25" x1="1222.2" y1="551.8" x2="1221.5" y2="553.3"/>
			<path class="st25" d="M1221.5,553.4C1221.5,553.4,1221.4,553.4,1221.5,553.4c-0.2-0.1-0.2-0.2-0.2-0.3l0.7-1.5
				c0-0.1,0.2-0.1,0.2-0.1c0.1,0,0.1,0.2,0.1,0.2l-0.7,1.5C1221.6,553.4,1221.6,553.4,1221.5,553.4"/>
			<line class="st25" x1="1216.5" y1="555" x2="1217.6" y2="551.9"/>
			<path class="st25" d="M1216.5,555.2C1216.5,555.2,1216.5,555.2,1216.5,555.2c-0.2,0-0.2-0.1-0.2-0.2l1.1-3c0-0.1,0.1-0.1,0.2-0.1
				c0.1,0,0.1,0.1,0.1,0.2l-1.1,3C1216.7,555.1,1216.6,555.2,1216.5,555.2"/>
			<path class="st25" d="M1216.4,562.2c-0.3,0-0.6-0.1-1-0.2c-0.3-0.1-0.5-0.3-0.6-0.6c0-0.1,0-0.2,0.1-0.2c0.1,0,0.2,0,0.2,0.1
				c0.1,0.2,0.3,0.3,0.5,0.4c1.2,0.5,2-0.2,2.1-0.3l0.4-0.8c0-0.1,0.2-0.1,0.2-0.1c0.1,0,0.1,0.2,0.1,0.2l-0.4,0.9
				C1217.9,561.5,1217.3,562.2,1216.4,562.2"/>
			<path class="st25" d="M1238.4,481.8c0,0-0.1,0-0.1,0c-4.9-4.1-10.9-4.7-10.9-4.7c-0.1,0-0.2-0.1-0.2-0.2c0-0.1,0.1-0.2,0.2-0.2
				c0.1,0,6.2,0.7,11.1,4.8c0.1,0.1,0.1,0.2,0,0.3C1238.5,481.7,1238.4,481.8,1238.4,481.8"/>
			<path class="st0" d="M1238.4,481.8c0,0-0.1,0-0.1,0c-4.9-4.1-10.9-4.7-10.9-4.7c-0.1,0-0.2-0.1-0.2-0.2c0-0.1,0.1-0.2,0.2-0.2
				c0.1,0,6.2,0.7,11.1,4.8c0.1,0.1,0.1,0.2,0,0.3C1238.5,481.7,1238.4,481.8,1238.4,481.8z"/>
			<path class="st25" d="M1239.1,481.7c-0.1,0-0.1,0-0.1-0.1c-1.7-2-4.5-3.3-5.6-3.8c-3.2-1.3-6.4-1.6-6.4-1.6
				c-0.1,0-0.2-0.1-0.2-0.2c0-0.1,0.1-0.2,0.2-0.2c0,0,3.4,0.2,6.6,1.6c1.2,0.5,4,1.9,5.7,3.9c0.1,0.1,0.1,0.2,0,0.3
				C1239.2,481.6,1239.2,481.7,1239.1,481.7"/>
			<path class="st0" d="M1239.1,481.7c-0.1,0-0.1,0-0.1-0.1c-1.7-2-4.5-3.3-5.6-3.8c-3.2-1.3-6.4-1.6-6.4-1.6
				c-0.1,0-0.2-0.1-0.2-0.2c0-0.1,0.1-0.2,0.2-0.2c0,0,3.4,0.2,6.6,1.6c1.2,0.5,4,1.9,5.7,3.9c0.1,0.1,0.1,0.2,0,0.3
				C1239.2,481.6,1239.2,481.7,1239.1,481.7z"/>
			<path class="st25" d="M1234.2,490.1c-0.1,0-0.1,0-0.1-0.1c-1.5-1.8-3-2.5-4.7-3.2c-3.1-1.3-5.3-0.9-5.3-0.9c-0.1,0-0.2,0-0.2-0.1
				c0-0.1,0-0.2,0.1-0.2c0.1,0,2.3-0.5,5.6,0.9c1.7,0.7,3.3,1.5,4.8,3.3c0.1,0.1,0.1,0.2,0,0.3
				C1234.3,490.1,1234.3,490.1,1234.2,490.1"/>
			<path class="st0" d="M1234.2,490.1c-0.1,0-0.1,0-0.1-0.1c-1.5-1.8-3-2.5-4.7-3.2c-3.1-1.3-5.3-0.9-5.3-0.9c-0.1,0-0.2,0-0.2-0.1
				c0-0.1,0-0.2,0.1-0.2c0.1,0,2.3-0.5,5.6,0.9c1.7,0.7,3.3,1.5,4.8,3.3c0.1,0.1,0.1,0.2,0,0.3
				C1234.3,490.1,1234.3,490.1,1234.2,490.1z"/>
			<path class="st25" d="M1240.4,478.5c-0.1,0-0.1,0-0.1-0.1c-1.7-2-4.5-3.3-5.6-3.8c-3.2-1.3-6.4-1.6-6.4-1.6
				c-0.1,0-0.2-0.1-0.2-0.2c0-0.1,0.1-0.2,0.2-0.2c0,0,3.4,0.2,6.6,1.6c1.2,0.5,4,1.9,5.7,3.9c0.1,0.1,0.1,0.2,0,0.3
				C1240.5,478.5,1240.4,478.5,1240.4,478.5"/>
			<path class="st0" d="M1240.4,478.5c-0.1,0-0.1,0-0.1-0.1c-1.7-2-4.5-3.3-5.6-3.8c-3.2-1.3-6.4-1.6-6.4-1.6
				c-0.1,0-0.2-0.1-0.2-0.2c0-0.1,0.1-0.2,0.2-0.2c0,0,3.4,0.2,6.6,1.6c1.2,0.5,4,1.9,5.7,3.9c0.1,0.1,0.1,0.2,0,0.3
				C1240.5,478.5,1240.4,478.5,1240.4,478.5z"/>
			<path class="st3" d="M1253.7,487.6c0,0-0.1,0-0.1,0c-4.9-4.1-10.9-4.7-10.9-4.7c-0.1,0-0.2-0.1-0.2-0.2c0-0.1,0.1-0.2,0.2-0.2
				c0.1,0,6.2,0.7,11.1,4.8c0.1,0.1,0.1,0.2,0,0.3C1253.8,487.6,1253.7,487.6,1253.7,487.6"/>
			<path class="st0" d="M1253.7,487.6c0,0-0.1,0-0.1,0c-4.9-4.1-10.9-4.7-10.9-4.7c-0.1,0-0.2-0.1-0.2-0.2c0-0.1,0.1-0.2,0.2-0.2
				c0.1,0,6.2,0.7,11.1,4.8c0.1,0.1,0.1,0.2,0,0.3C1253.8,487.6,1253.7,487.6,1253.7,487.6z"/>
			<path class="st3" d="M1254.4,487.5c-0.1,0-0.1,0-0.1-0.1c-1.7-2-4.5-3.3-5.6-3.8c-3.2-1.4-6.4-1.6-6.4-1.6
				c-0.1,0-0.2-0.1-0.2-0.2c0-0.1,0.1-0.2,0.2-0.2c0,0,3.4,0.2,6.6,1.6c1.2,0.5,4,1.9,5.7,3.9c0.1,0.1,0.1,0.2,0,0.3
				C1254.5,487.5,1254.5,487.5,1254.4,487.5"/>
			<path class="st0" d="M1254.4,487.5c-0.1,0-0.1,0-0.1-0.1c-1.7-2-4.5-3.3-5.6-3.8c-3.2-1.4-6.4-1.6-6.4-1.6
				c-0.1,0-0.2-0.1-0.2-0.2c0-0.1,0.1-0.2,0.2-0.2c0,0,3.4,0.2,6.6,1.6c1.2,0.5,4,1.9,5.7,3.9c0.1,0.1,0.1,0.2,0,0.3
				C1254.5,487.5,1254.5,487.5,1254.4,487.5z"/>
			<path class="st3" d="M1249.5,496c-0.1,0-0.1,0-0.1-0.1c-1.5-1.8-3-2.5-4.7-3.2c-3.1-1.3-5.3-0.9-5.3-0.9c-0.1,0-0.2,0-0.2-0.1
				c0-0.1,0-0.2,0.1-0.2c0.1,0,2.3-0.5,5.6,0.9c1.7,0.7,3.3,1.5,4.8,3.3c0.1,0.1,0.1,0.2,0,0.3C1249.6,496,1249.6,496,1249.5,496"/>
			<path class="st0" d="M1249.5,496c-0.1,0-0.1,0-0.1-0.1c-1.5-1.8-3-2.5-4.7-3.2c-3.1-1.3-5.3-0.9-5.3-0.9c-0.1,0-0.2,0-0.2-0.1
				c0-0.1,0-0.2,0.1-0.2c0.1,0,2.3-0.5,5.6,0.9c1.7,0.7,3.3,1.5,4.8,3.3c0.1,0.1,0.1,0.2,0,0.3C1249.6,496,1249.6,496,1249.5,496z"
				/>
			<path class="st3" d="M1255.7,484.4c-0.1,0-0.1,0-0.1-0.1c-1.7-2-4.5-3.3-5.6-3.8c-3.2-1.4-6.4-1.6-6.4-1.6
				c-0.1,0-0.2-0.1-0.2-0.2c0-0.1,0.1-0.2,0.2-0.2c0,0,3.4,0.2,6.6,1.6c1.2,0.5,4,1.9,5.7,3.9c0.1,0.1,0.1,0.2,0,0.3
				C1255.8,484.3,1255.8,484.4,1255.7,484.4"/>
			<path class="st0" d="M1255.7,484.4c-0.1,0-0.1,0-0.1-0.1c-1.7-2-4.5-3.3-5.6-3.8c-3.2-1.4-6.4-1.6-6.4-1.6
				c-0.1,0-0.2-0.1-0.2-0.2c0-0.1,0.1-0.2,0.2-0.2c0,0,3.4,0.2,6.6,1.6c1.2,0.5,4,1.9,5.7,3.9c0.1,0.1,0.1,0.2,0,0.3
				C1255.8,484.3,1255.8,484.4,1255.7,484.4z"/>
			<path class="st25" d="M1208.7,470.3c0,0-0.1,0-0.1,0c-4.8-4-10.6-4.6-10.7-4.6c-0.1,0-0.2-0.1-0.2-0.2c0-0.1,0.1-0.2,0.2-0.2
				c0.1,0,6,0.7,10.9,4.7c0.1,0.1,0.1,0.2,0,0.3C1208.8,470.2,1208.7,470.3,1208.7,470.3"/>
			<path class="st0" d="M1208.7,470.3c0,0-0.1,0-0.1,0c-4.8-4-10.6-4.6-10.7-4.6c-0.1,0-0.2-0.1-0.2-0.2c0-0.1,0.1-0.2,0.2-0.2
				c0.1,0,6,0.7,10.9,4.7c0.1,0.1,0.1,0.2,0,0.3C1208.8,470.2,1208.7,470.3,1208.7,470.3z"/>
			<path class="st25" d="M1209.4,470.2c-0.1,0-0.1,0-0.1-0.1c-1.6-1.9-4.4-3.2-5.5-3.7c-3.1-1.3-6.3-1.5-6.3-1.5
				c-0.1,0-0.2-0.1-0.2-0.2c0-0.1,0.1-0.2,0.2-0.2c0,0,3.3,0.2,6.4,1.6c1.1,0.5,3.9,1.8,5.6,3.8c0.1,0.1,0.1,0.2,0,0.3
				C1209.5,470.2,1209.5,470.2,1209.4,470.2"/>
			<path class="st0" d="M1209.4,470.2c-0.1,0-0.1,0-0.1-0.1c-1.6-1.9-4.4-3.2-5.5-3.7c-3.1-1.3-6.3-1.5-6.3-1.5
				c-0.1,0-0.2-0.1-0.2-0.2c0-0.1,0.1-0.2,0.2-0.2c0,0,3.3,0.2,6.4,1.6c1.1,0.5,3.9,1.8,5.6,3.8c0.1,0.1,0.1,0.2,0,0.3
				C1209.5,470.2,1209.5,470.2,1209.4,470.2z"/>
			<path class="st25" d="M1204.6,478.5c-0.1,0-0.1,0-0.1-0.1c-1.4-1.7-2.9-2.4-4.6-3.1c-3.1-1.3-5.2-0.9-5.2-0.9
				c-0.1,0-0.2,0-0.2-0.1c0-0.1,0-0.2,0.1-0.2c0.1,0,2.3-0.4,5.4,0.9c1.6,0.7,3.2,1.5,4.7,3.2c0.1,0.1,0.1,0.2,0,0.3
				C1204.7,478.4,1204.7,478.5,1204.6,478.5"/>
			<path class="st0" d="M1204.6,478.5c-0.1,0-0.1,0-0.1-0.1c-1.4-1.7-2.9-2.4-4.6-3.1c-3.1-1.3-5.2-0.9-5.2-0.9
				c-0.1,0-0.2,0-0.2-0.1c0-0.1,0-0.2,0.1-0.2c0.1,0,2.3-0.4,5.4,0.9c1.6,0.7,3.2,1.5,4.7,3.2c0.1,0.1,0.1,0.2,0,0.3
				C1204.7,478.4,1204.7,478.5,1204.6,478.5z"/>
			<path class="st25" d="M1210.7,467.1c-0.1,0-0.1,0-0.1-0.1c-1.6-1.9-4.4-3.2-5.5-3.7c-3.1-1.3-6.3-1.5-6.3-1.5
				c-0.1,0-0.2-0.1-0.2-0.2c0-0.1,0.1-0.2,0.2-0.2c0,0,3.3,0.2,6.4,1.6c1.1,0.5,3.9,1.8,5.6,3.8c0.1,0.1,0.1,0.2,0,0.3
				C1210.8,467,1210.7,467.1,1210.7,467.1"/>
			<path class="st0" d="M1210.7,467.1c-0.1,0-0.1,0-0.1-0.1c-1.6-1.9-4.4-3.2-5.5-3.7c-3.1-1.3-6.3-1.5-6.3-1.5
				c-0.1,0-0.2-0.1-0.2-0.2c0-0.1,0.1-0.2,0.2-0.2c0,0,3.3,0.2,6.4,1.6c1.1,0.5,3.9,1.8,5.6,3.8c0.1,0.1,0.1,0.2,0,0.3
				C1210.8,467,1210.7,467.1,1210.7,467.1z"/>
			<path class="st25" d="M1223.7,476c0,0-0.1,0-0.1,0c-4.8-4-10.6-4.6-10.7-4.6c-0.1,0-0.2-0.1-0.2-0.2c0-0.1,0.1-0.2,0.2-0.2
				c0.1,0,6.1,0.7,10.9,4.7c0.1,0.1,0.1,0.2,0,0.3C1223.8,476,1223.7,476,1223.7,476"/>
			<path class="st0" d="M1223.7,476c0,0-0.1,0-0.1,0c-4.8-4-10.6-4.6-10.7-4.6c-0.1,0-0.2-0.1-0.2-0.2c0-0.1,0.1-0.2,0.2-0.2
				c0.1,0,6.1,0.7,10.9,4.7c0.1,0.1,0.1,0.2,0,0.3C1223.8,476,1223.7,476,1223.7,476z"/>
			<path class="st25" d="M1224.4,475.9c-0.1,0-0.1,0-0.1-0.1c-1.6-1.9-4.4-3.2-5.5-3.7c-3.1-1.3-6.3-1.5-6.3-1.5
				c-0.1,0-0.2-0.1-0.2-0.2c0-0.1,0.1-0.2,0.2-0.2c0,0,3.3,0.2,6.4,1.6c1.1,0.5,3.9,1.8,5.6,3.8c0.1,0.1,0.1,0.2,0,0.3
				C1224.5,475.9,1224.5,475.9,1224.4,475.9"/>
			<path class="st0" d="M1224.4,475.9c-0.1,0-0.1,0-0.1-0.1c-1.6-1.9-4.4-3.2-5.5-3.7c-3.1-1.3-6.3-1.5-6.3-1.5
				c-0.1,0-0.2-0.1-0.2-0.2c0-0.1,0.1-0.2,0.2-0.2c0,0,3.3,0.2,6.4,1.6c1.1,0.5,3.9,1.8,5.6,3.8c0.1,0.1,0.1,0.2,0,0.3
				C1224.5,475.9,1224.5,475.9,1224.4,475.9z"/>
			<path class="st25" d="M1219.6,484.2c-0.1,0-0.1,0-0.1-0.1c-1.4-1.7-2.9-2.4-4.6-3.1c-3.1-1.3-5.2-0.9-5.2-0.9
				c-0.1,0-0.2,0-0.2-0.1c0-0.1,0-0.2,0.1-0.2c0.1,0,2.3-0.4,5.4,0.9c1.6,0.7,3.2,1.5,4.7,3.2c0.1,0.1,0.1,0.2,0,0.3
				C1219.7,484.2,1219.7,484.2,1219.6,484.2"/>
			<path class="st0" d="M1219.6,484.2c-0.1,0-0.1,0-0.1-0.1c-1.4-1.7-2.9-2.4-4.6-3.1c-3.1-1.3-5.2-0.9-5.2-0.9
				c-0.1,0-0.2,0-0.2-0.1c0-0.1,0-0.2,0.1-0.2c0.1,0,2.3-0.4,5.4,0.9c1.6,0.7,3.2,1.5,4.7,3.2c0.1,0.1,0.1,0.2,0,0.3
				C1219.7,484.2,1219.7,484.2,1219.6,484.2z"/>
			<path class="st25" d="M1225.7,472.8c-0.1,0-0.1,0-0.1-0.1c-1.6-1.9-4.4-3.2-5.5-3.7c-3.1-1.3-6.3-1.5-6.3-1.5
				c-0.1,0-0.2-0.1-0.2-0.2c0-0.1,0.1-0.2,0.2-0.2c0,0,3.3,0.2,6.4,1.6c1.1,0.5,3.9,1.8,5.6,3.8c0.1,0.1,0.1,0.2,0,0.3
				C1225.8,472.8,1225.7,472.8,1225.7,472.8"/>
			<path class="st0" d="M1225.7,472.8c-0.1,0-0.1,0-0.1-0.1c-1.6-1.9-4.4-3.2-5.5-3.7c-3.1-1.3-6.3-1.5-6.3-1.5
				c-0.1,0-0.2-0.1-0.2-0.2c0-0.1,0.1-0.2,0.2-0.2c0,0,3.3,0.2,6.4,1.6c1.1,0.5,3.9,1.8,5.6,3.8c0.1,0.1,0.1,0.2,0,0.3
				C1225.8,472.8,1225.7,472.8,1225.7,472.8z"/>
			<path class="st3" d="M1124.5,456.9c0.5-7.1,6.2-2.6,17.4-3.1c11.2-0.5,60.9,1.1,71.6,1.1c10.7,0,31.9-2.9,31.8,1.6
				c-0.3,8.7,0.3,16.2-5.9,15.5c-13.8-1.5-118.5,3.6-117.5-1C1126,451.1,1124.6,456.5,1124.5,456.9"/>
			<text transform="matrix(1 0 0 1 1128.3026 467.9547)"><tspan x="0" y="0" class="st25 st26 st27">Prima</tspan><tspan x="49" y="0" class="st25 st26 st27">r</tspan><tspan x="56" y="0" class="st25 st26 st27">y panel</tspan></text>
		</g>
		<g id="illustration_and_title">
			<text transform="matrix(1 0 0 1 1132.5702 616.5275)" class="st25 st34 st35">MYH7, MYBPC3, </text>
			<text transform="matrix(1 0 0 1 1132.5702 630.5275)" class="st25 st34 st35">TNNI3, TNNT2, </text>
			<text transform="matrix(1 0 0 1 1132.5702 644.5275)"><tspan x="0" y="0" class="st25 st34 st35">TPM</tspan><tspan x="26" y="0" class="st25 st34 st35">1</tspan><tspan x="34.1" y="0" class="st25 st34 st35">, MYL2, </tspan></text>
			<text transform="matrix(1 0 0 1 1132.5702 658.5275)"><tspan x="0" y="0" class="st25 st34 st35">MYL3, and </tspan><tspan x="66.6" y="0" class="st25 st34 st35">A</tspan><tspan x="73.7" y="0" class="st25 st34 st35">C</tspan><tspan x="81.8" y="0" class="st25 st34 st35">T</tspan><tspan x="88.3" y="0" class="st25 st34 st35">C1</tspan></text>
			<rect x="1126.2" y="600.3" class="st36" width="122.2" height="68.3"/>
			<path class="st25" d="M1195.1,581.2c-0.1,0-0.2,0-0.2-0.1c-1.4-0.8-2.2-1.9-2.2-3c0-1.2,0.9-2.4,2.7-3.3c0.2-0.1,0.5,0,0.6,0.2
				c0.1,0.2,0,0.5-0.2,0.6c-1.4,0.7-2.1,1.5-2.1,2.4c0,0.8,0.6,1.5,1.7,2.2c0.2,0.1,0.3,0.4,0.2,0.7
				C1195.4,581.1,1195.3,581.2,1195.1,581.2"/>
			<path class="st25" d="M1186.9,589.5c-5.7,0-10.2-2.1-10.2-4.8c0-2.7,4.5-4.8,10.2-4.8c5.7,0,10.2,2.1,10.2,4.8
				C1197.1,587.4,1192.6,589.5,1186.9,589.5 M1186.9,580.9c-5.5,0-9.2,2-9.2,3.8c0,1.8,3.7,3.8,9.2,3.8c5.5,0,9.2-2,9.2-3.8
				C1196.1,582.9,1192.4,580.9,1186.9,580.9"/>
		</g>
	</g>
	<g id="B2">
		
			<use xlink:href="#pretest_x5F_genetic_x5F_counceling"  width="274.7" height="276" id="XMLID_1_" x="-137.3" y="-138" transform="matrix(1 0 0 -1 957.3239 537.0453)" style="overflow:visible;"/>
		
			<use xlink:href="#_x32__x5F_diagnostics"  width="150.4" height="139.8" id="_2_diagnostics" x="-61.4" y="-50.6" transform="matrix(1 0 0 -1 957.4744 536.5878)" style="overflow:visible;"/>
		<g id="figure_6_">
			<path id="fig_head_1_" class="st28" d="M890.6,474.6c0,10-8.1,18.1-18.1,18.1c-10,0-18.1-8.1-18.1-18.1c0-10,8.1-18.1,18.1-18.1
				C882.5,456.5,890.6,464.6,890.6,474.6"/>
			<path id="fig_body" class="st28" d="M884.6,615.7h-22c-6.6,0-12-5.4-12-12v-48.4l-13-0.2v-45.4c0-6.6,5.4-12,12-12h47
				c6.6,0,12,5.4,12,12v45.6l-12,0v48.4C896.6,610.3,891.2,615.7,884.6,615.7"/>
		</g>
		
			<use xlink:href="#heart1_x5F_closed"  width="61.2" height="84.1" id="heart1_closed" x="-30.6" y="-42.1" transform="matrix(1 0 0 -1 885.0764 535.2042)" style="overflow:visible;"/>
		
			<use xlink:href="#_x31_-2_x5F_years_x5F_or_x5F_sooner"  width="222.2" height="222.2" id="_1-2_years_or_sooner" x="-111.1" y="-111.3" transform="matrix(1 0 0 -1 957.3239 536.4852)" style="overflow:visible;"/>
	</g>
</g>
<g id="Layer2_x5F_vus">
	<g id="fig_C4_1_">
		<path id="head_10_" class="st25" d="M1218.6,892.7c-0.7,8.9-8.1,15.9-17.1,15.9c-9.3,0-16.9-7.5-17.2-16.8c0,0-0.4,0-0.9-0.2
			c-0.5-0.2-6.4,0.8-2.2,2.3c4.1,1.5,2.8,8.1,1.2,10.6c-1.6,2.5-5,4.1-4.7,2c0.3-2.1-3.3-5.4-4.8-10c-1.6-4.6,3.9-10.6,6.8-9.1
			c1.9,0.9,5,0.1,5,0.1c1.7-7.7,8.6-13.5,16.8-13.5c7.8,0,14.7,5.8,16.8,13c0,0,3.3,1.3,5.2,0.4c2.9-1.4,8.4,4.5,6.8,9.1
			c-1.6,4.6-5.2,7.8-4.8,10c0.3,2.2-3.1,0.5-4.7-2c-1.6-2.5-2.9-9.1,1.2-10.6s-1.7-2.5-2.2-2.3c-0.5,0.2-0.9,0.2-0.9,0.2
			L1218.6,892.7z"/>
		<path id="body_10_" class="st25" d="M1213.9,977.5l0,16.4c0,3.2-2.6,5.8-5.8,5.8H1197c-2.4,0-4.4-1.9-4.4-4.3l-0.2-17.9
			c-9.6,0.1-12.8-1.4-11.1-6.3c1.8-4.9,6.6-16.1,6.6-16.1l-9.6-0.2v-36.5c0-3.3,2.7-5.9,6-5.9h37c3.3,0,5.9,2.7,5.9,5.9V955l-8.9,0
			c0,0,5.4,12.6,6.6,16C1226.2,974.3,1223.2,977.6,1213.9,977.5"/>
	</g>
	<g id="fig_C3_1_">
		<path id="head_9_" class="st25" d="M986.1,891.5c0,9.6-7.7,17.3-17.2,17.3c-9.5,0-17.2-7.8-17.2-17.3c0-9.6,7.7-17.3,17.2-17.3
			C978.4,874.1,986.1,881.9,986.1,891.5"/>
		<path id="body_9_" class="st25" d="M977.1,999.8h-16.3c-4.9,0-8.9-4-8.9-8.9v-35.8l-9.6-0.2v-33.6c0-4.9,4-8.9,8.9-8.9H986
			c4.9,0,8.9,4,8.9,8.9v33.8l-8.9,0V991C986,995.8,982,999.8,977.1,999.8"/>
	</g>
	<g id="fig_C2_1_">
		<path id="head_8_" class="st25" d="M707.4,858.4c0,10-8.1,18.1-18.1,18.1c-10,0-18.1-8.1-18.1-18.1c0-10,8.1-18.1,18.1-18.1
			C699.3,840.3,707.4,848.4,707.4,858.4"/>
		<path id="body_8_" class="st25" d="M704.4,969.5l-0.1,22.2c0,4.3-3.5,7.8-7.9,7.8h-15c-3.3,0-5.9-2.6-6-5.9l-0.2-24.1
			c-13,0.1-17.4-1.9-15-8.6c2.4-6.6,9-21.8,9-21.8l-13-0.2v-49.4c0-4.4,3.6-8,8-8h50c4.4,0,8,3.6,8,8v49.6l-12,0c0,0,7.4,17,9,21.6
			C721,965.3,716.8,969.6,704.4,969.5"/>
	</g>
	<g id="fig_C1_1_">
		<path id="head_7_" class="st25" d="M451.3,859.6c0,10-8.1,18.1-18.1,18.1c-10,0-18.1-8.1-18.1-18.1c0-10,8.1-18.1,18.1-18.1
			C443.2,841.6,451.3,849.7,451.3,859.6"/>
		<path id="body_7_" class="st25" d="M445.3,1000.7h-22c-6.6,0-12-5.4-12-12v-48.4l-13-0.2v-45.4c0-6.6,5.4-12,12-12h47
			c6.6,0,12,5.4,12,12v45.6l-12,0v48.4C457.3,995.3,451.9,1000.7,445.3,1000.7"/>
	</g>
	<g id="fig_B1_1_">
		<path id="head_6_" class="st25" d="M574.5,474.8c0,10-8.1,18.1-18.1,18.1c-10,0-18.1-8.1-18.1-18.1c0-10,8.1-18.1,18.1-18.1
			C566.4,456.7,574.5,464.8,574.5,474.8"/>
		<path id="body_6_" class="st25" d="M571.5,585.8l-0.1,22.2c0,4.3-3.5,7.8-7.9,7.8h-15c-3.3,0-5.9-2.6-6-5.9l-0.2-24.1
			c-13,0.1-17.4-1.9-15-8.6c2.4-6.6,9-21.8,9-21.8l-13-0.2v-49.4c0-4.4,3.6-8,8-8h50c4.4,0,8,3.6,8,8v49.6l-12,0c0,0,7.4,17,9,21.6
			C588.1,581.6,584,586,571.5,585.8"/>
	</g>
	<g id="fig_A2_1_">
		<path class="st25" d="M875.6,139.5c0,10-8.1,18.1-18.1,18.1c-10,0-18.1-8.1-18.1-18.1c0-10,8.1-18.1,18.1-18.1
			C867.6,121.5,875.6,129.5,875.6,139.5"/>
		<path class="st25" d="M872.6,250.6l-0.1,22.2c0,4.3-3.5,7.8-7.9,7.8h-15c-3.3,0-5.9-2.6-6-5.9l-0.2-24.1c-13,0.1-17.4-1.9-15-8.6
			c2.4-6.6,9-21.8,9-21.8l-13-0.2v-49.4c0-4.4,3.6-8,8-8h50c4.4,0,8,3.6,8,8v49.6l-12,0c0,0,7.4,17,9,21.6
			C889.2,246.4,885.1,250.7,872.6,250.6"/>
	</g>
	<g id="fig_A1_1_">
		<path class="st25" d="M628.6,140.8c0,10-8.1,18.1-18.1,18.1c-10,0-18.1-8.1-18.1-18.1c0-10,8.1-18.1,18.1-18.1
			C620.5,122.7,628.6,130.8,628.6,140.8"/>
		<path class="st25" d="M622.6,281.9h-22c-6.6,0-12-5.4-12-12v-48.4l-13-0.2v-45.4c0-6.6,5.4-12,12-12h47c6.6,0,12,5.4,12,12v45.6
			l-12,0v48.4C634.6,276.5,629.2,281.9,622.6,281.9"/>
	</g>
	<g id="C4">
		
			<use xlink:href="#heart1_x5F_closed"  width="61.2" height="84.1" id="heart1_closed_3_" x="-30.6" y="-42.1" transform="matrix(0.7644 0 0 -0.7644 1212.4745 940.3887)" style="overflow:visible;"/>
		<g id="_x32__diagnostics_8_">
			
				<use xlink:href="#_x32__x5F_diagnostics"  width="150.4" height="139.8" id="XMLID_3_" x="-61.4" y="-50.6" transform="matrix(1 0 0 -1 1280.2997 922.2333)" style="overflow:visible;"/>
		</g>
	</g>
	<g id="C3">
		<g id="hair_1_">
			<path class="st25" d="M961.6,875.5c0,0,5.9,15.6,24.8,14.8"/>
			<path class="st25" d="M961.6,875.5c0,0,5.9,15.6,24.8,14.8"/>
			<path class="st37" d="M961.6,875.5c0,0,5.9,15.6,24.8,14.8"/>
		</g>
		
			<use xlink:href="#heart2"  width="61.2" height="84.1" x="-30.6" y="-42.1" transform="matrix(0.7447 0 0 -0.7447 976.0482 940.9034)" style="overflow:visible;"/>
		
			<use xlink:href="#_x32__x5F_diagnostics"  width="150.4" height="139.8" id="_x32__diagnostics_7_" x="-61.4" y="-50.6" transform="matrix(1 0 0 -1 1040.4399 922.2333)" style="overflow:visible;"/>
	</g>
	<g id="C2">
		
			<use xlink:href="#heart2"  width="61.2" height="84.1" x="-30.6" y="-42.1" transform="matrix(1 0 0 -1 700.4059 921.1527)" style="overflow:visible;"/>
		
			<use xlink:href="#_x32__x5F_diagnostics"  width="150.4" height="139.8" id="_x32__diagnostics_6_" x="-61.4" y="-50.6" transform="matrix(1 0 0 -1 766.5854 922.3759)" style="overflow:visible;"/>
	</g>
	<g id="C1">
		
			<use xlink:href="#heart1_x5F_closed"  width="61.2" height="84.1" id="heart1_closed_2_" x="-30.6" y="-42.1" transform="matrix(1 0 0 -1 446.2574 921.2225)" style="overflow:visible;"/>
		
			<use xlink:href="#_x32__x5F_diagnostics"  width="150.4" height="139.8" id="_x32__diagnostics_5_" x="-61.4" y="-50.6" transform="matrix(1 0 0 -1 508.3507 922.2333)" style="display:none;overflow:visible;"/>
	</g>
	<g id="B2_2_">
		
			<use xlink:href="#vus_x5F_dna_solid"  width="99" height="47.8" id="vus_dna_solid" x="-48.7" y="-24.8" transform="matrix(0.6507 0 0 -0.6591 952.1095 534.2554)" style="overflow:visible;"/>
	</g>
	<g id="B1">
		
			<use xlink:href="#heart2"  width="61.2" height="84.1" x="-30.6" y="-42.1" transform="matrix(1 0 0 -1 568.1805 535.0577)" style="overflow:visible;"/>
		
			<use xlink:href="#_x32__x5F_diagnostics"  width="150.4" height="139.8" id="_x32__diagnostics_4_" x="-61.4" y="-50.6" transform="matrix(1 0 0 -1 639.0235 530.7151)" style="overflow:visible;"/>
	</g>
	<g id="A2">
		
			<use xlink:href="#_x32__x5F_diagnostics"  width="150.4" height="139.8" id="_x32__diagnostics_3_" x="-61.4" y="-50.6" transform="matrix(1 0 0 -1 951.0799 188.0813)" style="overflow:visible;"/>
		
			<use xlink:href="#heart1_x5F_closed"  width="61.2" height="84.1" id="heart1_closed_1_" x="-30.6" y="-42.1" transform="matrix(1 0 0 -1 869.4048 200.8742)" style="overflow:visible;"/>
	</g>
	<g id="A1">
		
			<use xlink:href="#_x32__x5F_diagnostics"  width="150.4" height="139.8" id="XMLID_15_" x="-61.4" y="-50.6" transform="matrix(1 0 0 -1 694.8413 186.6104)" style="overflow:visible;"/>
		
			<use xlink:href="#heart2"  width="61.2" height="84.1" x="-30.6" y="-42.1" transform="matrix(1 0 0 -1 621.0298 202.5548)" style="overflow:visible;"/>
	</g>
	<g id="post-Test_Box_1_">
		<path id="rounded_rect_1_" class="st38" d="M1341.2,725.1H895.4c-62.9,0-114.3-51.4-114.3-114.3V465
			c0-62.9,51.4-114.3,114.3-114.3h445.7c62.9,0,114.3,51.4,114.3,114.3v145.8C1455.5,673.6,1404.1,725.1,1341.2,725.1z"/>
		<g id="text_1_">
			<text transform="matrix(1 3.920000e-03 -3.920000e-03 1 901.2695 356.7159)" class="st3 st26 st27">P</text>
			<text transform="matrix(1 2.790000e-03 -2.790000e-03 1 912.5169 356.6988)" class="st3 st26 st27">o</text>
			<text transform="matrix(1 1.890000e-03 -1.890000e-03 1 922.6589 356.707)" class="st3 st26 st27">s</text>
			<text transform="matrix(1 1.190000e-03 -1.190000e-03 1 931.756 356.7622)" class="st3 st26 st27">t</text>
			<text transform="matrix(1 7.300000e-04 -7.300000e-04 1 938.399 356.7892)" class="st3 st26 st27">-</text>
			<text transform="matrix(1 2.700000e-04 -2.700000e-04 1 943.3471 356.7311)" class="st3 st26 st27">t</text>
			<text transform="matrix(1 -3.300000e-04 3.300000e-04 1 949.9363 356.7346)" class="st3 st26 st27">e</text>
			<text transform="matrix(1 -9.700000e-04 9.700000e-04 1 960.0491 356.7933)" class="st3 st26 st27">s</text>
			<text transform="matrix(1 -1.480000e-03 1.480000e-03 1 969.2385 356.75)" class="st3 st26 st27">t</text>
			<text transform="matrix(1 -1.830000e-03 1.830000e-03 1 975.9111 356.7668)" class="st3 st26 st27"> </text>
			<text transform="matrix(1 -2.260000e-03 2.260000e-03 1 980.6432 356.78)" class="st3 st26 st27">g</text>
			<text transform="matrix(1 -2.820000e-03 2.820000e-03 1 991.188 356.75)" class="st3 st26 st27">e</text>
			<text transform="matrix(1 -3.340000e-03 3.340000e-03 1 1001.3403 356.7415)" class="st3 st26 st27">n</text>
			<text transform="matrix(1 -3.830000e-03 3.830000e-03 1 1011.7943 356.7165)" class="st3 st26 st27">e</text>
			<text transform="matrix(1 -4.220000e-03 4.220000e-03 1 1022.0039 356.6425)" class="st3 st26 st27">t</text>
			<text transform="matrix(1 -4.480000e-03 4.480000e-03 1 1028.6787 356.6485)" class="st3 st26 st27">i</text>
			<text transform="matrix(1 -4.790001e-03 4.790001e-03 1 1033.6727 356.6873)" class="st3 st26 st27">c</text>
			<text transform="matrix(1 -5.100000e-03 5.100000e-03 1 1043.4412 356.612)" class="st3 st26 st27"> </text>
			<text transform="matrix(1 -5.380000e-03 5.380000e-03 1 1048.1792 356.6349)" class="st3 st26 st27">c</text>
			<text transform="matrix(1 -5.780000e-03 5.780000e-03 1 1057.8795 356.4781)" class="st3 st26 st27">o</text>
			<text transform="matrix(1 -6.170000e-03 6.170000e-03 1 1068.0826 356.4316)" class="st3 st26 st39">u</text>
			<text transform="matrix(1 -6.550000e-03 6.550000e-03 1 1078.3647 356.4232)" class="st3 st26 st27">n</text>
			<text transform="matrix(1 -6.910000e-03 6.910000e-03 1 1088.8547 356.3131)" class="st3 st26 st27">s</text>
			<text transform="matrix(1 -7.240000e-03 7.240000e-03 1 1097.7238 356.2476)" class="st3 st26 st27">e</text>
			<text transform="matrix(1 -7.520000e-03 7.520000e-03 1 1107.9154 356.1803)" class="st3 st26 st27">l</text>
			<text transform="matrix(1 -7.710000e-03 7.710000e-03 1 1113.0232 356.105)" class="st3 st26 st39">i</text>
			<text transform="matrix(1 -7.980000e-03 7.980000e-03 1 1118.0052 356.1598)" class="st3 st26 st27">n</text>
			<text transform="matrix(1 -8.370001e-03 8.370001e-03 1 1128.3717 356.0177)" class="st3 st26 st27">g</text>
		</g>
	</g>
	<g id="revealCircle_2_">
		
			<use xlink:href="#_x31_-2_x5F_years_or_2-3_years"  width="222.2" height="222.1" id="_x31_-2_years_or_2-3_years" x="-111.1" y="-111.3" transform="matrix(1 0 0 -1 1040.2816 922.0302)" style="overflow:visible;"/>
		
			<use xlink:href="#_x33_-5_years"  width="222.2" height="222.1" x="-111.1" y="-111.3" transform="matrix(1 0 0 -1 766.4848 922.4497)" style="overflow:visible;"/>
		
			<use xlink:href="#_x31_-2_x5F_years_x5F_or_x5F_sooner"  width="222.2" height="222.2" id="_x31_-2_years_or_sooner_2_" x="-111.1" y="-111.3" transform="matrix(1 0 0 -1 1280.1492 922.1306)" style="overflow:visible;"/>
		
			<use xlink:href="#_x31_-2_x5F_years_x5F_or_x5F_sooner"  width="222.2" height="222.2" id="_x31_-2_years_or_sooner_1_" x="-111.1" y="-111.3" transform="matrix(1 0 0 -1 508.2002 922.1306)" style="overflow:visible;"/>
		
			<use xlink:href="#_x33_-5_years"  width="222.2" height="222.1" x="-111.1" y="-111.3" transform="matrix(1 0 0 -1 638.9229 530.7889)" style="overflow:visible;"/>
		
			<use xlink:href="#_x33_-5_years"  width="222.2" height="222.1" x="-111.1" y="-111.3" transform="matrix(1 0 0 -1 950.9792 188.1552)" style="overflow:visible;"/>
		
			<use xlink:href="#_x31_-2_x5F_years_x5F_or_x5F_sooner"  width="222.2" height="222.2" id="_x31_-2_years_or_sooner" x="-111.1" y="-111.3" transform="matrix(1 0 0 -1 694.6908 186.5077)" style="overflow:visible;"/>
		<g id="revealCircle_1_">
			<path class="st28" d="M1237.6,242.3c0,77.8,63.1,140.9,140.9,140.9c44.7,0,84.6-20.8,110.4-53.3c0.3-0.4-30.4,20.5-95,5.7
				c-20.4-4.7-27.1-16.5-27.1-16.5l-12.5,9.6c0,0-1.4-11.7-1.6-20.1c-0.2-9,0.4-20.6,0.4-20.6s13.9-0.2,23.2,1
				c11.1,1.4,21.9,6.4,21.7,6.3c-0.2,0-14.3,10.9-14.1,10.7c0.4-0.5,16.8,11.9,42.5,16.4c28.5,4.9,66.7,1.9,67.1,1.3
				c16.3-23,25.9-51.1,25.9-81.5c0-10-1-19.8-3-29.2c-0.2,0.2-8.9,6.5-9,6.4c-7.9-80.2-67.1-118.1-128.9-118.1
				C1300.7,101.4,1237.6,164.5,1237.6,242.3"/>
			<text transform="matrix(1 0 0 1 1281.793 160.6895)"><tspan x="0" y="0" class="st3 st26 st27">R</tspan><tspan x="12.2" y="0" class="st3 st26 st27">e</tspan><tspan x="22.3" y="0" class="st3 st26 st27">e</tspan><tspan x="32.3" y="0" class="st3 st26 st27">v</tspan><tspan x="40.6" y="0" class="st3 st26 st27">aluation of genetic </tspan></text>
			<text transform="matrix(1 0 0 1 1320.4014 181.6846)"><tspan x="0" y="0" class="st3 st26 st27">t</tspan><tspan x="6.6" y="0" class="st3 st26 st27">e</tspan><tspan x="16.8" y="0" class="st3 st26 st27">s</tspan><tspan x="25.9" y="0" class="st3 st26 st27">ting results</tspan></text>
			<text transform="matrix(1 0 0 1 1265.2432 217.689)"><tspan x="0" y="0" class="st3 st26 st40">e</tspan><tspan x="18.4" y="0" class="st3 st26 st40">v</tspan><tspan x="33.8" y="0" class="st3 st26 st40">e</tspan><tspan x="52.5" y="0" class="st3 st26 st40">r</tspan><tspan x="65.4" y="0" class="st3 st26 st40">y 2-3 </tspan><tspan x="148.5" y="0" class="st3 st26 st40">y</tspan><tspan x="163.7" y="0" class="st3 st26 st40">ea</tspan><tspan x="201.4" y="0" class="st3 st26 st40">r</tspan><tspan x="213.8" y="0" class="st3 st26 st40">s </tspan></text>
			<text transform="matrix(1 0 0 1 1279.4463 238.689)"><tspan x="0" y="0" class="st3 st26 st27">in case </tspan><tspan x="64.1" y="0" class="st3 st26 st27">v</tspan><tspan x="72.4" y="0" class="st3 st26 st27">ariant has been </tspan></text>
			<text transform="matrix(1 0 0 1 1266.3936 259.6841)"><tspan x="0" y="0" class="st3 st26 st27">reclassified or n</tspan><tspan x="133" y="0" class="st3 st26 st27">e</tspan><tspan x="143" y="0" class="st3 st26 st27">w </tspan><tspan x="161.5" y="0" class="st3 st26 st27">v</tspan><tspan x="169.8" y="0" class="st3 st26 st27">ariants </tspan></text>
			<text transform="matrix(1 0 0 1 1290.9033 280.6787)"><tspan x="0" y="0" class="st3 st26 st27">h</tspan><tspan x="10.3" y="0" class="st3 st26 st27">a</tspan><tspan x="20.5" y="0" class="st3 st26 st27">v</tspan><tspan x="28.8" y="0" class="st3 st26 st27">e been disc</tspan><tspan x="123.6" y="0" class="st3 st26 st27">o</tspan><tspan x="133.6" y="0" class="st3 st26 st27">v</tspan><tspan x="141.9" y="0" class="st3 st26 st27">ered</tspan></text>
		</g>
	</g>
</g>
</svg>
